<?xml version="1.0" encoding="utf-8"?>
<!-- Generator: Adobe Illustrator 23.1.1, SVG Export Plug-In . SVG Version: 6.00 Build 0)  -->
<svg version="1.1" id="Calque_1" xmlns="http://www.w3.org/2000/svg" xmlns:xlink="http://www.w3.org/1999/xlink" x="0px" y="0px"
	 viewBox="0 0 315 399" style="enable-background:new 0 0 315 399;" xml:space="preserve">
<style type="text/css">
	.st0{fill:#38383B;}
	.st1{fill:#FFFFFF;}
</style>
<title>BD</title>
<g>
	<path d="M0,0v115.8c28.3-18.3,61.3-28.1,95-28c96.6,0,175,78.4,175,175c0,52.9-23.9,103-65.2,136.2H315V0H0z"/>
	<path class="st0" d="M270,262.8c0-96.7-78.3-175-175-175c-33.7-0.1-66.7,9.7-95,28v81c26.7-22,64.4-35.7,106.2-35.7
		c80.9,0,146.5,51.4,146.5,114.8s-65.6,114.8-146.5,114.8c-19.1,0-38-2.9-56.2-8.8L1.5,399h203.3C246.1,365.8,270,315.7,270,262.8z"
		/>
	<path class="st0" d="M126.5,333.2h31.8c35.6,0,60.3-24.8,60.3-56.7v-0.3c0-31.9-24.7-56.4-60.3-56.4h-31.8
		c-6.8,0-12.4,5.5-12.5,12.3c0,0.1,0,0.1,0,0.2v88.5c0,6.8,5.5,12.4,12.3,12.5C126.4,333.2,126.5,333.2,126.5,333.2z M139,242.2
		h19.3c20.4,0,34.2,14.1,34.2,34.2v0.3c0,20.1-13.8,33.9-34.2,33.9H139V242.2z"/>
	<path class="st0" d="M102,302v-0.3c0-15.2-8.1-22.9-21.2-27.9c8.1-4.5,14.9-11.7,14.9-24.5V249c0.2-7.2-2.6-14.2-7.8-19.3
		c-6.5-6.5-16.7-10.1-29.6-10.1H18c-6.8-0.1-12.4,5.5-12.5,12.3c0,0.1,0,0.1,0,0.2v88.5c0,6.8,5.5,12.4,12.3,12.5c0.1,0,0.1,0,0.2,0
		h41.5C85.2,333.2,102,322.8,102,302z M29.9,241.6h24.6c10.5,0,16.4,4.2,16.4,11.7v0.3c0,8.4-7,12-18,12h-23L29.9,241.6z
		 M29.9,286.3h28.8c12.8,0,18.5,4.7,18.5,12.3v0.3c0,8.4-6.6,12.3-17.7,12.3H29.9V286.3z"/>
	<path d="M77.2,299v-0.3c0-7.6-5.7-12.3-18.5-12.3H29.9v25h29.6C70.6,311.3,77.2,307.4,77.2,299z"/>
	<path d="M192.5,276.8v-0.3c0-20.1-13.8-34.2-34.2-34.2H139v68.4h19.3C178.7,310.6,192.5,296.9,192.5,276.8z"/>
	<path d="M70.9,253.6v-0.3c0-7.4-5.8-11.7-16.4-11.7H29.9v24h23C63.9,265.6,70.9,262,70.9,253.6z"/>
	<path d="M106.2,390.7c80.9,0,146.5-51.4,146.5-114.8s-65.6-114.8-146.5-114.8c-41.8,0-79.5,13.7-106.2,35.7V399h1.5L50,381.9
		C68.1,387.7,87.1,390.7,106.2,390.7z M114,232.2c-0.1-6.8,5.4-12.4,12.3-12.5c0.1,0,0.1,0,0.2,0h31.8c35.6,0,60.3,24.5,60.3,56.4
		v0.3c0,31.9-24.7,56.7-60.3,56.7h-31.8c-6.8,0-12.4-5.5-12.5-12.3c0-0.1,0-0.1,0-0.2L114,232.2z M5.6,320.7v-88.5
		c0-6.8,5.5-12.4,12.3-12.5c0.1,0,0.1,0,0.2,0h40.2c13,0,23.1,3.6,29.6,10.1c5.2,5.1,8,12,7.8,19.3v0.3c0,12.8-6.8,19.9-14.9,24.5
		c13.1,5,21.2,12.6,21.2,27.9v0.3c0,20.7-16.8,31.1-42.5,31.1H18c-6.8,0-12.4-5.5-12.5-12.3C5.6,320.8,5.6,320.7,5.6,320.7z"/>
	<path class="st1" d="M61.7,192.6h-5.5c-1.4,1.4-3.2,2.4-4.7,3.7h-5l-4.7,3.6h-5.1l-4.6,3.6h-5l-4.7,3.7h-5v-1.8h4.2
		c0.8-0.6,1.5-1.2,2.3-1.9h-6.5v-1.9h14l2.2-1.8H17.6v-1.9h23.5c0.6-0.7,1.7-1.1,2.2-1.8H17.6v-1.9h33.3c0.7-0.7,1.4-1,2.2-1.8H17.6
		v-2h44.1V192.6z"/>
	<path class="st1" d="M61.7,196.4h-4.2c-0.7,0.6-1.5,1.1-2.2,1.8h6.4v1.9H47.8l-2.2,1.8h16.1v1.9H38.1c-0.8,0.7-1.5,1.1-2.2,1.9
		h25.8v1.9H28.4l-2.2,1.8h35.5v1.9H17.5v-1.8H23l4.7-3.6h5c1.7-1.3,3.1-2.4,4.8-3.7c1.7,0,3.6,0,5.1-0.1l4.4-3.5h5.1l4.6-3.7h4.9
		L61.7,196.4z"/>
</g>
<g id="Calque_5">
	<path class="st1" d="M83.7,206.1c0,2.8-2.2,5.1-5,5.1c-2.4,0-5.2-1.2-5.2-5.2v-12.1c-0.1-2.7,2.1-5,4.8-5.1c0.1,0,0.2,0,0.4,0
		c2.8,0,5,2.2,5.1,4.9c0,0.1,0,0.2,0,0.3v1.2h-3.2v-1.1c0.1-1.1-0.7-2.2-1.8-2.3c0,0-0.1,0-0.1,0c-1.6,0-1.9,1.1-1.9,2.6v11.3
		c0,1.3,0.5,2.3,1.9,2.3c1.1,0,2-0.9,2-2c0-0.1,0-0.2,0-0.2v-1.1h3.2L83.7,206.1z"/>
	<path class="st1" d="M89,200.1c0-1.2,0.6-1.8,1.6-1.8s1.6,0.6,1.6,1.8v1.8H89V200.1z M95.3,204.4V200c0.2-2.5-1.7-4.7-4.3-4.9
		c-0.1,0-0.3,0-0.4,0c-1.7-0.1-3.3,0.8-4.1,2.3c-0.4,1-0.6,2.1-0.6,3.2v5.2c-0.1,1.1,0.1,2.2,0.6,3.2c0.8,1.5,2.4,2.3,4.1,2.3
		c1.3,0,2.5-0.5,3.5-1.4c0.8-0.9,1.3-2.1,1.3-3.4h-3.2c-0.1,0.7-0.3,1.6-1.6,1.6c-0.8,0.1-1.5-0.5-1.5-1.3c0-0.1,0-0.2,0-0.3v-2.1
		H95.3z"/>
	<path class="st1" d="M97.7,195.3h3.2v1.5h0.1c0.6-1.1,1.8-1.7,3-1.7c1.6,0,3.2,1,3.2,3.8v12H104v-10.8c0-1.1-0.6-1.9-1.6-1.9
		c-1.2,0-1.6,0.8-1.6,2.2V211h-3.1V195.3z"/>
	<path class="st1" d="M110.5,190.5h3.2v4.8h2v2.5h-2v8.7c0,1.4,0.6,1.6,2,1.6v3h-1.3c-1.9,0.2-3.6-1.3-3.8-3.2c0-0.2,0-0.3,0-0.5
		v-9.5H109v-2.5h1.6L110.5,190.5z"/>
	<path class="st1" d="M117.8,195.3h3.2v1.7c1.1-1.2,2.6-1.8,4.2-1.9v3.4c-0.3-0.1-0.7-0.2-1-0.2c-1.7,0-3.2,1.4-3.2,3.1
		c0,0.1,0,0.2,0,0.3v9.3h-3.2L117.8,195.3z"/>
	<path class="st1" d="M129.2,200.1c0-1.2,0.6-1.8,1.6-1.8s1.6,0.6,1.6,1.8v1.8h-3.1V200.1z M135.5,204.4V200
		c0.2-2.5-1.7-4.7-4.3-4.9c-0.1,0-0.3,0-0.4,0c-1.7-0.1-3.3,0.8-4.1,2.3c-0.4,1-0.6,2.1-0.6,3.2v5.2c-0.1,1.1,0.1,2.2,0.6,3.2
		c0.8,1.5,2.4,2.3,4.1,2.3c1.3,0,2.5-0.5,3.4-1.4c0.8-0.9,1.3-2.1,1.3-3.4h-3.2c-0.1,0.7-0.3,1.6-1.6,1.6c-0.8,0.1-1.5-0.5-1.6-1.3
		c0-0.1,0-0.2,0-0.3v-2.1L135.5,204.4z"/>
	<path class="st1" d="M100.9,220.3h1.6c2.5,0,2.5,1.7,2.5,3.8s0,3.7-2.6,3.7h-1.5L100.9,220.3z M97.7,239.4h3.2v-8.6h1.6
		c1.8,0.2,3.6-0.7,4.6-2.3c0.7-1.4,1-2.9,0.9-4.4c0-2.6-0.3-4-1.4-5.2c-1.1-1.1-2.6-1.7-4.1-1.6h-4.7V239.4z"/>
	<path class="st1" d="M112.1,228.5c0-1.2,0.6-1.8,1.6-1.8s1.6,0.6,1.6,1.8v6.2c0,1.2-0.6,1.8-1.6,1.8s-1.6-0.6-1.6-1.8V228.5z
		 M108.9,234.2c-0.1,1.1,0.1,2.2,0.6,3.2c1.5,2.3,4.5,2.9,6.8,1.5c0.6-0.4,1.1-0.9,1.5-1.5c0.4-1,0.6-2.1,0.6-3.2V229
		c0.1-1.1-0.1-2.2-0.6-3.2c-1.5-2.3-4.5-2.9-6.8-1.5c-0.6,0.4-1.1,0.9-1.5,1.5c-0.4,1-0.6,2.1-0.6,3.2V234.2z"/>
	<path class="st1" d="M120.7,223.7h3.2v1.5h0.1c0.6-1.1,1.8-1.7,3-1.7c1.1,0,2.2,0.6,2.8,1.6c0.8-1,2-1.6,3.3-1.6
		c1.6,0,3.4,1,3.4,3.8v12h-3.2v-10.8c0-1.1-0.6-1.9-1.6-1.9c-1.2,0-1.6,0.8-1.6,2.2v10.6H127v-10.9c0-1.1-0.6-1.9-1.6-1.9
		c-1.2,0-1.6,0.8-1.6,2.2v10.6h-3.2L120.7,223.7z"/>
	<path class="st1" d="M145.3,234.6c0,1-0.3,1.9-1.6,1.9c-0.9,0-1.6-0.7-1.6-1.6c0,0,0-0.1,0-0.1v-6.1c0-1.1,0.6-2,1.6-2
		s1.6,0.9,1.6,2.1V234.6z M139,245.8h3.2V238h0.1c0.6,1,1.7,1.6,2.9,1.6c1.1,0.1,2.2-0.5,2.8-1.4c0.4-0.6,0.5-1.6,0.5-3.8v-6
		c0.1-1.1,0-2.3-0.5-3.4c-0.5-1-1.6-1.6-2.8-1.5c-1.2,0-2.3,0.6-3,1.6v-1.4H139L139,245.8z"/>
	<path class="st1" d="M151.1,223.7h3.2v15.7h-3.2V223.7z M151.1,217.4h3.2v3.2h-3.2V217.4z"/>
	<path class="st1" d="M160,228.6c0-1,0.3-1.9,1.6-1.9c0.9,0,1.6,0.7,1.6,1.6c0,0,0,0.1,0,0.1v6.1c0,1.1-0.6,2-1.6,2
		s-1.6-0.9-1.6-2.1V228.6z M163.1,239.4h3.2v-22.1h-3.2v7.8h-0.1c-0.6-1-1.7-1.6-2.9-1.6c-1.1-0.1-2.2,0.5-2.8,1.4
		c-0.4,0.6-0.5,1.6-0.5,3.8v6c-0.1,1.2,0.1,2.3,0.5,3.4c0.5,1,1.6,1.6,2.8,1.5c1.2,0,2.3-0.6,3-1.6L163.1,239.4z"/>
	<path class="st1" d="M171.8,228.5c0-1.2,0.6-1.8,1.6-1.8s1.6,0.6,1.6,1.8v6.2c0,1.2-0.6,1.8-1.6,1.8s-1.6-0.6-1.6-1.8V228.5z
		 M168.6,234.2c-0.1,1.1,0.1,2.2,0.6,3.2c1.5,2.3,4.5,2.9,6.8,1.5c0.6-0.4,1.1-0.9,1.5-1.5c0.4-1,0.6-2.1,0.6-3.2V229
		c0.1-1.1-0.1-2.2-0.6-3.2c-1.5-2.3-4.5-2.9-6.8-1.5c-0.6,0.4-1.1,0.9-1.5,1.5c-0.4,1-0.6,2.1-0.6,3.2V234.2z"/>
	<path class="st1" d="M189.8,239.4h-3.2v-1.5h-0.1c-0.6,1.1-1.8,1.7-3,1.7c-1.6,0-3.3-1-3.3-3.8v-12h3.2v10.9c0,1.1,0.6,1.9,1.6,1.9
		c1.2,0,1.6-0.8,1.6-2.2v-10.6h3.2L189.8,239.4z"/>
	<path class="st1" d="M100.9,172.4h1.4c2.3,0,2.7,1.1,2.7,3.3s-0.2,3.7-2.7,3.7h-1.4V172.4z M97.7,182.6h4.3c4.1,0,5.9-2.2,5.9-6
		v-1.2c0-2.3-0.7-3.6-2.2-4.3c1.4-0.9,2.2-1.7,2.2-4.1v-0.8c0-2.9-1.5-5.6-5.6-5.6h-4.6V182.6z M100.9,163.5h1.3c2.1,0,2.8,1,2.8,3
		s-0.6,3.1-2.7,3.1h-1.4L100.9,163.5z"/>
	<path class="st1" d="M110.7,166.9h3.2v15.7h-3.2V166.9z M110.7,160.5h3.2v3.2h-3.2V160.5z"/>
	<path class="st1" d="M123.1,177.5c0,1.3-0.5,2.1-1.6,2.1s-1.6-0.8-1.6-2v-6.1c-0.1-0.9,0.6-1.6,1.5-1.7c0,0,0.1,0,0.1,0
		c1.2,0,1.6,0.9,1.6,1.9V177.5z M116.8,182.6h3.2v-1.4c0.7,1,1.8,1.6,3,1.6c1.1,0.1,2.2-0.5,2.8-1.5c0.4-1.1,0.6-2.2,0.5-3.4v-6
		c0-2.3-0.1-3.2-0.5-3.8c-0.6-1-1.7-1.5-2.8-1.4c-1.2,0-2.3,0.6-2.9,1.6H120v-7.8h-3.2L116.8,182.6z"/>
	<path class="st1" d="M128.9,160.5h3.1v17.6c0,1.2,0.3,1.5,1.6,1.6v3c-2.9,0-4.7-0.7-4.7-4.4L128.9,160.5z"/>
	<path class="st1" d="M135.4,166.9h3.2v15.7h-3.2V166.9z M135.4,160.5h3.2v3.2h-3.2V160.5z"/>
	<path class="st1" d="M144.2,171.7c0-1.2,0.6-1.8,1.6-1.8s1.6,0.6,1.6,1.8v6.2c0,1.2-0.6,1.8-1.6,1.8s-1.6-0.6-1.6-1.8V171.7z
		 M141.1,177.3c-0.1,1.1,0.1,2.2,0.6,3.2c1.5,2.3,4.5,2.9,6.8,1.5c0.6-0.4,1.1-0.9,1.5-1.5c0.4-1,0.6-2.1,0.6-3.2v-5.2
		c0.1-1.1-0.1-2.2-0.6-3.2c-1.5-2.3-4.5-2.9-6.8-1.5c-0.6,0.4-1.1,0.9-1.5,1.5c-0.4,1-0.6,2.1-0.6,3.2V177.3z"/>
	<path class="st1" d="M153.3,162.1h3.2v4.8h2v2.5h-2v8.7c0,1.5,0.6,1.6,2,1.6v3h-1.3c-1.9,0.2-3.6-1.3-3.8-3.2c0-0.2,0-0.3,0-0.5
		v-9.5h-1.6v-2.5h1.6L153.3,162.1z"/>
	<path class="st1" d="M160.4,160.5h3.2v7.9h0.1c0.6-1.1,1.8-1.7,3-1.7c1.6,0,3.2,1,3.2,3.8v12h-3.2v-10.8c0-1.1-0.6-1.9-1.6-1.9
		c-1.2,0-1.6,0.8-1.6,2.2v10.6h-3.2L160.4,160.5z"/>
	<path class="st1" d="M175.3,171.7c0-1.2,0.6-1.8,1.6-1.8s1.6,0.6,1.6,1.8v1.8h-3.1V171.7z M176.1,160.4h-3.4l4.1,4.4h2L176.1,160.4
		z M181.6,175.9v-4.3c0.2-2.5-1.7-4.7-4.3-4.9c-0.1,0-0.3,0-0.4,0c-1.7-0.1-3.3,0.8-4.1,2.3c-0.4,1-0.6,2.1-0.6,3.2v5.2
		c-0.1,1.1,0.1,2.2,0.6,3.2c0.8,1.5,2.4,2.3,4.1,2.3c1.3,0,2.5-0.5,3.4-1.4c0.8-0.9,1.3-2.1,1.3-3.4h-3.2c-0.1,0.7-0.3,1.6-1.6,1.6
		c-0.8,0.1-1.5-0.5-1.6-1.3c0-0.1,0-0.2,0-0.3v-2.1L181.6,175.9z"/>
	<path class="st1" d="M187.1,172c0-1.3,0.5-2.1,1.6-2.1s1.6,0.8,1.6,1.9v6.1c0.1,0.9-0.6,1.6-1.5,1.7c0,0-0.1,0-0.1,0
		c-1.2,0-1.6-0.9-1.6-1.9V172z M190.2,189h3.2v-22.1h-3.2v1.4c-0.7-1-1.8-1.6-3-1.6c-1.1-0.1-2.2,0.5-2.8,1.5
		c-0.4,1.1-0.6,2.2-0.5,3.4v6c0,2.3,0.1,3.2,0.5,3.8c0.6,1,1.7,1.5,2.8,1.4c1.2,0,2.3-0.6,2.9-1.6h0.1L190.2,189z"/>
	<path class="st1" d="M205.4,182.6h-3.2v-1.5h-0.1c-0.6,1.1-1.8,1.7-3,1.7c-1.6,0-3.2-1-3.2-3.8v-12h3.2v10.9c0,1.1,0.6,1.9,1.6,1.9
		c1.2,0,1.6-0.8,1.6-2.2v-10.6h3.2L205.4,182.6z"/>
	<path class="st1" d="M210.9,171.7c0-1.2,0.6-1.8,1.6-1.8s1.6,0.6,1.6,1.8v1.8h-3.1V171.7z M217.2,175.9v-4.3
		c0.2-2.5-1.7-4.7-4.3-4.9c-0.1,0-0.3,0-0.4,0c-1.7-0.1-3.3,0.8-4.1,2.3c-0.4,1-0.6,2.1-0.6,3.2v5.2c-0.1,1.1,0.1,2.2,0.6,3.2
		c0.8,1.5,2.4,2.3,4.1,2.3c1.3,0,2.5-0.5,3.4-1.4c0.8-0.9,1.3-2.1,1.3-3.4H214c-0.1,0.7-0.3,1.6-1.6,1.6c-0.8,0.1-1.5-0.5-1.6-1.3
		c0-0.1,0-0.2,0-0.3v-2.1L217.2,175.9z"/>
	<path class="st1" d="M193.4,198.1c0,0.9-0.1,1.6-1,1.6s-1-0.7-1-1.6s0.1-1.6,1-1.6S193.4,197.1,193.4,198.1z M194.8,198.1
		c0.1-0.8-0.1-1.7-0.6-2.4c-0.4-0.3-0.9-0.5-1.4-0.5c-0.5,0-1.1,0.2-1.4,0.6v-0.5H190v7.8h1.4v-2.6c0.3,0.4,0.9,0.6,1.4,0.6
		c0.5,0,1-0.2,1.4-0.5C194.7,199.8,194.9,198.9,194.8,198.1z"/>
	<path class="st1" d="M199.4,200.9v-0.5c-0.4,0.4-0.9,0.6-1.4,0.6c-0.5,0-1-0.2-1.3-0.5c-0.4-0.4-0.6-1-0.6-1.6v-3.6h1.4v3.4
		c0,0.5,0.4,0.9,0.9,0.9s0.9-0.4,0.9-0.9v-3.4h1.4v5.7L199.4,200.9z"/>
	<path class="st1" d="M205.8,198.1c0,0.9-0.1,1.6-1,1.6s-1-0.7-1-1.6s0.1-1.6,1-1.6S205.8,197.1,205.8,198.1z M207.2,198.1
		c0.1-0.8-0.1-1.7-0.6-2.4c-0.4-0.3-0.9-0.5-1.4-0.5c-0.5,0-1,0.2-1.4,0.6v-2.6h-1.4v7.8h1.4v-0.5c0.4,0.4,0.9,0.6,1.4,0.6
		c0.5,0,1-0.2,1.4-0.5C207.1,199.8,207.3,198.9,207.2,198.1z"/>
	<path class="st1" d="M210.2,200.9c-0.8,0.1-1.6-0.6-1.7-1.4c0-0.1,0-0.1,0-0.2v-6.1h1.4v6.1c0,0.3,0.1,0.5,0.5,0.5h0.6v1.2
		L210.2,200.9z"/>
	<path class="st1" d="M212.1,194.2v-1.2h1.5v1.2H212.1z M212.1,200.9v-5.7h1.4v5.7H212.1z"/>
	<path class="st1" d="M218.2,198.1c0,0.9-0.1,1.6-1,1.6s-1-0.7-1-1.6s0.1-1.6,1-1.6S218.2,197.1,218.2,198.1z M219.6,203v-7.8h-1.4
		v0.5c-0.3-0.4-0.9-0.6-1.4-0.6c-0.5,0-1,0.2-1.4,0.5c-0.8,1.5-0.8,3.3,0,4.8c0.4,0.3,0.9,0.5,1.4,0.5c0.5,0,1-0.2,1.4-0.6v2.6
		L219.6,203z"/>
	<path class="st1" d="M224.5,200.9v-0.5c-0.4,0.4-0.9,0.6-1.4,0.6c-0.5,0-1-0.2-1.3-0.5c-0.4-0.4-0.6-1-0.6-1.6v-3.6h1.4v3.4
		c-0.1,0.5,0.3,1,0.8,1.1c0.5,0.1,1-0.3,1.1-0.8c0-0.1,0-0.2,0-0.3v-3.4h1.4v5.7H224.5z"/>
	<path class="st1" d="M230.8,197.5h-2.2c0-0.2,0-0.4,0.1-0.6c0.3-0.5,0.9-0.7,1.4-0.5c0.2,0.1,0.4,0.3,0.5,0.5
		C230.7,197.1,230.8,197.3,230.8,197.5z M232.2,198.5v-0.6c0.1-1.3-0.8-2.6-2.2-2.7c-0.1,0-0.2,0-0.3,0c-1.5,0-2.5,1-2.5,2.9
		c0,2.3,1.3,2.9,2.6,2.9c0.8,0,1.6-0.3,2.2-0.9l-0.9-0.8c-0.3,0.4-0.8,0.6-1.3,0.5c-0.7,0-1.2-0.5-1.3-1.1c0-0.1,0-0.1,0-0.2
		L232.2,198.5z"/>
	<path class="st1" d="M239.1,198.1c0,0.9-0.1,1.6-1,1.6s-1-0.7-1-1.6s0.1-1.6,1-1.6S239.1,197.1,239.1,198.1z M240.6,200.9v-7.8
		h-1.4v2.6c-0.3-0.4-0.9-0.6-1.4-0.6c-0.5,0-1,0.2-1.4,0.5c-0.8,1.5-0.8,3.3,0,4.8c0.4,0.3,0.9,0.5,1.4,0.5c0.5,0,1.1-0.2,1.4-0.6
		v0.5L240.6,200.9z"/>
	<path class="st1" d="M242.1,195.4v-2.3h1.4v2.3H242.1z"/>
	<path class="st1" d="M244.9,194.2v-1.2h1.5v1.2H244.9z M244.9,200.9v-5.7h1.4v5.7H244.9z"/>
	<path class="st1" d="M251.3,200.9v-3.4c0-0.5-0.4-0.9-0.9-0.9s-0.9,0.4-0.9,0.9l0,0v3.4H248v-5.7h1.4v0.5c0.4-0.4,0.9-0.6,1.4-0.6
		c0.5,0,1,0.2,1.3,0.5c0.4,0.4,0.6,1,0.6,1.6v3.6H251.3z"/>
	<path class="st1" d="M255.8,196.5v4.4h-1.4v-4.4h-0.6v-1.1h0.6v-0.7c0-0.9,0.6-1.6,1.5-1.6c0.1,0,0.1,0,0.2,0h0.8v1.2h-0.6
		c-0.3,0-0.5,0.2-0.5,0.5v0.6h1v1.1H255.8z"/>
	<path class="st1" d="M261,198.1c0.1,0.5-0.1,1-0.3,1.4c-0.2,0.2-0.4,0.3-0.7,0.2c-0.2,0-0.5-0.1-0.6-0.2c-0.3-0.4-0.4-0.9-0.3-1.4
		c-0.1-0.5,0-1,0.3-1.4c0.2-0.2,0.4-0.3,0.6-0.2c0.2,0,0.5,0.1,0.7,0.2C261,197.1,261.1,197.6,261,198.1z M262.4,198.1
		c0.1-0.8-0.1-1.6-0.6-2.2c-0.5-0.5-1.1-0.7-1.8-0.7c-0.7,0-1.3,0.2-1.8,0.7c-0.9,1.4-0.9,3.1,0,4.4c0.5,0.5,1.1,0.7,1.8,0.7
		c0.7,0,1.3-0.2,1.8-0.7C262.3,199.7,262.5,198.9,262.4,198.1L262.4,198.1z"/>
	<path class="st1" d="M266.8,196.8c-0.3-0.4-0.9-0.4-1.3-0.1c-0.2,0.2-0.4,0.5-0.3,0.8v3.4h-1.4v-5.7h1.4v0.5
		c0.4-0.4,0.9-0.6,1.4-0.6c0.5,0,1,0.2,1.3,0.5L266.8,196.8z"/>
	<path class="st1" d="M275.3,200.9v-3.4c0.2-0.5-0.1-1.1-0.6-1.3c-0.5-0.2-1.1,0.1-1.3,0.6c-0.1,0.2-0.1,0.4,0,0.6v3.5H272v-3.4
		c0-0.5-0.4-0.9-0.9-0.9s-0.9,0.4-0.9,0.9l0,0v3.4h-1.4v-5.7h1.4v0.5c0.4-0.4,0.9-0.6,1.4-0.6c0.6,0,1.2,0.2,1.5,0.7
		c0.4-0.5,1.1-0.7,1.7-0.7c0.5,0,1,0.2,1.4,0.5c0.4,0.4,0.7,1,0.6,1.6v3.6L275.3,200.9z"/>
	<path class="st1" d="M281.2,198.8c0,0.3,0,0.5-0.2,0.7c-0.2,0.2-0.6,0.3-0.9,0.3c-0.6,0-0.8-0.3-0.8-0.7s0.3-0.6,0.8-0.6h1.1V198.8
		z M282.6,200.9v-3.8c0-1.3-0.8-2-2.4-2c-0.8-0.1-1.5,0.2-2.1,0.8l0.9,0.9c0.3-0.3,0.7-0.5,1.1-0.5c0.8,0,1.1,0.3,1.1,0.9v0.3h-1.4
		c-1.3,0-1.9,0.8-1.9,1.7c0,0.5,0.2,0.9,0.5,1.3c0.4,0.4,0.9,0.5,1.5,0.5c0.5,0,1-0.2,1.4-0.6v0.5L282.6,200.9z"/>
	<path class="st1" d="M285.9,200.9c-0.8,0.1-1.6-0.6-1.7-1.4c0-0.1,0-0.1,0-0.2v-2.8h-0.6v-1.1h0.6v-1.7h1.4v1.7h1v1.1h-1v2.7
		c0,0.3,0.1,0.5,0.5,0.5h0.5v1.2L285.9,200.9z"/>
	<path class="st1" d="M287.9,194.2v-1.2h1.5v1.2H287.9z M287.9,200.9v-5.7h1.4v5.7H287.9z"/>
	<path class="st1" d="M294.1,198.1c0.1,0.5-0.1,1-0.3,1.4c-0.2,0.2-0.4,0.3-0.7,0.2c-0.2,0-0.5-0.1-0.7-0.2
		c-0.3-0.4-0.4-0.9-0.3-1.4c-0.1-0.5,0-1,0.3-1.4c0.2-0.2,0.4-0.3,0.7-0.2c0.2,0,0.5,0.1,0.7,0.2
		C294.1,197.1,294.2,197.6,294.1,198.1z M295.5,198.1c0.1-0.8-0.1-1.6-0.6-2.2c-1-0.9-2.5-0.9-3.5,0c-0.9,1.4-0.9,3.1,0,4.4
		c1,0.9,2.5,0.9,3.5,0C295.4,199.7,295.7,198.9,295.5,198.1z"/>
	<path class="st1" d="M300.2,200.9v-3.4c0-0.5-0.4-0.9-0.9-0.9s-0.9,0.4-0.9,0.9l0,0v3.4h-1.4v-5.7h1.4v0.5c0.4-0.4,0.9-0.6,1.4-0.6
		c0.5,0,1,0.2,1.3,0.5c0.4,0.4,0.6,1,0.6,1.6v3.6H300.2z"/>
</g>
</svg>
