<svg xmlns="http://www.w3.org/2000/svg" viewBox="0 0 315 399"><defs><style>.cls-1{fill:#38383b;}.cls-2{fill:#fff;}</style></defs><title>BD</title><g id="Calque_1" data-name="Calque 1"><path d="M0,0V115.78a174.23,174.23,0,0,1,95-28c96.63,0,175,78.36,175,175A174.62,174.62,0,0,1,204.81,399H315V0Z"/><path class="cls-1" d="M270,262.8c0-96.66-78.33-175-175-175a174.23,174.23,0,0,0-95,28v81c26.69-22,64.39-35.7,106.17-35.7,80.92,0,146.5,51.39,146.5,114.8s-65.58,114.8-146.5,114.8A181.17,181.17,0,0,1,50,381.88L1.54,399H204.81A174.62,174.62,0,0,0,270,262.8Z"/><path class="cls-1" d="M126.53,333.16h31.78c35.64,0,60.31-24.81,60.31-56.72v-.33c0-31.93-24.66-56.41-60.31-56.41H126.53a12.39,12.39,0,0,0-12.48,12.49v88.49A12.39,12.39,0,0,0,126.53,333.16ZM139,242.22h19.3c20.41,0,34.2,14.1,34.2,34.22v.31c0,20.1-13.79,33.88-34.2,33.88H139Z"/><path class="cls-1" d="M102,302v-.33c0-15.23-8.09-22.85-21.22-27.86,8.09-4.55,14.89-11.69,14.89-24.49V249a25.94,25.94,0,0,0-7.77-19.28c-6.49-6.48-16.67-10.06-29.62-10.06H18.05a12.4,12.4,0,0,0-12.5,12.49v88.49a12.4,12.4,0,0,0,12.5,12.49H59.53C85.16,333.16,102,322.78,102,302ZM29.9,241.58H54.54c10.51,0,16.36,4.21,16.36,11.66v.33c0,8.43-7,12-18,12h-23Zm0,44.73H58.74c12.79,0,18.46,4.71,18.46,12.32v.32c0,8.44-6.64,12.34-17.68,12.34H29.9Z"/><path d="M77.2,298.95v-.32c0-7.61-5.67-12.32-18.46-12.32H29.9v25H59.53C70.56,311.28,77.2,307.39,77.2,298.95Z"/><path d="M192.5,276.75v-.31c0-20.11-13.79-34.22-34.2-34.22H139v68.41h19.3C178.72,310.63,192.5,296.85,192.5,276.75Z"/><path d="M70.9,253.57v-.33c0-7.45-5.85-11.66-16.36-11.66H29.9v24h23C63.91,265.57,70.9,262,70.9,253.57Z"/><path d="M106.17,390.66c80.92,0,146.5-51.38,146.5-114.8s-65.58-114.8-146.5-114.8c-41.79,0-79.48,13.71-106.17,35.7V399H1.54L50,381.88A181.17,181.17,0,0,0,106.17,390.66Zm7.88-158.48a12.39,12.39,0,0,1,12.48-12.49h31.78c35.64,0,60.31,24.48,60.31,56.41v.33c0,31.91-24.66,56.72-60.31,56.72H126.53a12.39,12.39,0,0,1-12.48-12.49ZM5.56,320.67V232.18a12.4,12.4,0,0,1,12.5-12.49H58.27c12.95,0,23.13,3.58,29.62,10.06A25.94,25.94,0,0,1,95.67,249v.32c0,12.8-6.8,19.94-14.89,24.49,13.14,5,21.22,12.63,21.22,27.86V302c0,20.74-16.84,31.12-42.47,31.12H18.05A12.4,12.4,0,0,1,5.56,320.67Z"/><path class="cls-2" d="M61.68,192.64h-5.5c-1.44,1.36-3.25,2.37-4.69,3.73h-5L41.84,200H36.75l-4.6,3.64h-5l-4.69,3.72H17.5v-1.84h4.24A22.83,22.83,0,0,0,24,203.67l-6.49,0v-1.86h14l2.16-1.75H17.59v-1.9H41.12c.59-.66,1.71-1.14,2.16-1.84l-25.7,0v-1.86H50.86c.68-.66,1.44-1,2.21-1.75H17.59v-2H61.68Z"/><path class="cls-2" d="M61.68,196.36H57.49c-.72.57-1.53,1.14-2.16,1.75l6.36,0V200H47.75l-2.16,1.75H61.68v1.88H38.14c-.81.7-1.49,1.12-2.25,1.86H61.68v1.86H28.41l-2.25,1.75H61.63V211H17.5v-1.84H23l4.69-3.64h5c1.71-1.31,3.11-2.37,4.78-3.68,1.71,0,3.56,0,5.14-.09L47,198.25l5.09,0,4.64-3.73h4.91Z"/></g><g id="Calque_5" data-name="Calque 5"><path class="cls-2" d="M83.71,206.09a5.1,5.1,0,0,1-5,5.11c-2.41,0-5.2-1.18-5.2-5.21V193.85a4.93,4.93,0,0,1,5.13-5.08A5,5,0,0,1,83.71,194v1.24H80.54v-1.05a2.07,2.07,0,0,0-1.94-2.29c-1.57,0-1.94,1.09-1.94,2.57v11.28c0,1.27.49,2.26,1.91,2.26a2,2,0,0,0,2-2.23v-1.08h3.16Z"/><path class="cls-2" d="M89,200.08c0-1.17.59-1.79,1.55-1.79s1.55.62,1.55,1.79v1.79H89Zm6.27,4.27V200a4.59,4.59,0,0,0-4.72-4.89,4.51,4.51,0,0,0-4.13,2.26,6.89,6.89,0,0,0-.59,3.18v5.17a7,7,0,0,0,.59,3.2,4.5,4.5,0,0,0,4.13,2.26A4.61,4.61,0,0,0,94,209.81a4.83,4.83,0,0,0,1.27-3.35H92.1c-.06.68-.34,1.58-1.55,1.58A1.42,1.42,0,0,1,89,206.49v-2.14Z"/><path class="cls-2" d="M97.73,195.31h3.16v1.52H101a3.35,3.35,0,0,1,3-1.7c1.58,0,3.25,1,3.25,3.84v12H104V200.15c0-1.15-.56-1.86-1.55-1.86-1.18,0-1.59.77-1.59,2.17V211H97.73Z"/><path class="cls-2" d="M110.5,190.54h3.16v4.77h2v2.48h-2v8.7c0,1.45.56,1.55,2,1.55v3h-1.3a3.51,3.51,0,0,1-3.81-3.69v-9.54h-1.58v-2.48h1.58Z"/><path class="cls-2" d="M117.85,195.31H121V197a5.77,5.77,0,0,1,4.18-1.86v3.35a2.51,2.51,0,0,0-1-.19A3.15,3.15,0,0,0,121,201.7V211h-3.16Z"/><path class="cls-2" d="M129.19,200.08c0-1.17.59-1.79,1.55-1.79s1.56.62,1.56,1.79v1.79h-3.11Zm6.27,4.27V200a4.59,4.59,0,0,0-4.72-4.89,4.5,4.5,0,0,0-4.13,2.26,6.87,6.87,0,0,0-.59,3.18v5.17a6.93,6.93,0,0,0,.59,3.2,4.5,4.5,0,0,0,4.13,2.26,4.61,4.61,0,0,0,3.45-1.39,4.83,4.83,0,0,0,1.27-3.35H132.3c-.06.68-.34,1.58-1.56,1.58a1.42,1.42,0,0,1-1.55-1.55v-2.14Z"/><path class="cls-2" d="M100.86,220.33h1.64c2.47,0,2.47,1.71,2.47,3.79s0,3.73-2.59,3.73h-1.51ZM97.7,239.42h3.16v-8.6h1.6a4.86,4.86,0,0,0,4.57-2.29,8,8,0,0,0,.9-4.44c0-2.64-.34-4-1.42-5.18a5.12,5.12,0,0,0-4.08-1.55H97.7Z"/><path class="cls-2" d="M112.08,228.49c0-1.18.59-1.8,1.55-1.8s1.55.62,1.55,1.8v6.16c0,1.18-.59,1.79-1.55,1.79s-1.55-.62-1.55-1.79Zm-3.16,5.66a6.92,6.92,0,0,0,.59,3.19,4.89,4.89,0,0,0,8.25,0,6.92,6.92,0,0,0,.59-3.19V229a6.91,6.91,0,0,0-.59-3.19,4.89,4.89,0,0,0-8.25,0,6.91,6.91,0,0,0-.59,3.19Z"/><path class="cls-2" d="M120.67,223.72h3.16v1.52h.06a3.35,3.35,0,0,1,3-1.71,3.44,3.44,0,0,1,2.82,1.58,4,4,0,0,1,3.29-1.58c1.58,0,3.44,1,3.44,3.84v12h-3.16V228.55c0-1.15-.56-1.86-1.56-1.86-1.18,0-1.58.77-1.58,2.17v10.56H127V228.55c0-1.15-.56-1.86-1.55-1.86-1.18,0-1.59.77-1.59,2.17v10.56h-3.16Z"/><path class="cls-2" d="M145.32,234.59c0,1-.34,1.86-1.55,1.86a1.6,1.6,0,0,1-1.59-1.7v-6.1c0-1.15.62-2,1.59-2s1.55.87,1.55,2.14Zm-6.3,11.2h3.16V238h.06a3.4,3.4,0,0,0,2.92,1.61,3,3,0,0,0,2.82-1.43c.4-.65.5-1.55.5-3.81v-6A7.11,7.11,0,0,0,148,225a2.87,2.87,0,0,0-2.76-1.49,3.57,3.57,0,0,0-3,1.61v-1.42H139Z"/><path class="cls-2" d="M151.07,223.72h3.16v15.71h-3.16Zm0-6.36h3.16v3.16h-3.16Z"/><path class="cls-2" d="M160,228.55c0-1,.34-1.86,1.55-1.86a1.6,1.6,0,0,1,1.59,1.7v6.1c0,1.15-.62,2-1.59,2s-1.55-.87-1.55-2.14Zm3.14,10.87h3.16V217.35h-3.16v7.79h-.06a3.41,3.41,0,0,0-2.92-1.61,3,3,0,0,0-2.82,1.43c-.4.65-.5,1.55-.5,3.81v6a7.13,7.13,0,0,0,.53,3.38,2.87,2.87,0,0,0,2.76,1.49,3.57,3.57,0,0,0,3-1.61Z"/><path class="cls-2" d="M171.77,228.49c0-1.18.59-1.8,1.55-1.8s1.56.62,1.56,1.8v6.16c0,1.18-.59,1.79-1.56,1.79s-1.55-.62-1.55-1.79Zm-3.16,5.66a6.92,6.92,0,0,0,.59,3.19,4.89,4.89,0,0,0,8.25,0,6.91,6.91,0,0,0,.59-3.19V229a6.9,6.9,0,0,0-.59-3.19,4.89,4.89,0,0,0-8.25,0,6.91,6.91,0,0,0-.59,3.19Z"/><path class="cls-2" d="M189.82,239.42h-3.16V237.9h-.06a3.35,3.35,0,0,1-3,1.71c-1.58,0-3.26-1-3.26-3.84v-12h3.16v10.87c0,1.15.56,1.86,1.55,1.86,1.18,0,1.59-.77,1.59-2.17V223.72h3.16Z"/><path class="cls-2" d="M100.86,172.39h1.39c2.28,0,2.68,1.14,2.68,3.34s-.18,3.71-2.71,3.71h-1.36ZM97.7,182.61H102c4.08,0,5.9-2.17,5.9-6v-1.24c0-2.29-.68-3.62-2.17-4.33,1.39-.87,2.17-1.74,2.17-4.1v-.81c0-2.89-1.52-5.59-5.6-5.59H97.7Zm3.16-19.09h1.3c2.07,0,2.78,1,2.78,3s-.55,3.11-2.65,3.11h-1.42Z"/><path class="cls-2" d="M110.72,166.9h3.16v15.71h-3.16Zm0-6.36h3.16v3.16h-3.16Z"/><path class="cls-2" d="M123.09,177.49c0,1.27-.47,2.14-1.55,2.14s-1.58-.8-1.58-2v-6.1a1.6,1.6,0,0,1,1.58-1.7c1.21,0,1.55.87,1.55,1.86Zm-6.3,5.11H120v-1.43a3.56,3.56,0,0,0,3,1.61,2.87,2.87,0,0,0,2.76-1.49,7.1,7.1,0,0,0,.53-3.38v-6c0-2.26-.09-3.16-.49-3.81a3,3,0,0,0-2.82-1.43,3.4,3.4,0,0,0-2.92,1.61H120v-7.79h-3.16Z"/><path class="cls-2" d="M128.85,160.54H132v17.64c0,1.18.34,1.52,1.55,1.64v3c-2.91,0-4.71-.74-4.71-4.4Z"/><path class="cls-2" d="M135.42,166.9h3.16v15.71h-3.16Zm0-6.36h3.16v3.16h-3.16Z"/><path class="cls-2" d="M144.22,171.67c0-1.18.59-1.8,1.56-1.8s1.55.62,1.55,1.8v6.16c0,1.18-.59,1.8-1.55,1.8s-1.56-.62-1.56-1.8Zm-3.16,5.67a6.92,6.92,0,0,0,.59,3.19,4.9,4.9,0,0,0,8.25,0,6.92,6.92,0,0,0,.59-3.19v-5.17a6.91,6.91,0,0,0-.59-3.19,4.89,4.89,0,0,0-8.25,0,6.91,6.91,0,0,0-.59,3.19Z"/><path class="cls-2" d="M153.27,162.13h3.16v4.77h2v2.48h-2v8.7c0,1.46.56,1.55,2,1.55v3h-1.3a3.51,3.51,0,0,1-3.81-3.69v-9.54h-1.58V166.9h1.58Z"/><path class="cls-2" d="M160.37,160.54h3.16v7.88h.06a3.35,3.35,0,0,1,3-1.7c1.58,0,3.25,1,3.25,3.84v12h-3.16V171.74c0-1.15-.56-1.86-1.55-1.86-1.18,0-1.59.77-1.59,2.17v10.56h-3.16Z"/><path class="cls-2" d="M175.3,171.67c0-1.17.59-1.79,1.56-1.79s1.55.62,1.55,1.79v1.79H175.3Zm.78-11.22h-3.35l4.09,4.37h2Zm5.5,15.48V171.6a4.59,4.59,0,0,0-4.72-4.89,4.5,4.5,0,0,0-4.13,2.26,6.88,6.88,0,0,0-.59,3.18v5.17a7,7,0,0,0,.59,3.2,4.5,4.5,0,0,0,4.13,2.26,4.62,4.62,0,0,0,3.45-1.39,4.84,4.84,0,0,0,1.27-3.35h-3.16c-.06.68-.34,1.58-1.55,1.58a1.42,1.42,0,0,1-1.56-1.55v-2.14Z"/><path class="cls-2" d="M187.05,172c0-1.27.47-2.13,1.55-2.13s1.58.8,1.58,1.95v6.1a1.6,1.6,0,0,1-1.58,1.7c-1.21,0-1.55-.87-1.55-1.86Zm3.14,17h3.16V166.9h-3.16v1.43a3.57,3.57,0,0,0-3-1.61,2.87,2.87,0,0,0-2.76,1.49,7.1,7.1,0,0,0-.53,3.38v6c0,2.26.09,3.16.5,3.81a3,3,0,0,0,2.82,1.43,3.4,3.4,0,0,0,2.92-1.61h.06Z"/><path class="cls-2" d="M205.41,182.61h-3.16v-1.52h-.06a3.36,3.36,0,0,1-3,1.7c-1.58,0-3.25-1-3.25-3.84v-12h3.16v10.87c0,1.15.56,1.86,1.55,1.86,1.18,0,1.59-.78,1.59-2.17V166.9h3.16Z"/><path class="cls-2" d="M210.88,171.67c0-1.17.59-1.79,1.55-1.79s1.56.62,1.56,1.79v1.79h-3.11Zm6.27,4.27V171.6a4.59,4.59,0,0,0-4.72-4.89,4.5,4.5,0,0,0-4.13,2.26,6.88,6.88,0,0,0-.59,3.18v5.17a7,7,0,0,0,.59,3.2,4.5,4.5,0,0,0,4.13,2.26,4.62,4.62,0,0,0,3.45-1.39,4.83,4.83,0,0,0,1.27-3.35H214c-.06.68-.34,1.58-1.56,1.58a1.42,1.42,0,0,1-1.55-1.55v-2.14Z"/><path class="cls-2" d="M193.39,198.06c0,.93-.11,1.64-1,1.64s-1-.71-1-1.64.11-1.63,1-1.63S193.39,197.13,193.39,198.06Zm1.42,0a3.36,3.36,0,0,0-.58-2.39,2,2,0,0,0-1.39-.51,1.75,1.75,0,0,0-1.43.6v-.53H190V203h1.42v-2.58a1.7,1.7,0,0,0,1.38.57,2,2,0,0,0,1.39-.51A3.39,3.39,0,0,0,194.81,198.06Z"/><path class="cls-2" d="M199.43,200.91v-.52A1.93,1.93,0,0,1,198,201a1.86,1.86,0,0,1-1.34-.5,2.1,2.1,0,0,1-.58-1.62v-3.64h1.43v3.45a.94.94,0,1,0,1.88,0v-3.45h1.43v5.69Z"/><path class="cls-2" d="M205.77,198.06c0,.93-.11,1.64-1,1.64s-1-.71-1-1.64.11-1.63,1-1.63S205.77,197.13,205.77,198.06Zm1.42,0a3.36,3.36,0,0,0-.58-2.39,2,2,0,0,0-1.39-.51,1.7,1.7,0,0,0-1.38.56v-2.58h-1.43v7.77h1.38v-.53a1.73,1.73,0,0,0,1.42.6,2,2,0,0,0,1.39-.51A3.39,3.39,0,0,0,207.19,198.06Z"/><path class="cls-2" d="M210.16,200.91a1.54,1.54,0,0,1-1.66-1.62v-6.15h1.42v6.07c0,.34.14.51.5.51H211v1.2Z"/><path class="cls-2" d="M212.07,194.25v-1.16h1.46v1.16Zm0,6.66v-5.69h1.42v5.69Z"/><path class="cls-2" d="M218.21,198.06c0,.93-.12,1.64-1,1.64s-1-.71-1-1.64.11-1.63,1-1.63S218.21,197.13,218.21,198.06Zm1.42,4.93v-7.77h-1.38v.53a1.71,1.71,0,0,0-1.4-.6,2,2,0,0,0-1.4.51,5.25,5.25,0,0,0,0,4.8,2,2,0,0,0,1.39.51,1.7,1.7,0,0,0,1.38-.57V203Z"/><path class="cls-2" d="M224.5,200.91v-.52a1.93,1.93,0,0,1-1.41.59,1.86,1.86,0,0,1-1.34-.5,2.1,2.1,0,0,1-.58-1.62v-3.64h1.43v3.45a.95.95,0,1,0,1.88,0v-3.45h1.43v5.69Z"/><path class="cls-2" d="M230.76,197.53H228.6a1.57,1.57,0,0,1,.13-.61,1.06,1.06,0,0,1,1.9,0A1.53,1.53,0,0,1,230.76,197.53Zm1.4,1v-.64a2.45,2.45,0,0,0-2.48-2.71c-1.47,0-2.48,1-2.48,2.9,0,2.31,1.29,2.92,2.63,2.92a2.72,2.72,0,0,0,2.16-.89l-.86-.84a1.57,1.57,0,0,1-1.29.54,1.18,1.18,0,0,1-1.25-1.27Z"/><path class="cls-2" d="M239.13,198.06c0,.93-.12,1.64-1,1.64s-1-.71-1-1.64.11-1.63,1-1.63S239.13,197.13,239.13,198.06Zm1.43,2.85v-7.77h-1.43v2.58a1.7,1.7,0,0,0-1.38-.56,2,2,0,0,0-1.39.51,5.25,5.25,0,0,0,0,4.8,2,2,0,0,0,1.4.51,1.7,1.7,0,0,0,1.4-.6v.53Z"/><path class="cls-2" d="M242.09,195.45v-2.31h1.35v2.31Z"/><path class="cls-2" d="M244.95,194.25v-1.16h1.46v1.16Zm0,6.66v-5.69h1.43v5.69Z"/><path class="cls-2" d="M251.28,200.91v-3.45a.94.94,0,1,0-1.88,0v3.45H248v-5.69h1.38v.52a1.93,1.93,0,0,1,1.41-.59,1.85,1.85,0,0,1,1.34.5,2.1,2.1,0,0,1,.58,1.62v3.64Z"/><path class="cls-2" d="M255.83,196.47v4.44H254.4v-4.44h-.59v-1.08h.59v-.72a1.55,1.55,0,0,1,1.67-1.63h.81v1.2h-.56c-.34,0-.49.19-.49.52v.63h1v1.08Z"/><path class="cls-2" d="M261,198.06a2,2,0,0,1-.33,1.39.9.9,0,0,1-.67.25.87.87,0,0,1-.65-.25,2,2,0,0,1-.33-1.39,1.93,1.93,0,0,1,.33-1.38.87.87,0,0,1,.65-.25.9.9,0,0,1,.67.25A1.94,1.94,0,0,1,261,198.06Zm1.43,0a2.87,2.87,0,0,0-.65-2.21,2.37,2.37,0,0,0-1.77-.7,2.35,2.35,0,0,0-1.76.7,4.11,4.11,0,0,0,0,4.43,2.34,2.34,0,0,0,1.76.7,2.36,2.36,0,0,0,1.77-.7A2.88,2.88,0,0,0,262.38,198.06Z"/><path class="cls-2" d="M266.82,196.77a.95.95,0,0,0-1.67.71v3.44h-1.41v-5.69h1.38v.54a1.93,1.93,0,0,1,1.43-.61,1.72,1.72,0,0,1,1.34.53Z"/><path class="cls-2" d="M275.32,200.91v-3.45a1,1,0,1,0-1.9,0v3.48H272v-3.45a.94.94,0,1,0-1.88,0v3.45h-1.41v-5.69h1.38v.52a2,2,0,0,1,1.41-.59,1.77,1.77,0,0,1,1.51.72,2.19,2.19,0,0,1,1.71-.72,2,2,0,0,1,1.4.5,2.13,2.13,0,0,1,.63,1.62v3.64Z"/><path class="cls-2" d="M281.16,198.81a.94.94,0,0,1-.21.72,1.13,1.13,0,0,1-.9.28c-.56,0-.82-.26-.82-.66s.29-.65.8-.65h1.13Zm1.43,2.11v-3.76c0-1.33-.84-2-2.43-2a2.4,2.4,0,0,0-2.06.78l.91.88a1.22,1.22,0,0,1,1.09-.47c.75,0,1.06.27,1.06.9v.28h-1.35c-1.32,0-1.94.75-1.94,1.66a1.82,1.82,0,0,0,.47,1.28,1.93,1.93,0,0,0,1.45.5,1.73,1.73,0,0,0,1.4-.55v.49Z"/><path class="cls-2" d="M285.9,200.91a1.54,1.54,0,0,1-1.66-1.62v-2.82h-.6v-1.08h.6v-1.68h1.43v1.68h1v1.08h-1v2.73c0,.33.15.51.49.51h.52v1.2Z"/><path class="cls-2" d="M287.93,194.25v-1.16h1.46v1.16Zm0,6.66v-5.69h1.42v5.69Z"/><path class="cls-2" d="M294.12,198.06a2,2,0,0,1-.33,1.39.88.88,0,0,1-.66.25.87.87,0,0,1-.66-.25,2,2,0,0,1-.33-1.39,1.93,1.93,0,0,1,.33-1.38.87.87,0,0,1,.66-.25.89.89,0,0,1,.66.25A1.92,1.92,0,0,1,294.12,198.06Zm1.43,0a2.87,2.87,0,0,0-.65-2.21,2.59,2.59,0,0,0-3.53,0,4.11,4.11,0,0,0,0,4.43,2.58,2.58,0,0,0,3.53,0A2.88,2.88,0,0,0,295.55,198.06Z"/><path class="cls-2" d="M300.19,200.91v-3.45a.94.94,0,1,0-1.88,0v3.45H296.9v-5.69h1.38v.52a1.94,1.94,0,0,1,1.41-.59,1.86,1.86,0,0,1,1.34.5,2.1,2.1,0,0,1,.58,1.62v3.64Z"/></g></svg>