<svg xmlns="http://www.w3.org/2000/svg" width="315" height="399" viewBox="0 0 315 399"><title>Monde_LOGO</title><rect x="-88.02" y="-19.69" width="445.48" height="458.28" fill="#a69e14"/><path d="M-18.45,397.33c.74-.74.45-2.23.88-3.06,1.14-2.15.69-4.61,2-6.7,1.41.66,3,2,4.23,1.39s1.16-3.09-.44-3.38c-2.56-.46-5.1-.48-7.57-1.05-1.45-.33-.66-3.28.46-3.24,2.09.08,5.28.39,5.36-2.48,0-.26-.56-.56-.41-1.09-2.21.31-4.42,1.57-6.52.9-1.4-.46-.42-2.29.42-3.15.18-.2-.06-.81.13-1a7.59,7.59,0,0,0,2.32-4.39c.3-1.08,1.79-.51,2.62-1.64.14-.18.73.07,1-.12,1.84-1.33,2.87-2.8,4.49-4.26.2-.2.88,0,.93-.12.62-1.27,1.66-2.29,1.18-3.79-.12-.39-.51-.77-.44-1.08s.79-.7.94-1.15c.22-.66-.16-1.55.19-2.09.92-1.47,1.84-2.48,2.63-3.91.91.55.23,1.55.65,2.13.27.36.8-.07,1-.49s0-.75.08-1.06c.59-1.62,2.38-2,3.08-3.4,1.2-2.37-.85-1.68-2.58-2.66A5.11,5.11,0,0,1-.77,345.4c.3-.14.75.05,1.05-.08a2,2,0,0,0,1-1.08c.74-3-1-6,.66-8.76.17.19.38.5.52.48a3.67,3.67,0,0,0,3-2.73c.27-1-1.85.15-2.45-1,1.89-.7,2.71-1.91,4.48-2.44l-2.27-.91c-.6-.62-.66-1-.49-1.56.34-1,1.55-.23,2-.68.32-.3-.13-1.19.65-1.55a1.89,1.89,0,0,1-.52-.55.75.75,0,0,1,.53-1c.33-.12.77.07,1-.1,1.65-1.05-.32-2.54.13-3.73.38-1,1.84-2.55.41-3.23-1.14-.54-2.64.45-3.8-.66.66-.65,1.59-.86,2.27-1.58.18-.19.67-.06,1-.06-1.27-1-1-2.68-2.25-3.77-.21-.2-.69,0-1-.09-.82-.26-.65-1-.5-1.59C5.22,307,6.8,308,8,307c.41-.32.91.39,1,.35a14.33,14.33,0,0,1,10.48.13c1.43-1.58-.57-4.2,1.67-4.77,1.62-.41,3.2-1.18,4.89-.66,2.06.63,3.93,1.88,3.3,4.34,1.48.66,1.91,2,2.74,3.29,3.07,0,7.08,0,8.94,3.2s6.13.58,9.11.94c1,.13,1.86,1.39,3.3,1.55.59.08,1,1.13,1.13,2,1.27-.27.82,1.33,1.66,1.62a23.67,23.67,0,0,0,5.45,1.32c.88.09,1.19,1.77,2.21,1.88a102.4,102.4,0,0,1,11.53,2.23c.14,0,.44-.42.48-.39,1.45.9,1.18,3.36,2.41,4,1.57.88,3.85,0,5.83.45,1.29.31,1,2.13,1.81,3,1.44,1.49,3.72.29,5.53,1.49,1.38.93,3.05-.52,4.73.34l.59,1.34c1.13-1.44,3.55-1.37,4.13-2.84a21.17,21.17,0,0,0,1.68-4.33c.36-2.25.08-4.7,1.51-6.36s2.88-3.53,5.28-2.91c.52-1.3,1.18-1.45,1.64-2.76a.72.72,0,0,0-.55-1c-.84-.09-1.47.55-2.21,1-.48.27-1-.27-.95-.43.84-1.27,1.34-3,3.14-2.72.34.06.88.69,1,.39a21.77,21.77,0,0,0,.84-9.83c-.07-.75,1-.66,1.46-.45,2.18.95,2.09,2.83,2.7,4.88,0,.12-.44.41-.4.48,1.27,2.91-.55,6,1,8.81.26-.39.55-.7,1.09-.55V315a.83.83,0,0,1-1.05-.57,1.67,1.67,0,0,1,0-1.07.84.84,0,0,1,1.05-.57c-.2-3.64,1.79-7.28-.48-11a7.75,7.75,0,0,0-5-3.8c.55-.93,1.53-.26,2.15-.65.16-.11-.06-.68.09-1s.92-.74.93-1.13c.09-2.42-1.3-5.36,2.27-6.19a1.64,1.64,0,0,0,0-1.39c-.27-.28-1.21.1-1.44-.19-1.64-2-3.45-3.27-6.13-3.3-.79,0-.71-1-.45-1.47,1.34-2.16-.53-4-.22-6.11.12-.84-1.35-.19-1.52-1.09a1.63,1.63,0,0,1,0-1c.76-1.06,2.31-.34,2.58-1.72.38-2-1.27-2.59-2.63-3.26.18-.18.37-.49.55-.48.91,0,1.85-.45,2.79.41.38.34,1-.2.92-.44-.53-1.28-1.91-2-2.72-3.29-.09-.16-.68.05-1-.1a2,2,0,0,1-1-1.07c0-.12.37-.31.42-.54.65-2.52-2.16-1-3.23-2.18.38-.25.81-.66.48-1-1.21-1.31-2.64-2.19-4.41-.73-.11.08-.73-.52-.39-.94a3,3,0,0,1,2.13-1.13,3,3,0,0,0-1.14-2.13c-1-.64-2.3-.38-3.12-.84a15.52,15.52,0,0,1-5-4.2c-.18-.26-.05-.7-.05-1.07-.75,1-1.74,2-2.75,2s-.91-1.52-1.27-2.46-1.77-1.13-1.95-2.27c0-.16.27-.41.48-.51.52-.23.88.41,1.07.38,1.12-.2,2.58,0,3.2-1s-1.44-.81-1.37-1.56c.09-1,1.64-.26,1.86-.66,1.64-3.15-2.26-2.93-4-4.49-.8-.7,1.08-.65,1.47-1.45a1,1,0,0,0,1.55.44c.93-.71,1.74-1.3,2.8-.93a2.29,2.29,0,0,1,1.08,1.06c.14.3-.07.88.1,1a8.8,8.8,0,0,0,2.17,1.08c1.53.45,2.87-.95,4.37.1a4.32,4.32,0,0,1,1.08-2.19c.58,1.84,2.47,1.23,3.67,1.93,1.84,1.08.47,4.87,2.91,4.92,1.81,0,4.26.38,5.48-1.37.77,1.66,1.65,3.09,3.28,3,2.41-.12,4.26.38,5.5,2.48,1.44-1.66,0-3.59-1-5a1.44,1.44,0,0,1,0-1.5c1.3-1.7,2.32-3.52,2.09-5.55a.73.73,0,0,1-1-.55c.09-1.21-1.12-2.27-.51-3.2,1.05-1.62-.87-3-.09-4.45a2.07,2.07,0,0,1,1.07-1c.12-.05.39.26.5.49.23.48-.23.73-.47,1.11s.09.86.51,1c1.15.45,2.12-.7,3.27-.53a.82.82,0,0,1,.56-1.05c1.24-.41,1.27,1.09,1.41,1.66.49,2-2,4.27-.14,5.75,1.16.93,2.31-1.55,3.6-1.2s-.51.49,5.09,5.16c.75.63,1.95-.6,2.53-.25a11.69,11.69,0,0,0,6.15,2c-.16-.54.18-1,.54-1,1,.07,1.73-1,2.75-.65-.23-1.12-2-.16-1.65-1.64a2.79,2.79,0,0,1-1.09,0c-.42-.23-.69-.78-1.14-1-.28-.16-.72,0-1.05-.09a1,1,0,0,1-.45-1.52c.51-.73.9-1.78,2.09-1.73,0-.37-.12-.87.06-1a5.62,5.62,0,0,1,5.82-.9c3.55,1.85,6.54-.27,9.54-1.8a1.53,1.53,0,0,1,2.11.41c.49-.37,1.48.77,1.65-.55-1.91.47-2.32-1.75-2.46-2.77a7.67,7.67,0,0,1,1.28-5.51c.27-.39-.1-1.21.18-1.5,1.65-1.66,2.56-4.84,5.33-3.77,1.21.47,2.72.55,3.59,1.66v0c1.05-1.37,3.19-1.41,5-2,.59-.17,1.06-.66,1.73-.52-.28-1.36,1.13-1.12,1.82-1.65.38-.3,1.68-.19,1.43.38-.47,1.08-.17,2-.37,3l5.52-.21c1-1.37,2.7.14,3.91-1,.35-.35.69.18,1.07.45s.88-.09,1-.52c.59-1.93-1.44-4.08.65-5.39a2.24,2.24,0,0,1,1.57,0c.45.14.53.8.67.9,1.7,1.13,2.66-1.18,4.25-1.61.09,0,0-.62,0-1-.75.12-1.65-.37-2.2.55-.74-1-1.95-.13-2.66-.66a7.56,7.56,0,0,1-1.66-1.58,1.26,1.26,0,0,1,0-1c.16-.43.65-.48,1-.67,1.38-.79,1.9-2.57,3-3.51,3.76-3.17,3.26-7.73,5.3-11.73,1.8-.11,3.7-1.44,5.48,0-.65.66-1.57.86-2.26,1.59-.19.17-.71,0-1,.09-.93.45-1.89,2-.54,2.6,1.2.55,2.63.48,3.8,1.19-1.83.73-2.8,2.42-3.65,3.95-.52.91,1.23,1.86.91,3.19a10.44,10.44,0,0,1,1.64,0c2.51.41,4.88.31,5.88-2.28.76-1.89.14-4.09-.59-5.89-.32-.83-2-1.28-1.8-2.2.16-.55.22-1.13.38-1.7a.79.79,0,0,1,.58-.55.82.82,0,0,1-.58-.58c-.12-.31-.15-.88,0-1a32.48,32.48,0,0,1,10.38-3.92.76.76,0,0,1,.55-1c1.48-.16,3.39-1.72,4.18,0,.55,1.22-.11,2.94.83,4.23.13.18.74-.05,1,.12l1.56-3.48c.27.41.8.88,1,.51.5-1-.23-2.09-1-2.77-.23-.2-.7,0-1.06-.09-.91-.18-.24-1.49-1.12-1.71.91-1,2-.51,2.88-1.7a.87.87,0,0,1,1,0c1.38,1.7,3.6,1.25,5.14,0,.44-.35,1,.12,1,.52,0,2,0,3.16,1.27,4.58a1,1,0,0,0,1,0,9.93,9.93,0,0,0,1.71-1.68c.57,1.6,1.44,2.66,3.35,2.32a21,21,0,0,0,1.09-3.79,175.77,175.77,0,0,0-86.4-78,4.9,4.9,0,0,1-1.33,1.37c-.27.18-.72,0-1.06.1-.86.29-.39,1.73-1.68,1.73-.39,0-.55.81-.66.86-3.33,1.77-4.77,5-6.56,8-.18.27-.05.7-.05,1.07a.84.84,0,0,0-1.08.59c-.44,1.45.82,3.66-.7,4.16-3.15,1-6.74-.18-10,1.41,1,1.7,2.82,0,4.43.64.38.16.65.73,1.13.43s.73-.8,1.19-1a1.36,1.36,0,0,1,1.06,0,5.51,5.51,0,0,1,2.77,2.23c.16.28-.07.83.11,1,1.06,1,2.92,1.54,3.06,2.88.09,1-1.14,1.89-1.94,2.83a1.19,1.19,0,0,0,0,1c.67,1.53,1.44.55,2.76.58.28,3.52-1.84,6.64-.55,10.08-.55-.16-1.09.27-1,.48a23.36,23.36,0,0,0,2,3.53c1.19,1.66-.06,3.45.16,5.48,2,.9,4.58.84,5.91,2.42a2.67,2.67,0,0,1,.74,2c-.06.23-.32.38-.51.55.39.29.75.6.54,1.12-1.2,2.86.74,6,0,9,1.22,1.27,1,3,1.69,4.48-.93.21-1.79.91-2.79.52-.23-.08-.39-.48-.56-.45-.84.16-.7,1.07-.48,1.58.51,1.14,2.12.12,2.51.72,1.16,1.73,1.08,3.93,1.32,6-1.81,1.17-5.91,2.91-3.92,5.59,1.09-1,2.35-1.74,3.36-2.8.26.39.6.78,1.11.52,1.09-.55,2.3-1.34,3.28-.88a3.59,3.59,0,0,1,2,1.33c1.08,1.8,3.75,1.87,4.81,4,1.28,2.64.1,5.27.52,7.86a.79.79,0,0,0-1,.56c-.72,4-4.25,5.8-7.28,7.91-.17.14.07.8-.12,1s-.7,0-1,.11a.84.84,0,0,0-.58,1.09c-1-.47-1.66-2.05-2.72-1.52-1.38.68,0,2.77-.83,3.57-1.81,1.91-4.21-.23-6.52-.29-.39,0-.85.63-.49.95,1.3,1.17,2.89,1.14,4,2.74.26.38,1.33.26,2,.07a.78.78,0,0,0,.57-1c.91-.13.62,1.16,1.66,1.31,1.49.21,2.95.82,4.51.91-.38,2.37-.9,6.13-3.84,5.32-.9-.24-1.83-1.26-2.8-.73a11.86,11.86,0,0,1-5.66,1.65c-.27,0-.47.23-.55.54a.63.63,0,0,0-.57-.54c-.39,0-.7.5-.55,1-2.15-.47-4.4,1.39-6-.13-.49-.48-.64-1.74-1.3-1.94-2.46-.72-5.34.59-7.34-1.73a1,1,0,0,0-1.55.45c-.27-.4-.59-.77-1.12-.53-.22.11-.52.4-.48.51.16.45.77.72,1,1.17a2.52,2.52,0,0,1,0,1.09c-1.3-.09-1.57,2.32-2.66,1.49a17.11,17.11,0,0,1-2.3-2.12.92.92,0,0,1,0-1c.86-.87,2.35-.27,3.29-1.2-1.28-.74-1.64-1.38-2.9-2s-1.2,1.57-2.16,2c-.52.2-1.3.32-1.66-.48-1.2,2.3-3,1-5,1.12a.78.78,0,0,0-.58-1c-1.12-.19-2.28.16-3.3-.19-.11,0,.09-.7-.1-1-1.26-1.8-3.36-2.16-5-3.4a3.65,3.65,0,0,1-4.47.57c-1.2,1.25-.89,2.88-1.28,4.43-.33,1.29-2,1.23-3.2,1.72a13.79,13.79,0,0,0-3.91-5.6c-4-.14-9.52-1.48-11.29,3.32a1,1,0,0,1-.93,0c-.93-1.21-2-2.09-2.88-3.3-1,1.1-2.23.35-3.35.56.42-1.25.38-2.91,1.71-3.17,2.46-.51,4.65.87,6.54-.9s3-3.87,5.23-4.73c.09,0,.55.68,1,.37,1.09-.74,2.31-.34,2.78-1.65.26-.71-.37-1.71.63-2.18,1.52-.74,3.13,1.4,4.45,0-.39-.27-.83-.66-.5-1.06,2.09-2.54,5.88-.71,8.46.85,1.56.94,3.45-1,5.56,0,.26.1.93-1,1.6-1.41.3-.18.77.05,1.07-.1a4.91,4.91,0,0,0,1.14-1.07c-2-1.43-4.33.31-6.2,1-2.34.85-3.54-2.23-5.55-3.23a3.69,3.69,0,0,0-1.79-3.76c-.65-.46-1.74,0-2.67-.21-.45-.1-.86-.62-.52-1,1.13-1.21.19-2.66-.66-3.36-.24-.17-.89-.16-1,0-.89,1.76-2.33,1.78-4,1.64.13-.77-.37-1.68.56-2.25-.27-.39-.59-.76-1.1-.52-.23.1-.39.35-.56.52-.29-.39-.58-.7-1.12-.55-.12-2-.4-3.62,1.2-4.91.36-.29,1.1.07,1.65.23,3.42,1,6.53-1.05,10-1.13a2.56,2.56,0,0,0,2.2-1.48c.13-.32-.08-.88.1-1a4.83,4.83,0,0,0,2.09-5.66c-.1-.45-.66-1-1-1-1.72.09-3.41,2.07-4.89,1.29s-.16-2.89,1.08-3.39c1.7-.67,3.8-1.1,5.56-1.75,2.24-.84,4.77-.71,7.19-1.37a.8.8,0,0,0,.58-1.05c.92-.21,1.8-1,2.77-.51s1,.84,1.77,1.56c.37.35.84-.08,1-.51s-.14-.84-.53-1.11c.27-.39.59-.77,1.09-.53.23.1.41.48.57.45.43-.06.86-.62.5-1-.62-.61-.32-2-1.62-1.74v-1.11c1.19,0,1.7-1.21,2-1.8.7-1.35.08-3.23.3-4.91.05-.43.59-.85,1-.5,1.27,1.08,3.22.41,3.16-.62s-1.71-.18-2.51-.67c-.16-.09.08-.77-.11-1-.87-.82-2.17-1.25-2.63-2.34-.69-1.63,0-3.56.73-4.84.57-1,1.42-2.38,2.59-2.8a16.4,16.4,0,0,0,3.84-1.83c-1.23-1-2.27-3.09-3.78-2.06-2,1.38-3.8,4.06-6.17,2.94-.41-.2-.63-1.69-1.26-1.81-1.19-.22-1.82,1.91-2.73,1.77-2-.35-3.39-2.19-5.63-.84-1.37-2.72-.65-5.64-.31-8.36.19-1.36,2-.34,2.55.52,2.34-2.13,4.27-4.59,6.54-6.87.68-.68-.32-1.77-.74-2.73-.87-2,.74-5.09-1.88-6.06-1.52,1.71-2,4.11-4,5.53a26.83,26.83,0,0,0-4,3.88,1,1,0,0,1-1.55-.46c-.39-.87.49-1.42.62-2.23.08-.44.62-.48,1-.68a2.7,2.7,0,0,0,1.17-2.12.75.75,0,0,0,1-.56,10.17,10.17,0,0,1,1.41-5.45c.56-.82,1.52-1.45,2-2.41.16-.31,0-.73.1-1.09.63-2.46,3-1.5,4.2-3a2.42,2.42,0,0,0-.34-3.16,13.65,13.65,0,0,0-4.46,3.91c-2.7-.16-5.9-.37-7.23-2.81-.27-.49.16-1,.51-1,2,.26,3.25-.81,3.55-2.88,0-.23.75.12.91.55s-.07.78.09,1.09a2.54,2.54,0,0,0,1.09,1.07,1.28,1.28,0,0,0,1.07,0c.45-.22,1-.72,1-1-.14-1-1.7-.27-1.91-.69-.55-1.06-1.46-2.79-.55-3.63s2.66,1.44,3.64-.24c.38-.64-.34-1.73.67-2.12a4.76,4.76,0,0,1,1.64-.06c-.14.55.23,1.09.54,1,1.45-.4,1.34-2,0-2.68.62-.84.95-.92,1.57-1.76a1.46,1.46,0,0,0,.17-.6,175.72,175.72,0,0,0-32.14-3.07c-96.66,0-175,78.38-175,175A174.45,174.45,0,0,0-18.9,397.54,2.14,2.14,0,0,0-18.45,397.33ZM110.23,111.43c.54.16.77-.25,1.16-.5s.93.06,1,.52a33.36,33.36,0,0,0,1.48,4c.75,2.16-2.36,6-4.68,3.72-.09-.08.23-.66.49-1,.6-.74,1.77-.77,2.19-1.71a.74.74,0,0,0-.55-1c-.73-.17-1.8.18-2-.17C108.49,114,110.49,112.93,110.23,111.43ZM52.32,167.37c.55-.79,1.24-1.77,2-1.81s1.66,1.2,2.35.64c2.3-1.84-1.14-1.94-2.31-2.91-.32-.28.07-.73.45-.89,1.3-.56,1.79.7,3,1,.13-.77.48-1.78,1-1.8,2.55-.05,5.3,1,7.35-.8.17-.14.22-.72.62-.84a1.71,1.71,0,0,1,1.41,0c.73.58.76.91,1.57,1.38a.67.67,0,0,0,1-.48c.21-.65-.3-1.47.53-2-.17-.16-.31-.41-.52-.45a1.44,1.44,0,0,0-1.53.39c-.31.31-.63-.23-1-.37a1,1,0,0,0-1.46.43c-.9-1.25-2.34,0-3.58-.86a2,2,0,0,0-2,.23c-.53.29-1.48-.27-1.82-.91-.21-.41-.29-1.33.42-1.34,1.6,0,3-1.09,4.46-.11,1.6-1.48,2.39-3.79,5-3,1.14-1.48,1-3.23,1-5-.48.14-.74-.16-1-.5-1.77,1.38-3.73.23-4.92-1-.17-.18-.06-.62-.06-.93a.75.75,0,0,1-.95-.51,2,2,0,0,1,0-1c.15-.8,1.28-.2,1.47-1,.74,1.1.69,2.38,2,2.93.09,0,.41-.26.41-.43,0-.84.49-1.82-.44-2.5.16-.16.31-.41.51-.45a1.52,1.52,0,0,1,1.55.39c.3.34.68-.08.93-.43.16.17.42.45.45.43,1.64-1.27-.39-3-1.3-4-.69-.8,1.2-.62,1.24-1.37.1-1.68-3.38-2.72-.84-3.87.2-.08.59.41.45.89h1a.73.73,0,0,1,.52-1c.3-.12.76-.16.91,0,.73.84,1,2,1.63,2.88.12.17.59.05.92.05-.19-.83.63-1.23,1-1.34,1.28-.37,1.48,1.33,1.52,2.34,0,.36.52.76.87.45.7-.62,1.78-1.62,2.49-.42.55.93-1.05.68-.95,1.47.48-.12.69.31,1,.42,2.21.71.73-2,2-2.85.41-.3.66.23,1,.37,1.81.78,2.65-1.29,2.7-2.42.07-1.52-2.55-.27-3-1.56-1.1-3.34,3.87-.84,5.67-2.47.31-.3-.06-.75-.45-.9s-.69.05-1-.07c-.84-.41-1.65-2.12-.51-2.2,2.44-.15,7.42-3,7,1.24A.58.58,0,0,0,95,129c.33-.23.52-.59,1-.45-.34-.78.43-1.27.55-2a.6.6,0,0,1,.91-.47c1.07.73,2,1.59,1.49,2.93-.24.73-.91.41-1.45.53l-.42.58a4.76,4.76,0,0,0,1.7-.27l.46-.47c1.82,1.23,3.94-.06,5.69.66,1.52.63,3.27,1.29,3.58,3,0,.19-.66.66-.31.92,1.3.95,1,2.11,1.2,3.27.26,1.69-2.28,1.62-3.33,3.14-.29.43.08.82.5,1s.8-.06,1,.1c1,1.06,4.06,2.54,2.07,4-.52.41-1.8-.27-1.85.63-.07,1.54-.34,2.25-1.37,2.87-1.61,1-3.54,1.2-5.52,1.59a3.82,3.82,0,0,0-2.4,1.73l0,0s-.07,0-.11.12a.35.35,0,0,1,.06-.16l-.3-.21c-.87,2.38,1,4.09.16,6.21-.63,1.58-.86,3.4-1.45,5-.16.43-.53,1.21-1.37,1a11.85,11.85,0,0,1-2.66,5.82c-1.7,2-3.22,3.58-3.8,6.12a33.57,33.57,0,0,0-3.44-.66c-1.33-.39-2.59-1-4-1.4-.4-.12-.63-.74-1-.86a3.66,3.66,0,0,0-4,1.37.88.88,0,0,1-.9,0c-.61-.37-1.07-1.3-1.51-1.25-.94.12-1.26,1.59-2.09,2.17-1.17.78-.55-1.59-1.27-1.16-1.52.9-3.09-1.47-4.48-.48-.13.09-.25,3.13-.64,3.2a8.56,8.56,0,0,1-3,0,.71.71,0,0,1-.51-.94,3.75,3.75,0,0,1-2.47-.53c-.39-.13-.45-.69-.62-.84-1.26-1.16-3.16-.3-4.42.83-.35.29-.77-.06-.91-.46a1.4,1.4,0,0,1,0-1c.72-1.56,2.48-.8,3.91-1.08.77-.14.63-1.17.43-1.29-1.92-1-.58-2.41-.91-4.12-1.55-.29-2.93.88-4.46.46C52.38,168.18,52,167.79,52.32,167.37Z" fill="#7c7814"/><path d="M219.44,387.7a2.21,2.21,0,0,1-.11-1.76c.48-1.23,2.38.13,2.55-1.13,0-.31-.54-.78-1-1s-.8.13-1.09.51c-1.66-1.91.1-3.06,1.64-3.83-.25-.39-.55-.7-1.09-.55v-1.66c1.15.17,2.61-.12,2.49-1.05-.21-1.7-.16-3.73,1.41-4.2,1-.29,2.3-1.26,3.1-.61,1,.81,2,.59,2.87,1.48,1.25-1.59,2.58-4.49,1.72-6.6,0-.1.3-.47.47-.47s.38.29.56.48c.73-1,1.82-.35,2.73-.55,0,.58,0,1.13,0,1.7q4.2-5.71,7.95-11.74a29.7,29.7,0,0,0-.48-4.77c-2.76,0-5.55.33-8.2-.63-.59-.21-.92-.87-1.32-1.44-.55-.8-2.09-.48-3-.87s-.74-2.23-1.37-2.9c-1.76-1.91-4.32-.61-6.25.56-1.63,1-1.7,3.52-3.47,4.64-.62.38-1.59-.28-2.14.63-.18-.17-.44-.52-.52-.48-1.43.75-2.88.24-3.33,2.12l-1.26.42c.33.55-1,.46-1.58.81-1,.63-2.47-.11-3.73-.2s-2,1.53-3.23,2.12c-.14.07,0,.67-.1,1a1.91,1.91,0,0,1-1.06,1c-.86.25-2-.21-2.61.23-2.44,1.7-5.09,2.07-7.78,2.6a.79.79,0,0,1-.57,1c-.55.19-1.27-.18-1.62.6-.92-.55-.35-1.47-.59-2.18a.73.73,0,0,0-1-.53c-.73.41-1.41,1.23-2.16,1a3.34,3.34,0,0,1-1.69-2.62c-.87.35-1.41-.49-2.19-.62a.78.78,0,0,1-.55-1c-1.09-.2-2.62.66-3.14-.6-.08-.19.54-.77,1-1s.82.08,1-.09.07-.66.07-1a2.51,2.51,0,0,1-2.74-1.09c-1.19,1-2.66,1.59-3.9,2.68-.37.33-.87-.06-1-.51a13.18,13.18,0,0,1-.05-2.72c-.53.14-.77-.35-1.13-.45a2,2,0,0,0-2.23.37c-.35.35-.84-.05-1-.48s.06-.77-.08-1.05a1.87,1.87,0,0,0-2.63-1c-1.94,1.08-3.35,2.27-5.54,2.62.27,1.25-1.14,1.27-1.7,1.42-1.34.34-3-.68-3.59.84a16.19,16.19,0,0,0-1.38,4.3.74.74,0,0,1-1,.55,5.42,5.42,0,0,1-.36,1.74c-.57,1.37.83,3.06-.59,4a2.66,2.66,0,0,0,.88,1.68c.37.3-.12,1-.47.92-1.85-.22-2.21,1-2.73,2.29a.8.8,0,0,0,.55,1.07c.34.09.76-.08,1.05.08a4.69,4.69,0,0,1,1.13,1c-1.58.88-1.92,3-3.37,3.65a9.35,9.35,0,0,1-3.75,1c-2.8-.12-5.37,1.62-8.35,1,.16.55,0,.7-.44.77a15.23,15.23,0,0,0-4.94,2.26c-1.66-1.12-3.65-.27-5.55-.82-1.27-.38-3,.29-4.19,1-1.52.91-2.32,2.6-3.78,3.87-1.1,1-.87,3.32-2.44,4-.16.08-.77-.88-1-.8-2.21.73-3.17,2.72-5.11,4.06a10.7,10.7,0,0,0-3.11,2.41c-.17.27,0,.9-.09,1-2.8,1.16-3.55,4-5.54,6-.27.29-1.32,0-1.4.17-1.47,3.8-.55,7.93-1,12a2.31,2.31,0,0,0,1.42,2.11,1.53,1.53,0,0,0,1.69-.43c.34-.34.93.09,1,.48.27,4.32-5.9,4.45-9.25,4.95.15.52-.17,1-.55,1-3.41-.25-4,3.36-4.46,6.12a.76.76,0,0,1-1,.56c0,1.95-.54,4-2.26,4.82-1,.47-1.8-.58-2.73-.87-3.73-1.29-7.61-1-11.43-.43-2.11.3-2.63,2.59-3.23,4.63a174.48,174.48,0,0,0,27.65,2.4A174.49,174.49,0,0,0,219.44,387.7Z" fill="#7c7814"/><path d="M314.93,401H-.07V2h315Z" fill="none"/><polygon points="299.45 176.89 207.66 176.9 207.66 182 275.51 182 269.22 187.09 207.66 187.09 207.66 192.19 251 192.19 244.71 197.28 207.66 197.28 207.66 202.37 226.55 202.37 220.26 207.47 207.66 207.47 207.66 212.56 221.91 212.56 234.49 202.37 246.35 202.37 258.94 192.19 270.88 192.19 283.45 182 299.45 181.99 299.45 176.89" fill="#fff"/><polygon points="299.45 217.66 231.5 217.66 237.79 212.56 299.45 212.56 299.45 207.47 255.95 207.47 262.24 202.37 299.45 202.37 299.45 197.28 280.46 197.28 286.75 192.18 299.45 192.18 299.45 187.08 285.11 187.09 272.52 197.28 260.58 197.28 248.01 207.47 236.14 207.47 223.56 217.66 207.66 217.66 207.66 222.75 299.45 222.75 299.45 217.66" fill="#fff"/><path d="M19.33,185.8H15.48V173H19.9c2.13,0,3.71.6,3.71,3.18a2.56,2.56,0,0,1-2.22,2.91c1.79.3,2.39,1.33,2.39,3.21C23.78,185.34,21.92,185.8,19.33,185.8Zm-.23-11h-1v3.42l.94,0c1.29,0,2-.39,2-1.77S20.22,174.84,19.1,174.84ZM19,180.07h-.94v3.87H19c1.17,0,2.07-.27,2.07-2C21.12,180.55,20.5,180.07,19,180.07Z" fill="#fff"/><path d="M25.81,175.09v-2h2.5v2Zm0,10.71v-8.94h2.5v8.94Z" fill="#fff"/><path d="M35.12,186A2.18,2.18,0,0,1,33,184.84v1H30.56c0-.09.05-1.56.05-1.65V173h2.48v4.75a2.55,2.55,0,0,1,2.25-1.08c2.45,0,2.57,2,2.57,4.61C37.92,183.67,37.71,186,35.12,186Zm-.8-7.86c-1.12,0-1.22,1.42-1.22,3.16s.11,3.23,1.19,3.23,1.14-1.38,1.14-3.33C35.42,179.49,35.38,178.12,34.32,178.12Z" fill="#fff"/><path d="M39.85,185.8V173h2.5V185.8Z" fill="#fff"/><path d="M44.66,175.09v-2h2.5v2Zm0,10.71v-8.94h2.5v8.94Z" fill="#fff"/><path d="M52.78,186c-3.21,0-3.69-1.83-3.69-4.65s.53-4.72,3.72-4.72,3.64,1.7,3.64,4.51S56.1,186,52.78,186Zm1.14-5.66c0-1.15-.07-2.18-1.12-2.18s-1.19,1.4-1.19,2.57v1.63c0,.89,0,2.11,1.17,2.11s1.14-1.29,1.14-2.32Z" fill="#fff"/><path d="M61.24,185.92c-1.88,0-2.54-.57-2.54-2.43v-5.11H57.55v-1.53H58.7v-1.53l2.48-1v2.48h1.38v1.53H61.19v4.82c0,.78.12,1.14.9,1.14.2,0,.35,0,.55-.05v1.53A6.93,6.93,0,0,1,61.24,185.92Z" fill="#fff"/><path d="M68.81,185.8v-5.94c0-.85-.05-1.72-1-1.72s-1.15.9-1.15,1.9v5.76h-2.5V173h2.5v4.75A2.71,2.71,0,0,1,69,176.65c1.81,0,2.34,1,2.34,2.71v6.44Z" fill="#fff"/><path d="M75.73,181.61c0,.07,0,.73,0,.78.05,1.45.25,2.15,1.12,2.15s1.08-.89,1.08-1.7h2.41c-.07,2.22-1.17,3.17-3.48,3.17-3.17,0-3.64-1.9-3.64-4.61s.66-4.75,3.72-4.75,3.44,2.06,3.44,4.74v.23ZM77,175.48l-2.54-2.54h2.39l1.61,2.54Zm.9,3.64c-.09-.57-.34-1-1-1s-1,.46-1.06,1.12a6.49,6.49,0,0,0-.07,1h2.16A6.48,6.48,0,0,0,77.86,179.11Z" fill="#fff"/><path d="M89.28,178.9v10.3h-2.5v-4.26a2.41,2.41,0,0,1-2.09,1c-2.59,0-2.75-2.13-2.75-4.36,0-2.54.09-4.93,2.71-4.93a2.44,2.44,0,0,1,2.23,1.15l0-1h2.41C89.31,177,89.28,178.79,89.28,178.9Zm-3.71-.75c-1.1,0-1.14,1.86-1.14,3.35s.05,3,1.12,3,1.21-1.49,1.21-3C86.76,180.23,86.78,178.16,85.57,178.16Z" fill="#fff"/><path d="M96.35,185.8l0-1A2.5,2.5,0,0,1,94.08,186c-1.68,0-2.41-.8-2.41-2.54v-6.58h2.5v5.94c0,.85.05,1.7,1,1.7s1.14-.94,1.14-1.84v-5.8h2.5v7.48c0,.43,0,1.06.05,1.45Z" fill="#fff"/><path d="M103.31,181.61c0,.07,0,.73,0,.78.05,1.45.25,2.15,1.12,2.15s1.08-.89,1.08-1.7h2.41c-.07,2.22-1.17,3.17-3.48,3.17-3.17,0-3.64-1.9-3.64-4.61s.66-4.75,3.72-4.75,3.44,2.06,3.44,4.74v.23Zm2.13-2.5c-.09-.57-.34-1-1-1s-1,.46-1.06,1.12a6.49,6.49,0,0,0-.07,1h2.16A6.47,6.47,0,0,0,105.44,179.11Z" fill="#fff"/><path d="M119.2,186a2.22,2.22,0,0,1-2-1v4.2h-2.48V178.81c0-.11,0-1.84-.05-2h2.45l0,1a2.6,2.6,0,0,1,2.29-1.19c2.47,0,2.61,2,2.61,4.59S121.79,186,119.2,186Zm-.83-7.86c-1.14,0-1.21,1.6-1.21,3.28s.2,3.1,1.21,3.1,1.12-1.77,1.12-3.33C119.48,179.42,119.39,178.12,118.36,178.12Z" fill="#fff"/><path d="M128.6,185.8l0-1a2.5,2.5,0,0,1-2.25,1.14c-1.68,0-2.41-.8-2.41-2.54v-6.58h2.5v5.94c0,.85.05,1.7,1,1.7s1.14-.94,1.14-1.84v-5.8H131v7.48c0,.43,0,1.06.05,1.45Z" fill="#fff"/><path d="M137.85,186a2.18,2.18,0,0,1-2.13-1.14v1H133.3c0-.09.05-1.56.05-1.65V173h2.48v4.75a2.55,2.55,0,0,1,2.25-1.08c2.45,0,2.57,2,2.57,4.61C140.66,183.67,140.44,186,137.85,186Zm-.8-7.86c-1.12,0-1.22,1.42-1.22,3.16s.11,3.23,1.19,3.23,1.14-1.38,1.14-3.33C138.16,179.49,138.12,178.12,137.06,178.12Z" fill="#fff"/><path d="M142.59,185.8V173h2.5V185.8Z" fill="#fff"/><path d="M147.4,175.09v-2h2.5v2Zm0,10.71v-8.94h2.5v8.94Z" fill="#fff"/><path d="M159.17,178.9v10.3h-2.5v-4.26a2.41,2.41,0,0,1-2.09,1c-2.59,0-2.75-2.13-2.75-4.36,0-2.54.09-4.93,2.71-4.93a2.44,2.44,0,0,1,2.23,1.15l0-1h2.41C159.21,177,159.17,178.79,159.17,178.9Zm-3.71-.75c-1.1,0-1.14,1.86-1.14,3.35s.05,3,1.12,3,1.21-1.49,1.21-3C156.65,180.23,156.67,178.16,155.46,178.16Z" fill="#fff"/><path d="M166.16,185.8l0-1a2.5,2.5,0,0,1-2.25,1.14c-1.68,0-2.41-.8-2.41-2.54v-6.58H164v5.94c0,.85.05,1.7,1,1.7s1.14-.94,1.14-1.84v-5.8h2.5v7.48c0,.43,0,1.06.05,1.45Z" fill="#fff"/><path d="M173,181.61c0,.07,0,.73,0,.78.05,1.45.25,2.15,1.12,2.15s1.08-.89,1.08-1.7h2.41c-.07,2.22-1.17,3.17-3.48,3.17-3.18,0-3.64-1.9-3.64-4.61s.66-4.75,3.72-4.75,3.44,2.06,3.44,4.74v.23Zm2.13-2.5c-.09-.57-.34-1-1-1s-1,.46-1.06,1.12a6.51,6.51,0,0,0-.07,1h2.16A6.5,6.5,0,0,0,175.15,179.11Z" fill="#fff"/><path d="M83.44,204.49v-1a2.34,2.34,0,0,1-2.15,1.14c-2.57,0-2.78-2.27-2.78-4.63,0-2.64.27-4.7,2.64-4.7a2.41,2.41,0,0,1,2.18,1.08v-4.75h2.5v11.16c0,.09.05,1.58.05,1.67Zm-1.29-7.68c-1,0-1.14,1.31-1.14,3.26,0,1.56.09,3.12,1.15,3.12s1.15-1.45,1.15-3.12S83.25,196.81,82.15,196.81Z" fill="#fff"/><path d="M89.62,195.7h-1.7l.62-4h2.39Z" fill="#fff"/><path d="M93,193.78v-2h2.5v2Zm0,10.71v-8.94h2.5v8.94Z" fill="#fff"/><path d="M102.44,204.49v-6c0-.94-.05-1.7-1-1.7s-1.15,1-1.15,1.93v5.73h-2.5V197a13,13,0,0,0-.05-1.44h2.52l0,.9a2.6,2.6,0,0,1,2.29-1.12c1.74,0,2.38.89,2.38,2.71v6.44Z" fill="#fff"/><path d="M111.29,193.14c-1,0-1.19.39-1.19,1.42v1h1.35v1.53H110.1v7.41h-2.48v-7.41h-1.19v-1.53h1.19v-1.4c0-1.83.64-2.61,2.41-2.61.46,0,1,0,1.47.05v1.56A.86.86,0,0,0,111.29,193.14Z" fill="#fff"/><path d="M116.34,204.71c-3.21,0-3.69-1.83-3.69-4.65s.53-4.72,3.72-4.72S120,197,120,199.85,119.66,204.71,116.34,204.71Zm1.14-5.66c0-1.15-.07-2.18-1.12-2.18s-1.19,1.4-1.19,2.57v1.63c0,.89,0,2.11,1.17,2.11s1.14-1.29,1.14-2.32Z" fill="#fff"/><path d="M126.27,197.47c-1.45,0-1.83.87-1.83,2.16v4.86h-2.5v-7.25c0-.09-.05-1.6-.05-1.69h2.39l0,1.15a2.22,2.22,0,0,1,2.29-1.33l.09,0v2.09A2.36,2.36,0,0,0,126.27,197.47Z" fill="#fff"/><path d="M137.18,204.49v-6c0-.83,0-1.65-.92-1.65s-1.1,1-1.1,1.9v5.75h-2.5v-6.14c0-.76-.09-1.51-.9-1.51s-1.12,1-1.12,1.93v5.71h-2.48v-7.64a10.42,10.42,0,0,0-.05-1.29h2.45l0,1a2.61,2.61,0,0,1,2.25-1.21,2,2,0,0,1,2.11,1.21,2.83,2.83,0,0,1,2.38-1.21c1.9,0,2.38,1.15,2.38,2.93v6.23Z" fill="#fff"/><path d="M146.3,204.49l-.05-1.06a2.48,2.48,0,0,1-2.34,1.24c-1.68,0-2.39-1.12-2.39-2.73,0-2.66,1.84-3.1,4-3.1h.59v-.48c0-.76,0-1.61-.92-1.61-.71,0-1,.5-1,1.15v.16h-2.47v-.16c0-2.09,1.92-2.55,3.53-2.55,2.31,0,3.28.82,3.28,3.09v3.26a21,21,0,0,0,.16,2.8Zm-.18-4.33h-.39c-1.19,0-1.72.46-1.72,1.65,0,.67.18,1.35.94,1.35,1,0,1.17-1.12,1.17-2Z" fill="#fff"/><path d="M153.66,204.62c-1.88,0-2.54-.57-2.54-2.43v-5.11H150v-1.53h1.15V194l2.48-1v2.48H155v1.53H153.6v4.82c0,.78.12,1.14.9,1.14.2,0,.35,0,.55-.05v1.53A6.93,6.93,0,0,1,153.66,204.62Z" fill="#fff"/><path d="M156.58,193.78v-2h2.5v2Zm0,10.71v-8.94h2.5v8.94Z" fill="#fff"/><path d="M164.56,204.71c-3.21,0-3.69-1.83-3.69-4.65s.53-4.72,3.72-4.72,3.64,1.7,3.64,4.51S167.88,204.71,164.56,204.71ZM165.7,199c0-1.15-.07-2.18-1.12-2.18s-1.19,1.4-1.19,2.57v1.63c0,.89,0,2.11,1.17,2.11s1.14-1.29,1.14-2.32Z" fill="#fff"/><path d="M174.67,204.49v-6c0-.94-.05-1.7-1-1.7s-1.15,1-1.15,1.93v5.73H170V197a13,13,0,0,0-.05-1.44h2.52l0,.9a2.6,2.6,0,0,1,2.29-1.12c1.74,0,2.38.89,2.38,2.71v6.44Z" fill="#fff"/><path d="M63.85,223c-3.8,0-4-2.61-4-6.65,0-3.69.14-6.67,4.11-6.67,2.61,0,3.62,1.26,3.62,3.71v.28h-2v-.23c0-1.08-.23-2.25-1.7-2.25-1.93,0-2,2-2,5,0,3.67.14,5.29,2,5.29,1.63,0,1.86-1.24,1.86-2.52v-.28h2V219C67.68,221.66,66.46,223,63.85,223Z" fill="#fff"/><path d="M71.19,218.47v.71c0,1.51.21,2.48,1.37,2.48s1.31-.92,1.33-1.84h1.76c-.09,2-.92,3.09-3.09,3.09-2.94,0-3.21-2-3.21-4.45s.27-4.9,3.32-4.9c2.43,0,2.93,1.53,3,3.42,0,.48,0,1,0,1.49Zm2.64-2.31c-.09-.74-.37-1.35-1.22-1.35s-1.24.59-1.35,1.42a7.57,7.57,0,0,0-.07,1.12h2.68A8.84,8.84,0,0,0,73.84,216.16Z" fill="#fff"/><path d="M82.35,222.71v-5.87c0-1,0-2-1.19-2s-1.49,1.26-1.49,2.16v5.71H77.83v-7.25c0-.57,0-1.12-.07-1.69h1.86v1.08a2.58,2.58,0,0,1,2.25-1.29c1.79,0,2.32,1.21,2.32,2.77v6.39Z" fill="#fff"/><path d="M89.37,222.8c-1.81,0-2.29-.6-2.29-2.34V215H85.84v-1.26h1.24v-1.58l1.84-.78v2.36h1.49V215H88.93v5.2c0,.9.16,1.22,1,1.22.2,0,.41,0,.62-.05v1.33A7.94,7.94,0,0,1,89.37,222.8Z" fill="#fff"/><path d="M96,215.26c-1.42,0-2,.89-2,2.2v5.25H92.19v-7.33c0-.23-.05-1.38-.07-1.61h1.77l.05,1.17a2.34,2.34,0,0,1,2.27-1.35l.12,0v1.69A2.16,2.16,0,0,0,96,215.26Z" fill="#fff"/><path d="M99.25,218.47v.71c0,1.51.21,2.48,1.37,2.48s1.31-.92,1.33-1.84h1.76c-.09,2-.92,3.09-3.09,3.09-2.94,0-3.21-2-3.21-4.45s.27-4.9,3.32-4.9c2.43,0,2.93,1.53,3,3.42,0,.48,0,1,0,1.49Zm2.64-2.31c-.09-.74-.37-1.35-1.22-1.35s-1.24.59-1.35,1.42a7.57,7.57,0,0,0-.07,1.12h2.68A8.84,8.84,0,0,0,101.89,216.16Z" fill="#fff"/><path d="M113.72,217.16h-1.08v5.55h-2V209.89h3.42c2.59,0,3.83.82,3.83,3.55C117.9,216.77,116.22,217.16,113.72,217.16Zm-.07-5.78h-1v4.27h.92c1.65,0,2.34-.46,2.34-2.2S115.19,211.38,113.65,211.38Z" fill="#fff"/><path d="M122.42,222.9c-3,0-3.28-1.88-3.28-4.63,0-2.54.35-4.72,3.35-4.72s3.19,1.84,3.19,4.51C125.69,221,125.35,222.9,122.42,222.9Zm1.4-5.36c0-1.24,0-2.73-1.37-2.73s-1.45,1.72-1.45,2.77v1.54c0,1,0,2.54,1.42,2.54s1.4-1.4,1.4-2.45Z" fill="#fff"/><path d="M136.38,222.71v-6c0-.87,0-1.81-1.08-1.81s-1.33,1.12-1.33,2v5.85h-1.84v-6.07c0-1-.05-1.79-1-1.79s-1.37,1.42-1.37,2.18v5.68h-1.84v-7.57a11.77,11.77,0,0,0-.07-1.37h1.84v1.06a2.53,2.53,0,0,1,2.13-1.28,1.81,1.81,0,0,1,2,1.29,2.8,2.8,0,0,1,2.23-1.29c2,0,2.23,1.6,2.23,3v6.12Z" fill="#fff"/><path d="M144.59,222.87a2.2,2.2,0,0,1-2-1v4.22h-1.84V215.86c0-.3,0-1.79-.07-2.09h1.81l0,1a2.57,2.57,0,0,1,2.23-1.21c2.39,0,2.5,2.16,2.5,4.58S147.08,222.87,144.59,222.87Zm-.57-8.05c-1.44,0-1.47,2-1.47,3.53s.11,3.26,1.47,3.26,1.35-2.2,1.35-3.55C145.37,216.47,145.32,214.82,144,214.82Z" fill="#fff"/><path d="M149.38,211.78V210h1.92v1.74Zm0,10.93v-8.94h1.84v8.94Z" fill="#fff"/><path d="M158.23,222.71l0-1a2.27,2.27,0,0,1-2.09,1.15c-2.45,0-2.66-2.39-2.66-4.65,0-2.43.28-4.67,2.57-4.67a2.26,2.26,0,0,1,2.08,1v-4.72h1.84v11.17c0,.25.05,1.4.07,1.65Zm-1.54-7.89c-1.29,0-1.38,1.68-1.38,3.46,0,1.61.14,3.35,1.37,3.35s1.44-1.74,1.44-3.3C158.11,216.55,158,214.82,156.69,214.82Z" fill="#fff"/><path d="M165.4,222.9c-3,0-3.28-1.88-3.28-4.63,0-2.54.35-4.72,3.35-4.72s3.19,1.84,3.19,4.51C168.66,221,168.32,222.9,165.4,222.9Zm1.4-5.36c0-1.24,0-2.73-1.37-2.73s-1.45,1.72-1.45,2.77v1.54c0,1,0,2.54,1.42,2.54s1.4-1.4,1.4-2.45Z" fill="#fff"/><path d="M175.4,222.71l0-1a2.42,2.42,0,0,1-2.18,1.19c-1.69,0-2.36-1-2.36-2.62v-6.47h1.84v5.85c0,.89,0,2,1.21,2s1.45-1.22,1.45-2.2v-5.64h1.84V221c0,.62,0,1.1.07,1.69Z" fill="#fff"/></svg>