<svg xmlns="http://www.w3.org/2000/svg" width="315" height="399" viewBox="0 0 315 399"><title>Education_LOGO</title><rect x="-88.02" y="-21.69" width="445.48" height="458.28" fill="#004960"/><path d="M94.93,87.79c-96.66,0-175,78.38-175,175a175,175,0,0,0,350,0C269.94,166.17,191.58,87.79,94.93,87.79ZM213.07,311.34c0,13.11-9.59,23.67-21.43,23.67H158.48v67.42H140.76V335H49.11v67.42H31.36V335H-1.77c-11.87,0-21.46-10.57-21.46-23.67V181.4c0-13,9.59-23.65,21.46-23.65H191.65c11.84,0,21.43,10.61,21.43,23.65Z" fill="#00394b"/><path d="M191.65,172.55H-1.77c-3.61,0-6.68,4-6.68,8.85V311.34c0,4.86,3.07,8.87,6.68,8.87H191.65c3.59,0,6.64-4,6.64-8.87V181.4C198.29,176.58,195.24,172.55,191.65,172.55Zm.76,138.79a3.83,3.83,0,0,1-1.07,3H-1.77a7.31,7.31,0,0,1-.78-3V181.4a4,4,0,0,1,1.13-3l193,.06a7.9,7.9,0,0,1,.79,2.95Z" fill="#00394b"/><path d="M178.83,264.41l-1.21-.2a3.49,3.49,0,0,0-2.73,1.28q-5.21,5.58-10.9,11.18A40.56,40.56,0,0,1,151.8,285a37.91,37.91,0,0,1-6.84,2.22,10.33,10.33,0,0,1-6.07-.24,3.66,3.66,0,0,1-2.23-2.4,11.41,11.41,0,0,1-.55-4.34,28,28,0,0,1,.94-5.66,24.86,24.86,0,0,1,2.12-5.34,55.14,55.14,0,0,1,8.7-12.53l3-3a10.33,10.33,0,0,1,3.12-2.13,4.13,4.13,0,0,1,2.83-.51,3.57,3.57,0,0,1,.91,1.88l.38,1.8a3.62,3.62,0,0,0,2.85,2.65l1.13.13a3.33,3.33,0,0,0,2.68-1.13,4.78,4.78,0,0,0,1-2.65,7.51,7.51,0,0,0-.24-2.69l-.49-1.66a9.65,9.65,0,0,0-4-5.21,8.62,8.62,0,0,0-6.63-1.37,15.89,15.89,0,0,0-7.45,3.72c-2,1.73-3.81,3.45-5.61,5.24a67.73,67.73,0,0,0-8.69,12.33l-1,1.48a41.24,41.24,0,0,1-4.14,4.23,24.73,24.73,0,0,1-4.47,3.17,9.12,9.12,0,0,1-4.73.58q1.55-3.19,2.87-6.49a33,33,0,0,0,2.21-9.57,29.59,29.59,0,0,0-.27-7.71,9.75,9.75,0,0,0-5.07-7.4,9.22,9.22,0,0,0-4.29-.7,8.61,8.61,0,0,0-3.89,1.41A15.09,15.09,0,0,0,107,245.7a17.79,17.79,0,0,0-2.19,3,26.74,26.74,0,0,0-2.44,7.44A27.81,27.81,0,0,0,102,264a27.45,27.45,0,0,0,1.87,7.53,14.54,14.54,0,0,0,3.52,5.2,43.12,43.12,0,0,1-3.63,4.89,21.12,21.12,0,0,1-5.92,4.79,10.62,10.62,0,0,1-5.53,1.5,4,4,0,0,1-3.54-1.72,7,7,0,0,1-1.27-4.61c.12-2.19.3-4.22.53-6.05a55.64,55.64,0,0,1,1.48-6.92c.66-2.33,1.36-4.64,2.06-6.88l.72-2.17c.22-.68.46-1.31.72-2l1.13-2.94.71-1c.94-1.17,1.88-2.3,2.83-3.36s2-2.29,2.93-3.48q4.16-4.89,8.42-9.77t8.3-10q2.74-3.47,5.3-7a73.79,73.79,0,0,0,4.76-7.32,48.64,48.64,0,0,0,3.4-5.94,30.6,30.6,0,0,0,2.32-6.66,14.88,14.88,0,0,0,.42-3.46,10.42,10.42,0,0,0-.69-3.73,8.81,8.81,0,0,0-2.91-3.84,10.17,10.17,0,0,0-5.17-2,11,11,0,0,0-7.37,3,27,27,0,0,0-5.76,6.64c-1.54,2.44-3,4.9-4.34,7.37q-3.66,7-6.86,14.07t-6.27,14.17c-2.43,5.71-4.63,11.24-6.1,15.86a2,2,0,0,0-.73,1.82,6.47,6.47,0,0,0-1.47,1.85l-3.2,3.41c-.84,1.06-1.69,2.14-2.59,3.21s-1.82,2.15-2.81,3.26l-9.94,11.4c-2.15,2.51-4.41,4.94-6.87,7.41A26.79,26.79,0,0,1,58,283.11l-2.87,2.51a10.23,10.23,0,0,1-2,1.29,10.52,10.52,0,0,1-2.93.95l-1.48-.77a4.48,4.48,0,0,1-.57-2.46,20.34,20.34,0,0,1,.43-3.3,33.49,33.49,0,0,1,.94-4c.41-1.36.86-2.69,1.39-4.13a8.48,8.48,0,0,1,.71-1.83c.38-.69.76-1.42,1-2,.5-.75,1-1.5,1.42-2.27s.86-1.52,1.21-2.22q2-3.65,3.74-7.14c1.16-2.31,2.3-4.71,3.45-7.3a10.36,10.36,0,0,1,.61-1.24,10.26,10.26,0,0,0,1-2.41,5.63,5.63,0,0,0,.12-2.77,3.53,3.53,0,0,0-2.49-2.62,9.54,9.54,0,0,0-2.12-.59c-.45,0-.94-.14-1.64-.26a30.87,30.87,0,0,0-10,.48,41.72,41.72,0,0,0-9.22,3.14,40.23,40.23,0,0,0-6.86,4.09,64.86,64.86,0,0,0-6,4.92,63.69,63.69,0,0,0-6.56,6.84,40.21,40.21,0,0,0-5.11,8,53.61,53.61,0,0,0-2.92,6.6,25.44,25.44,0,0,0-1.48,7.38,18.31,18.31,0,0,0,1.11,6.31,10.55,10.55,0,0,0,4.34,5.33,12.21,12.21,0,0,0,8.2,1.86,24.73,24.73,0,0,0,7.63-2.14,35.58,35.58,0,0,0,7.2-5.28c.72-.68,1.42-1.37,2.09-2.07,0,.64.1,1.3.18,2a8.42,8.42,0,0,0,5.38,6.9A10.74,10.74,0,0,0,50.5,296a10.12,10.12,0,0,0,3.82-.76,23.22,23.22,0,0,0,6.39-3.83,58.11,58.11,0,0,0,7-6.64L73.83,278c.86-1,1.72-2,2.58-3A36.93,36.93,0,0,1,79,272.08c.28-.29.58-.62.87-1l1-1h0a64,64,0,0,0-1.14,7.45,31.32,31.32,0,0,0,.2,7.75A11.87,11.87,0,0,0,84,292.61a12.25,12.25,0,0,0,7.23,3.24,16.62,16.62,0,0,0,7.74-1,24.65,24.65,0,0,0,7-4.25,39.39,39.39,0,0,0,5.48-5.87l2.76-3.89.08,0a7.15,7.15,0,0,0,3,.68,15.39,15.39,0,0,0,9.63-1.48c.39-.21.78-.42,1.15-.64a20.34,20.34,0,0,0,.28,5.7,13.09,13.09,0,0,0,3,6.1,11.39,11.39,0,0,0,7.22,4,25.91,25.91,0,0,0,7.47-.1,36,36,0,0,0,15-6,100.51,100.51,0,0,0,12.09-10l6.84-7.21c.41-.41.81-.84,1.21-1.3a3.33,3.33,0,0,0,.55-3.48A4.16,4.16,0,0,0,178.83,264.41Zm-71-43.12c2.25-5,4.79-10,7.54-14.88.94-1.66,2-3.36,3-5.1a24,24,0,0,1,3.32-4.24c.46-.45.88-.85,1.25-1.17a3.87,3.87,0,0,1,1-.58,1.13,1.13,0,0,1,.45-.1,1.21,1.21,0,0,1,.84.38c.08.08.35.35.14,1.66a8.68,8.68,0,0,1-.74,3.47c-.59,1.34-1.21,2.65-1.91,3.94-.95,1.76-2,3.48-3,5.12s-2.2,3.32-3.41,5q-3.4,4.83-7.07,9.41-2.93,3.63-5.88,7.19Q105.59,226.3,107.86,221.28ZM46.6,262.56l-1.68,3.54c-.22.56-.48,1.11-.75,1.67a10.74,10.74,0,0,1-1.06,1.63c-1.31,2-2.71,4-4.19,6.05a46.37,46.37,0,0,1-4.61,5.39,39.3,39.3,0,0,1-4.39,3.79A15.15,15.15,0,0,1,25.08,287a21.21,21.21,0,0,1-3.54.54,4.47,4.47,0,0,1-1.53-.24,1.91,1.91,0,0,1-1-.8,8.37,8.37,0,0,1-.78-1.84,10.47,10.47,0,0,1,0-5A31.84,31.84,0,0,1,20,274.37a36,36,0,0,1,4.3-7.4,51.11,51.11,0,0,1,5.79-6.48,64,64,0,0,1,5.53-4.92,37,37,0,0,1,6.27-3.95,31.53,31.53,0,0,1,7.32-2.56,22.53,22.53,0,0,1,4.61-.52l-4,7.19c-.64,1.14-1.21,2.29-1.74,3.45S47,261.45,46.6,262.56Zm67.07,1.61c-.62,1.68-1.3,3.32-2,4.9a10.14,10.14,0,0,1-1-2.68,21.4,21.4,0,0,1-.6-6.06,27.33,27.33,0,0,1,1.47-6.83,12.72,12.72,0,0,1,1.18-2.11,4.17,4.17,0,0,1,1.38-1.27,1.79,1.79,0,0,1,.61-.22l.06.19a7.51,7.51,0,0,1,.64,2.81c.06,1.23.09,2.38.1,3.28A30.78,30.78,0,0,1,113.67,264.17Z" fill="#00394b"/><path d="M314.93,399H-.07V0h315Z" fill="none"/><polygon points="299.45 176.89 207.66 176.9 207.66 182 275.51 182 269.22 187.09 207.66 187.09 207.66 192.19 251 192.19 244.71 197.28 207.66 197.28 207.66 202.37 226.55 202.37 220.26 207.47 207.66 207.47 207.66 212.56 221.91 212.56 234.49 202.37 246.35 202.37 258.94 192.19 270.88 192.19 283.45 182 299.45 181.99 299.45 176.89" fill="#fff"/><polygon points="299.45 217.66 231.5 217.66 237.79 212.56 299.45 212.56 299.45 207.47 255.95 207.47 262.24 202.37 299.45 202.37 299.45 197.28 280.46 197.28 286.75 192.18 299.45 192.18 299.45 187.08 285.11 187.09 272.52 197.28 260.58 197.28 248.01 207.47 236.14 207.47 223.56 217.66 207.66 217.66 207.66 222.75 299.45 222.75 299.45 217.66" fill="#fff"/><path d="M19.33,185.8H15.48V173H19.9c2.13,0,3.71.6,3.71,3.18a2.56,2.56,0,0,1-2.22,2.91c1.79.3,2.39,1.33,2.39,3.21C23.78,185.34,21.92,185.8,19.33,185.8Zm-.23-11h-1v3.42l.94,0c1.29,0,2-.39,2-1.77S20.22,174.84,19.1,174.84ZM19,180.07h-.94v3.87H19c1.17,0,2.07-.27,2.07-2C21.12,180.55,20.5,180.07,19,180.07Z" fill="#fff"/><path d="M25.81,175.09v-2h2.5v2Zm0,10.71v-8.94h2.5v8.94Z" fill="#fff"/><path d="M35.12,186A2.18,2.18,0,0,1,33,184.84v1H30.56c0-.09.05-1.56.05-1.65V173h2.48v4.75a2.55,2.55,0,0,1,2.25-1.08c2.45,0,2.57,2,2.57,4.61C37.92,183.67,37.71,186,35.12,186Zm-.8-7.86c-1.12,0-1.22,1.42-1.22,3.16s.11,3.23,1.19,3.23,1.14-1.38,1.14-3.33C35.42,179.49,35.38,178.12,34.32,178.12Z" fill="#fff"/><path d="M39.85,185.8V173h2.5V185.8Z" fill="#fff"/><path d="M44.66,175.09v-2h2.5v2Zm0,10.71v-8.94h2.5v8.94Z" fill="#fff"/><path d="M52.78,186c-3.21,0-3.69-1.83-3.69-4.65s.53-4.72,3.72-4.72,3.64,1.7,3.64,4.51S56.1,186,52.78,186Zm1.14-5.66c0-1.15-.07-2.18-1.12-2.18s-1.19,1.4-1.19,2.57v1.63c0,.89,0,2.11,1.17,2.11s1.14-1.29,1.14-2.32Z" fill="#fff"/><path d="M61.24,185.92c-1.88,0-2.54-.57-2.54-2.43v-5.11H57.55v-1.53H58.7v-1.53l2.48-1v2.48h1.38v1.53H61.19v4.82c0,.78.12,1.14.9,1.14.2,0,.35,0,.55-.05v1.53A6.93,6.93,0,0,1,61.24,185.92Z" fill="#fff"/><path d="M68.81,185.8v-5.94c0-.85-.05-1.72-1-1.72s-1.15.9-1.15,1.9v5.76h-2.5V173h2.5v4.75A2.71,2.71,0,0,1,69,176.65c1.81,0,2.34,1,2.34,2.71v6.44Z" fill="#fff"/><path d="M75.73,181.61c0,.07,0,.73,0,.78.05,1.45.25,2.15,1.12,2.15s1.08-.89,1.08-1.7h2.41c-.07,2.22-1.17,3.17-3.48,3.17-3.17,0-3.64-1.9-3.64-4.61s.66-4.75,3.72-4.75,3.44,2.06,3.44,4.74v.23ZM77,175.48l-2.54-2.54h2.39l1.61,2.54Zm.9,3.64c-.09-.57-.34-1-1-1s-1,.46-1.06,1.12a6.49,6.49,0,0,0-.07,1h2.16A6.48,6.48,0,0,0,77.86,179.11Z" fill="#fff"/><path d="M89.28,178.9v10.3h-2.5v-4.26a2.41,2.41,0,0,1-2.09,1c-2.59,0-2.75-2.13-2.75-4.36,0-2.54.09-4.93,2.71-4.93a2.44,2.44,0,0,1,2.23,1.15l0-1h2.41C89.31,177,89.28,178.79,89.28,178.9Zm-3.71-.75c-1.1,0-1.14,1.86-1.14,3.35s.05,3,1.12,3,1.21-1.49,1.21-3C86.76,180.23,86.78,178.16,85.57,178.16Z" fill="#fff"/><path d="M96.35,185.8l0-1A2.5,2.5,0,0,1,94.08,186c-1.68,0-2.41-.8-2.41-2.54v-6.58h2.5v5.94c0,.85.05,1.7,1,1.7s1.14-.94,1.14-1.84v-5.8h2.5v7.48c0,.43,0,1.06.05,1.45Z" fill="#fff"/><path d="M103.31,181.61c0,.07,0,.73,0,.78.05,1.45.25,2.15,1.12,2.15s1.08-.89,1.08-1.7h2.41c-.07,2.22-1.17,3.17-3.48,3.17-3.17,0-3.64-1.9-3.64-4.61s.66-4.75,3.72-4.75,3.44,2.06,3.44,4.74v.23Zm2.13-2.5c-.09-.57-.34-1-1-1s-1,.46-1.06,1.12a6.49,6.49,0,0,0-.07,1h2.16A6.47,6.47,0,0,0,105.44,179.11Z" fill="#fff"/><path d="M119.2,186a2.22,2.22,0,0,1-2-1v4.2h-2.48V178.81c0-.11,0-1.84-.05-2h2.45l0,1a2.6,2.6,0,0,1,2.29-1.19c2.47,0,2.61,2,2.61,4.59S121.79,186,119.2,186Zm-.83-7.86c-1.14,0-1.21,1.6-1.21,3.28s.2,3.1,1.21,3.1,1.12-1.77,1.12-3.33C119.48,179.42,119.39,178.12,118.36,178.12Z" fill="#fff"/><path d="M128.6,185.8l0-1a2.5,2.5,0,0,1-2.25,1.14c-1.68,0-2.41-.8-2.41-2.54v-6.58h2.5v5.94c0,.85.05,1.7,1,1.7s1.14-.94,1.14-1.84v-5.8H131v7.48c0,.43,0,1.06.05,1.45Z" fill="#fff"/><path d="M137.85,186a2.18,2.18,0,0,1-2.13-1.14v1H133.3c0-.09.05-1.56.05-1.65V173h2.48v4.75a2.55,2.55,0,0,1,2.25-1.08c2.45,0,2.57,2,2.57,4.61C140.66,183.67,140.44,186,137.85,186Zm-.8-7.86c-1.12,0-1.22,1.42-1.22,3.16s.11,3.23,1.19,3.23,1.14-1.38,1.14-3.33C138.16,179.49,138.12,178.12,137.06,178.12Z" fill="#fff"/><path d="M142.59,185.8V173h2.5V185.8Z" fill="#fff"/><path d="M147.4,175.09v-2h2.5v2Zm0,10.71v-8.94h2.5v8.94Z" fill="#fff"/><path d="M159.17,178.9v10.3h-2.5v-4.26a2.41,2.41,0,0,1-2.09,1c-2.59,0-2.75-2.13-2.75-4.36,0-2.54.09-4.93,2.71-4.93a2.44,2.44,0,0,1,2.23,1.15l0-1h2.41C159.21,177,159.17,178.79,159.17,178.9Zm-3.71-.75c-1.1,0-1.14,1.86-1.14,3.35s.05,3,1.12,3,1.21-1.49,1.21-3C156.65,180.23,156.67,178.16,155.46,178.16Z" fill="#fff"/><path d="M166.16,185.8l0-1a2.5,2.5,0,0,1-2.25,1.14c-1.68,0-2.41-.8-2.41-2.54v-6.58H164v5.94c0,.85.05,1.7,1,1.7s1.14-.94,1.14-1.84v-5.8h2.5v7.48c0,.43,0,1.06.05,1.45Z" fill="#fff"/><path d="M173,181.61c0,.07,0,.73,0,.78.05,1.45.25,2.15,1.12,2.15s1.08-.89,1.08-1.7h2.41c-.07,2.22-1.17,3.17-3.48,3.17-3.18,0-3.64-1.9-3.64-4.61s.66-4.75,3.72-4.75,3.44,2.06,3.44,4.74v.23Zm2.13-2.5c-.09-.57-.34-1-1-1s-1,.46-1.06,1.12a6.51,6.51,0,0,0-.07,1h2.16A6.5,6.5,0,0,0,175.15,179.11Z" fill="#fff"/><path d="M83.44,204.49v-1a2.34,2.34,0,0,1-2.15,1.14c-2.57,0-2.78-2.27-2.78-4.63,0-2.64.27-4.7,2.64-4.7a2.41,2.41,0,0,1,2.18,1.08v-4.75h2.5v11.16c0,.09.05,1.58.05,1.67Zm-1.29-7.68c-1,0-1.14,1.31-1.14,3.26,0,1.56.09,3.12,1.15,3.12s1.15-1.45,1.15-3.12S83.25,196.81,82.15,196.81Z" fill="#fff"/><path d="M89.62,195.7h-1.7l.62-4h2.39Z" fill="#fff"/><path d="M93,193.78v-2h2.5v2Zm0,10.71v-8.94h2.5v8.94Z" fill="#fff"/><path d="M102.44,204.49v-6c0-.94-.05-1.7-1-1.7s-1.15,1-1.15,1.93v5.73h-2.5V197a13,13,0,0,0-.05-1.44h2.52l0,.9a2.6,2.6,0,0,1,2.29-1.12c1.74,0,2.38.89,2.38,2.71v6.44Z" fill="#fff"/><path d="M111.29,193.14c-1,0-1.19.39-1.19,1.42v1h1.35v1.53H110.1v7.41h-2.48v-7.41h-1.19v-1.53h1.19v-1.4c0-1.83.64-2.61,2.41-2.61.46,0,1,0,1.47.05v1.56A.86.86,0,0,0,111.29,193.14Z" fill="#fff"/><path d="M116.34,204.71c-3.21,0-3.69-1.83-3.69-4.65s.53-4.72,3.72-4.72S120,197,120,199.85,119.66,204.71,116.34,204.71Zm1.14-5.66c0-1.15-.07-2.18-1.12-2.18s-1.19,1.4-1.19,2.57v1.63c0,.89,0,2.11,1.17,2.11s1.14-1.29,1.14-2.32Z" fill="#fff"/><path d="M126.27,197.47c-1.45,0-1.83.87-1.83,2.16v4.86h-2.5v-7.25c0-.09-.05-1.6-.05-1.69h2.39l0,1.15a2.22,2.22,0,0,1,2.29-1.33l.09,0v2.09A2.36,2.36,0,0,0,126.27,197.47Z" fill="#fff"/><path d="M137.18,204.49v-6c0-.83,0-1.65-.92-1.65s-1.1,1-1.1,1.9v5.75h-2.5v-6.14c0-.76-.09-1.51-.9-1.51s-1.12,1-1.12,1.93v5.71h-2.48v-7.64a10.42,10.42,0,0,0-.05-1.29h2.45l0,1a2.61,2.61,0,0,1,2.25-1.21,2,2,0,0,1,2.11,1.21,2.83,2.83,0,0,1,2.38-1.21c1.9,0,2.38,1.15,2.38,2.93v6.23Z" fill="#fff"/><path d="M146.3,204.49l-.05-1.06a2.48,2.48,0,0,1-2.34,1.24c-1.68,0-2.39-1.12-2.39-2.73,0-2.66,1.84-3.1,4-3.1h.59v-.48c0-.76,0-1.61-.92-1.61-.71,0-1,.5-1,1.15v.16h-2.47v-.16c0-2.09,1.92-2.55,3.53-2.55,2.31,0,3.28.82,3.28,3.09v3.26a21,21,0,0,0,.16,2.8Zm-.18-4.33h-.39c-1.19,0-1.72.46-1.72,1.65,0,.67.18,1.35.94,1.35,1,0,1.17-1.12,1.17-2Z" fill="#fff"/><path d="M153.66,204.62c-1.88,0-2.54-.57-2.54-2.43v-5.11H150v-1.53h1.15V194l2.48-1v2.48H155v1.53H153.6v4.82c0,.78.12,1.14.9,1.14.2,0,.35,0,.55-.05v1.53A6.93,6.93,0,0,1,153.66,204.62Z" fill="#fff"/><path d="M156.58,193.78v-2h2.5v2Zm0,10.71v-8.94h2.5v8.94Z" fill="#fff"/><path d="M164.56,204.71c-3.21,0-3.69-1.83-3.69-4.65s.53-4.72,3.72-4.72,3.64,1.7,3.64,4.51S167.88,204.71,164.56,204.71ZM165.7,199c0-1.15-.07-2.18-1.12-2.18s-1.19,1.4-1.19,2.57v1.63c0,.89,0,2.11,1.17,2.11s1.14-1.29,1.14-2.32Z" fill="#fff"/><path d="M174.67,204.49v-6c0-.94-.05-1.7-1-1.7s-1.15,1-1.15,1.93v5.73H170V197a13,13,0,0,0-.05-1.44h2.52l0,.9a2.6,2.6,0,0,1,2.29-1.12c1.74,0,2.38.89,2.38,2.71v6.44Z" fill="#fff"/><path d="M63.85,223c-3.8,0-4-2.61-4-6.65,0-3.69.14-6.67,4.11-6.67,2.61,0,3.62,1.26,3.62,3.71v.28h-2v-.23c0-1.08-.23-2.25-1.7-2.25-1.93,0-2,2-2,5,0,3.67.14,5.29,2,5.29,1.63,0,1.86-1.24,1.86-2.52v-.28h2V219C67.68,221.66,66.46,223,63.85,223Z" fill="#fff"/><path d="M71.19,218.47v.71c0,1.51.21,2.48,1.37,2.48s1.31-.92,1.33-1.84h1.76c-.09,2-.92,3.09-3.09,3.09-2.94,0-3.21-2-3.21-4.45s.27-4.9,3.32-4.9c2.43,0,2.93,1.53,3,3.42,0,.48,0,1,0,1.49Zm2.64-2.31c-.09-.74-.37-1.35-1.22-1.35s-1.24.59-1.35,1.42a7.57,7.57,0,0,0-.07,1.12h2.68A8.84,8.84,0,0,0,73.84,216.16Z" fill="#fff"/><path d="M82.35,222.71v-5.87c0-1,0-2-1.19-2s-1.49,1.26-1.49,2.16v5.71H77.83v-7.25c0-.57,0-1.12-.07-1.69h1.86v1.08a2.58,2.58,0,0,1,2.25-1.29c1.79,0,2.32,1.21,2.32,2.77v6.39Z" fill="#fff"/><path d="M89.37,222.8c-1.81,0-2.29-.6-2.29-2.34V215H85.84v-1.26h1.24v-1.58l1.84-.78v2.36h1.49V215H88.93v5.2c0,.9.16,1.22,1,1.22.2,0,.41,0,.62-.05v1.33A7.94,7.94,0,0,1,89.37,222.8Z" fill="#fff"/><path d="M96,215.26c-1.42,0-2,.89-2,2.2v5.25H92.19v-7.33c0-.23-.05-1.38-.07-1.61h1.77l.05,1.17a2.34,2.34,0,0,1,2.27-1.35l.12,0v1.69A2.16,2.16,0,0,0,96,215.26Z" fill="#fff"/><path d="M99.25,218.47v.71c0,1.51.21,2.48,1.37,2.48s1.31-.92,1.33-1.84h1.76c-.09,2-.92,3.09-3.09,3.09-2.94,0-3.21-2-3.21-4.45s.27-4.9,3.32-4.9c2.43,0,2.93,1.53,3,3.42,0,.48,0,1,0,1.49Zm2.64-2.31c-.09-.74-.37-1.35-1.22-1.35s-1.24.59-1.35,1.42a7.57,7.57,0,0,0-.07,1.12h2.68A8.84,8.84,0,0,0,101.89,216.16Z" fill="#fff"/><path d="M113.72,217.16h-1.08v5.55h-2V209.89h3.42c2.59,0,3.83.82,3.83,3.55C117.9,216.77,116.22,217.16,113.72,217.16Zm-.07-5.78h-1v4.27h.92c1.65,0,2.34-.46,2.34-2.2S115.19,211.38,113.65,211.38Z" fill="#fff"/><path d="M122.42,222.9c-3,0-3.28-1.88-3.28-4.63,0-2.54.35-4.72,3.35-4.72s3.19,1.84,3.19,4.51C125.69,221,125.35,222.9,122.42,222.9Zm1.4-5.36c0-1.24,0-2.73-1.37-2.73s-1.45,1.72-1.45,2.77v1.54c0,1,0,2.54,1.42,2.54s1.4-1.4,1.4-2.45Z" fill="#fff"/><path d="M136.38,222.71v-6c0-.87,0-1.81-1.08-1.81s-1.33,1.12-1.33,2v5.85h-1.84v-6.07c0-1-.05-1.79-1-1.79s-1.37,1.42-1.37,2.18v5.68h-1.84v-7.57a11.77,11.77,0,0,0-.07-1.37h1.84v1.06a2.53,2.53,0,0,1,2.13-1.28,1.81,1.81,0,0,1,2,1.29,2.8,2.8,0,0,1,2.23-1.29c2,0,2.23,1.6,2.23,3v6.12Z" fill="#fff"/><path d="M144.59,222.87a2.2,2.2,0,0,1-2-1v4.22h-1.84V215.86c0-.3,0-1.79-.07-2.09h1.81l0,1a2.57,2.57,0,0,1,2.23-1.21c2.39,0,2.5,2.16,2.5,4.58S147.08,222.87,144.59,222.87Zm-.57-8.05c-1.44,0-1.47,2-1.47,3.53s.11,3.26,1.47,3.26,1.35-2.2,1.35-3.55C145.37,216.47,145.32,214.82,144,214.82Z" fill="#fff"/><path d="M149.38,211.78V210h1.92v1.74Zm0,10.93v-8.94h1.84v8.94Z" fill="#fff"/><path d="M158.23,222.71l0-1a2.27,2.27,0,0,1-2.09,1.15c-2.45,0-2.66-2.39-2.66-4.65,0-2.43.28-4.67,2.57-4.67a2.26,2.26,0,0,1,2.08,1v-4.72h1.84v11.17c0,.25.05,1.4.07,1.65Zm-1.54-7.89c-1.29,0-1.38,1.68-1.38,3.46,0,1.61.14,3.35,1.37,3.35s1.44-1.74,1.44-3.3C158.11,216.55,158,214.82,156.69,214.82Z" fill="#fff"/><path d="M165.4,222.9c-3,0-3.28-1.88-3.28-4.63,0-2.54.35-4.72,3.35-4.72s3.19,1.84,3.19,4.51C168.66,221,168.32,222.9,165.4,222.9Zm1.4-5.36c0-1.24,0-2.73-1.37-2.73s-1.45,1.72-1.45,2.77v1.54c0,1,0,2.54,1.42,2.54s1.4-1.4,1.4-2.45Z" fill="#fff"/><path d="M175.4,222.71l0-1a2.42,2.42,0,0,1-2.18,1.19c-1.69,0-2.36-1-2.36-2.62v-6.47h1.84v5.85c0,.89,0,2,1.21,2s1.45-1.22,1.45-2.2v-5.64h1.84V221c0,.62,0,1.1.07,1.69Z" fill="#fff"/></svg>