<svg xmlns="http://www.w3.org/2000/svg" width="315" height="399" viewBox="0 0 315 399"><title>Livre audio_LOGO</title><rect x="-88.69" y="-21.69" width="445.48" height="458.28" fill="#991669"/><path d="M98.53,87a175,175,0,1,0,0,350c96.66,0,175-78.34,175-175A175,175,0,0,0,98.53,87ZM-7.88,317.48c-14-6.33-24.07-23.89-24.07-44.59s10.08-38.26,24.07-44.61Zm21.7,0H-.41v-89.2H13.82ZM61.7,383.4c-6.24-1.91-18.12-7.77-21.71-25.51V229.57c6,9.14,16.35,12.56,21.71,13.69Zm1.78-147.85c-6.94-2.3-15.6-5.14-23.28-22.54l92.26-39.94.29,15.53,13,13-80,34.75Zm6.71,147.4-.7-138.85L157.34,207l.93,139.47ZM176.37,193l-1.27.88c-15.85-32.48-44-54.2-75.95-54.2s-60.12,21.72-76,54.2L21.93,193a138,138,0,0,0-6.13,32.56h-11a147.16,147.16,0,0,1,7.75-39.08L10.49,185c18.78-35.66,51.45-59.26,88.66-59.26S169,149.33,187.79,185l-2.17,1.52a137.62,137.62,0,0,1,7.77,39H182.48A127.71,127.71,0,0,0,176.37,193Zm21.14,124.22H183.3V228h14.22Zm7.48,0V228c14,6.33,24,23.87,24,44.57S219,310.86,205,317.19Z" fill="#82135a"/><path d="M314.93,399H-.07V0h315Z" fill="none"/><polygon points="299.45 176.89 207.66 176.9 207.66 182 275.51 182 269.22 187.09 207.66 187.09 207.66 192.19 251 192.19 244.71 197.28 207.66 197.28 207.66 202.37 226.55 202.37 220.26 207.47 207.66 207.47 207.66 212.56 221.91 212.56 234.49 202.37 246.35 202.37 258.94 192.19 270.88 192.19 283.45 182 299.45 181.99 299.45 176.89" fill="#fff"/><polygon points="299.45 217.66 231.5 217.66 237.79 212.56 299.45 212.56 299.45 207.47 255.95 207.47 262.24 202.37 299.45 202.37 299.45 197.28 280.46 197.28 286.75 192.18 299.45 192.18 299.45 187.08 285.11 187.09 272.52 197.28 260.58 197.28 248.01 207.47 236.14 207.47 223.56 217.66 207.66 217.66 207.66 222.75 299.45 222.75 299.45 217.66" fill="#fff"/><path d="M19.33,185.8H15.48V173H19.9c2.13,0,3.71.6,3.71,3.18a2.56,2.56,0,0,1-2.22,2.91c1.79.3,2.39,1.33,2.39,3.21C23.78,185.34,21.92,185.8,19.33,185.8Zm-.23-11h-1v3.42l.94,0c1.29,0,2-.39,2-1.77S20.22,174.84,19.1,174.84ZM19,180.07h-.94v3.87H19c1.17,0,2.07-.27,2.07-2C21.12,180.55,20.5,180.07,19,180.07Z" fill="#fff"/><path d="M25.81,175.09v-2h2.5v2Zm0,10.71v-8.94h2.5v8.94Z" fill="#fff"/><path d="M35.12,186A2.18,2.18,0,0,1,33,184.84v1H30.56c0-.09.05-1.56.05-1.65V173h2.48v4.75a2.55,2.55,0,0,1,2.25-1.08c2.45,0,2.57,2,2.57,4.61C37.92,183.67,37.71,186,35.12,186Zm-.8-7.86c-1.12,0-1.22,1.42-1.22,3.16s.11,3.23,1.19,3.23,1.14-1.38,1.14-3.33C35.42,179.49,35.38,178.12,34.32,178.12Z" fill="#fff"/><path d="M39.85,185.8V173h2.5V185.8Z" fill="#fff"/><path d="M44.66,175.09v-2h2.5v2Zm0,10.71v-8.94h2.5v8.94Z" fill="#fff"/><path d="M52.78,186c-3.21,0-3.69-1.83-3.69-4.65s.53-4.72,3.72-4.72,3.64,1.7,3.64,4.51S56.1,186,52.78,186Zm1.14-5.66c0-1.15-.07-2.18-1.12-2.18s-1.19,1.4-1.19,2.57v1.63c0,.89,0,2.11,1.17,2.11s1.14-1.29,1.14-2.32Z" fill="#fff"/><path d="M61.24,185.92c-1.88,0-2.54-.57-2.54-2.43v-5.11H57.55v-1.53H58.7v-1.53l2.48-1v2.48h1.38v1.53H61.19v4.82c0,.78.12,1.14.9,1.14.2,0,.35,0,.55-.05v1.53A6.93,6.93,0,0,1,61.24,185.92Z" fill="#fff"/><path d="M68.81,185.8v-5.94c0-.85-.05-1.72-1-1.72s-1.15.9-1.15,1.9v5.76h-2.5V173h2.5v4.75A2.71,2.71,0,0,1,69,176.65c1.81,0,2.34,1,2.34,2.71v6.44Z" fill="#fff"/><path d="M75.73,181.61c0,.07,0,.73,0,.78.05,1.45.25,2.15,1.12,2.15s1.08-.89,1.08-1.7h2.41c-.07,2.22-1.17,3.17-3.48,3.17-3.17,0-3.64-1.9-3.64-4.61s.66-4.75,3.72-4.75,3.44,2.06,3.44,4.74v.23ZM77,175.48l-2.54-2.54h2.39l1.61,2.54Zm.9,3.64c-.09-.57-.34-1-1-1s-1,.46-1.06,1.12a6.49,6.49,0,0,0-.07,1h2.16A6.48,6.48,0,0,0,77.86,179.11Z" fill="#fff"/><path d="M89.28,178.9v10.3h-2.5v-4.26a2.41,2.41,0,0,1-2.09,1c-2.59,0-2.75-2.13-2.75-4.36,0-2.54.09-4.93,2.71-4.93a2.44,2.44,0,0,1,2.23,1.15l0-1h2.41C89.31,177,89.28,178.79,89.28,178.9Zm-3.71-.75c-1.1,0-1.14,1.86-1.14,3.35s.05,3,1.12,3,1.21-1.49,1.21-3C86.76,180.23,86.78,178.16,85.57,178.16Z" fill="#fff"/><path d="M96.35,185.8l0-1A2.5,2.5,0,0,1,94.08,186c-1.68,0-2.41-.8-2.41-2.54v-6.58h2.5v5.94c0,.85.05,1.7,1,1.7s1.14-.94,1.14-1.84v-5.8h2.5v7.48c0,.43,0,1.06.05,1.45Z" fill="#fff"/><path d="M103.31,181.61c0,.07,0,.73,0,.78.05,1.45.25,2.15,1.12,2.15s1.08-.89,1.08-1.7h2.41c-.07,2.22-1.17,3.17-3.48,3.17-3.17,0-3.64-1.9-3.64-4.61s.66-4.75,3.72-4.75,3.44,2.06,3.44,4.74v.23Zm2.13-2.5c-.09-.57-.34-1-1-1s-1,.46-1.06,1.12a6.49,6.49,0,0,0-.07,1h2.16A6.47,6.47,0,0,0,105.44,179.11Z" fill="#fff"/><path d="M119.2,186a2.22,2.22,0,0,1-2-1v4.2h-2.48V178.81c0-.11,0-1.84-.05-2h2.45l0,1a2.6,2.6,0,0,1,2.29-1.19c2.47,0,2.61,2,2.61,4.59S121.79,186,119.2,186Zm-.83-7.86c-1.14,0-1.21,1.6-1.21,3.28s.2,3.1,1.21,3.1,1.12-1.77,1.12-3.33C119.48,179.42,119.39,178.12,118.36,178.12Z" fill="#fff"/><path d="M128.6,185.8l0-1a2.5,2.5,0,0,1-2.25,1.14c-1.68,0-2.41-.8-2.41-2.54v-6.58h2.5v5.94c0,.85.05,1.7,1,1.7s1.14-.94,1.14-1.84v-5.8H131v7.48c0,.43,0,1.06.05,1.45Z" fill="#fff"/><path d="M137.85,186a2.18,2.18,0,0,1-2.13-1.14v1H133.3c0-.09.05-1.56.05-1.65V173h2.48v4.75a2.55,2.55,0,0,1,2.25-1.08c2.45,0,2.57,2,2.57,4.61C140.66,183.67,140.44,186,137.85,186Zm-.8-7.86c-1.12,0-1.22,1.42-1.22,3.16s.11,3.23,1.19,3.23,1.14-1.38,1.14-3.33C138.16,179.49,138.12,178.12,137.06,178.12Z" fill="#fff"/><path d="M142.59,185.8V173h2.5V185.8Z" fill="#fff"/><path d="M147.4,175.09v-2h2.5v2Zm0,10.71v-8.94h2.5v8.94Z" fill="#fff"/><path d="M159.17,178.9v10.3h-2.5v-4.26a2.41,2.41,0,0,1-2.09,1c-2.59,0-2.75-2.13-2.75-4.36,0-2.54.09-4.93,2.71-4.93a2.44,2.44,0,0,1,2.23,1.15l0-1h2.41C159.21,177,159.17,178.79,159.17,178.9Zm-3.71-.75c-1.1,0-1.14,1.86-1.14,3.35s.05,3,1.12,3,1.21-1.49,1.21-3C156.65,180.23,156.67,178.16,155.46,178.16Z" fill="#fff"/><path d="M166.16,185.8l0-1a2.5,2.5,0,0,1-2.25,1.14c-1.68,0-2.41-.8-2.41-2.54v-6.58H164v5.94c0,.85.05,1.7,1,1.7s1.14-.94,1.14-1.84v-5.8h2.5v7.48c0,.43,0,1.06.05,1.45Z" fill="#fff"/><path d="M173,181.61c0,.07,0,.73,0,.78.05,1.45.25,2.15,1.12,2.15s1.08-.89,1.08-1.7h2.41c-.07,2.22-1.17,3.17-3.48,3.17-3.18,0-3.64-1.9-3.64-4.61s.66-4.75,3.72-4.75,3.44,2.06,3.44,4.74v.23Zm2.13-2.5c-.09-.57-.34-1-1-1s-1,.46-1.06,1.12a6.51,6.51,0,0,0-.07,1h2.16A6.5,6.5,0,0,0,175.15,179.11Z" fill="#fff"/><path d="M83.44,204.49v-1a2.34,2.34,0,0,1-2.15,1.14c-2.57,0-2.78-2.27-2.78-4.63,0-2.64.27-4.7,2.64-4.7a2.41,2.41,0,0,1,2.18,1.08v-4.75h2.5v11.16c0,.09.05,1.58.05,1.67Zm-1.29-7.68c-1,0-1.14,1.31-1.14,3.26,0,1.56.09,3.12,1.15,3.12s1.15-1.45,1.15-3.12S83.25,196.81,82.15,196.81Z" fill="#fff"/><path d="M89.62,195.7h-1.7l.62-4h2.39Z" fill="#fff"/><path d="M93,193.78v-2h2.5v2Zm0,10.71v-8.94h2.5v8.94Z" fill="#fff"/><path d="M102.44,204.49v-6c0-.94-.05-1.7-1-1.7s-1.15,1-1.15,1.93v5.73h-2.5V197a13,13,0,0,0-.05-1.44h2.52l0,.9a2.6,2.6,0,0,1,2.29-1.12c1.74,0,2.38.89,2.38,2.71v6.44Z" fill="#fff"/><path d="M111.29,193.14c-1,0-1.19.39-1.19,1.42v1h1.35v1.53H110.1v7.41h-2.48v-7.41h-1.19v-1.53h1.19v-1.4c0-1.83.64-2.61,2.41-2.61.46,0,1,0,1.47.05v1.56A.86.86,0,0,0,111.29,193.14Z" fill="#fff"/><path d="M116.34,204.71c-3.21,0-3.69-1.83-3.69-4.65s.53-4.72,3.72-4.72S120,197,120,199.85,119.66,204.71,116.34,204.71Zm1.14-5.66c0-1.15-.07-2.18-1.12-2.18s-1.19,1.4-1.19,2.57v1.63c0,.89,0,2.11,1.17,2.11s1.14-1.29,1.14-2.32Z" fill="#fff"/><path d="M126.27,197.47c-1.45,0-1.83.87-1.83,2.16v4.86h-2.5v-7.25c0-.09-.05-1.6-.05-1.69h2.39l0,1.15a2.22,2.22,0,0,1,2.29-1.33l.09,0v2.09A2.36,2.36,0,0,0,126.27,197.47Z" fill="#fff"/><path d="M137.18,204.49v-6c0-.83,0-1.65-.92-1.65s-1.1,1-1.1,1.9v5.75h-2.5v-6.14c0-.76-.09-1.51-.9-1.51s-1.12,1-1.12,1.93v5.71h-2.48v-7.64a10.42,10.42,0,0,0-.05-1.29h2.45l0,1a2.61,2.61,0,0,1,2.25-1.21,2,2,0,0,1,2.11,1.21,2.83,2.83,0,0,1,2.38-1.21c1.9,0,2.38,1.15,2.38,2.93v6.23Z" fill="#fff"/><path d="M146.3,204.49l-.05-1.06a2.48,2.48,0,0,1-2.34,1.24c-1.68,0-2.39-1.12-2.39-2.73,0-2.66,1.84-3.1,4-3.1h.59v-.48c0-.76,0-1.61-.92-1.61-.71,0-1,.5-1,1.15v.16h-2.47v-.16c0-2.09,1.92-2.55,3.53-2.55,2.31,0,3.28.82,3.28,3.09v3.26a21,21,0,0,0,.16,2.8Zm-.18-4.33h-.39c-1.19,0-1.72.46-1.72,1.65,0,.67.18,1.35.94,1.35,1,0,1.17-1.12,1.17-2Z" fill="#fff"/><path d="M153.66,204.62c-1.88,0-2.54-.57-2.54-2.43v-5.11H150v-1.53h1.15V194l2.48-1v2.48H155v1.53H153.6v4.82c0,.78.12,1.14.9,1.14.2,0,.35,0,.55-.05v1.53A6.93,6.93,0,0,1,153.66,204.62Z" fill="#fff"/><path d="M156.58,193.78v-2h2.5v2Zm0,10.71v-8.94h2.5v8.94Z" fill="#fff"/><path d="M164.56,204.71c-3.21,0-3.69-1.83-3.69-4.65s.53-4.72,3.72-4.72,3.64,1.7,3.64,4.51S167.88,204.71,164.56,204.71ZM165.7,199c0-1.15-.07-2.18-1.12-2.18s-1.19,1.4-1.19,2.57v1.63c0,.89,0,2.11,1.17,2.11s1.14-1.29,1.14-2.32Z" fill="#fff"/><path d="M174.67,204.49v-6c0-.94-.05-1.7-1-1.7s-1.15,1-1.15,1.93v5.73H170V197a13,13,0,0,0-.05-1.44h2.52l0,.9a2.6,2.6,0,0,1,2.29-1.12c1.74,0,2.38.89,2.38,2.71v6.44Z" fill="#fff"/><path d="M63.85,223c-3.8,0-4-2.61-4-6.65,0-3.69.14-6.67,4.11-6.67,2.61,0,3.62,1.26,3.62,3.71v.28h-2v-.23c0-1.08-.23-2.25-1.7-2.25-1.93,0-2,2-2,5,0,3.67.14,5.29,2,5.29,1.63,0,1.86-1.24,1.86-2.52v-.28h2V219C67.68,221.66,66.46,223,63.85,223Z" fill="#fff"/><path d="M71.19,218.47v.71c0,1.51.21,2.48,1.37,2.48s1.31-.92,1.33-1.84h1.76c-.09,2-.92,3.09-3.09,3.09-2.94,0-3.21-2-3.21-4.45s.27-4.9,3.32-4.9c2.43,0,2.93,1.53,3,3.42,0,.48,0,1,0,1.49Zm2.64-2.31c-.09-.74-.37-1.35-1.22-1.35s-1.24.59-1.35,1.42a7.57,7.57,0,0,0-.07,1.12h2.68A8.84,8.84,0,0,0,73.84,216.16Z" fill="#fff"/><path d="M82.35,222.71v-5.87c0-1,0-2-1.19-2s-1.49,1.26-1.49,2.16v5.71H77.83v-7.25c0-.57,0-1.12-.07-1.69h1.86v1.08a2.58,2.58,0,0,1,2.25-1.29c1.79,0,2.32,1.21,2.32,2.77v6.39Z" fill="#fff"/><path d="M89.37,222.8c-1.81,0-2.29-.6-2.29-2.34V215H85.84v-1.26h1.24v-1.58l1.84-.78v2.36h1.49V215H88.93v5.2c0,.9.16,1.22,1,1.22.2,0,.41,0,.62-.05v1.33A7.94,7.94,0,0,1,89.37,222.8Z" fill="#fff"/><path d="M96,215.26c-1.42,0-2,.89-2,2.2v5.25H92.19v-7.33c0-.23-.05-1.38-.07-1.61h1.77l.05,1.17a2.34,2.34,0,0,1,2.27-1.35l.12,0v1.69A2.16,2.16,0,0,0,96,215.26Z" fill="#fff"/><path d="M99.25,218.47v.71c0,1.51.21,2.48,1.37,2.48s1.31-.92,1.33-1.84h1.76c-.09,2-.92,3.09-3.09,3.09-2.94,0-3.21-2-3.21-4.45s.27-4.9,3.32-4.9c2.43,0,2.93,1.53,3,3.42,0,.48,0,1,0,1.49Zm2.64-2.31c-.09-.74-.37-1.35-1.22-1.35s-1.24.59-1.35,1.42a7.57,7.57,0,0,0-.07,1.12h2.68A8.84,8.84,0,0,0,101.89,216.16Z" fill="#fff"/><path d="M113.72,217.16h-1.08v5.55h-2V209.89h3.42c2.59,0,3.83.82,3.83,3.55C117.9,216.77,116.22,217.16,113.72,217.16Zm-.07-5.78h-1v4.27h.92c1.65,0,2.34-.46,2.34-2.2S115.19,211.38,113.65,211.38Z" fill="#fff"/><path d="M122.42,222.9c-3,0-3.28-1.88-3.28-4.63,0-2.54.35-4.72,3.35-4.72s3.19,1.84,3.19,4.51C125.69,221,125.35,222.9,122.42,222.9Zm1.4-5.36c0-1.24,0-2.73-1.37-2.73s-1.45,1.72-1.45,2.77v1.54c0,1,0,2.54,1.42,2.54s1.4-1.4,1.4-2.45Z" fill="#fff"/><path d="M136.38,222.71v-6c0-.87,0-1.81-1.08-1.81s-1.33,1.12-1.33,2v5.85h-1.84v-6.07c0-1-.05-1.79-1-1.79s-1.37,1.42-1.37,2.18v5.68h-1.84v-7.57a11.77,11.77,0,0,0-.07-1.37h1.84v1.06a2.53,2.53,0,0,1,2.13-1.28,1.81,1.81,0,0,1,2,1.29,2.8,2.8,0,0,1,2.23-1.29c2,0,2.23,1.6,2.23,3v6.12Z" fill="#fff"/><path d="M144.59,222.87a2.2,2.2,0,0,1-2-1v4.22h-1.84V215.86c0-.3,0-1.79-.07-2.09h1.81l0,1a2.57,2.57,0,0,1,2.23-1.21c2.39,0,2.5,2.16,2.5,4.58S147.08,222.87,144.59,222.87Zm-.57-8.05c-1.44,0-1.47,2-1.47,3.53s.11,3.26,1.47,3.26,1.35-2.2,1.35-3.55C145.37,216.47,145.32,214.82,144,214.82Z" fill="#fff"/><path d="M149.38,211.78V210h1.92v1.74Zm0,10.93v-8.94h1.84v8.94Z" fill="#fff"/><path d="M158.23,222.71l0-1a2.27,2.27,0,0,1-2.09,1.15c-2.45,0-2.66-2.39-2.66-4.65,0-2.43.28-4.67,2.57-4.67a2.26,2.26,0,0,1,2.08,1v-4.72h1.84v11.17c0,.25.05,1.4.07,1.65Zm-1.54-7.89c-1.29,0-1.38,1.68-1.38,3.46,0,1.61.14,3.35,1.37,3.35s1.44-1.74,1.44-3.3C158.11,216.55,158,214.82,156.69,214.82Z" fill="#fff"/><path d="M165.4,222.9c-3,0-3.28-1.88-3.28-4.63,0-2.54.35-4.72,3.35-4.72s3.19,1.84,3.19,4.51C168.66,221,168.32,222.9,165.4,222.9Zm1.4-5.36c0-1.24,0-2.73-1.37-2.73s-1.45,1.72-1.45,2.77v1.54c0,1,0,2.54,1.42,2.54s1.4-1.4,1.4-2.45Z" fill="#fff"/><path d="M175.4,222.71l0-1a2.42,2.42,0,0,1-2.18,1.19c-1.69,0-2.36-1-2.36-2.62v-6.47h1.84v5.85c0,.89,0,2,1.21,2s1.45-1.22,1.45-2.2v-5.64h1.84V221c0,.62,0,1.1.07,1.69Z" fill="#fff"/></svg>