<?xml version="1.0" encoding="utf-8"?>
<!-- Generator: Adobe Illustrator 21.0.2, SVG Export Plug-In . SVG Version: 6.00 Build 0)  -->
<svg version="1.1" id="Calque_1" xmlns="http://www.w3.org/2000/svg" xmlns:xlink="http://www.w3.org/1999/xlink" x="0px" y="0px"
	 viewBox="0 0 315 399" style="enable-background:new 0 0 315 399;" xml:space="preserve">
<style type="text/css">
	.st0{fill:#05B0DC;}
	.st1{fill:none;}
	.st2{fill:#0196BC;}
	.st3{fill:#FFFFFF;}
</style>
<title>musique</title>
<rect y="0" class="st0" width="315" height="399"/>
<path class="st1" d="M36.4,354.8c14.5-9.1,22.6-23.2,21.4-35V194.7h107.7v97.4c-10-3.1-23.4-1.2-35.6,6.5
	c-18.2,11.5-26.6,31-18.6,43.6s29.2,13.7,47.4,2.3c13.9-8.7,22-22.1,21.6-33.6h0.1V152.1H42.8v150.2c-9.9-3-23.2-1-35.2,6.6
	c-2.7,1.7-5.3,3.6-7.6,5.7v46.4C10.1,364.6,23.9,362.6,36.4,354.8z"/>
<path class="st2" d="M274.2,260c0-96.6-78.4-175-175-175c-35.4-0.1-70,10.7-99.2,30.8v198.9c2.4-2.1,4.9-4,7.6-5.7
	c12.1-7.6,25.3-9.6,35.2-6.6V152.1h137.6v158.7h-0.1c0.4,11.5-7.7,24.9-21.6,33.6c-18.2,11.4-39.5,10.5-47.4-2.3s0.4-32.2,18.6-43.6
	c12.2-7.7,25.6-9.6,35.6-6.5v-97.4H57.8v125.1c1.2,11.8-6.9,25.9-21.4,35c-12.5,7.8-26.4,9.8-36.4,6.3V397h208
	C249.8,363.8,274.2,313.4,274.2,260z"/>
<path class="st3" d="M61.7,190.6h-5.5c-1.4,1.4-3.2,2.4-4.7,3.7h-5l-4.7,3.6h-5.1l-4.6,3.6h-5l-4.7,3.7h-5v-1.8h4.2
	c0.8-0.6,1.5-1.2,2.3-1.9h-6.5v-1.9h14l2.2-1.8H17.6v-1.9h23.5c0.6-0.7,1.7-1.1,2.2-1.8H17.6v-1.9h33.3c0.7-0.7,1.4-1,2.2-1.8H17.6
	v-2h44.1V190.6z"/>
<path class="st3" d="M61.7,194.4h-4.2c-0.7,0.6-1.5,1.1-2.2,1.8h6.4v1.9H47.8l-2.2,1.8h16.1v1.9H38.1c-0.8,0.7-1.5,1.1-2.2,1.9h25.8
	v1.9H28.4l-2.2,1.8h35.5v1.9H17.5v-1.8H23l4.7-3.6h5c1.7-1.3,3.1-2.4,4.8-3.7c1.7,0,3.6,0,5.1-0.1l4.4-3.5h5.1l4.6-3.7h4.9
	L61.7,194.4z"/>
<path class="st3" d="M83.7,204.1c0,2.8-2.2,5.1-5,5.1c-2.4,0-5.2-1.2-5.2-5.2v-12.1c-0.1-2.7,2.1-5,4.8-5.1c0.1,0,0.2,0,0.4,0
	c2.8,0,5,2.2,5.1,4.9c0,0.1,0,0.2,0,0.3v1.2h-3.2v-1.1c0.1-1.1-0.7-2.2-1.8-2.3c0,0-0.1,0-0.1,0c-1.6,0-1.9,1.1-1.9,2.6v11.3
	c0,1.3,0.5,2.3,1.9,2.3c1.1,0,2-0.9,2-2c0-0.1,0-0.2,0-0.2v-1.1h3.2L83.7,204.1z"/>
<path class="st3" d="M89,198.1c0-1.2,0.6-1.8,1.6-1.8s1.6,0.6,1.6,1.8v1.8H89V198.1z M95.3,202.3V198c0.2-2.5-1.7-4.7-4.3-4.9
	c-0.1,0-0.3,0-0.4,0c-1.7-0.1-3.3,0.8-4.1,2.3c-0.4,1-0.6,2.1-0.6,3.2v5.2c-0.1,1.1,0.1,2.2,0.6,3.2c0.8,1.5,2.4,2.3,4.1,2.3
	c1.3,0,2.5-0.5,3.5-1.4c0.8-0.9,1.3-2.1,1.3-3.4h-3.2c-0.1,0.7-0.3,1.6-1.6,1.6c-0.8,0.1-1.5-0.5-1.5-1.3c0-0.1,0-0.2,0-0.3v-2.1
	H95.3z"/>
<path class="st3" d="M97.7,193.3h3.2v1.5h0.1c0.6-1.1,1.8-1.7,3-1.7c1.6,0,3.2,1,3.2,3.8v12H104v-10.8c0-1.1-0.6-1.9-1.6-1.9
	c-1.2,0-1.6,0.8-1.6,2.2V209h-3.1V193.3z"/>
<path class="st3" d="M110.5,188.5h3.2v4.8h2v2.5h-2v8.7c0,1.4,0.6,1.6,2,1.6v3h-1.3c-1.9,0.2-3.6-1.3-3.8-3.2c0-0.2,0-0.3,0-0.5
	v-9.5H109v-2.5h1.6L110.5,188.5z"/>
<path class="st3" d="M117.8,193.3h3.2v1.7c1.1-1.2,2.6-1.8,4.2-1.9v3.4c-0.3-0.1-0.7-0.2-1-0.2c-1.7,0-3.2,1.3-3.2,3.1
	c0,0.1,0,0.2,0,0.3v9.3h-3.2L117.8,193.3z"/>
<path class="st3" d="M129.2,198.1c0-1.2,0.6-1.8,1.6-1.8s1.6,0.6,1.6,1.8v1.8h-3.1V198.1z M135.5,202.3V198c0.2-2.5-1.7-4.7-4.3-4.9
	c-0.1,0-0.3,0-0.4,0c-1.7-0.1-3.3,0.8-4.1,2.3c-0.4,1-0.6,2.1-0.6,3.2v5.2c-0.1,1.1,0.1,2.2,0.6,3.2c0.8,1.5,2.4,2.3,4.1,2.3
	c1.3,0,2.5-0.5,3.4-1.4c0.8-0.9,1.3-2.1,1.3-3.4h-3.2c-0.1,0.7-0.3,1.6-1.6,1.6c-0.8,0.1-1.5-0.5-1.6-1.3c0-0.1,0-0.2,0-0.3v-2.1
	L135.5,202.3z"/>
<path class="st3" d="M100.9,218.3h1.6c2.5,0,2.5,1.7,2.5,3.8s0,3.7-2.6,3.7h-1.5L100.9,218.3z M97.7,237.4h3.2v-8.6h1.6
	c1.8,0.2,3.6-0.7,4.6-2.3c0.7-1.4,1-2.9,0.9-4.4c0-2.6-0.3-4-1.4-5.2c-1.1-1.1-2.6-1.7-4.1-1.6h-4.7V237.4z"/>
<path class="st3" d="M112.1,226.5c0-1.2,0.6-1.8,1.6-1.8s1.6,0.6,1.6,1.8v6.2c0,1.2-0.6,1.8-1.6,1.8s-1.6-0.6-1.6-1.8V226.5z
	 M108.9,232.1c-0.1,1.1,0.1,2.2,0.6,3.2c1.5,2.3,4.5,2.9,6.8,1.5c0.6-0.4,1.1-0.9,1.5-1.5c0.4-1,0.6-2.1,0.6-3.2V227
	c0.1-1.1-0.1-2.2-0.6-3.2c-1.5-2.3-4.5-2.9-6.8-1.5c-0.6,0.4-1.1,0.9-1.5,1.5c-0.4,1-0.6,2.1-0.6,3.2V232.1z"/>
<path class="st3" d="M120.7,221.7h3.2v1.5h0.1c0.6-1.1,1.8-1.7,3-1.7c1.1,0,2.2,0.6,2.8,1.6c0.8-1,2-1.6,3.3-1.6
	c1.6,0,3.4,1,3.4,3.8v12h-3.2v-10.8c0-1.1-0.6-1.9-1.6-1.9c-1.2,0-1.6,0.8-1.6,2.2v10.6H127v-10.9c0-1.1-0.6-1.9-1.6-1.9
	c-1.2,0-1.6,0.8-1.6,2.2v10.6h-3.2L120.7,221.7z"/>
<path class="st3" d="M145.3,232.6c0,1-0.3,1.9-1.6,1.9c-0.9,0-1.6-0.7-1.6-1.6c0,0,0-0.1,0-0.1v-6.1c0-1.1,0.6-2,1.6-2
	s1.6,0.9,1.6,2.1V232.6z M139,243.8h3.2V236h0.1c0.6,1,1.7,1.6,2.9,1.6c1.1,0.1,2.2-0.5,2.8-1.4c0.4-0.6,0.5-1.6,0.5-3.8v-6
	c0.1-1.1,0-2.3-0.5-3.4c-0.5-1-1.6-1.6-2.8-1.5c-1.2,0-2.3,0.6-3,1.6v-1.4H139L139,243.8z"/>
<path class="st3" d="M151.1,221.7h3.2v15.7h-3.2V221.7z M151.1,215.4h3.2v3.2h-3.2V215.4z"/>
<path class="st3" d="M160,226.5c0-1,0.3-1.9,1.6-1.9c0.9,0,1.6,0.7,1.6,1.6c0,0,0,0.1,0,0.1v6.1c0,1.1-0.6,2-1.6,2s-1.6-0.9-1.6-2.1
	V226.5z M163.1,237.4h3.2v-22.1h-3.2v7.8h-0.1c-0.6-1-1.7-1.6-2.9-1.6c-1.1-0.1-2.2,0.5-2.8,1.4c-0.4,0.6-0.5,1.6-0.5,3.8v6
	c-0.1,1.2,0.1,2.3,0.5,3.4c0.5,1,1.6,1.6,2.8,1.5c1.2,0,2.3-0.6,3-1.6L163.1,237.4z"/>
<path class="st3" d="M171.8,226.5c0-1.2,0.6-1.8,1.6-1.8s1.6,0.6,1.6,1.8v6.2c0,1.2-0.6,1.8-1.6,1.8s-1.6-0.6-1.6-1.8V226.5z
	 M168.6,232.1c-0.1,1.1,0.1,2.2,0.6,3.2c1.5,2.3,4.5,2.9,6.8,1.5c0.6-0.4,1.1-0.9,1.5-1.5c0.4-1,0.6-2.1,0.6-3.2V227
	c0.1-1.1-0.1-2.2-0.6-3.2c-1.5-2.3-4.5-2.9-6.8-1.5c-0.6,0.4-1.1,0.9-1.5,1.5c-0.4,1-0.6,2.1-0.6,3.2V232.1z"/>
<path class="st3" d="M189.8,237.4h-3.2v-1.5h-0.1c-0.6,1.1-1.8,1.7-3,1.7c-1.6,0-3.3-1-3.3-3.8v-12h3.2v10.9c0,1.1,0.6,1.9,1.6,1.9
	c1.2,0,1.6-0.8,1.6-2.2v-10.6h3.2L189.8,237.4z"/>
<path class="st3" d="M100.9,170.4h1.4c2.3,0,2.7,1.1,2.7,3.3s-0.2,3.7-2.7,3.7h-1.4V170.4z M97.7,180.6h4.3c4.1,0,5.9-2.2,5.9-6
	v-1.2c0-2.3-0.7-3.6-2.2-4.3c1.4-0.9,2.2-1.7,2.2-4.1v-0.8c0-2.9-1.5-5.6-5.6-5.6h-4.6V180.6z M100.9,161.5h1.3c2.1,0,2.8,1,2.8,3
	s-0.6,3.1-2.7,3.1h-1.4L100.9,161.5z"/>
<path class="st3" d="M110.7,164.9h3.2v15.7h-3.2V164.9z M110.7,158.5h3.2v3.2h-3.2V158.5z"/>
<path class="st3" d="M123.1,175.5c0,1.3-0.5,2.1-1.6,2.1s-1.6-0.8-1.6-2v-6.1c-0.1-0.9,0.6-1.6,1.5-1.7c0,0,0.1,0,0.1,0
	c1.2,0,1.6,0.9,1.6,1.9V175.5z M116.8,180.6h3.2v-1.4c0.7,1,1.8,1.6,3,1.6c1.1,0.1,2.2-0.5,2.8-1.5c0.4-1.1,0.6-2.2,0.5-3.4v-6
	c0-2.3-0.1-3.2-0.5-3.8c-0.6-1-1.7-1.5-2.8-1.4c-1.2,0-2.3,0.6-2.9,1.6H120v-7.8h-3.2L116.8,180.6z"/>
<path class="st3" d="M128.9,158.5h3.1v17.6c0,1.2,0.3,1.5,1.6,1.6v3c-2.9,0-4.7-0.7-4.7-4.4L128.9,158.5z"/>
<path class="st3" d="M135.4,164.9h3.2v15.7h-3.2V164.9z M135.4,158.5h3.2v3.2h-3.2V158.5z"/>
<path class="st3" d="M144.2,169.7c0-1.2,0.6-1.8,1.6-1.8s1.6,0.6,1.6,1.8v6.2c0,1.2-0.6,1.8-1.6,1.8s-1.6-0.6-1.6-1.8V169.7z
	 M141.1,175.3c-0.1,1.1,0.1,2.2,0.6,3.2c1.5,2.3,4.5,2.9,6.8,1.5c0.6-0.4,1.1-0.9,1.5-1.5c0.4-1,0.6-2.1,0.6-3.2v-5.2
	c0.1-1.1-0.1-2.2-0.6-3.2c-1.5-2.3-4.5-2.9-6.8-1.5c-0.6,0.4-1.1,0.9-1.5,1.5c-0.4,1-0.6,2.1-0.6,3.2V175.3z"/>
<path class="st3" d="M153.3,160.1h3.2v4.8h2v2.5h-2v8.7c0,1.5,0.6,1.6,2,1.6v3h-1.3c-1.9,0.2-3.6-1.3-3.8-3.2c0-0.2,0-0.3,0-0.5
	v-9.5h-1.6v-2.5h1.6L153.3,160.1z"/>
<path class="st3" d="M160.4,158.5h3.2v7.9h0.1c0.6-1.1,1.8-1.7,3-1.7c1.6,0,3.2,1,3.2,3.8v12h-3.2v-10.8c0-1.1-0.6-1.9-1.6-1.9
	c-1.2,0-1.6,0.8-1.6,2.2v10.6h-3.2L160.4,158.5z"/>
<path class="st3" d="M175.3,169.7c0-1.2,0.6-1.8,1.6-1.8s1.6,0.6,1.6,1.8v1.8h-3.1V169.7z M176.1,158.4h-3.4l4.1,4.4h2L176.1,158.4z
	 M181.6,173.9v-4.3c0.2-2.5-1.7-4.7-4.3-4.9c-0.1,0-0.3,0-0.4,0c-1.7-0.1-3.3,0.8-4.1,2.3c-0.4,1-0.6,2.1-0.6,3.2v5.2
	c-0.1,1.1,0.1,2.2,0.6,3.2c0.8,1.5,2.4,2.3,4.1,2.3c1.3,0,2.5-0.5,3.4-1.4c0.8-0.9,1.3-2.1,1.3-3.4h-3.2c-0.1,0.7-0.3,1.6-1.6,1.6
	c-0.8,0.1-1.5-0.5-1.6-1.3c0-0.1,0-0.2,0-0.3v-2.1L181.6,173.9z"/>
<path class="st3" d="M187.1,170c0-1.3,0.5-2.1,1.6-2.1s1.6,0.8,1.6,1.9v6.1c0.1,0.9-0.6,1.6-1.5,1.7c0,0-0.1,0-0.1,0
	c-1.2,0-1.6-0.9-1.6-1.9V170z M190.2,187h3.2v-22.1h-3.2v1.4c-0.7-1-1.8-1.6-3-1.6c-1.1-0.1-2.2,0.5-2.8,1.5
	c-0.4,1.1-0.6,2.2-0.5,3.4v6c0,2.3,0.1,3.2,0.5,3.8c0.6,1,1.7,1.5,2.8,1.4c1.2,0,2.3-0.6,2.9-1.6h0.1L190.2,187z"/>
<path class="st3" d="M205.4,180.6h-3.2v-1.5h-0.1c-0.6,1.1-1.8,1.7-3,1.7c-1.6,0-3.2-1-3.2-3.8v-12h3.2v10.9c0,1.1,0.6,1.9,1.6,1.9
	c1.2,0,1.6-0.8,1.6-2.2v-10.6h3.2L205.4,180.6z"/>
<path class="st3" d="M210.9,169.7c0-1.2,0.6-1.8,1.6-1.8s1.6,0.6,1.6,1.8v1.8h-3.1V169.7z M217.2,173.9v-4.3
	c0.2-2.5-1.7-4.7-4.3-4.9c-0.1,0-0.3,0-0.4,0c-1.7-0.1-3.3,0.8-4.1,2.3c-0.4,1-0.6,2.1-0.6,3.2v5.2c-0.1,1.1,0.1,2.2,0.6,3.2
	c0.8,1.5,2.4,2.3,4.1,2.3c1.3,0,2.5-0.5,3.4-1.4c0.8-0.9,1.3-2.1,1.3-3.4H214c0,0.8-0.6,1.5-1.4,1.6c0,0-0.1,0-0.1,0
	c-0.8,0.1-1.5-0.5-1.6-1.3c0-0.1,0-0.2,0-0.3v-2.1L217.2,173.9z"/>
<path class="st3" d="M193.4,196.1c0,0.9-0.1,1.6-1,1.6s-1-0.7-1-1.6s0.1-1.6,1-1.6S193.4,195.1,193.4,196.1z M194.8,196.1
	c0.1-0.8-0.1-1.7-0.6-2.4c-0.4-0.3-0.9-0.5-1.4-0.5c-0.5,0-1.1,0.2-1.4,0.6v-0.5H190v7.8h1.4v-2.6c0.3,0.4,0.9,0.6,1.4,0.6
	c0.5,0,1-0.2,1.4-0.5C194.7,197.8,194.9,196.9,194.8,196.1z"/>
<path class="st3" d="M199.4,198.9v-0.5c-0.4,0.4-0.9,0.6-1.4,0.6c-0.5,0-1-0.2-1.3-0.5c-0.4-0.4-0.6-1-0.6-1.6v-3.6h1.4v3.4
	c0,0.5,0.4,0.9,0.9,0.9s0.9-0.4,0.9-0.9v-3.4h1.4v5.7L199.4,198.9z"/>
<path class="st3" d="M205.8,196.1c0,0.9-0.1,1.6-1,1.6s-1-0.7-1-1.6s0.1-1.6,1-1.6S205.8,195.1,205.8,196.1z M207.2,196.1
	c0.1-0.8-0.1-1.7-0.6-2.4c-0.4-0.3-0.9-0.5-1.4-0.5c-0.5,0-1,0.2-1.4,0.6v-2.6h-1.4v7.8h1.4v-0.5c0.4,0.4,0.9,0.6,1.4,0.6
	c0.5,0,1-0.2,1.4-0.5C207.1,197.8,207.3,196.9,207.2,196.1z"/>
<path class="st3" d="M210.2,198.9c-0.8,0.1-1.6-0.6-1.7-1.4c0-0.1,0-0.1,0-0.2v-6.1h1.4v6.1c0,0.3,0.1,0.5,0.5,0.5h0.6v1.2
	L210.2,198.9z"/>
<path class="st3" d="M212.1,192.2v-1.2h1.5v1.2H212.1z M212.1,198.9v-5.7h1.4v5.7H212.1z"/>
<path class="st3" d="M218.2,196.1c0,0.9-0.1,1.6-1,1.6s-1-0.7-1-1.6s0.1-1.6,1-1.6S218.2,195.1,218.2,196.1z M219.6,201v-7.8h-1.4
	v0.5c-0.3-0.4-0.9-0.6-1.4-0.6c-0.5,0-1,0.2-1.4,0.5c-0.8,1.5-0.8,3.3,0,4.8c0.4,0.3,0.9,0.5,1.4,0.5c0.5,0,1-0.2,1.4-0.6v2.6
	L219.6,201z"/>
<path class="st3" d="M224.5,198.9v-0.5c-0.4,0.4-0.9,0.6-1.4,0.6c-0.5,0-1-0.2-1.3-0.5c-0.4-0.4-0.6-1-0.6-1.6v-3.6h1.4v3.4
	c-0.1,0.5,0.3,1,0.8,1.1c0.5,0.1,1-0.3,1.1-0.8c0-0.1,0-0.2,0-0.3v-3.4h1.4v5.7H224.5z"/>
<path class="st3" d="M230.8,195.5h-2.2c0-0.2,0-0.4,0.1-0.6c0.3-0.5,0.9-0.7,1.4-0.5c0.2,0.1,0.4,0.3,0.5,0.5
	C230.7,195.1,230.8,195.3,230.8,195.5z M232.2,196.5v-0.6c0.1-1.3-0.8-2.6-2.2-2.7c-0.1,0-0.2,0-0.3,0c-1.5,0-2.5,1-2.5,2.9
	c0,2.3,1.3,2.9,2.6,2.9c0.8,0,1.6-0.3,2.2-0.9l-0.9-0.8c-0.3,0.4-0.8,0.6-1.3,0.5c-0.7,0-1.2-0.5-1.3-1.1c0-0.1,0-0.1,0-0.2
	L232.2,196.5z"/>
<path class="st3" d="M239.1,196.1c0,0.9-0.1,1.6-1,1.6s-1-0.7-1-1.6s0.1-1.6,1-1.6S239.1,195.1,239.1,196.1z M240.6,198.9v-7.8h-1.4
	v2.6c-0.3-0.4-0.9-0.6-1.4-0.6c-0.5,0-1,0.2-1.4,0.5c-0.8,1.5-0.8,3.3,0,4.8c0.4,0.3,0.9,0.5,1.4,0.5c0.5,0,1.1-0.2,1.4-0.6v0.5
	L240.6,198.9z"/>
<path class="st3" d="M242.1,193.4v-2.3h1.4v2.3H242.1z"/>
<path class="st3" d="M244.9,192.2v-1.2h1.5v1.2H244.9z M244.9,198.9v-5.7h1.4v5.7H244.9z"/>
<path class="st3" d="M251.3,198.9v-3.4c0-0.5-0.4-0.9-0.9-0.9s-0.9,0.4-0.9,0.9v3.4H248v-5.7h1.4v0.5c0.4-0.4,0.9-0.6,1.4-0.6
	c0.5,0,1,0.2,1.3,0.5c0.4,0.4,0.6,1,0.6,1.6v3.6H251.3z"/>
<path class="st3" d="M255.8,194.5v4.4h-1.4v-4.4h-0.6v-1.1h0.6v-0.7c0-0.9,0.6-1.6,1.5-1.6c0.1,0,0.1,0,0.2,0h0.8v1.2h-0.6
	c-0.3,0-0.5,0.2-0.5,0.5v0.6h1v1.1H255.8z"/>
<path class="st3" d="M261,196.1c0.1,0.5-0.1,1-0.3,1.4c-0.2,0.2-0.4,0.3-0.7,0.2c-0.2,0-0.5-0.1-0.6-0.2c-0.3-0.4-0.4-0.9-0.3-1.4
	c-0.1-0.5,0-1,0.3-1.4c0.2-0.2,0.4-0.3,0.6-0.2c0.2,0,0.5,0.1,0.7,0.2C261,195.1,261.1,195.6,261,196.1z M262.4,196.1
	c0.1-0.8-0.1-1.6-0.6-2.2c-0.5-0.5-1.1-0.7-1.8-0.7c-0.7,0-1.3,0.2-1.8,0.7c-0.9,1.4-0.9,3.1,0,4.4c0.5,0.5,1.1,0.7,1.8,0.7
	c0.7,0,1.3-0.2,1.8-0.7C262.3,197.7,262.5,196.9,262.4,196.1L262.4,196.1z"/>
<path class="st3" d="M266.8,194.8c-0.3-0.4-0.9-0.4-1.3-0.1c-0.2,0.2-0.4,0.5-0.3,0.8v3.4h-1.4v-5.7h1.4v0.5
	c0.4-0.4,0.9-0.6,1.4-0.6c0.5,0,1,0.2,1.3,0.5L266.8,194.8z"/>
<path class="st3" d="M275.3,198.9v-3.4c0.2-0.5-0.1-1.1-0.6-1.3c-0.5-0.2-1.1,0.1-1.3,0.6c-0.1,0.2-0.1,0.4,0,0.6v3.5H272v-3.4
	c0-0.5-0.4-0.9-0.9-0.9s-0.9,0.4-0.9,0.9v3.4h-1.4v-5.7h1.4v0.5c0.4-0.4,0.9-0.6,1.4-0.6c0.6,0,1.2,0.2,1.5,0.7
	c0.4-0.5,1.1-0.7,1.7-0.7c0.5,0,1,0.2,1.4,0.5c0.4,0.4,0.7,1,0.6,1.6v3.6L275.3,198.9z"/>
<path class="st3" d="M281.2,196.8c0,0.3,0,0.5-0.2,0.7c-0.2,0.2-0.6,0.3-0.9,0.3c-0.6,0-0.8-0.3-0.8-0.7s0.3-0.6,0.8-0.6h1.1V196.8z
	 M282.6,198.9v-3.8c0-1.3-0.8-2-2.4-2c-0.8-0.1-1.5,0.2-2.1,0.8l0.9,0.9c0.3-0.3,0.7-0.5,1.1-0.5c0.8,0,1.1,0.3,1.1,0.9v0.3h-1.4
	c-1.3,0-1.9,0.8-1.9,1.7c0,0.5,0.2,0.9,0.5,1.3c0.4,0.4,0.9,0.5,1.5,0.5c0.5,0,1-0.2,1.4-0.6v0.5L282.6,198.9z"/>
<path class="st3" d="M285.9,198.9c-0.8,0.1-1.6-0.6-1.7-1.4c0-0.1,0-0.1,0-0.2v-2.8h-0.6v-1.1h0.6v-1.7h1.4v1.7h1v1.1h-1v2.7
	c0,0.3,0.1,0.5,0.5,0.5h0.5v1.2L285.9,198.9z"/>
<path class="st3" d="M287.9,192.2v-1.2h1.5v1.2H287.9z M287.9,198.9v-5.7h1.4v5.7H287.9z"/>
<path class="st3" d="M294.1,196.1c0.1,0.5-0.1,1-0.3,1.4c-0.2,0.2-0.4,0.3-0.7,0.2c-0.2,0-0.5-0.1-0.7-0.2c-0.3-0.4-0.4-0.9-0.3-1.4
	c-0.1-0.5,0-1,0.3-1.4c0.2-0.2,0.4-0.3,0.7-0.2c0.2,0,0.5,0.1,0.7,0.2C294.1,195.1,294.2,195.6,294.1,196.1z M295.5,196.1
	c0.1-0.8-0.1-1.6-0.6-2.2c-1-0.9-2.5-0.9-3.5,0c-0.9,1.4-0.9,3.1,0,4.4c1,0.9,2.5,0.9,3.5,0C295.4,197.7,295.7,196.9,295.5,196.1z"
	/>
<path class="st3" d="M300.2,198.9v-3.4c0-0.5-0.4-0.9-0.9-0.9s-0.9,0.4-0.9,0.9v3.4h-1.4v-5.7h1.4v0.5c0.4-0.4,0.9-0.6,1.4-0.6
	c0.5,0,1,0.2,1.3,0.5c0.4,0.4,0.6,1,0.6,1.6v3.6H300.2z"/>
</svg>
