<?xml version="1.0" encoding="utf-8"?>
<!-- Generator: Adobe Illustrator 21.0.2, SVG Export Plug-In . SVG Version: 6.00 Build 0)  -->
<svg version="1.1" id="Calque_1" xmlns="http://www.w3.org/2000/svg" xmlns:xlink="http://www.w3.org/1999/xlink" x="0px" y="0px"
	 viewBox="0 0 315 399" style="enable-background:new 0 0 315 399;" xml:space="preserve">
<style type="text/css">
	.st0{fill:#008BCC;}
	.st1{fill:none;}
	.st2{fill:#0079B0;}
	.st3{fill:#FFFFFF;}
</style>
<title>partition</title>
<rect y="0" class="st0" width="315" height="399"/>
<path class="st1" d="M38.6,360.4h51.9c0.2-3.3,0.9-6.5,2.2-9.5h-54v-38h45.2c-2.3-3-4.3-6.1-6-9.5H38.6v-38h32.5
	c0.4-3.2,1.1-6.4,2-9.5H38.6v-38h58.6c3-3.3,6-6.4,9-9.5H38.6v-38h66.3c0.3-3.2,0.8-6.4,1.5-9.6H0v199.4H38.6z"/>
<path class="st1" d="M147.4,217.9h69.8v-9.5h-64.8C150.9,211.6,149.3,214.8,147.4,217.9z"/>
<path class="st1" d="M169.9,312.9h47.2v-9.5h-42.2C173.7,306.8,172,309.9,169.9,312.9z"/>
<path class="st1" d="M159.6,170.3h57.6v-9.6h-59C158.8,164,159.3,167.1,159.6,170.3z"/>
<path class="st1" d="M172.2,265.4h45v-9.5h-51.6C168.2,258.8,170.4,261.9,172.2,265.4z"/>
<path class="st1" d="M168.3,287.9c0.1-18.6-12.6-35-30.9-35h-0.2c-1.9,0-3.8,0.1-5.6,0.4l-4.9-24.3c14.9-14.9,23.7-34.3,23.7-54.2
	c0-15.8-10-42.3-15.9-42.3c-0.2,0-0.5,0-0.7,0.1c-13.7,5.1-19.8,32-19.8,45.1c0.1,10.8,1.5,21.6,4.2,32.1
	c-17.5,17.9-40.2,38.9-38,67.1c2,27.3,22.3,48.4,47.1,48.4c4.5,0,9.1-0.6,13.4-1.9l4.9,23.1c0.8,3.5,1.2,7,1.2,10.5
	c-0.4,11.7-6.8,19.9-20.2,21.5c-0.4,0-0.8,0.1-1.2,0.1c-4.3,0-11.4-2-11.8-6.4c0.5,0.1,1,0.2,1.5,0.2c4.8,0,13.6-3.9,13.2-13.9
	c-0.3-7.5-6.4-14-13.6-14c-0.4,0-0.9,0-1.3,0.1c-8.4,1-14.3,10-13.4,18.6c1.2,12.1,13.2,20.1,24.5,20.1c0.8,0,1.7,0,2.5-0.1
	c15.3-1.6,24.6-11.1,24.6-25.9c0.1-2.2-0.1-4.5-0.4-6.7l-5.8-29.4C159,314.8,168.3,303.3,168.3,287.9z M136.5,154
	c5.1,0,7.8,4.6,8,9.3c0.6,16.3-10.7,32.7-22.3,42.7c-1.5-6-2.4-12.1-2.4-18.2C120,177.3,124.3,156.4,136.5,154z M130.1,320.4
	c-0.6,0-1.2,0-1.8,0c-20,0-37.9-13.7-37.9-35.6c0.1-22.4,17.1-38.6,32.4-52.2l4.3,21.8c-10.6,3.9-19.9,15.9-19.9,27.8
	c-0.1,11.9,7.4,22.7,18.6,26.6c0.1,0,0.2,0,0.3,0c0.9,0.1,1.7-0.6,1.8-1.5c0-0.6-0.4-1.2-1-1.4c-6.4-3-11.4-8-11.4-15.6
	c-0.2-9,6.8-17.4,14.9-19.8l9.6,48.1C136.7,319.6,133.4,320.2,130.1,320.4L130.1,320.4z M144.4,317.2l-9.5-47.3h0.3
	c12.7,0,22.4,9.6,23.4,22.8C158.9,303,153.4,312.5,144.4,317.2L144.4,317.2z"/>
<path class="st1" d="M161,357.4c0,1-0.2,2-0.2,3h56.4V351h-56.6C160.9,353.1,161,355.3,161,357.4z"/>
<path class="st2" d="M158.6,292.8c-1-13.2-10.7-22.8-23.4-22.8h-0.3l9.5,47.3C153.4,312.5,158.9,303,158.6,292.8z"/>
<path class="st2" d="M144.4,163.2c-0.1-4.6-2.9-9.3-8-9.3c-12.1,2.5-16.5,23.3-16.8,33.7c0.1,6.1,0.9,12.3,2.4,18.2
	C133.8,195.9,145,179.6,144.4,163.2z"/>
<path class="st2" d="M115.4,290.3c0,7.7,5,12.6,11.4,15.6c0.6,0.2,1,0.8,1,1.4c-0.1,0.9-0.9,1.5-1.8,1.5c-0.1,0-0.2,0-0.3,0
	c-11.3-3.9-18.8-14.7-18.6-26.6c0-11.9,9.4-23.9,19.9-27.8l-4.3-21.8c-15.3,13.6-32.2,29.8-32.4,52.2c0,21.9,18,35.6,37.9,35.6
	c0.6,0,1.2,0,1.8,0c3.3-0.1,6.6-0.7,9.7-1.7l-9.6-48.1C122.2,273,115.2,281.4,115.4,290.3z"/>
<path class="st2" d="M274.2,262c0-96.6-78.4-175-175-175c-35.4-0.1-70,10.7-99.2,30.8v43h106.4c-0.7,3.2-1.2,6.3-1.5,9.6H38.6v38
	h67.6c-3,3-6,6.2-9,9.5H38.6v38h34.5c-0.9,3.1-1.6,6.3-2,9.5H38.6v38h39.3c1.7,3.3,3.7,6.5,6,9.5H38.6v38h54c-1.3,3-2,6.2-2.2,9.5H0
	V399h208C249.8,365.8,274.2,315.4,274.2,262z M151.1,350.8c0.3,2.2,0.5,4.4,0.4,6.7c0,14.8-9.3,24.3-24.6,25.9
	c-0.8,0.1-1.7,0.1-2.5,0.1c-11.3,0-23.3-8-24.5-20.1c-0.9-8.7,5-17.6,13.4-18.6c0.4-0.1,0.9-0.1,1.3-0.1c7.1,0,13.3,6.5,13.6,14
	c0.4,10-8.4,13.9-13.2,13.9c-0.5,0-1,0-1.5-0.2c0.4,4.5,7.5,6.4,11.8,6.4c0.4,0,0.8,0,1.2-0.1c13.4-1.6,19.8-9.8,20.2-21.5
	c0-3.5-0.4-7.1-1.2-10.5l-4.9-23.1c-4.4,1.2-8.9,1.9-13.4,1.9c-24.9,0-45.1-21.1-47.1-48.4c-2.2-28.2,20.5-49.2,38-67.1
	c-2.7-10.5-4.1-21.3-4.2-32.1c0-13.1,6.1-40,19.8-45.1c0.2-0.1,0.5-0.1,0.7-0.1c5.9,0,15.9,26.5,15.9,42.3c0,20-8.8,39.3-23.7,54.2
	l4.9,24.3c1.9-0.3,3.7-0.4,5.6-0.4h0.2c18.2,0,31,16.4,30.9,35c0,15.5-9.3,26.9-23,33.5L151.1,350.8z M217.2,360.4h-56.4
	c0.1-1,0.2-1.9,0.2-3c0-2.2-0.1-4.3-0.4-6.5h56.6V360.4z M217.2,312.9h-47.2c2-2.9,3.7-6.1,5-9.5h42.2L217.2,312.9z M217.2,265.4
	h-45c-1.8-3.4-4-6.6-6.6-9.5h51.6L217.2,265.4z M217.2,217.9h-69.8c1.9-3.1,3.5-6.2,5-9.5h64.8L217.2,217.9z M217.2,170.3h-57.6
	c-0.3-3.2-0.8-6.4-1.4-9.6h59L217.2,170.3z"/>
<path class="st3" d="M61.7,192.6h-5.5c-1.4,1.4-3.2,2.4-4.7,3.7h-5l-4.7,3.6h-5.1l-4.6,3.6h-5l-4.7,3.7h-5v-1.8h4.2
	c0.8-0.6,1.5-1.2,2.3-1.9h-6.5v-1.9h14l2.2-1.8H17.6v-1.9h23.5c0.6-0.7,1.7-1.1,2.2-1.8H17.6v-1.9h33.3c0.7-0.7,1.4-1,2.2-1.8H17.6
	v-2h44.1V192.6z"/>
<path class="st3" d="M61.7,196.4h-4.2c-0.7,0.6-1.5,1.1-2.2,1.8h6.4v1.9H47.8l-2.2,1.8h16.1v1.9H38.1c-0.8,0.7-1.5,1.1-2.2,1.9h25.8
	v1.9H28.4l-2.2,1.8h35.5v1.9H17.5v-1.8H23l4.7-3.6h5c1.7-1.3,3.1-2.4,4.8-3.7c1.7,0,3.6,0,5.1-0.1l4.4-3.5h5.1l4.6-3.7h4.9
	L61.7,196.4z"/>
<path class="st3" d="M83.7,206.1c0,2.8-2.2,5.1-5,5.1c-2.4,0-5.2-1.2-5.2-5.2v-12.1c-0.1-2.7,2.1-5,4.8-5.1c0.1,0,0.2,0,0.4,0
	c2.8,0,5,2.2,5.1,4.9c0,0.1,0,0.2,0,0.3v1.2h-3.2v-1.1c0.1-1.1-0.7-2.2-1.8-2.3c0,0-0.1,0-0.1,0c-1.6,0-1.9,1.1-1.9,2.6v11.3
	c0,1.3,0.5,2.3,1.9,2.3c1.1,0,2-0.9,2-2c0-0.1,0-0.2,0-0.2v-1.1h3.2L83.7,206.1z"/>
<path class="st3" d="M89,200.1c0-1.2,0.6-1.8,1.6-1.8s1.6,0.6,1.6,1.8v1.8H89V200.1z M95.3,204.3V200c0.2-2.5-1.7-4.7-4.3-4.9
	c-0.1,0-0.3,0-0.4,0c-1.7-0.1-3.3,0.8-4.1,2.3c-0.4,1-0.6,2.1-0.6,3.2v5.2c-0.1,1.1,0.1,2.2,0.6,3.2c0.8,1.5,2.4,2.3,4.1,2.3
	c1.3,0,2.5-0.5,3.5-1.4c0.8-0.9,1.3-2.1,1.3-3.4h-3.2c-0.1,0.7-0.3,1.6-1.6,1.6c-0.8,0.1-1.5-0.5-1.5-1.3c0-0.1,0-0.2,0-0.3v-2.1
	H95.3z"/>
<path class="st3" d="M97.7,195.3h3.2v1.5h0.1c0.6-1.1,1.8-1.7,3-1.7c1.6,0,3.2,1,3.2,3.8v12H104v-10.8c0-1.1-0.6-1.9-1.6-1.9
	c-1.2,0-1.6,0.8-1.6,2.2V211h-3.1V195.3z"/>
<path class="st3" d="M110.5,190.5h3.2v4.8h2v2.5h-2v8.7c0,1.4,0.6,1.6,2,1.6v3h-1.3c-1.9,0.2-3.6-1.3-3.8-3.2c0-0.2,0-0.3,0-0.5
	v-9.5H109v-2.5h1.6L110.5,190.5z"/>
<path class="st3" d="M117.8,195.3h3.2v1.7c1.1-1.2,2.6-1.8,4.2-1.9v3.4c-0.3-0.1-0.7-0.2-1-0.2c-1.7,0-3.2,1.4-3.2,3.1
	c0,0.1,0,0.2,0,0.3v9.3h-3.2L117.8,195.3z"/>
<path class="st3" d="M129.2,200.1c0-1.2,0.6-1.8,1.6-1.8s1.6,0.6,1.6,1.8v1.8h-3.1V200.1z M135.5,204.3V200c0.2-2.5-1.7-4.7-4.3-4.9
	c-0.1,0-0.3,0-0.4,0c-1.7-0.1-3.3,0.8-4.1,2.3c-0.4,1-0.6,2.1-0.6,3.2v5.2c-0.1,1.1,0.1,2.2,0.6,3.2c0.8,1.5,2.4,2.3,4.1,2.3
	c1.3,0,2.5-0.5,3.4-1.4c0.8-0.9,1.3-2.1,1.3-3.4h-3.2c-0.1,0.7-0.3,1.6-1.6,1.6c-0.8,0.1-1.5-0.5-1.6-1.3c0-0.1,0-0.2,0-0.3v-2.1
	L135.5,204.3z"/>
<path class="st3" d="M100.9,220.3h1.6c2.5,0,2.5,1.7,2.5,3.8s0,3.7-2.6,3.7h-1.5L100.9,220.3z M97.7,239.4h3.2v-8.6h1.6
	c1.8,0.2,3.6-0.7,4.6-2.3c0.7-1.4,1-2.9,0.9-4.4c0-2.6-0.3-4-1.4-5.2c-1.1-1.1-2.6-1.7-4.1-1.6h-4.7V239.4z"/>
<path class="st3" d="M112.1,228.5c0-1.2,0.6-1.8,1.6-1.8s1.6,0.6,1.6,1.8v6.2c0,1.2-0.6,1.8-1.6,1.8s-1.6-0.6-1.6-1.8V228.5z
	 M108.9,234.1c-0.1,1.1,0.1,2.2,0.6,3.2c1.5,2.3,4.5,2.9,6.8,1.5c0.6-0.4,1.1-0.9,1.5-1.5c0.4-1,0.6-2.1,0.6-3.2V229
	c0.1-1.1-0.1-2.2-0.6-3.2c-1.5-2.3-4.5-2.9-6.8-1.5c-0.6,0.4-1.1,0.9-1.5,1.5c-0.4,1-0.6,2.1-0.6,3.2V234.1z"/>
<path class="st3" d="M120.7,223.7h3.2v1.5h0.1c0.6-1.1,1.8-1.7,3-1.7c1.1,0,2.2,0.6,2.8,1.6c0.8-1,2-1.6,3.3-1.6
	c1.6,0,3.4,1,3.4,3.8v12h-3.2v-10.8c0-1.1-0.6-1.9-1.6-1.9c-1.2,0-1.6,0.8-1.6,2.2v10.6H127v-10.9c0-1.1-0.6-1.9-1.6-1.9
	c-1.2,0-1.6,0.8-1.6,2.2v10.6h-3.2L120.7,223.7z"/>
<path class="st3" d="M145.3,234.6c0,1-0.3,1.9-1.6,1.9c-0.9,0-1.6-0.7-1.6-1.6c0,0,0-0.1,0-0.1v-6.1c0-1.1,0.6-2,1.6-2
	s1.6,0.9,1.6,2.1V234.6z M139,245.8h3.2V238h0.1c0.6,1,1.7,1.6,2.9,1.6c1.1,0.1,2.2-0.5,2.8-1.4c0.4-0.6,0.5-1.6,0.5-3.8v-6
	c0.1-1.1,0-2.3-0.5-3.4c-0.5-1-1.6-1.6-2.8-1.5c-1.2,0-2.3,0.6-3,1.6v-1.4H139L139,245.8z"/>
<path class="st3" d="M151.1,223.7h3.2v15.7h-3.2V223.7z M151.1,217.4h3.2v3.2h-3.2V217.4z"/>
<path class="st3" d="M160,228.5c0-1,0.3-1.9,1.6-1.9c0.9,0,1.6,0.7,1.6,1.6c0,0,0,0.1,0,0.1v6.1c0,1.1-0.6,2-1.6,2s-1.6-0.9-1.6-2.1
	V228.5z M163.1,239.4h3.2v-22.1h-3.2v7.8h-0.1c-0.6-1-1.7-1.6-2.9-1.6c-1.1-0.1-2.2,0.5-2.8,1.4c-0.4,0.6-0.5,1.6-0.5,3.8v6
	c-0.1,1.2,0.1,2.3,0.5,3.4c0.5,1,1.6,1.6,2.8,1.5c1.2,0,2.3-0.6,3-1.6L163.1,239.4z"/>
<path class="st3" d="M171.8,228.5c0-1.2,0.6-1.8,1.6-1.8s1.6,0.6,1.6,1.8v6.2c0,1.2-0.6,1.8-1.6,1.8s-1.6-0.6-1.6-1.8V228.5z
	 M168.6,234.1c-0.1,1.1,0.1,2.2,0.6,3.2c1.5,2.3,4.5,2.9,6.8,1.5c0.6-0.4,1.1-0.9,1.5-1.5c0.4-1,0.6-2.1,0.6-3.2V229
	c0.1-1.1-0.1-2.2-0.6-3.2c-1.5-2.3-4.5-2.9-6.8-1.5c-0.6,0.4-1.1,0.9-1.5,1.5c-0.4,1-0.6,2.1-0.6,3.2V234.1z"/>
<path class="st3" d="M189.8,239.4h-3.2v-1.5h-0.1c-0.6,1.1-1.8,1.7-3,1.7c-1.6,0-3.3-1-3.3-3.8v-12h3.2v10.9c0,1.1,0.6,1.9,1.6,1.9
	c1.2,0,1.6-0.8,1.6-2.2v-10.6h3.2L189.8,239.4z"/>
<path class="st3" d="M100.9,172.4h1.4c2.3,0,2.7,1.1,2.7,3.3s-0.2,3.7-2.7,3.7h-1.4V172.4z M97.7,182.6h4.3c4.1,0,5.9-2.2,5.9-6
	v-1.2c0-2.3-0.7-3.6-2.2-4.3c1.4-0.9,2.2-1.7,2.2-4.1v-0.8c0-2.9-1.5-5.6-5.6-5.6h-4.6V182.6z M100.9,163.5h1.3c2.1,0,2.8,1,2.8,3
	s-0.6,3.1-2.7,3.1h-1.4L100.9,163.5z"/>
<path class="st3" d="M110.7,166.9h3.2v15.7h-3.2V166.9z M110.7,160.5h3.2v3.2h-3.2V160.5z"/>
<path class="st3" d="M123.1,177.5c0,1.3-0.5,2.1-1.6,2.1s-1.6-0.8-1.6-2v-6.1c-0.1-0.9,0.6-1.6,1.5-1.7c0,0,0.1,0,0.1,0
	c1.2,0,1.6,0.9,1.6,1.9V177.5z M116.8,182.6h3.2v-1.4c0.7,1,1.8,1.6,3,1.6c1.1,0.1,2.2-0.5,2.8-1.5c0.4-1.1,0.6-2.2,0.5-3.4v-6
	c0-2.3-0.1-3.2-0.5-3.8c-0.6-1-1.7-1.5-2.8-1.4c-1.2,0-2.3,0.6-2.9,1.6H120v-7.8h-3.2L116.8,182.6z"/>
<path class="st3" d="M128.9,160.5h3.1v17.6c0,1.2,0.3,1.5,1.6,1.6v3c-2.9,0-4.7-0.7-4.7-4.4L128.9,160.5z"/>
<path class="st3" d="M135.4,166.9h3.2v15.7h-3.2V166.9z M135.4,160.5h3.2v3.2h-3.2V160.5z"/>
<path class="st3" d="M144.2,171.7c0-1.2,0.6-1.8,1.6-1.8s1.6,0.6,1.6,1.8v6.2c0,1.2-0.6,1.8-1.6,1.8s-1.6-0.6-1.6-1.8V171.7z
	 M141.1,177.3c-0.1,1.1,0.1,2.2,0.6,3.2c1.5,2.3,4.5,2.9,6.8,1.5c0.6-0.4,1.1-0.9,1.5-1.5c0.4-1,0.6-2.1,0.6-3.2v-5.2
	c0.1-1.1-0.1-2.2-0.6-3.2c-1.5-2.3-4.5-2.9-6.8-1.5c-0.6,0.4-1.1,0.9-1.5,1.5c-0.4,1-0.6,2.1-0.6,3.2V177.3z"/>
<path class="st3" d="M153.3,162.1h3.2v4.8h2v2.5h-2v8.7c0,1.5,0.6,1.6,2,1.6v3h-1.3c-1.9,0.2-3.6-1.3-3.8-3.2c0-0.2,0-0.3,0-0.5
	v-9.5h-1.6v-2.5h1.6L153.3,162.1z"/>
<path class="st3" d="M160.4,160.5h3.2v7.9h0.1c0.6-1.1,1.8-1.7,3-1.7c1.6,0,3.2,1,3.2,3.8v12h-3.2v-10.8c0-1.1-0.6-1.9-1.6-1.9
	c-1.2,0-1.6,0.8-1.6,2.2v10.6h-3.2L160.4,160.5z"/>
<path class="st3" d="M175.3,171.7c0-1.2,0.6-1.8,1.6-1.8s1.6,0.6,1.6,1.8v1.8h-3.1V171.7z M176.1,160.4h-3.4l4.1,4.4h2L176.1,160.4z
	 M181.6,175.9v-4.3c0.2-2.5-1.7-4.7-4.3-4.9c-0.1,0-0.3,0-0.4,0c-1.7-0.1-3.3,0.8-4.1,2.3c-0.4,1-0.6,2.1-0.6,3.2v5.2
	c-0.1,1.1,0.1,2.2,0.6,3.2c0.8,1.5,2.4,2.3,4.1,2.3c1.3,0,2.5-0.5,3.4-1.4c0.8-0.9,1.3-2.1,1.3-3.4h-3.2c-0.1,0.7-0.3,1.6-1.6,1.6
	c-0.8,0.1-1.5-0.5-1.6-1.3c0-0.1,0-0.2,0-0.3v-2.1L181.6,175.9z"/>
<path class="st3" d="M187.1,172c0-1.3,0.5-2.1,1.6-2.1s1.6,0.8,1.6,1.9v6.1c0.1,0.9-0.6,1.6-1.5,1.7c0,0-0.1,0-0.1,0
	c-1.2,0-1.6-0.9-1.6-1.9V172z M190.2,189h3.2v-22.1h-3.2v1.4c-0.7-1-1.8-1.6-3-1.6c-1.1-0.1-2.2,0.5-2.8,1.5
	c-0.4,1.1-0.6,2.2-0.5,3.4v6c0,2.3,0.1,3.2,0.5,3.8c0.6,1,1.7,1.5,2.8,1.4c1.2,0,2.3-0.6,2.9-1.6h0.1L190.2,189z"/>
<path class="st3" d="M205.4,182.6h-3.2v-1.5h-0.1c-0.6,1.1-1.8,1.7-3,1.7c-1.6,0-3.2-1-3.2-3.8v-12h3.2v10.9c0,1.1,0.6,1.9,1.6,1.9
	c1.2,0,1.6-0.8,1.6-2.2v-10.6h3.2L205.4,182.6z"/>
<path class="st3" d="M210.9,171.7c0-1.2,0.6-1.8,1.6-1.8s1.6,0.6,1.6,1.8v1.8h-3.1V171.7z M217.2,175.9v-4.3
	c0.2-2.5-1.7-4.7-4.3-4.9c-0.1,0-0.3,0-0.4,0c-1.7-0.1-3.3,0.8-4.1,2.3c-0.4,1-0.6,2.1-0.6,3.2v5.2c-0.1,1.1,0.1,2.2,0.6,3.2
	c0.8,1.5,2.4,2.3,4.1,2.3c1.3,0,2.5-0.5,3.4-1.4c0.8-0.9,1.3-2.1,1.3-3.4H214c-0.1,0.7-0.3,1.6-1.6,1.6c-0.8,0.1-1.5-0.5-1.6-1.3
	c0-0.1,0-0.2,0-0.3v-2.1L217.2,175.9z"/>
<path class="st3" d="M193.4,198.1c0,0.9-0.1,1.6-1,1.6s-1-0.7-1-1.6s0.1-1.6,1-1.6S193.4,197.1,193.4,198.1z M194.8,198.1
	c0.1-0.8-0.1-1.7-0.6-2.4c-0.4-0.3-0.9-0.5-1.4-0.5c-0.5,0-1.1,0.2-1.4,0.6v-0.5H190v7.8h1.4v-2.6c0.3,0.4,0.9,0.6,1.4,0.6
	c0.5,0,1-0.2,1.4-0.5C194.7,199.8,194.9,198.9,194.8,198.1z"/>
<path class="st3" d="M199.4,200.9v-0.5c-0.4,0.4-0.9,0.6-1.4,0.6c-0.5,0-1-0.2-1.3-0.5c-0.4-0.4-0.6-1-0.6-1.6v-3.6h1.4v3.4
	c0,0.5,0.4,0.9,0.9,0.9s0.9-0.4,0.9-0.9v-3.4h1.4v5.7L199.4,200.9z"/>
<path class="st3" d="M205.8,198.1c0,0.9-0.1,1.6-1,1.6s-1-0.7-1-1.6s0.1-1.6,1-1.6S205.8,197.1,205.8,198.1z M207.2,198.1
	c0.1-0.8-0.1-1.7-0.6-2.4c-0.4-0.3-0.9-0.5-1.4-0.5c-0.5,0-1,0.2-1.4,0.6v-2.6h-1.4v7.8h1.4v-0.5c0.4,0.4,0.9,0.6,1.4,0.6
	c0.5,0,1-0.2,1.4-0.5C207.1,199.8,207.3,198.9,207.2,198.1z"/>
<path class="st3" d="M210.2,200.9c-0.8,0.1-1.6-0.6-1.7-1.4c0-0.1,0-0.1,0-0.2v-6.1h1.4v6.1c0,0.3,0.1,0.5,0.5,0.5h0.6v1.2
	L210.2,200.9z"/>
<path class="st3" d="M212.1,194.2v-1.2h1.5v1.2H212.1z M212.1,200.9v-5.7h1.4v5.7H212.1z"/>
<path class="st3" d="M218.2,198.1c0,0.9-0.1,1.6-1,1.6s-1-0.7-1-1.6s0.1-1.6,1-1.6S218.2,197.1,218.2,198.1z M219.6,203v-7.8h-1.4
	v0.5c-0.3-0.4-0.9-0.6-1.4-0.6c-0.5,0-1,0.2-1.4,0.5c-0.8,1.5-0.8,3.3,0,4.8c0.4,0.3,0.9,0.5,1.4,0.5c0.5,0,1-0.2,1.4-0.6v2.6
	L219.6,203z"/>
<path class="st3" d="M224.5,200.9v-0.5c-0.4,0.4-0.9,0.6-1.4,0.6c-0.5,0-1-0.2-1.3-0.5c-0.4-0.4-0.6-1-0.6-1.6v-3.6h1.4v3.4
	c-0.1,0.5,0.3,1,0.8,1.1c0.5,0.1,1-0.3,1.1-0.8c0-0.1,0-0.2,0-0.3v-3.4h1.4v5.7H224.5z"/>
<path class="st3" d="M230.8,197.5h-2.2c0-0.2,0-0.4,0.1-0.6c0.3-0.5,0.9-0.7,1.4-0.5c0.2,0.1,0.4,0.3,0.5,0.5
	C230.7,197.1,230.8,197.3,230.8,197.5z M232.2,198.5v-0.6c0.1-1.3-0.8-2.6-2.2-2.7c-0.1,0-0.2,0-0.3,0c-1.5,0-2.5,1-2.5,2.9
	c0,2.3,1.3,2.9,2.6,2.9c0.8,0,1.6-0.3,2.2-0.9l-0.9-0.8c-0.3,0.4-0.8,0.6-1.3,0.5c-0.7,0-1.2-0.5-1.3-1.1c0-0.1,0-0.1,0-0.2
	L232.2,198.5z"/>
<path class="st3" d="M239.1,198.1c0,0.9-0.1,1.6-1,1.6s-1-0.7-1-1.6s0.1-1.6,1-1.6S239.1,197.1,239.1,198.1z M240.6,200.9v-7.8h-1.4
	v2.6c-0.3-0.4-0.9-0.6-1.4-0.6c-0.5,0-1,0.2-1.4,0.5c-0.8,1.5-0.8,3.3,0,4.8c0.4,0.3,0.9,0.5,1.4,0.5c0.5,0,1.1-0.2,1.4-0.6v0.5
	L240.6,200.9z"/>
<path class="st3" d="M242.1,195.4v-2.3h1.4v2.3H242.1z"/>
<path class="st3" d="M244.9,194.2v-1.2h1.5v1.2H244.9z M244.9,200.9v-5.7h1.4v5.7H244.9z"/>
<path class="st3" d="M251.3,200.9v-3.4c0-0.5-0.4-0.9-0.9-0.9s-0.9,0.4-0.9,0.9l0,0v3.4H248v-5.7h1.4v0.5c0.4-0.4,0.9-0.6,1.4-0.6
	c0.5,0,1,0.2,1.3,0.5c0.4,0.4,0.6,1,0.6,1.6v3.6H251.3z"/>
<path class="st3" d="M255.8,196.5v4.4h-1.4v-4.4h-0.6v-1.1h0.6v-0.7c0-0.9,0.6-1.6,1.5-1.6c0.1,0,0.1,0,0.2,0h0.8v1.2h-0.6
	c-0.3,0-0.5,0.2-0.5,0.5v0.6h1v1.1H255.8z"/>
<path class="st3" d="M261,198.1c0.1,0.5-0.1,1-0.3,1.4c-0.2,0.2-0.4,0.3-0.7,0.2c-0.2,0-0.5-0.1-0.6-0.2c-0.3-0.4-0.4-0.9-0.3-1.4
	c-0.1-0.5,0-1,0.3-1.4c0.2-0.2,0.4-0.3,0.6-0.2c0.2,0,0.5,0.1,0.7,0.2C261,197.1,261.1,197.6,261,198.1z M262.4,198.1
	c0.1-0.8-0.1-1.6-0.6-2.2c-0.5-0.5-1.1-0.7-1.8-0.7c-0.7,0-1.3,0.2-1.8,0.7c-0.9,1.4-0.9,3.1,0,4.4c0.5,0.5,1.1,0.7,1.8,0.7
	c0.7,0,1.3-0.2,1.8-0.7C262.3,199.7,262.5,198.9,262.4,198.1L262.4,198.1z"/>
<path class="st3" d="M266.8,196.8c-0.3-0.4-0.9-0.4-1.3-0.1c-0.2,0.2-0.4,0.5-0.3,0.8v3.4h-1.4v-5.7h1.4v0.5
	c0.4-0.4,0.9-0.6,1.4-0.6c0.5,0,1,0.2,1.3,0.5L266.8,196.8z"/>
<path class="st3" d="M275.3,200.9v-3.4c0.2-0.5-0.1-1.1-0.6-1.3c-0.5-0.2-1.1,0.1-1.3,0.6c-0.1,0.2-0.1,0.4,0,0.6v3.5H272v-3.4
	c0-0.5-0.4-0.9-0.9-0.9s-0.9,0.4-0.9,0.9l0,0v3.4h-1.4v-5.7h1.4v0.5c0.4-0.4,0.9-0.6,1.4-0.6c0.6,0,1.2,0.2,1.5,0.7
	c0.4-0.5,1.1-0.7,1.7-0.7c0.5,0,1,0.2,1.4,0.5c0.4,0.4,0.7,1,0.6,1.6v3.6L275.3,200.9z"/>
<path class="st3" d="M281.2,198.8c0,0.3,0,0.5-0.2,0.7c-0.2,0.2-0.6,0.3-0.9,0.3c-0.6,0-0.8-0.3-0.8-0.7s0.3-0.6,0.8-0.6h1.1V198.8z
	 M282.6,200.9v-3.8c0-1.3-0.8-2-2.4-2c-0.8-0.1-1.5,0.2-2.1,0.8l0.9,0.9c0.3-0.3,0.7-0.5,1.1-0.5c0.8,0,1.1,0.3,1.1,0.9v0.3h-1.4
	c-1.3,0-1.9,0.8-1.9,1.7c0,0.5,0.2,0.9,0.5,1.3c0.4,0.4,0.9,0.5,1.5,0.5c0.5,0,1-0.2,1.4-0.6v0.5L282.6,200.9z"/>
<path class="st3" d="M285.9,200.9c-0.8,0.1-1.6-0.6-1.7-1.4c0-0.1,0-0.1,0-0.2v-2.8h-0.6v-1.1h0.6v-1.7h1.4v1.7h1v1.1h-1v2.7
	c0,0.3,0.1,0.5,0.5,0.5h0.5v1.2L285.9,200.9z"/>
<path class="st3" d="M287.9,194.2v-1.2h1.5v1.2H287.9z M287.9,200.9v-5.7h1.4v5.7H287.9z"/>
<path class="st3" d="M294.1,198.1c0.1,0.5-0.1,1-0.3,1.4c-0.2,0.2-0.4,0.3-0.7,0.2c-0.2,0-0.5-0.1-0.7-0.2c-0.3-0.4-0.4-0.9-0.3-1.4
	c-0.1-0.5,0-1,0.3-1.4c0.2-0.2,0.4-0.3,0.7-0.2c0.2,0,0.5,0.1,0.7,0.2C294.1,197.1,294.2,197.6,294.1,198.1z M295.5,198.1
	c0.1-0.8-0.1-1.6-0.6-2.2c-1-0.9-2.5-0.9-3.5,0c-0.9,1.4-0.9,3.1,0,4.4c1,0.9,2.5,0.9,3.5,0C295.4,199.7,295.7,198.9,295.5,198.1z"
	/>
<path class="st3" d="M300.2,200.9v-3.4c0-0.5-0.4-0.9-0.9-0.9s-0.9,0.4-0.9,0.9l0,0v3.4h-1.4v-5.7h1.4v0.5c0.4-0.4,0.9-0.6,1.4-0.6
	c0.5,0,1,0.2,1.3,0.5c0.4,0.4,0.6,1,0.6,1.6v3.6H300.2z"/>
</svg>
