<svg xmlns="http://www.w3.org/2000/svg" viewBox="0 0 197.46 59.31"><title>Fichier 2</title><g id="Calque_2" data-name="Calque 2"><g id="svg2262"><g id="layer1"><g id="g3"><g id="g5"><path id="path7" d="M30.71,22.37H26.88c-1,.95-2.25,1.65-3.26,2.59H20.15l-3.23,2.53H13.38L10.18,30H6.67l-3.26,2.6H0V31.33H2.94A16.06,16.06,0,0,0,4.51,30L0,30.06V28.77H9.71l1.51-1.22H.06V26.24H16.42c.41-.46,1.19-.79,1.5-1.28l-17.86,0V23.65H23.19c.47-.46,1-.67,1.53-1.22H.06V21.06H30.71Z"/><path id="path9" d="M30.71,25H27.79c-.5.4-1.06.79-1.5,1.22l4.42,0v1.33H21l-1.5,1.22H30.71V30H14.35c-.57.48-1,.78-1.57,1.29H30.71v1.3H7.58L6,33.83H30.67v1.31H0V33.86H3.85l3.26-2.53h3.45c1.19-.91,2.16-1.65,3.32-2.56,1.19,0,2.47,0,3.57-.06l3.07-2.44,3.54,0,3.23-2.59h3.42V25Z"/></g><g id="g11"><path id="path13" d="M57.94,8.3h1c1.59,0,1.87.8,1.87,2.32s-.13,2.58-1.89,2.58h-.94Zm-2.2,7.1h3c2.83,0,4.1-1.51,4.1-4.17v-.87c0-1.59-.47-2.51-1.5-3a2.79,2.79,0,0,0,1.5-2.84V3.94A3.57,3.57,0,0,0,58.94.06h-3.2Zm2.2-13.27h.9c1.43,0,1.93.71,1.93,2.07s-.39,2.16-1.85,2.16h-1V2.13Z"/><path id="path15" d="M64.79,4.49H67V15.4H64.79Zm0-4.43H67v2.2H64.79Z"/><path id="path17" d="M73.39,11.85c0,.88-.33,1.48-1.08,1.48S71.2,12.77,71.2,12V7.74a1.12,1.12,0,0,1,1.11-1.19c.84,0,1.08.61,1.08,1.3ZM69,15.4H71.2v-1a2.51,2.51,0,0,0,2.1,1.12,2,2,0,0,0,1.92-1,5,5,0,0,0,.36-2.34V8c0-1.56-.06-2.19-.34-2.64a2.08,2.08,0,0,0-2-1,2.35,2.35,0,0,0-2,1.12h0V.06H69V15.4Z"/><path id="path19" d="M77.39.06h2.19V12.32c0,.82.24,1.06,1.08,1.14v2.07c-2,0-3.27-.52-3.27-3.06V.06Z"/><path id="path21" d="M82,4.49h2.2V15.4H82ZM82,.06h2.2v2.2H82Z"/><path id="path23" d="M88.07,7.8c0-.82.41-1.25,1.08-1.25S90.23,7,90.23,7.8v4.28c0,.82-.41,1.25-1.08,1.25s-1.08-.43-1.08-1.25Zm-2.2,3.94A4.84,4.84,0,0,0,86.28,14,3.41,3.41,0,0,0,92,14a4.84,4.84,0,0,0,.41-2.22V8.15A4.82,4.82,0,0,0,92,5.93a3.41,3.41,0,0,0-5.74,0,4.82,4.82,0,0,0-.41,2.22Z"/><path id="path25" d="M94.36,1.17h2.2V4.49h1.35V6.21H96.56v6.05c0,1,.38,1.07,1.35,1.07V15.4H97a2.44,2.44,0,0,1-2.65-2.56V6.21h-1.1V4.49h1.1Z"/><path id="path27" d="M99.29.06h2.2V5.54h0a2.34,2.34,0,0,1,2.08-1.18c1.09,0,2.26.71,2.26,2.67V15.4h-2.2V7.84c0-.79-.39-1.29-1.08-1.29s-1.1.54-1.1,1.51V15.4h-2.2Z"/><path id="path29" d="M109.67,7.8c0-.82.41-1.25,1.08-1.25s1.08.43,1.08,1.25V9h-2.16Zm.54-7.8h-2.33l2.85,3h1.42ZM114,10.76v-3a3.18,3.18,0,0,0-3.28-3.39,3.13,3.13,0,0,0-2.87,1.57,4.8,4.8,0,0,0-.41,2.21v3.59a4.86,4.86,0,0,0,.41,2.23,3.15,3.15,0,0,0,2.87,1.57,3.22,3.22,0,0,0,2.4-1,3.35,3.35,0,0,0,.88-2.33h-2.2a1,1,0,0,1-1.08,1.1,1,1,0,0,1-1.08-1.08V10.76Z"/><path id="path31" d="M117.83,8c0-.88.33-1.49,1.09-1.49s1.1.56,1.1,1.36v4.24a1.11,1.11,0,0,1-1.1,1.18c-.85,0-1.09-.6-1.09-1.29ZM120,19.82h2.19V4.49H120v1a2.48,2.48,0,0,0-2.1-1.12,2,2,0,0,0-1.92,1,5.07,5.07,0,0,0-.36,2.35v4.15c0,1.57.06,2.2.34,2.65a2.08,2.08,0,0,0,2,1,2.35,2.35,0,0,0,2-1.12h0v5.41Z"/><path id="path33" d="M130.59,15.4H128.4V14.35h-.05a2.34,2.34,0,0,1-2.07,1.18c-1.1,0-2.26-.71-2.26-2.67V4.49h2.19V12c0,.8.39,1.29,1.08,1.29s1.11-.54,1.11-1.51V4.49h2.19Z"/><path id="path35" d="M134.4,7.8c0-.82.41-1.25,1.08-1.25s1.08.43,1.08,1.25V9H134.4Zm4.35,3v-3a3.18,3.18,0,0,0-3.27-3.39,3.13,3.13,0,0,0-2.87,1.57,4.8,4.8,0,0,0-.41,2.21v3.59a4.86,4.86,0,0,0,.41,2.23,3.15,3.15,0,0,0,2.87,1.57,3.22,3.22,0,0,0,2.39-1,3.35,3.35,0,0,0,.89-2.33h-2.2a1,1,0,0,1-1.08,1.1,1,1,0,0,1-1.08-1.08V10.76Z"/><path id="path37" d="M46,31.72a3.54,3.54,0,0,1-3.48,3.55,3.33,3.33,0,0,1-3.61-3.62V23.21a3.42,3.42,0,0,1,3.57-3.53A3.48,3.48,0,0,1,46,23.34v.86H43.82v-.73a1.44,1.44,0,0,0-1.35-1.59c-1.1,0-1.35.75-1.35,1.79V31.5c0,.89.34,1.58,1.32,1.58a1.36,1.36,0,0,0,1.38-1.56v-.75H46v.95Z"/><path id="path39" d="M49.69,27.54c0-.81.41-1.24,1.08-1.24s1.08.43,1.08,1.24v1.24H49.69Zm4.35,3v-3a3.18,3.18,0,0,0-3.27-3.4,3.15,3.15,0,0,0-2.87,1.57,4.82,4.82,0,0,0-.41,2.21v3.6a4.84,4.84,0,0,0,.41,2.22,3.13,3.13,0,0,0,2.87,1.57,3.18,3.18,0,0,0,2.39-1A3.34,3.34,0,0,0,54,32H51.85a1,1,0,0,1-1.08,1.1A1,1,0,0,1,49.69,32V30.51H54Z"/><path id="path41" d="M55.76,24.23H58v1.06h0a2.34,2.34,0,0,1,2.08-1.19c1.09,0,2.26.71,2.26,2.67v8.37h-2.2V27.59c0-.8-.39-1.29-1.08-1.29s-1.1.54-1.1,1.5v7.34h-2.2Z"/><path id="path43" d="M64.64,20.91h2.19v3.32h1.36V26H66.83V32c0,1,.39,1.08,1.36,1.08v2.06h-.9a2.44,2.44,0,0,1-2.65-2.56V26h-1.1V24.23h1.1Z"/><path id="path45" d="M69.74,24.23h2.2v1.16a4,4,0,0,1,2.91-1.29v2.33a1.7,1.7,0,0,0-.67-.13,2.19,2.19,0,0,0-2.24,2.37v6.47h-2.2V24.23Z"/><path id="path47" d="M77.62,27.54c0-.81.42-1.24,1.09-1.24s1.08.43,1.08,1.24v1.24H77.62Zm4.36,3v-3a3.19,3.19,0,0,0-3.28-3.4,3.16,3.16,0,0,0-2.87,1.57,4.83,4.83,0,0,0-.4,2.21v3.6a4.85,4.85,0,0,0,.4,2.22,3.13,3.13,0,0,0,2.87,1.57,3.19,3.19,0,0,0,2.4-1A3.34,3.34,0,0,0,82,32H79.79c-.05.47-.24,1.1-1.09,1.1A1,1,0,0,1,77.62,32V30.51H82Z"/><path id="path49" d="M57.94,41.62h1.13c1.72,0,1.72,1.19,1.72,2.63s0,2.59-1.8,2.59H57.94Zm-2.2,13.27h2.2v-6h1.11a3.38,3.38,0,0,0,3.18-1.59,5.51,5.51,0,0,0,.63-3.09c0-1.83-.24-2.81-1-3.6A3.57,3.57,0,0,0,59,39.55H55.74V54.89Z"/><path id="path51" d="M65.73,47.29c0-.82.41-1.25,1.08-1.25s1.08.43,1.08,1.25v4.28c0,.82-.4,1.25-1.08,1.25s-1.08-.43-1.08-1.25Zm-2.19,3.94a4.94,4.94,0,0,0,.4,2.21,3.41,3.41,0,0,0,5.74,0,4.8,4.8,0,0,0,.41-2.21v-3.6a4.8,4.8,0,0,0-.41-2.21,3.41,3.41,0,0,0-5.74,0,4.94,4.94,0,0,0-.4,2.21v3.6Z"/><path id="path53" d="M71.7,44h2.2V45h0A2.32,2.32,0,0,1,76,43.85a2.39,2.39,0,0,1,2,1.09,2.79,2.79,0,0,1,2.29-1.09,2.38,2.38,0,0,1,2.4,2.66v8.38h-2.2V47.33c0-.79-.39-1.29-1.08-1.29s-1.1.54-1.1,1.51v7.34h-2.2V47.33c0-.79-.39-1.29-1.08-1.29s-1.1.54-1.1,1.51v7.34H71.7V44Z"/><path id="path55" d="M88.83,51.53c0,.69-.24,1.29-1.08,1.29a1.11,1.11,0,0,1-1.1-1.19V47.4c0-.8.43-1.36,1.1-1.36s1.08.61,1.08,1.49Zm-4.38,7.78h2.2V53.9h0a2.37,2.37,0,0,0,2,1.11,2.05,2.05,0,0,0,2-1A5.22,5.22,0,0,0,91,51.38V47.23a4.91,4.91,0,0,0-.37-2.35,2,2,0,0,0-1.92-1A2.46,2.46,0,0,0,86.65,45V44h-2.2V59.31Z"/><path id="path57" d="M92.83,44H95V54.89h-2.2Zm0-4.42H95v2.2h-2.2Z"/><path id="path59" d="M99,47.33c0-.69.24-1.29,1.08-1.29a1.11,1.11,0,0,1,1.1,1.19v4.23c0,.8-.43,1.36-1.1,1.36S99,52.22,99,51.33Zm2.18,7.56h2.2V39.55h-2.2V45h0a2.35,2.35,0,0,0-2-1.12,2.07,2.07,0,0,0-2,1,5.26,5.26,0,0,0-.34,2.65v4.15A4.94,4.94,0,0,0,97.2,54a2,2,0,0,0,1.92,1,2.47,2.47,0,0,0,2.09-1.11Z"/><path id="path61" d="M107.22,47.29c0-.82.41-1.25,1.08-1.25s1.08.43,1.08,1.25v4.28c0,.82-.41,1.25-1.08,1.25s-1.08-.43-1.08-1.25ZM105,51.23a4.8,4.8,0,0,0,.41,2.21,3.41,3.41,0,0,0,5.74,0,4.8,4.8,0,0,0,.4-2.21v-3.6a4.8,4.8,0,0,0-.4-2.21,3.41,3.41,0,0,0-5.74,0,4.8,4.8,0,0,0-.41,2.21Z"/><path id="path63" d="M119.76,54.89h-2.2V53.83h0A2.32,2.32,0,0,1,115.45,55c-1.1,0-2.27-.7-2.27-2.66V44h2.2v7.56c0,.8.39,1.29,1.08,1.29s1.1-.54,1.1-1.51V44h2.2V54.89Z"/><path id="path65" d="M122.24,26.14c0,.65-.07,1.14-.67,1.14s-.67-.49-.67-1.14S121,25,121.57,25,122.24,25.49,122.24,26.14Zm1,0a2.36,2.36,0,0,0-.4-1.66,1.39,1.39,0,0,0-1-.36,1.21,1.21,0,0,0-1,.42v-.37h-1v5.4h1v-1.8a1.18,1.18,0,0,0,1,.4,1.39,1.39,0,0,0,1-.36A2.37,2.37,0,0,0,123.23,26.14Z"/><path id="path67" d="M126.44,28.12v-.36a1.34,1.34,0,0,1-1,.41,1.28,1.28,0,0,1-.93-.35,1.47,1.47,0,0,1-.41-1.13V24.17h1v2.39a.63.63,0,0,0,.65.72.64.64,0,0,0,.66-.72V24.17h1v3.95Z"/><path id="path69" d="M130.85,26.14c0,.65-.08,1.14-.67,1.14s-.67-.49-.67-1.14.07-1.14.67-1.14S130.85,25.49,130.85,26.14Zm1,0a2.31,2.31,0,0,0-.41-1.66,1.39,1.39,0,0,0-1-.36,1.15,1.15,0,0,0-1,.4v-1.8h-1v5.4h1v-.37a1.24,1.24,0,0,0,1,.42,1.39,1.39,0,0,0,1-.36A2.33,2.33,0,0,0,131.84,26.14Z"/><path id="path71" d="M133.89,28.12A1.07,1.07,0,0,1,132.74,27V22.72h1v4.22c0,.23.09.35.34.35h.39v.83Z"/><path id="path73" d="M135.22,23.49v-.8h1v.8Zm0,4.63V24.17h1v3.95Z"/><path id="path75" d="M139.49,26.14c0,.65-.08,1.14-.67,1.14s-.67-.49-.67-1.14.08-1.14.67-1.14S139.49,25.49,139.49,26.14Zm1,3.43v-5.4h-1v.37a1.19,1.19,0,0,0-1-.42,1.43,1.43,0,0,0-1,.36,2.36,2.36,0,0,0-.4,1.66,2.38,2.38,0,0,0,.4,1.67,1.4,1.4,0,0,0,1,.35,1.17,1.17,0,0,0,1-.39v1.8Z"/><path id="path77" d="M143.86,28.12v-.36a1.36,1.36,0,0,1-1,.41,1.33,1.33,0,0,1-.94-.35,1.47,1.47,0,0,1-.4-1.13V24.17h1v2.39a.63.63,0,0,0,.65.72.64.64,0,0,0,.66-.72V24.17h1v3.95Z"/><path id="path79" d="M148.21,25.77h-1.5a1.12,1.12,0,0,1,.09-.42.69.69,0,0,1,.66-.41.67.67,0,0,1,.66.41A1,1,0,0,1,148.21,25.77Zm1,.68V26a1.7,1.7,0,0,0-1.72-1.89c-1,0-1.72.73-1.72,2,0,1.6.89,2,1.83,2a1.88,1.88,0,0,0,1.5-.62l-.6-.59a1.06,1.06,0,0,1-.89.38.82.82,0,0,1-.87-.89Z"/><path id="path81" d="M154,26.14c0,.65-.09,1.14-.68,1.14s-.66-.49-.66-1.14.07-1.14.66-1.14S154,25.49,154,26.14Zm1,2v-5.4h-1v1.79a1.2,1.2,0,0,0-1-.39,1.39,1.39,0,0,0-1,.36,2.31,2.31,0,0,0-.4,1.66,2.38,2.38,0,0,0,.4,1.67,1.4,1.4,0,0,0,1,.35,1.19,1.19,0,0,0,1-.41v.37Z"/><path id="path83" d="M156.09,24.33V22.72H157v1.61Z"/><path id="path85" d="M158.07,23.49v-.8h1v.8Zm0,4.63V24.17h1v3.95Z"/><path id="path87" d="M162.47,28.12V25.73a.64.64,0,0,0-.65-.73.65.65,0,0,0-.66.73v2.39h-1V24.17h1v.36a1.36,1.36,0,0,1,1-.41,1.29,1.29,0,0,1,.94.35,1.46,1.46,0,0,1,.4,1.12v2.53Z"/><path id="path89" d="M165.63,25v3.08h-1V25h-.41v-.76h.41v-.5a1.07,1.07,0,0,1,1.16-1.12h.56v.83H166a.32.32,0,0,0-.35.36v.43h.73V25Z"/><path id="path91" d="M169.2,26.14a1.35,1.35,0,0,1-.23,1,.62.62,0,0,1-.46.17.6.6,0,0,1-.45-.17,1.35,1.35,0,0,1-.23-1,1.33,1.33,0,0,1,.23-1,.6.6,0,0,1,.45-.18.62.62,0,0,1,.46.18A1.33,1.33,0,0,1,169.2,26.14Zm1,0a2,2,0,0,0-.45-1.54,1.67,1.67,0,0,0-1.23-.48,1.65,1.65,0,0,0-1.22.48,2,2,0,0,0-.45,1.54,2,2,0,0,0,.45,1.54,1.61,1.61,0,0,0,1.22.49,1.64,1.64,0,0,0,1.23-.49A2,2,0,0,0,170.19,26.14Z"/><path id="path93" d="M173.28,25.24a.67.67,0,0,0-.53-.23.66.66,0,0,0-.63.73v2.38h-1V24.17h1v.37a1.37,1.37,0,0,1,1-.42,1.19,1.19,0,0,1,.93.37Z"/><path id="path95" d="M179.18,28.12V25.73a.66.66,0,1,0-1.31,0v2.42h-1V25.73a.64.64,0,0,0-.65-.73.65.65,0,0,0-.66.73v2.39h-1V24.17h1v.36a1.36,1.36,0,0,1,1-.41,1.24,1.24,0,0,1,1.05.5,1.5,1.5,0,0,1,1.19-.5,1.38,1.38,0,0,1,1,.35,1.49,1.49,0,0,1,.44,1.12v2.53Z"/><path id="path97" d="M183.24,26.66a.65.65,0,0,1-.15.51.8.8,0,0,1-.62.19c-.39,0-.57-.19-.57-.46s.2-.45.55-.45h.79v.21Zm1,1.47V25.51c0-.92-.58-1.39-1.69-1.39a1.65,1.65,0,0,0-1.43.55l.63.61a.84.84,0,0,1,.76-.33c.52,0,.74.19.74.63v.19h-.94c-.92,0-1.35.52-1.35,1.15a1.28,1.28,0,0,0,.32.89,1.36,1.36,0,0,0,1,.36,1.2,1.2,0,0,0,1-.39v.34h1Z"/><path id="path99" d="M186.53,28.12A1.07,1.07,0,0,1,185.38,27V25H185v-.76h.42V23.12h1v1.16h.7V25h-.7v1.9a.31.31,0,0,0,.34.35h.36v.83Z"/><path id="path101" d="M187.94,23.49v-.8h1v.8Zm0,4.63V24.17h1v3.95Z"/><path id="path103" d="M192.25,26.14a1.41,1.41,0,0,1-.23,1,.65.65,0,0,1-.46.17.64.64,0,0,1-.46-.17,1.41,1.41,0,0,1-.23-1,1.38,1.38,0,0,1,.23-1,.64.64,0,0,1,.46-.18.66.66,0,0,1,.46.18A1.38,1.38,0,0,1,192.25,26.14Zm1,0a2,2,0,0,0-.45-1.54,1.69,1.69,0,0,0-1.23-.48,1.63,1.63,0,0,0-1.22.48,2,2,0,0,0-.46,1.54,2,2,0,0,0,.46,1.54,1.6,1.6,0,0,0,1.22.49,1.65,1.65,0,0,0,1.23-.49A2,2,0,0,0,193.24,26.14Z"/><path id="path105" d="M196.47,28.12V25.73a.64.64,0,0,0-.65-.73.65.65,0,0,0-.66.73v2.39h-1V24.17h1v.36a1.36,1.36,0,0,1,1-.41,1.28,1.28,0,0,1,.93.35,1.46,1.46,0,0,1,.41,1.12v2.53Z"/></g></g></g></g></g></svg>