<?xml version="1.0" encoding="utf-8"?>
<!-- Generator: Adobe Illustrator 21.0.2, SVG Export Plug-In . SVG Version: 6.00 Build 0)  -->
<svg version="1.1" id="Calque_1" xmlns="http://www.w3.org/2000/svg" xmlns:xlink="http://www.w3.org/1999/xlink" x="0px" y="0px"
	 viewBox="0 0 315 399" style="enable-background:new 0 0 315 399;" xml:space="preserve">
<style type="text/css">
	.st0{fill:#878634;}
	.st1{fill:none;}
	.st2{fill:#73732E;}
	.st3{fill:#FFFFFF;}
</style>
<title>article</title>
<rect y="0" class="st0" width="315" height="399"/>
<polygon class="st1" points="71.3,333.2 63.5,337.6 91.3,337.6 91.3,328.1 80.3,328.1 "/>
<rect x="45.9" y="351.8" class="st1" width="45.3" height="9.5"/>
<rect x="106.3" y="351.8" class="st1" width="45.3" height="9.5"/>
<path class="st1" d="M71.4,290.5l-7.6,29.6l75.8-42.8l-75.8-42.8l8.7,33.6c-3.6,0.3-7.3,0.5-11,0.5c-17.3,0-34.7-3.7-46-15
	c-20.2-20.2-16.8-51.5-10.9-84H0v100.9c18.3,16.7,42.7,20.1,65.9,20.1C67.8,290.6,69.6,290.6,71.4,290.5z"/>
<rect x="106.3" y="328.1" class="st1" width="45.3" height="9.5"/>
<rect x="45.9" y="185.8" class="st1" width="45.3" height="9.5"/>
<polygon class="st1" points="66.8,219 91.3,219 91.3,209.5 50,209.5 "/>
<rect x="166.7" y="256.9" class="st1" width="45.4" height="9.5"/>
<rect x="166.7" y="185.8" class="st1" width="45.4" height="9.5"/>
<rect x="166.7" y="209.5" class="st1" width="45.4" height="9.5"/>
<rect x="45.9" y="156.8" class="st1" width="166.1" height="20"/>
<rect x="166.7" y="233.2" class="st1" width="45.4" height="9.5"/>
<rect x="166.7" y="304.4" class="st1" width="45.4" height="56.9"/>
<rect x="166.7" y="280.7" class="st1" width="45.4" height="9.5"/>
<polygon class="st1" points="147.1,264.3 150.8,266.4 151.6,266.4 151.6,256.9 134,256.9 "/>
<polygon class="st1" points="151.6,290.1 151.6,287.8 147.6,290.1 "/>
<rect x="106.3" y="190.5" class="st1" width="45.3" height="47.4"/>
<polygon class="st1" points="106.3,313.4 106.3,313.9 151.6,313.9 151.6,304.4 122.3,304.4 "/>
<path class="st2" d="M273.9,261.7c0-96.5-78.2-174.7-174.7-174.7c-35.4,0-70,10.8-99.2,30.9v51.8h4.6c-5.9,32.5-9.2,63.8,10.9,84
	c11.3,11.3,28.7,15,46,15c3.7,0,7.4-0.2,11-0.5l-8.7-33.6l75.8,42.8l-75.8,42.8l7.6-29.6c-1.8,0-3.7,0.1-5.5,0.1
	c-23.2,0-47.7-3.5-65.9-20.1V399h207.2C249.3,365.9,273.9,315.3,273.9,261.7z M91.3,219H66.8L50,209.5h41.3V219z M91.3,195.3H45.9
	v-9.5h45.3V195.3z M91.3,361.3H45.9v-9.5h45.3V361.3z M91.3,337.6H63.5l7.7-4.4l9-5.1h11L91.3,337.6z M151.6,361.3h-45.3v-9.5h45.3
	V361.3z M151.6,337.6h-45.3v-9.5h45.3V337.6z M151.6,313.9h-45.3v-0.4l16-9.1h29.3L151.6,313.9z M151.6,290.2h-4.1l4.1-2.3V290.2z
	 M151.6,266.4h-0.8l-3.7-2.1l-13.1-7.4h17.6L151.6,266.4z M151.6,238h-45.3v-47.5h45.3V238z M212,361.3h-45.3v-56.9H212V361.3z
	 M212,290.1h-45.3v-9.5H212V290.1z M212,266.4h-45.3v-9.5H212V266.4z M212,242.7h-45.3v-9.5H212V242.7z M212,219h-45.3v-9.5H212V219
	z M212,195.3h-45.3v-9.5H212V195.3z M212,176.8H45.9v-20H212V176.8z"/>
<path class="st3" d="M61.7,192.6h-5.5c-1.4,1.4-3.2,2.4-4.7,3.7h-5l-4.7,3.6h-5.1l-4.6,3.6h-5l-4.7,3.7h-5v-1.8h4.2
	c0.8-0.6,1.5-1.2,2.3-1.9h-6.5v-1.9h14l2.2-1.8H17.6v-1.9h23.5c0.6-0.7,1.7-1.1,2.2-1.8H17.6v-1.9h33.3c0.7-0.7,1.4-1,2.2-1.8H17.6
	v-2h44.1V192.6z"/>
<path class="st3" d="M61.7,196.4h-4.2c-0.7,0.6-1.5,1.1-2.2,1.8h6.4v1.9H47.8l-2.2,1.8h16.1v1.9H38.1c-0.8,0.7-1.5,1.1-2.2,1.9h25.8
	v1.9H28.4l-2.2,1.8h35.5v1.9H17.5v-1.8H23l4.7-3.6h5c1.7-1.3,3.1-2.4,4.8-3.7c1.7,0,3.6,0,5.1-0.1l4.4-3.5h5.1l4.6-3.7h4.9
	L61.7,196.4z"/>
<path class="st3" d="M83.7,206.1c0,2.8-2.2,5.1-5,5.1c-2.4,0-5.2-1.2-5.2-5.2v-12.1c-0.1-2.7,2.1-5,4.8-5.1c0.1,0,0.2,0,0.4,0
	c2.8,0,5,2.2,5.1,4.9c0,0.1,0,0.2,0,0.3v1.2h-3.2v-1.1c0.1-1.1-0.7-2.2-1.8-2.3c0,0-0.1,0-0.1,0c-1.6,0-1.9,1.1-1.9,2.6v11.3
	c0,1.3,0.5,2.3,1.9,2.3c1.1,0,2-0.9,2-2c0-0.1,0-0.2,0-0.2v-1.1h3.2L83.7,206.1z"/>
<path class="st3" d="M89,200.1c0-1.2,0.6-1.8,1.6-1.8s1.6,0.6,1.6,1.8v1.8H89V200.1z M95.3,204.3V200c0.2-2.5-1.7-4.7-4.3-4.9
	c-0.1,0-0.3,0-0.4,0c-1.7-0.1-3.3,0.8-4.1,2.3c-0.4,1-0.6,2.1-0.6,3.2v5.2c-0.1,1.1,0.1,2.2,0.6,3.2c0.8,1.5,2.4,2.3,4.1,2.3
	c1.3,0,2.5-0.5,3.5-1.4c0.8-0.9,1.3-2.1,1.3-3.4h-3.2c-0.1,0.7-0.3,1.6-1.6,1.6c-0.8,0.1-1.5-0.5-1.5-1.3c0-0.1,0-0.2,0-0.3v-2.1
	H95.3z"/>
<path class="st3" d="M97.7,195.3h3.2v1.5h0.1c0.6-1.1,1.8-1.7,3-1.7c1.6,0,3.2,1,3.2,3.8v12H104v-10.8c0-1.1-0.6-1.9-1.6-1.9
	c-1.2,0-1.6,0.8-1.6,2.2V211h-3.1V195.3z"/>
<path class="st3" d="M110.5,190.5h3.2v4.8h2v2.5h-2v8.7c0,1.4,0.6,1.6,2,1.6v3h-1.3c-1.9,0.2-3.6-1.3-3.8-3.2c0-0.2,0-0.3,0-0.5
	v-9.5H109v-2.5h1.6L110.5,190.5z"/>
<path class="st3" d="M117.8,195.3h3.2v1.7c1.1-1.2,2.6-1.8,4.2-1.9v3.4c-0.3-0.1-0.7-0.2-1-0.2c-1.7,0-3.2,1.4-3.2,3.1
	c0,0.1,0,0.2,0,0.3v9.3h-3.2L117.8,195.3z"/>
<path class="st3" d="M129.2,200.1c0-1.2,0.6-1.8,1.6-1.8s1.6,0.6,1.6,1.8v1.8h-3.1V200.1z M135.5,204.3V200c0.2-2.5-1.7-4.7-4.3-4.9
	c-0.1,0-0.3,0-0.4,0c-1.7-0.1-3.3,0.8-4.1,2.3c-0.4,1-0.6,2.1-0.6,3.2v5.2c-0.1,1.1,0.1,2.2,0.6,3.2c0.8,1.5,2.4,2.3,4.1,2.3
	c1.3,0,2.5-0.5,3.4-1.4c0.8-0.9,1.3-2.1,1.3-3.4h-3.2c-0.1,0.7-0.3,1.6-1.6,1.6c-0.8,0.1-1.5-0.5-1.6-1.3c0-0.1,0-0.2,0-0.3v-2.1
	L135.5,204.3z"/>
<path class="st3" d="M100.9,220.3h1.6c2.5,0,2.5,1.7,2.5,3.8s0,3.7-2.6,3.7h-1.5L100.9,220.3z M97.7,239.4h3.2v-8.6h1.6
	c1.8,0.2,3.6-0.7,4.6-2.3c0.7-1.4,1-2.9,0.9-4.4c0-2.6-0.3-4-1.4-5.2c-1.1-1.1-2.6-1.7-4.1-1.6h-4.7V239.4z"/>
<path class="st3" d="M112.1,228.5c0-1.2,0.6-1.8,1.6-1.8s1.6,0.6,1.6,1.8v6.2c0,1.2-0.6,1.8-1.6,1.8s-1.6-0.6-1.6-1.8V228.5z
	 M108.9,234.1c-0.1,1.1,0.1,2.2,0.6,3.2c1.5,2.3,4.5,2.9,6.8,1.5c0.6-0.4,1.1-0.9,1.5-1.5c0.4-1,0.6-2.1,0.6-3.2V229
	c0.1-1.1-0.1-2.2-0.6-3.2c-1.5-2.3-4.5-2.9-6.8-1.5c-0.6,0.4-1.1,0.9-1.5,1.5c-0.4,1-0.6,2.1-0.6,3.2V234.1z"/>
<path class="st3" d="M120.7,223.7h3.2v1.5h0.1c0.6-1.1,1.8-1.7,3-1.7c1.1,0,2.2,0.6,2.8,1.6c0.8-1,2-1.6,3.3-1.6
	c1.6,0,3.4,1,3.4,3.8v12h-3.2v-10.8c0-1.1-0.6-1.9-1.6-1.9c-1.2,0-1.6,0.8-1.6,2.2v10.6H127v-10.9c0-1.1-0.6-1.9-1.6-1.9
	c-1.2,0-1.6,0.8-1.6,2.2v10.6h-3.2L120.7,223.7z"/>
<path class="st3" d="M145.3,234.6c0,1-0.3,1.9-1.6,1.9c-0.9,0-1.6-0.7-1.6-1.6c0,0,0-0.1,0-0.1v-6.1c0-1.1,0.6-2,1.6-2
	s1.6,0.9,1.6,2.1V234.6z M139,245.8h3.2V238h0.1c0.6,1,1.7,1.6,2.9,1.6c1.1,0.1,2.2-0.5,2.8-1.4c0.4-0.6,0.5-1.6,0.5-3.8v-6
	c0.1-1.1,0-2.3-0.5-3.4c-0.5-1-1.6-1.6-2.8-1.5c-1.2,0-2.3,0.6-3,1.6v-1.4H139L139,245.8z"/>
<path class="st3" d="M151.1,223.7h3.2v15.7h-3.2V223.7z M151.1,217.4h3.2v3.2h-3.2V217.4z"/>
<path class="st3" d="M160,228.5c0-1,0.3-1.9,1.6-1.9c0.9,0,1.6,0.7,1.6,1.6c0,0,0,0.1,0,0.1v6.1c0,1.1-0.6,2-1.6,2s-1.6-0.9-1.6-2.1
	V228.5z M163.1,239.4h3.2v-22.1h-3.2v7.8h-0.1c-0.6-1-1.7-1.6-2.9-1.6c-1.1-0.1-2.2,0.5-2.8,1.4c-0.4,0.6-0.5,1.6-0.5,3.8v6
	c-0.1,1.2,0.1,2.3,0.5,3.4c0.5,1,1.6,1.6,2.8,1.5c1.2,0,2.3-0.6,3-1.6L163.1,239.4z"/>
<path class="st3" d="M171.8,228.5c0-1.2,0.6-1.8,1.6-1.8s1.6,0.6,1.6,1.8v6.2c0,1.2-0.6,1.8-1.6,1.8s-1.6-0.6-1.6-1.8V228.5z
	 M168.6,234.1c-0.1,1.1,0.1,2.2,0.6,3.2c1.5,2.3,4.5,2.9,6.8,1.5c0.6-0.4,1.1-0.9,1.5-1.5c0.4-1,0.7-2.1,0.6-3.2V229
	c0.1-1.1-0.1-2.2-0.6-3.2c-1.5-2.3-4.5-2.9-6.8-1.5c-0.6,0.4-1.1,0.9-1.5,1.5c-0.4,1-0.6,2.1-0.6,3.2V234.1z"/>
<path class="st3" d="M189.8,239.4h-3.2v-1.5h-0.1c-0.6,1.1-1.8,1.7-3,1.7c-1.6,0-3.3-1-3.3-3.8v-12h3.2v10.9c0,1.1,0.6,1.9,1.6,1.9
	c1.2,0,1.6-0.8,1.6-2.2v-10.6h3.2L189.8,239.4z"/>
<path class="st3" d="M100.9,172.4h1.4c2.3,0,2.7,1.1,2.7,3.3s-0.2,3.7-2.7,3.7h-1.4V172.4z M97.7,182.6h4.3c4.1,0,5.9-2.2,5.9-6
	v-1.2c0-2.3-0.7-3.6-2.2-4.3c1.4-0.9,2.2-1.7,2.2-4.1v-0.8c0-2.9-1.5-5.6-5.6-5.6h-4.6V182.6z M100.9,163.5h1.3c2.1,0,2.8,1,2.8,3
	s-0.6,3.1-2.7,3.1h-1.4L100.9,163.5z"/>
<path class="st3" d="M110.7,166.9h3.2v15.7h-3.2V166.9z M110.7,160.5h3.2v3.2h-3.2V160.5z"/>
<path class="st3" d="M123.1,177.5c0,1.3-0.5,2.1-1.6,2.1s-1.6-0.8-1.6-2v-6.1c-0.1-0.9,0.6-1.6,1.5-1.7c0,0,0.1,0,0.1,0
	c1.2,0,1.6,0.9,1.6,1.9V177.5z M116.8,182.6h3.2v-1.4c0.7,1,1.8,1.6,3,1.6c1.1,0.1,2.2-0.5,2.8-1.5c0.4-1.1,0.6-2.2,0.5-3.4v-6
	c0-2.3-0.1-3.2-0.5-3.8c-0.6-1-1.7-1.5-2.8-1.4c-1.2,0-2.3,0.6-2.9,1.6H120v-7.8h-3.2L116.8,182.6z"/>
<path class="st3" d="M128.9,160.5h3.1v17.6c0,1.2,0.3,1.5,1.6,1.6v3c-2.9,0-4.7-0.7-4.7-4.4L128.9,160.5z"/>
<path class="st3" d="M135.4,166.9h3.2v15.7h-3.2V166.9z M135.4,160.5h3.2v3.2h-3.2V160.5z"/>
<path class="st3" d="M144.2,171.7c0-1.2,0.6-1.8,1.6-1.8s1.6,0.6,1.6,1.8v6.2c0,1.2-0.6,1.8-1.6,1.8s-1.6-0.6-1.6-1.8V171.7z
	 M141.1,177.3c-0.1,1.1,0.1,2.2,0.6,3.2c1.5,2.3,4.5,2.9,6.8,1.5c0.6-0.4,1.1-0.9,1.5-1.5c0.4-1,0.6-2.1,0.6-3.2v-5.2
	c0.1-1.1-0.1-2.2-0.6-3.2c-1.5-2.3-4.5-2.9-6.8-1.5c-0.6,0.4-1.1,0.9-1.5,1.5c-0.4,1-0.6,2.1-0.6,3.2V177.3z"/>
<path class="st3" d="M153.3,162.1h3.2v4.8h2v2.5h-2v8.7c0,1.5,0.6,1.6,2,1.6v3h-1.3c-1.9,0.2-3.6-1.3-3.8-3.2c0-0.2,0-0.3,0-0.5
	v-9.5h-1.6v-2.5h1.6L153.3,162.1z"/>
<path class="st3" d="M160.4,160.5h3.2v7.9h0.1c0.6-1.1,1.8-1.7,3-1.7c1.6,0,3.2,1,3.2,3.8v12h-3.2v-10.8c0-1.1-0.6-1.9-1.6-1.9
	c-1.2,0-1.6,0.8-1.6,2.2v10.6h-3.2L160.4,160.5z"/>
<path class="st3" d="M175.3,171.7c0-1.2,0.6-1.8,1.6-1.8s1.6,0.6,1.6,1.8v1.8h-3.1V171.7z M176.1,160.4h-3.4l4.1,4.4h2L176.1,160.4z
	 M181.6,175.9v-4.3c0.2-2.5-1.7-4.7-4.3-4.9c-0.1,0-0.3,0-0.4,0c-1.7-0.1-3.3,0.8-4.1,2.3c-0.4,1-0.6,2.1-0.6,3.2v5.2
	c-0.1,1.1,0.1,2.2,0.6,3.2c0.8,1.5,2.4,2.3,4.1,2.3c1.3,0,2.5-0.5,3.4-1.4c0.8-0.9,1.3-2.1,1.3-3.4h-3.2c-0.1,0.7-0.3,1.6-1.6,1.6
	c-0.8,0.1-1.5-0.5-1.6-1.3c0-0.1,0-0.2,0-0.3v-2.1L181.6,175.9z"/>
<path class="st3" d="M187.1,172c0-1.3,0.5-2.1,1.6-2.1s1.6,0.8,1.6,1.9v6.1c0.1,0.9-0.6,1.6-1.5,1.7c0,0-0.1,0-0.1,0
	c-1.2,0-1.6-0.9-1.6-1.9V172z M190.2,189h3.2v-22.1h-3.2v1.4c-0.7-1-1.8-1.6-3-1.6c-1.1-0.1-2.2,0.5-2.8,1.5
	c-0.4,1.1-0.6,2.2-0.5,3.4v6c0,2.3,0.1,3.2,0.5,3.8c0.6,1,1.7,1.5,2.8,1.4c1.2,0,2.3-0.6,2.9-1.6h0.1L190.2,189z"/>
<path class="st3" d="M205.4,182.6h-3.2v-1.5h-0.1c-0.6,1.1-1.8,1.7-3,1.7c-1.6,0-3.2-1-3.2-3.8v-12h3.2v10.9c0,1.1,0.6,1.9,1.6,1.9
	c1.2,0,1.6-0.8,1.6-2.2v-10.6h3.2L205.4,182.6z"/>
<path class="st3" d="M210.9,171.7c0-1.2,0.6-1.8,1.6-1.8s1.6,0.6,1.6,1.8v1.8h-3.1L210.9,171.7z M217.2,175.9v-4.3
	c0.2-2.5-1.7-4.7-4.3-4.9c-0.1,0-0.3,0-0.4,0c-1.7-0.1-3.3,0.8-4.1,2.3c-0.4,1-0.6,2.1-0.6,3.2v5.2c-0.1,1.1,0.1,2.2,0.6,3.2
	c0.8,1.5,2.4,2.3,4.1,2.3c1.3,0,2.5-0.5,3.4-1.4c0.8-0.9,1.3-2.1,1.3-3.4H214c0,0.8-0.6,1.5-1.4,1.6c0,0-0.1,0-0.1,0
	c-0.8,0.1-1.5-0.5-1.6-1.3c0-0.1,0-0.2,0-0.3v-2.1L217.2,175.9z"/>
<path class="st3" d="M193.4,198.1c0,0.9-0.1,1.6-1,1.6s-1-0.7-1-1.6s0.1-1.6,1-1.6S193.4,197.1,193.4,198.1z M194.8,198.1
	c0.1-0.8-0.1-1.7-0.6-2.4c-0.4-0.3-0.9-0.5-1.4-0.5c-0.5,0-1.1,0.2-1.4,0.6v-0.5H190v7.8h1.4v-2.6c0.3,0.4,0.9,0.6,1.4,0.6
	c0.5,0,1-0.2,1.4-0.5C194.7,199.8,194.9,198.9,194.8,198.1z"/>
<path class="st3" d="M199.4,200.9v-0.5c-0.4,0.4-0.9,0.6-1.4,0.6c-0.5,0-1-0.2-1.3-0.5c-0.4-0.4-0.6-1-0.6-1.6v-3.6h1.4v3.4
	c-0.1,0.5,0.3,1,0.8,1.1c0.5,0.1,1-0.3,1.1-0.8c0-0.1,0-0.2,0-0.3v-3.4h1.4v5.7L199.4,200.9z"/>
<path class="st3" d="M205.8,198.1c0,0.9-0.1,1.6-1,1.6s-1-0.7-1-1.6s0.1-1.6,1-1.6S205.8,197.1,205.8,198.1z M207.2,198.1
	c0.1-0.8-0.1-1.7-0.6-2.4c-0.4-0.3-0.9-0.5-1.4-0.5c-0.5,0-1,0.2-1.4,0.6v-2.6h-1.4v7.8h1.4v-0.5c0.4,0.4,0.9,0.6,1.4,0.6
	c0.5,0,1-0.2,1.4-0.5C207.1,199.8,207.3,198.9,207.2,198.1z"/>
<path class="st3" d="M210.2,200.9c-0.9,0.1-1.6-0.6-1.7-1.4c0-0.1,0-0.1,0-0.2v-6.1h1.4v6.1c0,0.3,0.1,0.5,0.5,0.5h0.6v1.2
	L210.2,200.9z"/>
<path class="st3" d="M212.1,194.2v-1.2h1.5v1.2H212.1z M212.1,200.9v-5.7h1.4v5.7H212.1z"/>
<path class="st3" d="M218.2,198.1c0,0.9-0.1,1.6-1,1.6s-1-0.7-1-1.6s0.1-1.6,1-1.6S218.2,197.1,218.2,198.1z M219.6,203v-7.8h-1.4
	v0.5c-0.3-0.4-0.9-0.6-1.4-0.6c-0.5,0-1,0.2-1.4,0.5c-0.8,1.5-0.8,3.3,0,4.8c0.4,0.3,0.9,0.5,1.4,0.5c0.5,0,1-0.2,1.4-0.6v2.6
	L219.6,203z"/>
<path class="st3" d="M224.5,200.9v-0.5c-0.4,0.4-0.9,0.6-1.4,0.6c-0.5,0-1-0.2-1.3-0.5c-0.4-0.4-0.6-1-0.6-1.6v-3.6h1.4v3.4
	c-0.1,0.5,0.3,1,0.8,1.1c0.5,0.1,1-0.3,1.1-0.8c0-0.1,0-0.2,0-0.3v-3.4h1.4v5.7H224.5z"/>
<path class="st3" d="M230.8,197.5h-2.2c0-0.2,0-0.4,0.1-0.6c0.3-0.5,0.9-0.7,1.4-0.5c0.2,0.1,0.4,0.3,0.5,0.5
	C230.7,197.1,230.8,197.3,230.8,197.5z M232.2,198.5v-0.6c0.1-1.3-0.8-2.6-2.2-2.7c-0.1,0-0.2,0-0.3,0c-1.5,0-2.5,1-2.5,2.9
	c0,2.3,1.3,2.9,2.6,2.9c0.8,0,1.6-0.3,2.2-0.9l-0.9-0.8c-0.3,0.4-0.8,0.6-1.3,0.5c-0.7,0-1.2-0.5-1.3-1.1c0-0.1,0-0.1,0-0.2
	L232.2,198.5z"/>
<path class="st3" d="M239.1,198.1c0,0.9-0.1,1.6-1,1.6s-1-0.7-1-1.6s0.1-1.6,1-1.6S239.1,197.1,239.1,198.1z M240.6,200.9v-7.8h-1.4
	v2.6c-0.3-0.4-0.9-0.6-1.4-0.6c-0.5,0-1,0.2-1.4,0.5c-0.8,1.5-0.8,3.3,0,4.8c0.4,0.3,0.9,0.5,1.4,0.5c0.5,0,1.1-0.2,1.4-0.6v0.5
	L240.6,200.9z"/>
<path class="st3" d="M242.1,195.4v-2.3h1.4v2.3H242.1z"/>
<path class="st3" d="M244.9,194.2v-1.2h1.5v1.2H244.9z M244.9,200.9v-5.7h1.4v5.7H244.9z"/>
<path class="st3" d="M251.3,200.9v-3.4c0-0.5-0.4-0.9-0.9-0.9s-0.9,0.4-0.9,0.9l0,0v3.4H248v-5.7h1.4v0.5c0.4-0.4,0.9-0.6,1.4-0.6
	c0.5,0,1,0.2,1.3,0.5c0.4,0.4,0.6,1,0.6,1.6v3.6H251.3z"/>
<path class="st3" d="M255.8,196.5v4.4h-1.4v-4.4h-0.6v-1.1h0.6v-0.7c0-0.9,0.6-1.6,1.5-1.6c0.1,0,0.1,0,0.2,0h0.8v1.2h-0.6
	c-0.3,0-0.5,0.2-0.5,0.5v0.6h1v1.1H255.8z"/>
<path class="st3" d="M261,198.1c0.1,0.5-0.1,1-0.3,1.4c-0.2,0.2-0.4,0.3-0.7,0.2c-0.2,0-0.5-0.1-0.6-0.2c-0.3-0.4-0.4-0.9-0.3-1.4
	c-0.1-0.5,0-1,0.3-1.4c0.2-0.2,0.4-0.3,0.6-0.2c0.2,0,0.5,0.1,0.7,0.2C261,197.1,261.1,197.6,261,198.1z M262.4,198.1
	c0.1-0.8-0.1-1.6-0.6-2.2c-0.5-0.5-1.1-0.7-1.8-0.7c-0.7,0-1.3,0.2-1.8,0.7c-0.9,1.4-0.9,3.1,0,4.4c0.5,0.5,1.1,0.7,1.8,0.7
	c0.7,0,1.3-0.2,1.8-0.7C262.3,199.7,262.5,198.9,262.4,198.1L262.4,198.1z"/>
<path class="st3" d="M266.8,196.8c-0.3-0.4-0.9-0.4-1.3-0.1c-0.2,0.2-0.4,0.5-0.3,0.8v3.4h-1.4v-5.7h1.4v0.6
	c0.4-0.4,0.9-0.6,1.4-0.6c0.5,0,1,0.2,1.3,0.5L266.8,196.8z"/>
<path class="st3" d="M275.3,200.9v-3.4c0.2-0.5-0.1-1.1-0.6-1.3c-0.5-0.2-1.1,0.1-1.3,0.6c-0.1,0.2-0.1,0.4,0,0.6v3.5H272v-3.4
	c0-0.5-0.4-0.9-0.9-0.9s-0.9,0.4-0.9,0.9l0,0v3.4h-1.4v-5.7h1.4v0.5c0.4-0.4,0.9-0.6,1.4-0.6c0.6,0,1.2,0.2,1.5,0.7
	c0.4-0.5,1.1-0.7,1.7-0.7c0.5,0,1,0.2,1.4,0.5c0.4,0.4,0.7,1,0.6,1.6v3.6L275.3,200.9z"/>
<path class="st3" d="M281.2,198.8c0,0.3,0,0.5-0.2,0.7c-0.2,0.2-0.6,0.3-0.9,0.3c-0.6,0-0.8-0.3-0.8-0.7s0.3-0.6,0.8-0.6h1.1V198.8z
	 M282.6,200.9v-3.8c0-1.3-0.8-2-2.4-2c-0.8-0.1-1.5,0.2-2.1,0.8l0.9,0.9c0.3-0.3,0.7-0.5,1.1-0.5c0.8,0,1.1,0.3,1.1,0.9v0.3h-1.3
	c-1.3,0-2,0.8-2,1.7c0,0.5,0.2,0.9,0.5,1.3c0.4,0.4,0.9,0.5,1.5,0.5c0.5,0,1-0.2,1.4-0.6v0.5L282.6,200.9z"/>
<path class="st3" d="M285.9,200.9c-0.8,0.1-1.6-0.6-1.7-1.4c0-0.1,0-0.1,0-0.2v-2.8h-0.6v-1.1h0.6v-1.7h1.4v1.7h1v1.1h-1v2.7
	c0,0.3,0.1,0.5,0.5,0.5h0.5v1.2L285.9,200.9z"/>
<path class="st3" d="M287.9,194.2v-1.2h1.5v1.2H287.9z M287.9,200.9v-5.7h1.4v5.7H287.9z"/>
<path class="st3" d="M294.1,198.1c0.1,0.5-0.1,1-0.3,1.4c-0.2,0.2-0.4,0.3-0.7,0.2c-0.2,0-0.5-0.1-0.7-0.2c-0.3-0.4-0.4-0.9-0.3-1.4
	c-0.1-0.5,0-1,0.3-1.4c0.2-0.2,0.4-0.3,0.7-0.2c0.2,0,0.5,0.1,0.7,0.2C294.1,197.1,294.2,197.6,294.1,198.1z M295.5,198.1
	c0.1-0.8-0.1-1.6-0.6-2.2c-1-0.9-2.5-0.9-3.5,0c-0.9,1.4-0.9,3.1,0,4.4c1,0.9,2.5,0.9,3.5,0C295.4,199.7,295.7,198.9,295.5,198.1z"
	/>
<path class="st3" d="M300.2,200.9v-3.4c0-0.5-0.4-0.9-0.9-0.9s-0.9,0.4-0.9,0.9l0,0v3.4h-1.4v-5.7h1.4v0.5c0.4-0.4,0.9-0.6,1.4-0.6
	c0.5,0,1,0.2,1.3,0.5c0.4,0.4,0.6,1,0.6,1.6v3.6H300.2z"/>
</svg>
