<?xml version="1.0" encoding="utf-8"?>
<!-- Generator: Adobe Illustrator 24.3.0, SVG Export Plug-In . SVG Version: 6.00 Build 0)  -->
<svg version="1.1" id="Layer_1" xmlns="http://www.w3.org/2000/svg" xmlns:xlink="http://www.w3.org/1999/xlink" x="0px" y="0px"
	 viewBox="0 0 39 14.5" style="enable-background:new 0 0 39 14.5;" xml:space="preserve">
<path d="M2.7,8.1c0.1,0.1,0.1,0.2,0.1,0.2c0.1,1,0.2,3.2,1.2,6.2H2.1c-0.1,0-0.2-0.1-0.2-0.2c-0.2-0.7-1.1-3.3-1.2-6.5L0,7.3
	l0.6-0.6c0.1-3.2,1-5.8,1.2-6.5C1.8,0.1,1.9,0,2.1,0H4C3,3,2.9,5.3,2.8,6.2c0,0.1,0,0.2-0.1,0.2L1.8,7.3L2.7,8.1z M12.3,0.4
	c2.3,0,4.2,1,4.2,3.3c0,1.6-0.7,2.7-2.3,3.1c1.9,0.3,3.2,1.6,3.2,3.3c0,3.5-2.7,4-5.3,4H8.2V0.4H12.3z M11.3,6.1c1.7,0,3-0.3,3-2.1
	c0-1.6-1.3-1.9-2.6-1.9h-1.5v4H11.3z M11.6,7.8h-1.3v4.6H12c1.9,0,3.2-0.3,3.2-2.3C15.2,8,13.3,7.8,11.6,7.8z M21.3,3.3
	c0.2,0.3,0.2,0.8,0.2,1.5c0.7-1.1,1.9-1.7,3.4-1.7c1.2,0,2.1,0.4,2.7,1.1c0.6,0.7,0.9,1.6,0.9,3.4v6.6h-2.1V8c0-1.4-0.2-2-0.5-2.4
	C25.5,5.2,25,5,24.3,5c-0.8,0-1.5,0.4-2,1.1c-0.4,0.6-0.6,1.3-0.6,2.9v5.2h-2.1V6.6c0-1.1,0-2.6-0.4-3.2L21.3,3.3L21.3,3.3z
	 M38.5,6.2V8h-5.2v6.1h-2.2V0.4H39v1.8h-5.8v4H38.5z"/>
</svg>
