<?xml version="1.0" encoding="utf-8"?>
<!-- Generator: Adobe Illustrator 24.3.0, SVG Export Plug-In . SVG Version: 6.00 Build 0)  -->
<svg version="1.1" id="Calque_1" xmlns="http://www.w3.org/2000/svg" xmlns:xlink="http://www.w3.org/1999/xlink" x="0px" y="0px"
	 viewBox="0 0 25.4 25" style="enable-background:new 0 0 25.4 25;" xml:space="preserve">
<style type="text/css">
	.st0{fill:#1D327B;}
</style>
<path class="st0" d="M12.2,15.5c-0.1-0.4-0.4-0.8-0.7-1.2c-0.2-0.2-0.4-0.4-0.6-0.6C10.3,13.2,9.5,13,8.7,13c-0.9,0-1.7,0.3-2.4,0.8
	c-0.5,0.5-1,1-1.2,1.7L12.2,15.5L12.2,15.5z"/>
<path class="st0" d="M23.6,0H1.8C0.8,0,0,0.8,0,1.8l0,0v21.5c0,1,0.8,1.8,1.8,1.8h21.8c1,0,1.8-0.8,1.8-1.8c0,0,0,0,0,0V1.8
	C25.4,0.8,24.6,0,23.6,0L23.6,0z M12.3,10.5h3.1v3.3c-0.3-0.7-0.7-1.3-1.2-1.8c-0.5-0.6-1.1-1-1.8-1.4V10.5z M13.2,22.6
	c-0.3,0.3-0.7,0.5-1.1,0.7L12,23.4H5.5c-0.7-0.3-1.3-0.8-1.9-1.3c-1.3-1.3-2-3.1-1.9-4.9c-0.1-1.9,0.6-3.6,1.9-5c1.3-1.3,3-2,4.9-2
	c1,0,2.1,0.2,3,0.6c0.8,0.3,1.4,0.8,2,1.4c0.6,0.6,1,1.2,1.3,2c0.4,1,0.6,2.2,0.6,3.3v0.6H4.9C5,19,5.5,19.7,6.2,20.3
	c0.7,0.6,1.6,0.9,2.5,0.8c1.1,0.1,2.1-0.3,2.9-1l2.8,1.4C14.1,21.9,13.7,22.3,13.2,22.6L13.2,22.6z M23.5,16.1
	c0,2.3-0.2,3.9-0.5,4.7c-0.4,1-1.1,1.8-2,2.4c-0.1,0.1-0.2,0.1-0.3,0.2h-5.9c-0.2-0.1-0.4-0.2-0.5-0.3c-0.1-0.1-0.2-0.1-0.3-0.2
	c0.1-0.1,0.9-1.1,1.3-1.6l-3-1.4c-0.1-0.4-0.1-0.8-0.2-1.2h3.3c0,0.3,0.1,0.5,0.2,0.8c0.2,0.4,0.4,0.8,0.8,1.1
	c0.4,0.3,0.9,0.4,1.4,0.4c0.5,0,1-0.1,1.4-0.4c0.4-0.3,0.7-0.7,0.9-1.2c0.2-0.8,0.2-1.6,0.2-2.4v-6.4h3.3L23.5,16.1z"/>
</svg>
