<?xml version="1.0" encoding="utf-8"?>
<!-- Generator: Adobe Illustrator 24.3.0, SVG Export Plug-In . SVG Version: 6.00 Build 0)  -->
<svg version="1.1"
	 id="svg6" xmlns:cc="http://creativecommons.org/ns#" xmlns:dc="http://purl.org/dc/elements/1.1/" xmlns:inkscape="http://www.inkscape.org/namespaces/inkscape" xmlns:rdf="http://www.w3.org/1999/02/22-rdf-syntax-ns#" xmlns:sodipodi="http://sodipodi.sourceforge.net/DTD/sodipodi-0.dtd" xmlns:svg="http://www.w3.org/2000/svg"
	 xmlns="http://www.w3.org/2000/svg" xmlns:xlink="http://www.w3.org/1999/xlink" x="0px" y="0px" viewBox="0 0 30.7 27"
	 style="enable-background:new 0 0 30.7 27;" xml:space="preserve">
<style type="text/css">
	.st0{fill:#002542;}
</style>
<sodipodi:namedview  bordercolor="#666666" borderopacity="1" fit-margin-bottom="0" fit-margin-left="0" fit-margin-right="0" fit-margin-top="0" gridtolerance="10" guidetolerance="10" id="namedview8" inkscape:current-layer="svg6" inkscape:cx="368.21696" inkscape:cy="526.61287" inkscape:pageopacity="0" inkscape:pageshadow="2" inkscape:window-height="705" inkscape:window-maximized="1" inkscape:window-width="1366" inkscape:window-x="-8" inkscape:window-y="-8" inkscape:zoom="0.47990354" objecttolerance="10" pagecolor="#ffffff" showgrid="false">
	</sodipodi:namedview>
<path id="path4" inkscape:connector-curvature="0" sodipodi:nodetypes="sccccssssccsssccccccccccccccccsccssscccccccccccccccssccsssssccscc" class="st0" d="
	M2.9,19.2H0v7.6h1.7v-2.4h1.1c1.5,0,2.7-1.2,2.7-2.6S4.4,19.2,2.9,19.2z M2.9,22.8H1.7v-2h1.1c0.5,0,0.9,0.4,0.9,1
	C3.8,22.4,3.4,22.8,2.9,22.8z M21.5,19.2h1.7v7.6h-1.7V19.2z M19.7,21.8c0-1.4-1.2-2.6-2.6-2.6h-3v7.6h1.7v-2.4h0.9l1.4,2.4h1.9
	l-1.6-2.8C19.1,23.7,19.7,22.8,19.7,21.8z M17.1,22.9h-1.3v-2.1h1.3c0.5,0,0.9,0.4,0.9,1C17.9,22.5,17.6,22.9,17.1,22.9z M8.1,19.2
	l-2.6,7.6h1.9l0.4-1.3c0.9,0.2,1.8,0.2,2.7,0l0.4,1.3h1.9l-2.6-7.6H8.1z M9.2,24.1c-0.3,0-0.6,0-0.9-0.1l0.9-2.8l0.9,2.8
	C9.8,24.1,9.5,24.1,9.2,24.1L9.2,24.1z M28.6,22.4c-1.2-0.4-1.7-0.6-1.7-1c0-0.4,0.3-0.6,0.8-0.6c0.8,0,1.1,0.4,1.3,0.8l1.5-0.8
	c-0.2-0.5-1-1.7-2.8-1.7c-1.3,0-2.6,0.8-2.6,2.3c0,1.8,1.7,2.1,2.2,2.3c0.5,0.2,1.6,0.3,1.6,1c0,0.5-0.5,0.6-1.1,0.6
	c-0.7,0-1.2-0.4-1.6-1l-1.5,0.8c0.1,0.3,1,1.9,3,1.9c1.6,0,2.8-0.9,2.8-2.3C30.7,23.5,30.1,22.8,28.6,22.4L28.6,22.4z"/>
<path id="path4-0" inkscape:connector-curvature="0" sodipodi:nodetypes="accccsscccccccsscccsca" class="st0" d="M24.8,10.4
	c-0.1,0-0.1,0.1-0.2,0.2c-1.7,3.8-4.9,5.6-8.3,5.6c-6.8,0-8.3-5.5-8.4-5.7l3.4,0.6c0,0,1.3,3.1,4.8,3.1c3.7,0,6.2-3.7,6.2-7.5
	c0-3.4-1.4-5.4-3.5-6.9L9.5,4.3c-0.1,0-0.1,0.2,0,0.2c5.2,1.2,6.1,4.9,5.8,7.1c0,0.3,0.2,0.3,0.4-0.3c0.7-2.1,0.2-5.2-2.6-6.9
	c0,0,5.2-2.6,5.2-2.6c0.6,0.5,2.7,1.9,2.7,5.2s-1.9,6.3-4.8,6.3c-2.9,0-3.9-3-3.9-3L6,8.8C5.9,8.8,5.8,8.9,5.8,9
	c0.5,4.7,4.3,8.6,9.8,8.6c4.5,0,7.6-2.5,9-6C24.9,10.7,24.9,10.4,24.8,10.4L24.8,10.4z"/>
</svg>
