<svg id="Layer_1" data-name="Layer 1" xmlns="http://www.w3.org/2000/svg" width="39" height="38.98" viewBox="0 0 39 38.98">
  <path d="M2.7,20.34a.31.31,0,0,1,.1.2A24.81,24.81,0,0,0,4,26.74H2.1a.22.22,0,0,1-.2-.2A24.47,24.47,0,0,1,.7,20l-.7-.5.6-.6a24.47,24.47,0,0,1,1.2-6.5c0-.1.1-.2.3-.2H4a25.61,25.61,0,0,0-1.2,6.2c0,.1,0,.2-.1.2l-.9.9Zm9.6-7.7c2.3,0,4.2,1,4.2,3.3A2.86,2.86,0,0,1,14.2,19a3.44,3.44,0,0,1,3.2,3.3c0,3.5-2.7,4-5.3,4H8.2V12.64Zm-1,5.7c1.7,0,3-.3,3-2.1,0-1.6-1.3-1.9-2.6-1.9H10.2v4Zm.3,1.7H10.3v4.6H12c1.9,0,3.2-.3,3.2-2.3S13.3,20,11.6,20Zm9.7-4.5a3,3,0,0,1,.2,1.5,3.84,3.84,0,0,1,3.4-1.7,3.39,3.39,0,0,1,2.7,1.1c.6.7.9,1.6.9,3.4v6.6H26.4v-6.2a3.82,3.82,0,0,0-.5-2.4,2.11,2.11,0,0,0-1.6-.6,2.43,2.43,0,0,0-2,1.1,4.79,4.79,0,0,0-.6,2.9v5.2H19.6v-7.6a7.56,7.56,0,0,0-.4-3.2l2.1-.1Zm17.2,2.9v1.8H33.3v6.1H31.1V12.64H39v1.8H33.2v4Z"/>
</svg>
