<svg id="Calque_1" data-name="Calque 1" xmlns="http://www.w3.org/2000/svg" width="55.13" height="55" viewBox="0 0 55.13 55">
  <g id="Calque_2" data-name="Calque 2">
    <g id="image">
      <path d="M48.32,31.6c.4,0,.7-.45.8-1.05v-9.8c0-.6-.3-1.05-.7-1.05a5.07,5.07,0,0,0-1.7.45l-1.55.8a5.32,5.32,0,0,1-2,.45H39.82v-2a1,1,0,0,0-1-1.05h-.3c-.3,0-.25-.3,0-.45a9.46,9.46,0,0,0,4.8-8.25A9.6,9.6,0,0,0,33.67,0a9.48,9.48,0,0,0-8.45,5.1.66.66,0,0,1-1.15,0A9.58,9.58,0,0,0,6,9.55a9.78,9.78,0,0,0,4.6,8.25c.3.2.2.5,0,.5h-.4a1,1,0,0,0-1.05,1.05V22.6a5.9,5.9,0,0,0-.8-.4l-.8-.3a.65.65,0,0,0-1,.65V26.5a.61.61,0,0,0,1,.6l.85-.4a5.72,5.72,0,0,0,.8-.4v8.15a1,1,0,0,0,1,1H20.62a4.45,4.45,0,0,0,.95,1.8c.15.15.3.3.15.8s-5.35,12.55-5.35,12.55A1.16,1.16,0,0,0,17,52.2a1.59,1.59,0,0,0,.45.15,1.2,1.2,0,0,0,1.1-.7s4.5-10.7,4.6-10.85.25-.15.25.05v12.9a1.25,1.25,0,0,0,2.5,0V41c0-.3.15-.4.25-.05l4.6,10.7a1.19,1.19,0,1,0,2.2-.9s-5.15-12.15-5.35-12.6a.61.61,0,0,1,.15-.8,3.43,3.43,0,0,0,.9-1.8h10.2a1,1,0,0,0,1.05-1v-4.6H43a5.32,5.32,0,0,1,2,.45l1.6.8a4.51,4.51,0,0,0,1.7.5Z"/>
    </g>
  </g>
</svg>
