<?xml version="1.0" encoding="utf-8"?>
<!-- Generator: Adobe Illustrator 24.3.0, SVG Export Plug-In . SVG Version: 6.00 Build 0)  -->
<svg version="1.1" id="layer" xmlns="http://www.w3.org/2000/svg" xmlns:xlink="http://www.w3.org/1999/xlink" x="0px" y="0px"
	 viewBox="0 0 128.8 128.8" style="enable-background:new 0 0 128.8 128.8;" xml:space="preserve">
<style type="text/css">
	.st0{fill:#1D1D1B;}
</style>
<path class="st0" d="M46,118.6c-19.5,0-19.5-18.1-19.5-25.8V10.2h39.3c8.5,0,36.4,2.6,36.4,36.4c0,15-6.7,23.7-12.3,28.4
	c-2.9,2.4-6.1,4.3-9.6,5.7v5.6c0,6.3,0,14.9-5.5,20.4c-3.2,3.2-7.6,4.7-13.3,4.7h-0.2C58.9,115.1,54.4,118.6,46,118.6 M33.9,17.7
	v75.1c0,11.9,1.9,18.3,12,18.3c2.3,0.1,4.5-0.4,6.5-1.4C41.7,105,41.7,91.8,41.7,85.6V25.7h22.4c7.6,0,22,4.4,22,21.2
	c0,14.7-10.9,20.9-21.5,22v24.6c0.1,3.4-0.1,6.9-0.7,10.3c2-0.2,3.8-1,5.3-2.4c3.3-3.3,3.3-9.8,3.3-15.1v-0.7V75l2.9-0.7
	c0.8-0.2,19-4.9,19-27.7c0-25.2-18.1-28.9-28.9-28.9L33.9,17.7z M49.4,33.2v52.5c0,9.8,1.3,15.8,7.3,17.6c0.6-3.2,0.8-6.5,0.7-9.8
	v-0.6v-7.6V61.4l3.9,0.2h0.3c4,0,17.3-1.1,17.3-14.6c0-13.3-13-13.7-14.4-13.7L49.4,33.2z"/>
</svg>
