<?xml version="1.0" encoding="utf-8"?>
<!-- Generator: Adobe Illustrator 24.3.0, SVG Export Plug-In . SVG Version: 6.00 Build 0)  -->
<svg version="1.1" id="Calque_1" xmlns="http://www.w3.org/2000/svg" xmlns:xlink="http://www.w3.org/1999/xlink" x="0px" y="0px"
	 viewBox="0 0 34.4 34.5" style="enable-background:new 0 0 34.4 34.5;" xml:space="preserve">
<style type="text/css">
	.st0{fill:#292B66;}
	.st1{fill:#CCCCCC;}
	.st2{fill:#FFFFFF;}
	.st3{fill:#252C61;}
</style>
<g>
	<g id="svg19774">
		<g id="g4495-1-0-47">
			<path id="path4497-2-6-2" class="st0" d="M20.2,18.2H8.6V6.7l3.9-3.8H24v11.6L20.2,18.2z"/>
		</g>
		<path id="path4499-5-92-3" class="st1" d="M24.1,14.4H12.5V2.8h11.6V14.4z"/>
		<path id="path4501-3-3-1" class="st2" d="M22.2,15.8h-11v-11h11V15.8z"/>
		<path id="path4503-4-1-1" class="st3" d="M20.2,18.2H8.7V6.7h11.6v11.5H20.2z"/>
	</g>
	<g id="Calque_2_1_">
		<g id="g4507-8-5-0-3-6">
			<g id="g4513-0-8-2-7">
				<path id="path4515-7-2-0-9" class="st3" d="M4.9,25.3C5.3,25.1,5.8,25,6.2,25c0.4,0,0.7,0,0.8,0.2c0.1,0.2,0,0.4-0.1,0.5
					c-0.2,0.2-0.5,0.3-0.7,0.3c-0.4,0-0.7,0.2-1,0.5c-0.3,0.3-0.5,0.7-0.6,1.1c-0.1,0.3-0.1,0.6,0,0.9c0.1,0.3,0.2,0.6,0.2,0.9
					c0.1,0.4,0,0.8-0.2,1.2c-0.2,0.3-0.4,0.5-0.7,0.7c-0.3,0.2-0.6,0.3-1,0.3c-0.3,0.1-0.6,0.1-0.9,0.1c-0.3,0-0.6-0.1-0.8-0.2
					c-0.3-0.1-0.5-0.3-0.5-0.6C0.4,30.6,1,30,2.2,29.2s1.3-0.8,0.3-0.1c-1,0.7-1.3,1.2-1.1,1.4c0.2,0.2,0.5,0.2,0.8,0.2
					c0.3-0.1,0.5-0.2,0.7-0.3c0.2-0.1,0.3-0.3,0.4-0.5c0.1-0.2,0.1-0.4,0.1-0.6c0-0.4-0.1-0.8-0.2-1.2c-0.1-0.5-0.1-1,0-1.4
					c0.2-0.3,0.4-0.6,0.7-0.8C4.2,25.6,4.5,25.4,4.9,25.3"/>
			</g>
			<g id="g4517-75-74-9-8">
				<path id="path4519-4-1-3-9" class="st3" d="M12.9,26.3c0.2-0.1,0.4-0.1,0.6-0.1c0.2,0,0.3,0.1,0.4,0.2c0.1,0.1,0,0.5-0.2,1.1
					c-0.2,0.5-0.3,1-0.4,1.5c-0.1,0.3,0,0.6,0.1,0.9c0.2,0.2,0.6,0.3,0.9,0.2c0.5-0.1,1-0.3,1.4-0.6c0.5-0.4,0.5-0.4,0.2,0
					c-0.4,0.4-0.7,0.6-1.1,0.9c-0.2,0.2-0.5,0.4-0.9,0.5c-0.3,0.1-0.6,0.1-0.8,0c-0.3,0-0.5-0.1-0.8-0.3c-0.2-0.1-0.4-0.3-0.4-0.6
					c-0.1-0.3-0.1-0.5,0-0.8c0.1-0.3,0.2-0.6,0.2-0.8c0-0.2-0.1-0.2-0.4,0c-0.3,0.3-0.7,0.6-1,0.8c-0.4,0.3-0.8,0.6-1.2,0.8
					c-0.3,0.2-0.7,0.3-1,0.4c-0.2,0.1-0.5,0.1-0.7,0.1c-0.2,0-0.5,0-0.7-0.1c-0.2-0.1-0.3-0.2-0.4-0.5c0-0.3,0-0.6,0.2-0.9
					c0.2-0.6,0.5-1.1,0.8-1.6c0.4-0.7,0.3-1.1-0.3-1.1c-0.5,0-0.9-0.1-1.3-0.3c-0.3-0.1-0.1-0.1,0.5,0.1s1.1,0.2,1.4,0
					c0.2-0.2,0.4-0.3,0.7-0.4c0.2-0.1,0.4-0.1,0.6,0c0.2,0,0.3,0.1,0.4,0.3c0,0.2,0,0.3-0.1,0.5c-0.1,0.2-0.4,0.7-0.8,1.5
					s-0.5,1.2-0.1,1.1c0.9-0.3,1.6-0.8,2.3-1.4c0.6-0.5,1.3-1,2-1.4"/>
			</g>
			<g id="g4521-6-0-2-9">
				<path id="path4523-2-0-6-8" class="st3" d="M23.5,27.9c-0.2-0.2-0.5-0.1-0.9,0.2c-0.3,0.3-0.5,0.6-0.6,1.1
					c-0.1,0.3-0.1,0.5,0.1,0.8c0.1,0.1,0.2,0.2,0.4,0.3c0.2,0,0.4-0.1,0.6-0.2c0.3-0.3,0.5-0.6,0.6-1C23.8,28.7,23.7,28.3,23.5,27.9
					 M22.7,26.1c0.2-0.1,0.5-0.2,0.8-0.3c0.2-0.1,0.5-0.1,0.7,0c0.2,0.1,0.4,0.2,0.5,0.4c0.1,0.2,0.5,0.2,1,0.2s1.2,0,2,0
					s0.6,0-0.5,0c-0.6,0-1.3,0-1.9,0.1c-0.2,0-0.2,0.2-0.2,0.4s0,0.5,0,0.8v0.9c0,0.3,0,0.5-0.1,0.8c-0.1,0.2-0.1,0.3-0.2,0.5
					c-0.1,0.2-0.3,0.4-0.5,0.6c-0.2,0.2-0.5,0.4-0.8,0.5c-0.3,0.2-0.5,0.3-0.8,0.4c-0.2,0.1-0.5,0.2-0.8,0.1
					c-0.3-0.1-0.5-0.2-0.7-0.4c-0.2-0.2-0.3-0.3-0.4-0.5c-0.1-0.3-0.2-0.6-0.1-0.9c0-0.4,0.1-0.7,0.2-1.1c0.1-0.4,0.3-0.7,0.5-1
					c0.2-0.3,0.5-0.6,0.7-0.8C22.3,26.5,22.5,26.2,22.7,26.1"/>
			</g>
			<g id="g4525-9-6-4-1">
				<path id="path4527-6-8-4-4" class="st3" d="M29.4,25.8c0.7-0.3,1.4-0.3,2.1-0.2c0.3,0.1,0.5,0.4,0.5,0.7c0,0.3-0.4,0.5-1.1,0.5
					c-0.6,0-1.3,0.1-1.9,0.4c-0.5,0.2-0.8,0.7-1,1.2c-0.2,0.4,0,0.9,0.4,1.2c0.4,0.3,0.8,0.4,1.3,0.4c0.4,0,0.8-0.1,1.2-0.1
					c0.4-0.1,0.8-0.2,1.1-0.4c0.5-0.2,1-0.5,1.5-0.8c0.6-0.3,0.5-0.3,0,0.1c-0.5,0.4-1,0.8-1.6,1.1c-0.4,0.3-0.8,0.5-1.3,0.7
					c-0.3,0.1-0.7,0.2-1.1,0.3c-0.4,0.1-0.9,0.1-1.3,0c-0.5,0-1-0.2-1.4-0.6c-0.4-0.3-0.6-0.8-0.6-1.3c0-0.4,0.1-0.9,0.3-1.2
					c0.2-0.4,0.5-0.7,0.9-1C28.1,26.3,28.7,26,29.4,25.8"/>
			</g>
			<g id="g4529-3-1-7-1">
				<path id="path4531-9-0-4-7" class="st3" d="M18.4,27.3c-0.4,0.1-0.7,0.3-1,0.6c-0.4,0.2-0.7,0.5-0.9,0.9
					c-0.1,0.2-0.2,0.4-0.1,0.6c0.1,0.2,0.4,0,1-0.4c0.4-0.3,0.8-0.7,1.1-1.1c0.1-0.2,0.2-0.4,0.3-0.6C18.7,27.2,18.6,27.2,18.4,27.3
					 M19.5,21.1c0.1-0.1,0.3-0.2,0.5-0.2c0.2,0,0.4,0.1,0.6,0.2c0.2,0.2,0.4,0.4,0.6,0.6c0.3,0.5,0.5,1,0.5,1.5
					c0.2,0.8-0.1,1.9,0.1,2s0.4,0.4,0.4,0.6c0,0.2-0.2,0.4-0.3,0.4c-0.2,0.1-0.4,0.1-0.6,0.1c-0.2,0-0.4,0.2-0.6,0.6
					c-0.3,0.5-0.6,1-0.9,1.4c-0.4,0.5-0.7,0.8-1,1.1c-0.4,0.4-0.8,0.7-1.2,1c-0.4,0.3-0.8,0.5-1.2,0.6c-0.2,0.1-0.5,0.1-0.7,0
					c-0.2-0.1-0.4-0.2-0.6-0.4c-0.2-0.4-0.3-0.8-0.3-1.3c0-0.7,0.3-1.3,0.7-1.8c0.7-0.7,1.6-1.2,2.6-1.5c0.7-0.1,1.3-0.4,1.8-0.9
					c0.5-0.4,0.8-1.1,0.7-1.7c-0.1-0.5-0.3-1-0.7-1.4c-0.4-0.5-0.6-0.7-0.5-0.9C19.3,21.2,19.4,21.1,19.5,21.1"/>
			</g>
		</g>
	</g>
</g>
</svg>
