<svg id="svg6" xmlns="http://www.w3.org/2000/svg" width="30.7" height="30.71" viewBox="0 0 30.7 30.71">
  <g>
    <path id="path4" d="M3.4,21H.58v7.37H2.23V26H3.3A2.59,2.59,0,0,0,5.92,23.5,2.51,2.51,0,0,0,3.4,21Zm0,3.49H2.23V22.53H3.3a.89.89,0,0,1,.87,1A.78.78,0,0,1,3.4,24.47Zm18-3.49h1.65v7.37H21.44ZM19.7,23.5A2.58,2.58,0,0,0,17.18,21H14.26v7.37h1.65V26h.88l1.36,2.32H20l-1.55-2.71A2.37,2.37,0,0,0,19.7,23.5Zm-2.52,1.07H15.91v-2h1.27a.9.9,0,0,1,.87,1C18,24.18,17.66,24.57,17.18,24.57ZM8.44,21,5.92,28.35H7.76l.39-1.26a5.8,5.8,0,0,0,2.62,0l.39,1.26H13L10.48,21Zm1.07,4.76a2.59,2.59,0,0,1-.87-.1l.87-2.72.87,2.72a2.59,2.59,0,0,1-.87.1Zm18.82-1.65c-1.16-.39-1.65-.59-1.65-1s.29-.59.78-.59a1.24,1.24,0,0,1,1.26.78l1.46-.78a2.86,2.86,0,0,0-2.72-1.65,2.33,2.33,0,0,0-2.52,2.24c0,1.74,1.65,2,2.13,2.23s1.55.29,1.55,1c0,.48-.48.58-1.06.58a1.86,1.86,0,0,1-1.56-1l-1.45.78a3.19,3.19,0,0,0,2.91,1.84c1.55,0,2.72-.87,2.72-2.23.19-1.17-.39-1.85-1.85-2.23Z" style="fill: #002542"/>
    <path id="path4-0" d="M24.59,12.44c-.1,0-.1.1-.2.2a8.64,8.64,0,0,1-8,5.43,8.08,8.08,0,0,1-8.15-5.53l3.3.58a5.19,5.19,0,0,0,4.66,3c3.59,0,6-3.59,6-7.28a7.55,7.55,0,0,0-3.39-6.69l-9,4.36c-.1,0-.1.2,0,.2,5,1.16,5.92,4.75,5.63,6.89,0,.29.19.29.39-.29a5.74,5.74,0,0,0-2.53-6.7L18.28,4.1a6,6,0,0,1,2.62,5c0,3.21-1.84,6.12-4.66,6.12s-3.78-2.91-3.78-2.91L6.35,10.89a.21.21,0,0,0-.2.19,9.29,9.29,0,0,0,9.51,8.35,9,9,0,0,0,8.73-5.82c.29-.88.29-1.17.2-1.17Z" style="fill: #002542"/>
  </g>
</svg>
