<?xml version="1.0" encoding="utf-8"?>
<!-- Generator: Adobe Illustrator 26.0.1, SVG Export Plug-In . SVG Version: 6.00 Build 0)  -->
<svg version="1.1" xmlns="http://www.w3.org/2000/svg" xmlns:xlink="http://www.w3.org/1999/xlink" x="0px" y="0px"
	 viewBox="0 0 744.1 1005.7" style="enable-background:new 0 0 744.1 1005.7;" xml:space="preserve">
<style type="text/css">
	.st0{fill:#FFFFFF;}
</style>
<g id="Calque_2">
</g>
<g id="Calque_1">
	<g>
		<path class="st0" d="M393.8,844.6c-48.3-9.9-94.5,30.1-91.5,79.4c2.1,34,25.1,62.7,57.7,71.6c9,2.5,29,2.5,38,0
			c26.2-7.2,47.5-28.4,55-54.6C465.2,898.1,437.9,853.6,393.8,844.6z"/>
		<path class="st0" d="M358,581.1c15.7,1.4,45.3,0.6,58-1.6c45.2-8,85.1-28,116.3-58.4c4.3-4.2,9.2-9.3,10.8-11.3l3-3.8L523,478
			c-12.8-15.4-23.5-28-23.9-28s-5,3.4-10.2,7.6c-25.5,20.4-49.6,32.7-74.9,38.1c-12.6,2.7-38.9,2.4-52.7-0.5
			c-25.4-5.5-45.1-15.4-61.9-31.4c-22.1-21-34.7-48.3-36.1-78.1l-0.6-12.7h148.1h148l0.6-2.8c1.5-7.1,2.7-23,2.7-36.2
			c-0.1-74.8-38.2-138.9-102-171.4c-19.4-9.8-36.4-15.2-59.3-18.5c-11.4-1.7-34.4-2.4-45.8-1.4c-23.8,1.9-47.9,8.1-68.1,17.4
			c-34.6,15.9-64.1,41.5-85.3,74c-25.2,38.9-38.1,88.1-36.3,138.4c1.4,36.5,8.3,65.7,22.7,95c10.7,22,20,35.4,36.5,52.4
			c23,23.7,47.2,38.9,80.5,50.3C319.1,575,341.3,579.6,358,581.1z M278.4,290.1c15.7-36.4,45.4-58.6,85.1-63.5c1.7-0.2,8.4-0.2,15,0
			c45,1.4,75.1,23.1,82.1,59.2c0.8,4.1,1.4,8.5,1.4,9.8v2.4h-93.5h-93.4L278.4,290.1z"/>
		<path class="st0" d="M266.7,118.5l11.2-5l40.5-56.3C340.8,26.3,359,0.8,359,0.5c0-1.2-22.2,0.5-40,3
			C279.9,9,242.6,20.7,206.6,38.6c-95.8,47.8-167,136.3-192.1,238.8c-8.4,34.6-9.6,47-10.2,104.3L3.8,431h52.1H108v-37.9
			c0-20.8,0.5-43.6,1-50.7c3.9-48.2,19.2-92.2,45.8-130.9c10.6-15.6,17.9-24.2,31.7-38C210.2,149.7,234.9,132.8,266.7,118.5z"/>
		<path class="st0" d="M740.3,408.5"/>
		<path class="st0" d="M385.2,0h-4.3l3.8,5.3c2.1,3,19.8,28.1,39.3,55.9l35.5,50.5l9,3.4c21.4,7.9,49.5,24.2,70,40.6
			c35.9,28.7,63.8,66,80.9,107.8c12.4,30.6,18.3,59.4,19.3,95c2.3,85.5-24.3,142-90.2,191.5c-16.6,12.4-12.5,9.7-136.5,90
			c-58,37.5-106,68.7-106.7,69.4c-0.8,0.8,3.6,9.2,18.3,34.1c10.7,18.1,19.9,32.9,20.3,32.8c1.6-0.4,241.2-138.3,251.5-144.8
			c33.3-20.9,64.9-48.3,83.7-72.5c34.6-44.4,51.3-93.8,56-165.6c7.3-111.8-31-213.4-109.2-290C565,43.9,487.3,8.4,401.5,1.1
			C394.9,0.5,387.6,0,385.2,0z"/>
	</g>
</g>
</svg>
