<svg xmlns="http://www.w3.org/2000/svg" viewBox="0 0 23.35 25"><g id="Calque_2" data-name="Calque 2"><g id="audio"><path d="M0,23.91l.53.5H6.14a2.26,2.26,0,0,0,1.5-.5,1.62,1.62,0,0,0,.59-1.27,2.29,2.29,0,0,0-.67-1.54c-.51-.5-.68-.65-1.21-1.24a2.06,2.06,0,0,1-.59-1.35,1.7,1.7,0,0,1,.53-1.18c.29-.33.56-.59.88-.95v0a2.69,2.69,0,0,0,.45.44,1.13,1.13,0,0,0,1.68,0c.2-.17,1.62-1.35,3.27-2.77a3.28,3.28,0,0,0,.45.24,1.2,1.2,0,0,0,.2.5V23c-2.21.09-3.83.42-3.83.83a.11.11,0,0,0,0,.09l0,0v.35c0,.39,1.91.8,4.95.8s5-.41,5-.8v-.35c0,.06-.06.12-.14.15.08-.09.14-.15.14-.21s-.09-.18-.26-.27a.11.11,0,0,1-.09,0h0a1.6,1.6,0,0,1-.21,0h0c-.06,0-.14,0-.2-.06s0,0-.06,0a1.91,1.91,0,0,1-.21-.06.11.11,0,0,0-.09,0,.52.52,0,0,0-.23-.06h-.06l-.33-.06h-.09c-.08,0-.17,0-.26,0H17c-.09,0-.18,0-.26,0h-.12l-.36,0h0c-.14,0-.26,0-.41,0h-.74V14.94a1.17,1.17,0,0,0,.33-.83,1.23,1.23,0,0,0-.56-1,.33.33,0,0,0-.18-.3,2.24,2.24,0,0,1-.36-.21c1.27-1.06,2.51-2.09,3.37-2.83.06,0,.09,0,.15.06s.14.06.29-.06.42-.41.71-.71L19,8.85a4.38,4.38,0,0,0,3-1.26.11.11,0,0,0,.09,0h0s.06,0,.09-.06,0,0,0,0l.09-.09a.94.94,0,0,0,.3-.59,4.64,4.64,0,0,0,.68-2.36A4.43,4.43,0,0,0,18.92,0a4.77,4.77,0,0,0-2.54.77v0c-.12,0-.41.15-.59.35,0,0,0,.06-.06.09v0s0,.06,0,.09v.12a4.34,4.34,0,0,0-1.21,2.92c-.29.29-.59.62-.88.88a.27.27,0,0,0,0,.33.23.23,0,0,1,.06.12c-.74.82-1.8,2-2.87,3.27a.1.1,0,0,1,0-.06c-.14-.23-.32-.23-.5-.05l-1,1c-.15.12-.18.26-.06.59a.63.63,0,0,1,.12.23c-1.42,1.6-2.6,3-2.84,3.25a1.17,1.17,0,0,0,0,1.77,3.33,3.33,0,0,0,.35.39c-.36.35-.62.62-.92.94a2.31,2.31,0,0,0-.67,1.59A2.69,2.69,0,0,0,5.9,20.4c.56.59.74.73,1.21,1.24a1.64,1.64,0,0,1,.53,1.12.92.92,0,0,1-.38.79,1.71,1.71,0,0,1-1.15.36Z"/></g></g></svg>