<svg xmlns="http://www.w3.org/2000/svg" xmlns:xlink="http://www.w3.org/1999/xlink" viewBox="0 0 320 320"><defs><style>.cls-1{fill:none;}.cls-2{clip-path:url(#clip-path);}.cls-3{fill:#fff;}.cls-4{fill-rule:evenodd;}</style><clipPath id="clip-path"><rect class="cls-1" x="734.46" y="462.11" width="320" height="320"/></clipPath></defs><g id="icons"><rect class="cls-1" width="320" height="320.4"/><g id="theaters"><path d="M240.86,186.54V169.89H230.21v16.65h-72.6V169.89H147v16.65H124.32V30.7H147V47.34h10.65V30.7h72.6V47.34h10.65V30.7h22.65V186.54Zm0-39.3V136.59H230.21v10.65Zm-83.25,0V136.59H147v10.65Zm83.25-33.3V103.29H230.21v10.65Zm-83.25,0V103.29H147v10.65Zm83.25-33.3V70H230.21V80.64Zm-83.25,0V70H147V80.64Z"/><path class="cls-3" d="M260.51,33.7V183.54H243.86V166.89H227.21v16.65h-66.6V166.89H144v16.65H127.32V33.7H144V50.34h16.65V33.7h66.6V50.34h16.65V33.7h16.65m-33.3,49.95h16.65V67H227.21V83.64m-83.25,0h16.65V67H144V83.64m83.25,33.3h16.65V100.29H227.21v16.65m-83.25,0h16.65V100.29H144v16.65m83.25,33.3h16.65V133.59H227.21v16.65m-83.25,0h16.65V133.59H144v16.65M266.51,27.7H237.86V44.34h-4.65V27.7h-78.6V44.34H150V27.7H121.32V189.54H150V172.89h4.65v16.65h78.6V172.89h4.65v16.65h28.65V27.7ZM233.21,73h4.65v4.65h-4.65V73ZM150,73h4.65v4.65H150V73Zm83.25,33.3h4.65v4.65h-4.65v-4.65Zm-83.25,0h4.65v4.65H150v-4.65Zm83.25,33.3h4.65v4.65h-4.65v-4.65Zm-83.25,0h4.65v4.65H150v-4.65Z"/></g><path d="M112.85,294.34,112,293c-1.08-1.58-12.33-15.45-73.5-15.45H29.63V158.31h8.83l4.07,0v-7.77h5.56c45.28,0,64.24,9.79,72.07,17.06,7.83-7.27,26.79-17.06,72.07-17.06h5.56v7.77l4.07,0h8.83V277.59h-8.83c-60.71,0-72.31,13.9-73.43,15.49l-.9,1.27Z"/><path class="cls-3" d="M194.8,153.57v7.82c2.31-.05,4.61-.09,7.07-.09h5.83V274.59h-5.83c-61.1,0-73.92,14-75.88,16.75H114.43c-1.8-2.63-14.37-16.75-76-16.75H32.63V161.31h5.83c2.45,0,4.76,0,7.07.09v-7.82h2.56c49.93,0,66.67,11.94,72.07,18.39,5.4-6.45,22.14-18.39,72.07-18.39h2.56m6-6h-8.56c-22.49,0-40.89,2.39-54.68,7.1a57.49,57.49,0,0,0-17.4,9,57.49,57.49,0,0,0-17.4-9c-13.79-4.71-32.19-7.1-54.68-7.1H39.52v7.74H26.63V280.59H38.45c60.66,0,70.93,14,71,14.14l1.79,2.61h17.82l1.79-2.53c.41-.58,10.76-14.22,71-14.22h11.83V155.31H200.8v-7.74Z"/><path class="cls-3" d="M116.31,269.48c-8.62-6.35-26.66-13.7-64.37-14.19V160c52.81.7,63,15.15,64.37,17.51Z"/><path class="cls-3" d="M188.37,255.29c-37.71.49-55.75,7.84-64.37,14.19v-91.9c1.47-2.59,12-16.85,64.37-17.55Z"/><path class="cls-4" d="M196.89,236.44c-6.92,0-12.62-2.77-15.63-7.61-2.87-4.56-3.05-10.35-.52-16.29a32.54,32.54,0,0,1,12.79-14.34,32.89,32.89,0,0,1,17.18-5.26,25,25,0,0,1,2.81.16V102.55H303V204.88h-.24c-1,7.37-6.37,14.93-14.34,19.94a33.26,33.26,0,0,1-17.29,5.29c-6.92,0-12.63-2.78-15.65-7.62-5.69-9-.19-22.78,12.25-30.61A33,33,0,0,1,285,186.64a24.88,24.88,0,0,1,3,.18V134.4H228.58v72.8c.78,8.54-4.85,17.92-14.38,23.93A33.26,33.26,0,0,1,196.89,236.44Z"/><path class="cls-3" d="M300,105.55v96.33H300c.24,7-4.68,15.11-13.1,20.4a30.15,30.15,0,0,1-15.69,4.83c-5.67,0-10.53-2.09-13.1-6.21-4.82-7.67.25-19.53,11.3-26.48A29.77,29.77,0,0,1,285,189.64a20,20,0,0,1,6,.87V131.4H225.58v75.95c.72,7.17-4.2,15.71-13,21.25a30.15,30.15,0,0,1-15.7,4.84c-5.66,0-10.52-2.08-13.09-6.2-4.83-7.68.24-19.55,11.31-26.49a29.72,29.72,0,0,1,15.58-4.8,20.1,20.1,0,0,1,5.81.81v-91.2H300m6-6H210.51v90.39a36,36,0,0,0-18.59,5.73A35.55,35.55,0,0,0,178,211.36c-2.89,6.77-2.62,13.72.74,19.07,3.57,5.72,10.19,9,18.17,9a36.29,36.29,0,0,0,18.89-5.76c10.44-6.58,16.61-17,15.8-26.61V137.4H285v46.24h0a36,36,0,0,0-18.78,5.71A35.6,35.6,0,0,0,252.25,205c-2.89,6.77-2.62,13.71.74,19.06,3.57,5.72,10.2,9,18.18,9A36.29,36.29,0,0,0,290,227.37c7.8-4.9,13.31-12.12,15.2-19.49H306V99.55Z"/><path d="M134.75,156.56c-12.89,0-29.43-5.48-35-31.58l-.19-.87.32-.83a29.08,29.08,0,0,1,12.27-14.84l.41-.22.46-.08a19.93,19.93,0,0,1,3.46-.31c9.84,0,18.3,7.31,23.83,20.57,5.19,12.43,14,17.62,15.89,17.89H156a1.75,1.75,0,0,0-.3,0l1.52,5.78c-8.3,3-15.66,4.46-22.52,4.46ZM96.33,120.34c-2.4-1.38-4.26-2.27-5.89-3a27.92,27.92,0,0,1-6.59-3.94c-9-7.56-25.11-24.94-43.13-46.47-7.37-8.81-14.28-17.39-19.44-24.16C12.59,31.33,12.52,30,12.47,28.92a3.17,3.17,0,0,1,3.22-3.38c1.11,0,2.49,0,14.22,8.24,6.93,4.87,15.77,11.44,24.89,18.5,22.14,17.14,40.1,32.57,48.05,41.29a31.63,31.63,0,0,1,4.3,6.25c.76,1.32,1.62,2.82,2.87,4.78l1.53,2.42-2.35,1.64A26.88,26.88,0,0,0,100.53,119l-1.4,2.91Z"/><path class="cls-3" d="M15.68,28.54c4.17,0,66.91,47.27,84.95,67.05,2.68,2.95,3.34,5.06,6.85,10.61a30,30,0,0,0-9.65,11.54c-6-3.47-8.85-4-12-6.68-20.89-17.59-72-80.63-70.27-82.46a.24.24,0,0,1,.18-.06m100.76,82.3c8,0,15.73,5.95,21.06,18.73,5.81,13.92,16.06,19.73,18.54,19.73l.2,0c-4.5,1.63-12.73,4.28-21.5,4.28-12.95,0-27.07-5.79-32.11-29.21a26.11,26.11,0,0,1,10.87-13.25,16.84,16.84,0,0,1,2.94-.26M15.68,22.54a6.17,6.17,0,0,0-6.21,6.54c.1,1.87.17,3.34,9.41,15.46C24.08,51.33,31,60,38.41,68.8c8.71,10.4,30.37,35.79,43.5,46.85A30.64,30.64,0,0,0,89.14,120c1.59.76,3.39,1.62,5.69,2.94l1.57.9v0l.37,1.74c2.61,12.13,7.77,21.18,15.34,26.91,6.17,4.67,13.79,7,22.64,7,7.21,0,14.91-1.52,23.54-4.64l-3-11.56a4.82,4.82,0,0,1,.8-.07,3.13,3.13,0,0,1,.78.08c-1.32-.38-9-4.71-13.78-16.13-8.13-19.5-20.16-22.41-26.6-22.41a22.71,22.71,0,0,0-2.63.15l-1.26-2c-1.21-1.91-2.05-3.38-2.8-4.67a34.44,34.44,0,0,0-4.68-6.76C93.12,78.44,65,56.36,56.63,49.9c-9.16-7.09-18-13.69-25-18.58C20,23.13,17.82,22.54,15.68,22.54Z"/><rect class="cls-3" x="230.01" y="135.7" width="37.63" height="54.22"/></g></svg>