<svg xmlns="http://www.w3.org/2000/svg" viewBox="0 0 14.06 25"><title>Fichier 13</title><g id="Calque_2" data-name="Calque 2"><g id="Ebook-2"><path d="M0,6.71A4.18,4.18,0,0,0,2.59,8.35V25A3.76,3.76,0,0,1,0,22V6.71ZM9.88,13.5a2.8,2.8,0,0,1,0,.5L7.76,15.21a3.37,3.37,0,0,1,1.33-2.3c.44-.26.79-.12.79.59ZM11,1.85l1.53,1.53L3.06,7.53l-.27-.09A4,4,0,0,1,0,4.76L11,0l0,1.85ZM13.94,4l.12,16.59L3.59,24.94,3.5,8.44,13.94,4Zm-5,13.79a8.69,8.69,0,0,0,4.3-6.58c0-2.53-1.86-2.92-4-1.68a10.14,10.14,0,0,0-4.68,8c0,3,1.85,4.18,4.59,2.59l.64-.39.15-.91-.65.39c-2.38,1.38-3.88.47-3.88-2.18a8.43,8.43,0,0,1,3.77-6.62c1.64-.94,3.17-.79,3.17,1.27A6.67,6.67,0,0,1,9,16.85c-.62.39-1.38.91-1.38-.29A4,4,0,0,1,7.65,16l3-1.71A7.93,7.93,0,0,0,10.79,13c0-1.15-.61-1.59-1.64-1-1.68,1-2.41,3.38-2.41,5.15,0,1.94,1.29,1.2,2.17.67Z"/></g></g></svg>