<svg xmlns="http://www.w3.org/2000/svg" viewBox="0 0 24.21 25"><g id="Calque_2" data-name="Calque 2"><g id="enews"><path d="M4.41,22.53h6.24v-1H8.09a7.7,7.7,0,0,1-8.09-8A8.06,8.06,0,0,1,8.24,5.47c3.79,0,7,2.18,7,6.06,0,3.23-2.88,6.26-7.5,6.26-1.58,0-3.85,0-3.85-3,0-2.67,1.27-5.7,4.24-5.7a2.75,2.75,0,0,1,2.88,3,9.17,9.17,0,0,1-.27,1.85H5.53a3.88,3.88,0,0,0-.09.82c0,1.83,1.32,1.68,2.44,1.68,3.71,0,5.91-2.44,5.91-4.88,0-3.15-2.67-4.71-5.55-4.71a6.65,6.65,0,0,0-6.71,6.71c0,4.06,2.65,6.73,6.82,6.73h2.3V19.21H7.59A1.88,1.88,0,0,1,7.21,19h.53a9.8,9.8,0,0,0,5-1.29h4.11v-1H14.09a8.2,8.2,0,0,0,1.23-1.47h1.5v-1h-1a6,6,0,0,0,.47-1.47h.5v-1h-.38v-.32a7.25,7.25,0,0,0-.18-1.62h.56V5.09H12.18v0a10.15,10.15,0,0,0-3.94-.8,9.56,9.56,0,0,0-3.83.77V0h19.8V25H4.41V22.53Zm3.65-12c-1.06,0-1.88.71-2.32,2.32H9.41a4.69,4.69,0,0,0,.06-.7c0-1.09-.62-1.62-1.41-1.62Zm8.76,11.06H12.18v1h4.64Zm0-1.27V19.18H12.18v1.11ZM23,22.59V16.76H18.38v5.83H23Zm0-7.3v-1H18.38v1H23Zm0-2.41v-1H18.38v1H23Zm0-2.44v-1H18.38v1H23ZM23,8V7H18.38V8H23Zm0-2.41v-1H18.38v1H23Zm0-3.94H6V3.71H23Z"/></g></g></svg>