<svg xmlns="http://www.w3.org/2000/svg" viewBox="0 0 24.88 25"><title>Fichier 18</title><g id="Calque_2" data-name="Calque 2"><g id="cours"><path d="M14.53,9.71c0,.11.06.2.09.29v.35a2.75,2.75,0,0,1-.18.86c-.06.17-.12.35-.2.53a1.25,1.25,0,0,1-.12-.3,2.46,2.46,0,0,1-.06-.65,1.83,1.83,0,0,1,.15-.7.59.59,0,0,1,.11-.24.34.34,0,0,1,.15-.14s.06,0,.06,0ZM8.12,9.56l-.47.73-.18.36c-.06.11-.09.23-.15.35l-.17.38-.09.18a.63.63,0,0,1-.12.18c-.15.23-.29.44-.44.64a4.22,4.22,0,0,1-.47.56,2.61,2.61,0,0,1-.47.41,1.62,1.62,0,0,1-.5.27c-.09,0-.21,0-.38.06a.22.22,0,0,1-.15,0l-.09-.09a1.46,1.46,0,0,0-.09-.21,1.57,1.57,0,0,1,0-.53,3.33,3.33,0,0,1,.18-.56A4.16,4.16,0,0,1,5,11.5a4.38,4.38,0,0,1,.62-.68,3.29,3.29,0,0,1,.59-.53,4.61,4.61,0,0,1,.7-.41,3.33,3.33,0,0,1,.77-.26,2.42,2.42,0,0,1,.47-.06ZM14.68,6a8.24,8.24,0,0,1-.74,1c-.2.27-.41.53-.62.77.15-.36.33-.71.47-1.06.24-.53.5-1,.8-1.56.12-.18.2-.36.32-.53a2.93,2.93,0,0,1,.35-.44L15.38,4s.09,0,.12-.06h.06l.09,0s0,0,0,.18a.79.79,0,0,1-.09.35,2.65,2.65,0,0,1-.21.41c-.11.18-.2.35-.32.53L14.68,6ZM2.29,2.18H22.62a.82.82,0,0,1,.09.32V16.18a.49.49,0,0,1-.12.32H2.26a.77.77,0,0,1-.08-.32V2.5a.47.47,0,0,1,.11-.32Zm19.21,9.7c.09-.12.12-.23.09-.17a.43.43,0,0,0-.3-.3l-.11,0a.37.37,0,0,0-.3.15c-.35.38-.73.79-1.14,1.18a4.46,4.46,0,0,1-1.3.88,3.83,3.83,0,0,1-.7.23,1.16,1.16,0,0,1-.65,0,.39.39,0,0,1-.24-.26,1.35,1.35,0,0,1-.06-.47,2,2,0,0,1,.09-.59,3.15,3.15,0,0,1,.24-.56A5.47,5.47,0,0,1,18,10.59l.32-.33a.73.73,0,0,1,.33-.23A.29.29,0,0,1,19,10a1.46,1.46,0,0,1,.09.21l0,.17a.38.38,0,0,0,.29.27h.12a.32.32,0,0,0,.29-.12.38.38,0,0,0,.12-.26.92.92,0,0,0,0-.3l-.06-.18a.85.85,0,0,0-.41-.55,1,1,0,0,0-.7-.15,1.75,1.75,0,0,0-.8.38l-.59.56a9,9,0,0,0-.91,1.29l-.09.15-.44.44a3.63,3.63,0,0,1-.47.33,1.06,1.06,0,0,1-.5,0c.09-.2.21-.44.3-.67a4.27,4.27,0,0,0,.23-1,2.63,2.63,0,0,0,0-.83A1.08,1.08,0,0,0,14.88,9a.88.88,0,0,0-.44-.09A.69.69,0,0,0,14,9a.9.9,0,0,0-.32.26,2.29,2.29,0,0,0-.24.33,3.48,3.48,0,0,0-.26.79,2.57,2.57,0,0,0,0,.83,4,4,0,0,0,.2.79,1.78,1.78,0,0,0,.38.56,3.22,3.22,0,0,1-.38.53,2.57,2.57,0,0,1-.62.5,1,1,0,0,1-.58.14.44.44,0,0,1-.39-.17.83.83,0,0,1-.14-.5,4.35,4.35,0,0,1,.06-.65,5.25,5.25,0,0,1,.14-.73,5.33,5.33,0,0,1,.21-.74l.09-.23.09-.21.11-.32.12-.12c.09-.12.21-.24.29-.35s.21-.24.3-.36c.29-.35.59-.67.88-1l.88-1.06a8.89,8.89,0,0,0,.56-.73,5.64,5.64,0,0,0,.5-.77c.12-.17.24-.41.36-.61s.2-.59.23-.71a1.43,1.43,0,0,0,.06-.35.82.82,0,0,0-.06-.38.89.89,0,0,0-.29-.42,1.11,1.11,0,0,0-.53-.2,1.22,1.22,0,0,0-.77.32,3.85,3.85,0,0,0-.62.71,8.12,8.12,0,0,0-.47.76c-.26.47-.5,1-.73,1.47s-.44,1-.65,1.5-.5,1.18-.65,1.68c0,0-.11.12-.08.18s-.15.17-.15.2l-.32.35a3.19,3.19,0,0,0-.27.33,4.47,4.47,0,0,1-.29.35L9.59,12.18c-.24.26-.47.53-.74.79l-.26.27-.3.26a.44.44,0,0,1-.2.15,2.43,2.43,0,0,1-.33.09l-.14-.09a.88.88,0,0,1-.06-.27,1.38,1.38,0,0,1,0-.35c0-.15.06-.27.09-.41s.08-.3.14-.44A1.46,1.46,0,0,1,7.91,12,.75.75,0,0,0,8,11.76c.06-.08.09-.14.15-.23a1.85,1.85,0,0,1,.11-.24c.12-.26.27-.53.39-.76L9,9.76s0,0,.06-.11l.09-.27a.48.48,0,0,0,0-.29.77.77,0,0,0-.27-.27.87.87,0,0,0-.23-.06l-.18,0a3.44,3.44,0,0,0-1.06,0,3.37,3.37,0,0,0-1,.33,3.63,3.63,0,0,0-.73.44l-.62.53a5,5,0,0,0-.68.7,5.85,5.85,0,0,0-.53.86,6.91,6.91,0,0,0-.29.7,2.2,2.2,0,0,0-.15.77,1.66,1.66,0,0,0,.12.67,1,1,0,0,0,.44.56,1.17,1.17,0,0,0,.85.21,3.12,3.12,0,0,0,.8-.24,3,3,0,0,0,.76-.56l.21-.2a.49.49,0,0,1,0,.2.85.85,0,0,0,.56.74.89.89,0,0,0,.47.12,1,1,0,0,0,.41-.09,3.21,3.21,0,0,0,.67-.41,5.48,5.48,0,0,0,.74-.71l.65-.7c.08-.12.17-.21.26-.33l.27-.29a.41.41,0,0,1,.08-.12l.12-.12a7.36,7.36,0,0,0-.12.8,3.75,3.75,0,0,0,0,.82,1.43,1.43,0,0,0,.44.77,1.3,1.3,0,0,0,.77.35,1.88,1.88,0,0,0,.82-.12,3,3,0,0,0,.74-.44,4.38,4.38,0,0,0,.59-.62l.29-.41.32.06a1.5,1.5,0,0,0,1-.15.23.23,0,0,0,.12-.06,2,2,0,0,0,0,.59,1.58,1.58,0,0,0,.32.65,1.22,1.22,0,0,0,.77.41,2.33,2.33,0,0,0,.79,0,4.15,4.15,0,0,0,1.59-.65,10.65,10.65,0,0,0,1.27-1.06l.7-.76c0-.06.09-.09.12-.15ZM24.88,2.5V16.15a2.4,2.4,0,0,1-2.26,2.5h-3.5V25H17.26V18.65H7.62V25H5.76V18.68H2.26A2.38,2.38,0,0,1,0,16.18V2.5A2.38,2.38,0,0,1,2.26,0H22.62A2.4,2.4,0,0,1,24.88,2.5Zm-1.56,0c0-.53-.32-.94-.7-.94H2.26c-.38,0-.7.44-.7.94V16.18c0,.53.32.94.7.94H22.62c.38,0,.7-.44.7-.94Z"/></g></g></svg>