<svg xmlns="http://www.w3.org/2000/svg" viewBox="0 0 19.79 25"><title>Fichier 17</title><g id="Calque_2" data-name="Calque 2"><g id="Journaux"><path d="M19.79,0V25H0V0ZM6.24,21.62H1.59v1H6.24Zm0-2.44H1.59v1H6.24Zm0-1.44v-1H1.59v1Zm0-3.42H1.59v1H6.24Zm0-2.41H1.59v1H6.24Zm0-2.44H1.59v1H6.24ZM6.24,7H1.59V8H6.24Zm0-2.41H1.59v1H6.24Zm6.17,17H7.76v1h4.65Zm0-2.44H7.76v1h4.65Zm0-1.44v-1H7.76v1Zm0-3.42H7.76v1h4.65Zm0-2.41H7.76v1h4.65Zm0-6.82H7.76V9.94h4.65Zm6.18,11.67H13.94v5.83h4.65Zm0-2.44H13.94v1h4.65Zm0-2.41H13.94v1h4.65Zm0-2.44H13.94v1h4.65Zm0-2.44H13.94V8h4.65Zm0-2.41H13.94v1h4.65Zm0-3h-17V3.71h17Z"/></g></g></svg>