<svg xmlns="http://www.w3.org/2000/svg" viewBox="0 0 22.53 25"><title>Fichier 16</title><g id="Calque_2" data-name="Calque 2"><g id="partition"><path d="M16.88,21.76H22.5v.95H16.88c0-.09,0-.18,0-.3A5.49,5.49,0,0,0,16.88,21.76ZM17.79,18a3.27,3.27,0,0,0,.5-.94H22.5V18Zm-.14-2.47a3.61,3.61,0,0,1-2.3,3.32l.59,2.92a5.47,5.47,0,0,1,0,.67A2.47,2.47,0,0,1,13.53,25h-.27a2.42,2.42,0,0,1-2.44-2,1.72,1.72,0,0,1,1.36-1.85h.14a1.43,1.43,0,0,1,1.36,1.38,1.34,1.34,0,0,1-1.33,1.38,1.06,1.06,0,0,1-.14,0c0,.44.73.65,1.17.65h.12a2.06,2.06,0,0,0,2-2.15,4.48,4.48,0,0,0-.12-1.06L14.91,19a5.4,5.4,0,0,1-1.35.18,4.93,4.93,0,0,1-4.71-4.83c-.2-2.79,2.06-4.88,3.8-6.67a12.9,12.9,0,0,1-.41-3.21c0-1.32.58-4,2-4.5h0c.59,0,1.59,2.65,1.59,4.21A7.6,7.6,0,0,1,13.5,9.62L14,12l.56,0h0a3.29,3.29,0,0,1,3.06,3.5Zm-4.83-10a7.33,7.33,0,0,0,.24,1.82,5.89,5.89,0,0,0,2.2-4.26.87.87,0,0,0-.79-.91C13.26,2.38,12.82,4.47,12.82,5.5Zm1,13.24a3.22,3.22,0,0,0,.94-.21l-.94-4.79a2.11,2.11,0,0,0-1.47,2,1.7,1.7,0,0,0,1.15,1.55.16.16,0,0,1,.09.15.17.17,0,0,1-.18.15h0a2.76,2.76,0,0,1-1.85-2.65,3.18,3.18,0,0,1,2-2.76L13.12,10c-1.53,1.35-3.24,3-3.24,5.21a3.6,3.6,0,0,0,3.8,3.56ZM16.68,16a2.34,2.34,0,0,0-2.33-2.26h0l.94,4.7A2.64,2.64,0,0,0,16.68,16ZM4.74,18v3.79h5.38a2.58,2.58,0,0,0-.21.95H0V2.82H11.5c-.06.33-.12.65-.15.94H4.74v3.8H11.5c-.32.29-.62.62-.91.94H4.74v3.79H8.18a4.86,4.86,0,0,0-.21,1H4.74V17H8.65a5.47,5.47,0,0,0,.59.94Zm12.64-5.68h5.15v1H18A4.86,4.86,0,0,0,17.38,12.29Zm-.73-9.47h5.88v.94H16.79c0-.26-.08-.58-.14-.94ZM15.56,8.5A5.5,5.5,0,0,0,16,7.56H22.5V8.5Z"/></g></g></svg>