<svg xmlns="http://www.w3.org/2000/svg" viewBox="0 0 320 320"><defs><style>.cls-1{fill:none;}.cls-2{fill:#fff;}</style></defs><g id="icons"><rect class="cls-1" x="-0.11" y="0.47" width="320" height="320.4"/><path d="M90.42,128.4c22.56,0,40.85-22.21,40.85-49.62s-6-49.62-40.85-49.62S49.57,51.38,49.57,78.79,67.86,128.4,90.42,128.4Z"/><path d="M167.49,202.16c-.76-47.74-7-61.34-54.7-69.95,0,0-6.72,8.56-22.37,8.56s-22.37-8.56-22.37-8.56c-47.19,8.52-53.8,21.92-54.67,68.4-.07,3.8-.1,4-.12,3.55,0,.83,0,2.35,0,5,0,0,11.36,22.9,77.15,22.9s77.15-22.9,77.15-22.9c0-1.71,0-2.9,0-3.71A30.72,30.72,0,0,1,167.49,202.16Z"/><path d="M229.36,128.4c22.56,0,40.85-22.21,40.85-49.62s-6-49.62-40.85-49.62-40.85,22.21-40.85,49.62S206.8,128.4,229.36,128.4Z"/><path d="M306.43,202.16c-.76-47.74-7-61.34-54.7-69.95,0,0-6.72,8.56-22.37,8.56S207,132.21,207,132.21c-47.19,8.52-53.8,21.92-54.67,68.4-.07,3.8-.1,4-.12,3.55,0,.83,0,2.35,0,5,0,0,11.36,22.9,77.15,22.9s77.15-22.9,77.15-22.9c0-1.71,0-2.9,0-3.71A30.72,30.72,0,0,1,306.43,202.16Z"/><path class="cls-2" d="M243.46,256.14c-.22-13.93-.89-23.15-2.25-30.81-1.66-9.39-4.41-16.47-8.65-22.29-4.41-6-10.56-10.76-18.82-14.41-7.3-3.23-16.58-5.82-29.11-8.12a49.44,49.44,0,0,0,9.27-8.75c8.6-10.45,13.34-24.26,13.34-38.91,0-11.92-.95-27-8.34-38.37A35,35,0,0,0,184,81.68c-6.51-3-14.23-4.45-23.59-4.45s-17.08,1.46-23.6,4.45a35,35,0,0,0-14.94,12.81c-7.39,11.33-8.34,26.46-8.34,38.37,0,14.64,4.74,28.46,13.34,38.91a49.44,49.44,0,0,0,9.27,8.75c-12.39,2.27-21.58,4.82-28.85,8-8.21,3.59-14.35,8.21-18.78,14.12-8.74,11.67-10.72,27.88-11.17,51.93l-.11,8.68v1.41l.63,1.26c.62,1.25,4.33,7.81,16.53,14.12,15.55,8,37.75,12.12,66,12.12s50.47-4.08,66-12.12c12.2-6.31,15.91-12.87,16.53-14.12l.63-1.26v-1.41Z"/><ellipse cx="160.37" cy="132.86" rx="40.85" ry="49.62"/><path d="M237.44,256.24c-.76-47.74-7-61.34-54.7-69.95,0,0-6.72,8.56-22.37,8.56S138,186.29,138,186.29c-47.19,8.52-53.8,21.92-54.67,68.4-.07,3.8-.1,4-.12,3.55,0,.83,0,2.35,0,5,0,0,11.36,22.9,77.15,22.9s77.15-22.9,77.15-22.9c0-1.71,0-2.9,0-3.71A30.72,30.72,0,0,1,237.44,256.24Z"/></g></svg>