<svg xmlns="http://www.w3.org/2000/svg" viewBox="0 0 25 21.75"><title>Fichier 27</title><g id="Calque_2" data-name="Calque 2"><g id="journaux-2"><path d="M7.32,4.09h4.83v-1H7.32ZM7.75,5.6l1.79,1h2.61v-1Zm4.4,15.15H7.32v1h4.83Zm0-2.51H11l-1,.54-.82.46h3Zm-2.91-.87,8.06-4.55L9.24,8.27l.92,3.58c-.39,0-.79.05-1.18.05a6.83,6.83,0,0,1-4.91-1.59c-2.13-2.15-1.77-5.5-1.15-9H.44A22.31,22.31,0,0,0,0,5.5a8.7,8.7,0,0,0,2.2,6.37c2,2,4.66,2.36,7.24,2.36H10l-.79,3.14Zm9.34,4.38v-1H13.74v1Zm0-2.51v-1H13.74v1Zm0-2.53v-1H15.46l-1.72,1v.05Zm0-2.79-.44.26h.44Zm0-2.25v-1H16.71l1.38.8.41.23Zm0-3.05v-5H13.74v5ZM25,15.71H20.16v6H25Zm0-2.53H20.16v1H25Zm0-2.51H20.16v1H25Zm0-2.53H20.16v1H25Zm0-2.51H20.16v1H25Zm0-2.56H20.16v1H25Zm0-.95V0H7.32V2.12Z"/></g></g></svg>