<svg xmlns="http://www.w3.org/2000/svg" viewBox="0 0 23.74 25"><title>Fichier 29</title><g id="Calque_2" data-name="Calque 2"><g id="Calendrier-25"><path d="M16.12,20.12a1.3,1.3,0,0,0,1.06-.44,2.67,2.67,0,0,0,.5-1.86c0-1.5-.5-2.23-1.53-2.23a1.44,1.44,0,0,0-1.5,1H12.59V9.56h7.12v2.06h-5v2.67a2.68,2.68,0,0,1,1.88-.61,3.17,3.17,0,0,1,2.32.85A4.5,4.5,0,0,1,20,17.85a6,6,0,0,1-.21,1.83,3.13,3.13,0,0,1-.88,1.47,3.79,3.79,0,0,1-2.76,1,3.78,3.78,0,0,1-2.8-1,4,4,0,0,1-1-2.59h2.27c.15,1,.65,1.53,1.53,1.53ZM11.32,20v2.06H3.74V20l4.61-5.41A2.27,2.27,0,0,0,9,13.09,1.64,1.64,0,0,0,8.62,12a1.47,1.47,0,0,0-1.12-.44c-1,0-1.53.53-1.53,1.59H3.71a3.48,3.48,0,0,1,1.11-2.68,3.87,3.87,0,0,1,2.71-1,3.85,3.85,0,0,1,2.73,1,3.41,3.41,0,0,1,1.06,2.65,3.08,3.08,0,0,1-.35,1.5,5.57,5.57,0,0,1-1,1.35L6.5,20Zm10-20a2.47,2.47,0,0,1,2.45,2.41V22.59A2.43,2.43,0,0,1,21.29,25H2.44A2.42,2.42,0,0,1,0,22.62V2.44A2.44,2.44,0,0,1,2.44,0ZM17.94,4a1.5,1.5,0,1,0,1.5-1.5A1.51,1.51,0,0,0,17.94,4Zm-15,0a1.5,1.5,0,1,0,1.5-1.5A1.51,1.51,0,0,0,2.91,4Zm20,18.62V8H.88V22.59a1.58,1.58,0,0,0,1.56,1.56H21.29a1.57,1.57,0,0,0,1.56-1.56Z"/></g></g></svg>