<svg xmlns="http://www.w3.org/2000/svg" viewBox="0 0 17.63 25"><g id="Calque_2" data-name="Calque 2"><g id="Kiosk"><path d="M.47,7.43a.36.36,0,0,1,.44.35A.71.71,0,0,1,.85,8a2.31,2.31,0,0,0,1.21.44V8.34a.6.6,0,0,1,.53-.56.45.45,0,0,1,.52.45.15.15,0,0,1,0,.11,5.35,5.35,0,0,0,1.18-.58V7.7a.45.45,0,0,1,.44-.44.36.36,0,0,1,.44.35v.06A7.56,7.56,0,0,0,6,8V6.79l.74-.47h4.08l.85.44V7.93a9.06,9.06,0,0,0,.94-.29V7.58a.36.36,0,0,1,.44-.35.49.49,0,0,1,.44.44v.06c.36.14.53.44,1.18.58,0,0,0-.08,0-.11a.45.45,0,0,1,.53-.44.59.59,0,0,1,.53.55v.12A1.87,1.87,0,0,0,16.89,8a.56.56,0,0,1-.06-.23.37.37,0,0,1,.44-.36.61.61,0,0,1,.36.5.38.38,0,0,1-.44.36v1l-8.38-1-8.37,1v-1A.38.38,0,0,1,0,7.9a.54.54,0,0,1,.47-.47Zm16.74,3V23.82L8.84,25,.47,23.82V10.46L8.84,9.37l8.37,1.09Zm-7,11L15.78,21V11.84l-5.53-.56V21.5ZM7.4,11.31l-5.52.56V21l5.52.52V11.31ZM.5,10.08V9.55L8.84,8.49l8.32,1.06v.53L8.84,9ZM6.64,5.35l-.76.41a4.14,4.14,0,0,1,2.32-3A4.29,4.29,0,0,0,7,5.35Zm4,0A4.2,4.2,0,0,0,9.4,2.79a4.24,4.24,0,0,1,2.32,3L11,5.35Zm-.18,0H7.2c.29-1.41.61-2.21,1.61-2.76C9.81,3.14,10.11,3.94,10.43,5.35ZM8.81,2.44c-.17,0-.29-.41-.29-.56a.3.3,0,0,1,.59,0C9.11,2,9,2.44,8.81,2.44ZM8.87,0H8.75V1.47h.12Zm2,6H6.73l-1.44.77-.15-.3,1.5-.79h4.29l1.5.79-.15.3Z"/></g></g></svg>