<svg xmlns="http://www.w3.org/2000/svg" viewBox="0 0 20.92 25"><g id="Calque_2" data-name="Calque 2"><g id="monde"><path d="M.19,22s0,0,0,0S.16,22,.19,22ZM6.4,24.85Zm.23-.32c-.14,0-.17.18-.2.47A12.31,12.31,0,0,1,.19,22.13a0,0,0,0,1,0,0c.06-.06,0-.17.06-.23s.06-.35.15-.5c.08,0,.2.15.29.09a.13.13,0,0,0,0-.24c-.21,0-.38,0-.56-.08s-.06-.24,0-.24.38,0,.38-.17c0,0,0-.06,0-.09s-.32.12-.47.06,0-.18,0-.24V20.4a.42.42,0,0,0,.18-.32c0-.09.12,0,.18-.12h0l.33-.32h0c.06-.09.12-.14.09-.26s0-.06,0-.09S1,19.23,1,19.2s0-.11,0-.14a1.82,1.82,0,0,0,.21-.3c.08,0,0,.12.05.15s.06,0,.06,0v-.09c.06-.11.18-.14.24-.23s-.06-.15-.18-.21l.09-.08h.09q.09,0,.09-.09c.05-.24-.06-.44.05-.64l0,0a.27.27,0,0,0,.21-.2c0-.09-.15,0-.18-.09.15-.06.21-.14.32-.17L1.89,17a.23.23,0,0,1,0-.12c0-.09.12,0,.15-.06s0-.09.05-.12a0,0,0,0,1,0,0c0-.06,0-.06,0-.09h.09c.12-.06,0-.18,0-.27s.15-.17,0-.23-.17,0-.26-.06.11-.06.17-.12h.09c-.12,0-.09-.17-.17-.26H2c-.06,0,0-.09,0-.12s.14-.05.23-.11.06,0,.06,0a1,1,0,0,1,.76,0c.09-.12-.06-.33.12-.36a.85.85,0,0,1,.35-.05c.15.05.29.14.23.32a.51.51,0,0,1,.21.23c.23,0,.5,0,.64.24s.47,0,.68.06c0,0,.11.11.23.11s.09.09.09.15.06.09.12.12l.38.08s0,.15.14.15l.82.18,0,0c.12,0,.09.23.18.29s.26,0,.41,0,.06.14.11.2.3,0,.41.12.24,0,.35,0l.06,0c.09-.12.27-.09.3-.21s.08-.2.11-.32,0-.35.12-.47.21-.26.38-.2c0-.09.09-.12.12-.21s0-.05,0-.05-.09,0-.15.05-.06,0-.06,0,.12-.23.24-.2.06.06.06,0a1.68,1.68,0,0,0,.06-.7c0-.06.08-.06.11,0s.18.2.21.35l0,0c.12.2,0,.44.09.64a.09.09,0,0,1,.08,0V16c-.05,0-.08,0-.08,0v-.09a.09.09,0,0,1,.08,0c0-.27.15-.53,0-.79a.52.52,0,0,0-.35-.27c0-.08.12,0,.15-.05v-.06s.06-.06.06-.09c0-.18-.09-.38.17-.44,0,0,0-.06,0-.09s-.08,0-.11,0a.54.54,0,0,0-.44-.23c-.06,0-.06-.09,0-.12s-.06-.29,0-.44-.12,0-.12-.09v-.08c.06-.06.15,0,.18-.12s-.12-.18-.21-.24l0,0c.06,0,.15,0,.21,0a0,0,0,0,0,.06,0c-.06-.09-.15-.15-.21-.24H9.44q-.09,0-.09-.09a0,0,0,0,0,0,0c.06-.17-.14-.05-.23-.14s.06-.06,0-.09S9,11.91,8.86,12s-.06,0,0-.06A.14.14,0,0,1,9,11.89c0-.06,0-.12-.08-.15s-.18,0-.24-.06a.87.87,0,0,1-.35-.29V11.3c-.06.06-.15.15-.2.15S8,11.33,8,11.27s-.15-.09-.15-.18,0,0,0,0a.07.07,0,0,1,.09,0c.09,0,.2,0,.12,0S8,11,8,11s.11,0,.14-.06c.12-.23-.17-.2-.29-.32s.09-.06.12-.12a.07.07,0,0,0,.12,0c.05,0,.11-.09.2-.06l.09.09v.06a.85.85,0,0,0,.14.09c.12,0,.21-.09.33,0l.08-.15c0,.15.18.09.27.15s0,.35.2.35.32,0,.41-.09c.06.12.12.2.24.2a.43.43,0,0,1,.41.18c.11-.12,0-.26-.06-.35a.09.09,0,0,1,0-.12.53.53,0,0,0,.14-.41s-.05,0-.05,0-.06-.17,0-.23-.06-.21,0-.32,0-.09.08-.09a0,0,0,0,1,0,0s0,.06,0,.09,0,.08,0,.08.15,0,.24,0,0-.08,0-.08.08.08.08.11-.14.3,0,.41.18-.11.27-.08,0,0,.38.38c.06,0,.15-.06.17,0a.88.88,0,0,0,.44.14s0-.06,0-.06.12-.08.21-.05-.15,0-.12-.12h-.09s-.06,0-.09-.06h-.08a.07.07,0,0,1,0-.12c0-.06.06-.11.14-.11v-.06a.42.42,0,0,1,.41-.06c.27.15.5,0,.71-.12a.09.09,0,0,1,.14,0s.12.06.12,0-.18-.12-.18-.2a.53.53,0,0,1,.09-.41s0-.09,0-.12.18-.35.38-.26.21,0,.27.11c.05-.08.23-.11.35-.14s.06,0,.11,0,.06-.09.12-.12.15,0,.12,0a.49.49,0,0,0,0,.2l.41,0c.09-.12.2,0,.29-.09s.06,0,.09,0,.09,0,.09,0-.09-.29.06-.38.08,0,.11,0,.06.06.06.06c.15.08.21-.09.32-.12V8.46s-.11,0-.14,0c-.06-.09-.15,0-.21-.06l-.11-.12V8.23a.06.06,0,0,1,0-.06c.09-.06.12-.21.21-.27.26-.23.23-.55.38-.84.12,0,.26-.12.38,0-.06.05-.12.05-.18.11H16.5c-.06,0-.12.12,0,.18a.89.89,0,0,1,.26.09c-.15,0-.2.17-.26.29s.09.14.06.23h.11c.21,0,.38,0,.44-.17a.55.55,0,0,0,0-.44c0-.06-.14-.09-.11-.15s0-.09,0-.12a0,0,0,0,1,0,0s0,0,0,0V7a2,2,0,0,1,.76-.3s0-.08,0-.08.23-.12.29,0,0,.2.06.29h.06l.11-.26s.06,0,.06,0,0-.15-.09-.21h-.08c-.06,0,0-.09-.09-.12s.14,0,.2-.11h.06a.29.29,0,0,0,.38,0s.06,0,.06,0a.42.42,0,0,0,.09.32H19l.11-.12c0,.12.09.21.24.18a.92.92,0,0,0,.08-.27s0,0,0,0a12.59,12.59,0,0,1-2.11,14.93s0-.08,0-.11.17,0,.17-.09,0-.06-.06-.09-.05,0-.08,0,0-.21.11-.26a.09.09,0,0,0-.08,0v-.12c.08,0,.17,0,.17-.09s0-.26.12-.29.17-.12.23-.06.15.06.21.12a.58.58,0,0,0,.12-.47l0,0,0,0c.06-.06.15,0,.21,0v.12A9.8,9.8,0,0,0,19,19a2,2,0,0,0,0-.35,1.94,1.94,0,0,1-.59-.06s-.06-.09-.09-.12-.14,0-.2-.06,0-.14-.09-.2-.29-.06-.44,0-.15.23-.26.32-.12,0-.15.06l0,0c-.09.06-.2,0-.23.14l-.09,0s-.09,0-.12.06-.17,0-.26,0-.15.12-.24.15v.06c0,.06-.05.09-.08.09s-.12,0-.18,0a1.23,1.23,0,0,1-.56.18c0,.06,0,.09,0,.09s-.09,0-.12,0,0-.09,0-.15-.06-.06-.09,0-.09.09-.15.06-.11-.09-.11-.18-.09-.05-.15-.05a.11.11,0,0,1,0-.09c-.09,0-.2.06-.23,0s0,0,.06-.06h.08v-.09a.27.27,0,0,1-.2-.09c-.09.09-.21.12-.29.21s-.06,0-.06,0v-.2c-.06,0-.06,0-.09,0a.15.15,0,0,0-.15,0s-.06,0-.06,0v-.09a.18.18,0,0,0-.2-.06,2.44,2.44,0,0,1-.41.18c0,.08-.09.08-.12.08s-.23-.06-.26.06a1.41,1.41,0,0,0-.09.32.11.11,0,0,1-.09,0,.18.18,0,0,1,0,.12c0,.09.09.23,0,.29a.13.13,0,0,0,.05.12s0,.06,0,.06-.17.09-.2.17,0,.09,0,.09h.09l.08.09c-.11.06-.11.2-.23.26a.48.48,0,0,1-.26.09c-.21,0-.41.12-.62.09,0,0,0,.06,0,.06a1.42,1.42,0,0,0-.35.17c-.12-.08-.26,0-.41-.06a.55.55,0,0,0-.29.09,3.48,3.48,0,0,1-.26.3c-.09,0-.06.23-.18.29s0-.06-.06-.06-.23.2-.38.29a.68.68,0,0,0-.23.18v.06c-.21.08-.27.29-.41.44H8.74a2.87,2.87,0,0,0-.09.87.27.27,0,0,0,.12.15.18.18,0,0,0,.12,0s0,0,0,0c0,.29-.44.32-.67.35,0,0,0,.06,0,.06-.23,0-.29.23-.32.44a.11.11,0,0,1-.09,0,.4.4,0,0,1-.17.35c-.09,0-.15,0-.21-.06a1.89,1.89,0,0,0-.82,0ZM9.44,1.87a.13.13,0,0,1,0-.08c0-.06.12-.06.15-.12s0-.09,0-.09-.12,0-.15,0,.09-.15.09-.26.06,0,.09,0,.06,0,.06,0,.08.2.11.29-.17.44-.35.26Zm-4,3.34c.06,0,.12.09.23-.06S5.61,5,5.52,5s0-.06,0-.06.12,0,.2.06,0-.12.06-.12c.18,0,.38.09.53-.06,0,0,0-.06,0-.06s.06,0,.09,0,0,.06.11.09.06,0,.06,0,0-.12,0-.14a0,0,0,0,0,0,0c-.06,0-.09,0-.12,0s0,0,0,0-.09,0-.12,0-.18,0-.26-.06a.33.33,0,0,0-.15,0s-.09,0-.12-.06,0-.09,0-.09.21-.06.32,0c.12-.09.18-.26.35-.21a.65.65,0,0,0,.06-.35s0,0-.06,0-.26,0-.35-.08V3.72s-.06,0-.06,0V3.63c0-.06.12,0,.12-.06s.06.18.15.21l0,0c0-.06,0-.12,0-.18l0,0a.15.15,0,0,1,.11,0s0,0,.06,0l0,0c.12-.09,0-.2-.09-.29s.09,0,.09-.09S6.37,3,6.54,2.9a.1.1,0,0,1,0,.06h.06s0-.06,0-.06h.06c.06.06.06.14.12.2h0A.09.09,0,0,1,7,3c.09,0,.12.08.12.17s0,.06.06,0,.12-.12.17,0,0,.06,0,.12,0,0,.08,0,.06-.15.15-.21,0,0,.06,0,.2-.09.2-.17-.17,0-.2-.12c-.09-.24.29-.06.41-.18s0-.06,0-.06H7.89c-.06,0-.12-.14,0-.14s.53-.24.5.09a0,0,0,0,0,.06,0s.06,0,.08,0,0-.09,0-.15,0-.06.06,0,.15.12.12.21a.25.25,0,0,1-.12,0l0,0,.12,0,0,0c.12.08.29,0,.41.05a.32.32,0,0,1,.26.21s-.06.06,0,.06a.23.23,0,0,1,.09.23c0,.12-.15.12-.23.24s0,.05,0,.05h.05c.06.09.3.18.15.3s-.15,0-.15.06,0,.14-.08.2a1,1,0,0,1-.41.12.27.27,0,0,0-.18.11l0,0c-.09.17.06.29,0,.43A1.69,1.69,0,0,0,8.5,5a.08.08,0,0,1-.08.08,1,1,0,0,1-.21.41A1.11,1.11,0,0,0,8,5.94c-.06-.06-.15,0-.24-.06L7.42,5.8s-.06-.06-.09-.06A.28.28,0,0,0,7,5.83H7c-.06,0-.09-.09-.11-.09s-.09.11-.15.14,0-.11-.09-.08-.23-.09-.32,0,0,.23-.06.23h-.2s0,0,0-.06a.2.2,0,0,1-.18,0s-.06-.06-.06-.06-.23,0-.32.06-.06,0-.06,0v0c.06-.12.18-.06.29-.09s.06-.09,0-.09,0-.18,0-.29-.21.06-.33,0-.06,0,0-.06.09-.12.15-.12ZM10.7,0h.06a13.14,13.14,0,0,1,2.55.76l-.09.09h-.09c-.06,0,0,.12-.12.12S13,1,13,1a1.32,1.32,0,0,0-.46.59V1.7c-.06,0-.09,0-.09,0s.06.26-.06.29a3.62,3.62,0,0,0-.76.12c.06.14.2,0,.32.06s.06,0,.09,0l.09-.08h.08a.38.38,0,0,1,.21.14v.09c.09.06.23.12.23.21s-.08.11-.2.08v.09c.06.09.12,0,.2,0,0,.26-.11.5,0,.73,0,0-.05,0-.05,0s.08.18.14.27,0,.26,0,.41.35,0,.44.17a.23.23,0,0,1,.06.15l0,0s.06.06,0,.08c-.09.21.06.44,0,.65.09.09.06.2.12.32s-.12.06-.21,0l0,0c-.06,0-.06.09,0,.12s.15,0,.18.06.06.29.09.44c-.15.08-.44.2-.3.41.06-.09.18-.12.24-.21s.06.06.09,0,.17-.09.23-.06a.16.16,0,0,1,.15.09c.08.12.26.15.35.29s0,.38,0,.56c-.06,0-.09,0-.09,0-.06.29-.32.44-.53.58V8h-.09a.15.15,0,0,0,0,.09c-.09,0-.12-.15-.21-.12s0,.21-.06.27-.29,0-.47,0c0,0-.06,0,0,0s.21.09.3.21.08,0,.14,0a.11.11,0,0,0,0-.09c.06,0,0,.09.12.09s.2.06.32.06c0,.17-.06.44-.26.38s-.15-.09-.21-.06A.9.9,0,0,1,12.6,9a0,0,0,0,1-.06,0s0,.06,0,.08c-.15,0-.33.12-.44,0s0-.14-.09-.14-.38.06-.53-.12a.07.07,0,0,0-.12,0s-.05-.06-.08,0l0,0s0,.06.06.09V9c-.12,0-.12.17-.21.11A.55.55,0,0,1,10.91,9V8.93c.05-.06.17,0,.23-.09l-.21-.15c-.08,0-.08.12-.14.15a.07.07,0,0,1-.12,0c-.09.18-.2.09-.35.09,0-.06,0-.09,0-.09s-.15,0-.23,0V8.75c-.09-.11-.24-.14-.35-.23a.27.27,0,0,1-.33,0c-.08.09-.06.2-.08.32S9.15,9,9.06,9a1,1,0,0,0-.29-.41c-.29,0-.7-.12-.82.23H7.89c-.06-.09-.15-.14-.2-.23-.06.06-.15,0-.24,0s0-.21.12-.24.32.06.47-.06S8.24,8,8.42,8c0,0,.06.06.08,0s.18,0,.21-.12,0-.11.06-.14.23.12.32,0-.06-.06,0-.09.44-.06.62.06.26-.06.41,0,.05-.06.11-.09h.09l.09-.09c-.15-.11-.29,0-.44.06s-.26-.17-.41-.23a.24.24,0,0,0-.12-.27c-.06,0-.14,0-.2,0s-.06,0,0-.06,0-.18-.06-.24H9.06c-.06.12-.17.12-.29.12s0-.15,0-.18-.06,0-.09,0l0,0a.11.11,0,0,0-.09,0c0-.14,0-.26.09-.35l.12,0c.26.06.47-.09.73-.09a.24.24,0,0,0,.15-.11V6.09a.38.38,0,0,0,.14-.41s-.06-.06-.09-.06-.23.15-.35.09,0-.21.09-.24a1.56,1.56,0,0,0,.41-.11c.18-.06.35,0,.53-.09a.11.11,0,0,0,0-.09c.06,0,.14-.06.2,0s.06.06.12.12a.06.06,0,0,0,.09,0c0-.06,0-.06,0-.09s.06-.06.09,0l0,0s.06,0,0-.06,0-.14-.11-.11V4.89c.08,0,.11-.09.14-.12s0-.23,0-.35,0-.06.06,0,.24,0,.24-.06-.12,0-.18-.06v0c-.09-.06-.18-.09-.21-.18A.39.39,0,0,1,11,3.69a.32.32,0,0,1,.18-.21,1.57,1.57,0,0,0,.29-.14c-.09-.06-.14-.24-.26-.15s-.27.29-.44.21,0-.12-.09-.12-.15.12-.2.12-.24-.15-.41-.06a.89.89,0,0,1,0-.62c0-.11.14,0,.17,0a4.53,4.53,0,0,0,.47-.5c.06,0,0-.14-.06-.2s.06-.38-.14-.44c-.12.15-.15.32-.3.41a4,4,0,0,0-.29.29.07.07,0,0,1-.12,0c0-.06.06-.08.06-.14a.06.06,0,0,1,.06-.06A.16.16,0,0,0,10,1.93c.06,0,.09,0,.09,0a1.16,1.16,0,0,1,.11-.38c0-.06.12-.11.15-.17V1.26c0-.18.2-.09.29-.21a.17.17,0,0,0,0-.23,2.21,2.21,0,0,0-.32.29c-.2,0-.44,0-.53-.2a0,0,0,0,1,0-.06A.21.21,0,0,0,10,.64s.06,0,.06,0V.76l.08.09h.09s.06-.06.06-.09-.12,0-.15-.06-.08-.2,0-.26.21.09.27,0,0-.12.06-.15h.11s0,.09,0,.06.09-.14,0-.2L10.7,0Z"/></g></g></svg>