<svg xmlns="http://www.w3.org/2000/svg" xmlns:xlink="http://www.w3.org/1999/xlink" viewBox="0 0 320 320"><defs><style>.cls-1{fill:none;}.cls-2{fill:#fff;}.cls-3{clip-path:url(#clip-path);}</style><clipPath id="clip-path"><rect class="cls-1" x="370.46" y="462.11" width="320" height="320"/></clipPath></defs><title>Nom géographique</title><g id="icons"><path d="M233,125.06a107.16,107.16,0,1,1-75.78-31.39A106.46,106.46,0,0,1,233,125.06Zm-6,145.59a98.06,98.06,0,0,0,26.95-50c-3,4.37-5.81,6-7.57-3.79-1.81-16-16.46-5.76-25.68-11.43-9.7,6.54-31.49-12.71-27.79,9,5.72,9.79,30.86-13.1,18.32,7.61-8,14.46-29.23,46.49-26.47,63.09.35,24.19-24.71,5-33.35-3-5.81-16.07-2-44.16-17.17-52-16.48-.72-30.63-2.21-37-20.64-3.84-13.19,4.09-32.81,18.22-35.84,20.68-13,28.07,15.22,47.47,15.74,6-6.3,22.44-8.31,23.8-15.37-12.73-2.25,16.15-10.7-1.22-15.51-9.58,1.13-15.75,9.93-10.66,17.4-18.56,4.33-19.16-26.87-37-17-.45,15.56-29.14,5-9.92,1.89,6.6-2.88-10.77-11.24-1.38-9.72,4.61-.25,20.13-5.69,15.93-9.34,8.64-5.36,15.9,12.85,24.36-.41,6.11-10.2-2.56-12.08-10.21-6.91-4.32-4.83,7.62-15.27,18.14-19.78,3.51-1.5,6.86-2.32,9.42-2.09,5.3,6.12,15.11,7.19,15.62-.74a99,99,0,0,0-101.51,9.87c4.55,2.08,7.13,4.68,2.75,8-3.41,10.15-17.23,23.77-29.36,21.85a97.64,97.64,0,0,0-12.22,35.38c10.16,3.36,12.51,10,10.32,12.24-5.18,4.52-8.36,10.92-10,17.92a98.74,98.74,0,0,0,167.23,53.68Z"/><path d="M135.69,149.46a7.25,7.25,0,0,1-6.73-4.53c-5.89-14.46-14.55-24-22.93-33.19-9.84-10.83-19.13-21-22-37.44a55.07,55.07,0,0,1,10.4-42.82,51.16,51.16,0,0,1,36.17-20.31c1.7-.16,3.42-.24,5.11-.24A52.64,52.64,0,0,1,188.27,63.5c0,23-11.14,35.26-22.93,48.24-8.38,9.22-17,18.74-22.93,33.21a7.22,7.22,0,0,1-6.71,4.52Zm0-108a22,22,0,1,0,22,22A22,22,0,0,0,135.69,41.48Z"/><path class="cls-2" d="M135.69,14.68A48.82,48.82,0,0,1,184.51,63.5c0,37.24-31,44.23-45.59,80a3.49,3.49,0,0,1-6.46,0c-13.15-32.27-39.66-41.12-44.73-69.87-5-28.3,14.6-56,43.21-58.73q2.4-.23,4.75-.23m0,74.6A25.78,25.78,0,1,0,109.91,63.5a25.78,25.78,0,0,0,25.78,25.78m0-82.13c-1.81,0-3.65.09-5.46.26A54.88,54.88,0,0,0,91.42,29.19,58.85,58.85,0,0,0,80.3,74.94c3.08,17.47,13.18,28.58,22.95,39.32,8.15,9,16.59,18.24,22.23,32.08a11,11,0,0,0,20.41,0c5.64-13.85,14.07-23.12,22.23-32.1C179.88,101.33,192,88,192,63.5A56.41,56.41,0,0,0,135.69,7.15Zm0,74.6A18.25,18.25,0,1,1,153.94,63.5a18.27,18.27,0,0,1-18.25,18.25Z"/><rect class="cls-1" width="320" height="320.4"/><path d="M130.93,14.9c-28.61,2.7-48.21,30.43-43.21,58.73,5.07,28.75,31.58,37.6,44.73,69.87a3.49,3.49,0,0,0,6.46,0c14.58-35.79,45.59-42.78,45.59-80A48.83,48.83,0,0,0,130.93,14.9Zm4.75,74.37A25.78,25.78,0,1,1,161.47,63.5,25.78,25.78,0,0,1,135.69,89.28Z"/><g class="cls-3"><path d="M-11.43,321.7c5.52,0,9.41-3.25,9.41-9.25,0-4.62-1.38-6.9-4-9.57l6.25-6.41c4.38,4.3,6.65,8.44,6.65,16.06,0,10-4.54,19.55-21.66,19.55-13.79,0-21.58-7.46-21.58-18.42,0-11.76,8.44-18.42,20.45-18.42h4.46ZM-23.2,306.61a7.34,7.34,0,0,0-4.38,7.06,7.34,7.34,0,0,0,4.38,7.06,10.36,10.36,0,0,0,4.54,1V305.64A10.36,10.36,0,0,0-23.2,306.61Z"/><path d="M6.9,271.65c0,6.65-.73,12.58-6.08,18l-6.9-6.9c3.49-3.41,4-8,4-11.28,0-3.65-1.22-7.46-4.38-7.46-2.11,0-3.57,1.05-3.89,4.46L-11,275.3c-.73,7.46-4.06,12.17-11.84,12.17-8.84,0-13.47-7.71-13.47-16.31,0-6.65,1.22-12.09,4.95-16.14l6.57,6.49c-2.19,2.43-2.84,6.08-2.84,9.82,0,4.22,1.95,6,4.06,6s3.33-1.22,3.65-4.38l.65-6.65c.81-8.36,5.19-12.58,12.41-12.58C2.44,253.72,6.9,261.67,6.9,271.65Z"/></g></g></svg>