<svg xmlns="http://www.w3.org/2000/svg" viewBox="0 0 25.32 25"><g id="Calque_2" data-name="Calque 2"><g id="audiobook"><path d="M2.32,18.62V10A4.67,4.67,0,0,0,0,14.29a4.68,4.68,0,0,0,2.32,4.33Zm2.12,0V9.94H3.06v8.68ZM9.09,25V11.41A3.45,3.45,0,0,1,7,10.09V22.53A3,3,0,0,0,9.09,25ZM9.5,10.74l7.74-3.39L16,6.09l0-1.5L7,8.47a3.33,3.33,0,0,0,2.26,2.18ZM9.91,25l8.56-3.53L18.38,7.91,9.85,11.5,9.91,25ZM20.24,6.53a16.61,16.61,0,0,1,.61,3.18h1.06a13.92,13.92,0,0,0-.76-3.8l.2-.15C19.53,2.29,16.35,0,12.74,0S5.94,2.29,4.12,5.76l.23.12a14.16,14.16,0,0,0-.76,3.8H4.65a11.73,11.73,0,0,1,.59-3.15l.11.09c1.56-3.15,4.27-5.27,7.39-5.27s5.82,2.12,7.38,5.27l.12-.09Zm2,3.41H20.88v8.65h1.38ZM23,18.59a4.68,4.68,0,0,0,2.32-4.33A4.67,4.67,0,0,0,23,9.94v8.65Z"/></g></g></svg>