<svg xmlns="http://www.w3.org/2000/svg" viewBox="0 0 320 320"><defs><style>.cls-1{fill:none;}</style></defs><g id="icons"><rect class="cls-1" x="0.31" y="-0.17" width="320" height="320.4"/><path d="M160.31,156.79c32.93,0,59.62-32.42,59.62-72.42S211.17,12,160.31,12s-59.62,32.42-59.62,72.42S127.38,156.79,160.31,156.79Z"/><path d="M272.79,264.44c-1.1-69.67-10.2-89.53-79.84-102.1,0,0-9.8,12.49-32.65,12.49s-32.65-12.49-32.65-12.49c-68.87,12.43-78.53,32-79.8,99.83-.1,5.54-.15,5.83-.17,5.19,0,1.2,0,3.43,0,7.32,0,0,16.58,33.42,112.61,33.42s112.61-33.42,112.61-33.42c0-2.5,0-4.23,0-5.41A44.85,44.85,0,0,1,272.79,264.44Z"/></g></svg>