<svg xmlns="http://www.w3.org/2000/svg" viewBox="0 0 14.06 25"><title>Fichier 44</title><g id="Calque_2" data-name="Calque 2"><g id="Ebook"><path d="M7.53,15.94a3.32,3.32,0,0,1,1.68-3.09,4.93,4.93,0,0,1,.85-.26l-.27,1.15c-.29,1.2-.76,2.52-1.64,2.91-.33.14-.62,0-.62-.71ZM0,6.71A4.18,4.18,0,0,0,2.59,8.35V25A3.76,3.76,0,0,1,0,22V6.71ZM11,1.85l1.53,1.53L3.06,7.53l-.27-.09A4,4,0,0,1,0,4.76L11,0l0,1.85ZM13.94,4l.12,16.59L3.59,24.94,3.5,8.44,13.94,4ZM9.79,16.71a5.31,5.31,0,0,0,3.5-5.21c0-2.18-1.53-2.68-3.82-1.71a8.23,8.23,0,0,0-5.21,7.56c0,3.15,2.12,2.94,4,2.21a5.21,5.21,0,0,0,1.83-1.09c.12-.18.09-.44,0-.5s-.59.29-1.71.77c-1.53.64-3.2.79-3.2-1.71a6.89,6.89,0,0,1,4.29-6.38c1.85-.77,2.94-.36,2.94,1.32a4,4,0,0,1-2.12,3.85,10.1,10.1,0,0,1,.18-1.17c.47-2.56.56-2.91.56-3.06s-.09-.15-.35,0-.44.2-.5.44A2.23,2.23,0,0,0,9,12.24a4.37,4.37,0,0,0-2.41,4.14c0,1.15.62,1.41,1.29,1.12a3.66,3.66,0,0,0,1.8-2.41,9.67,9.67,0,0,0-.36,1.53c0,.17.09.23.44.09Z"/></g></g></svg>