<svg xmlns="http://www.w3.org/2000/svg" xmlns:xlink="http://www.w3.org/1999/xlink" viewBox="0 0 320 320"><defs><style>.cls-1{fill:none;}.cls-2{clip-path:url(#clip-path);}.cls-3{fill:#fff;}</style><clipPath id="clip-path"><rect class="cls-1" x="-414" y="-14" width="320" height="320"/></clipPath></defs><title>Marques_01</title><g id="icons"><g class="cls-2"><path d="M33.14,131.24c-3.23,3.34-8.36,5.24-14,5.24-5.91,0-10.37-1.56-14-5.8V157.1H-9.44V77.74h14V83.2c4-4.46,8.25-6.13,14.49-6.13,5.68,0,10.81,1.89,14,5.24,5.57,5.69,6,14.71,6,24.41S38.72,125.56,33.14,131.24ZM14.86,90.11c-8.69,0-9.81,7.25-9.81,16.61s1.11,16.72,9.81,16.72,9.81-7.36,9.81-16.72S23.56,90.11,14.86,90.11Z"/><path d="M64.36,111.29c0,7.58,4.46,12.93,12.71,12.93,6.35,0,9.47-1.89,13.15-5.46L99,127.34c-5.91,6-11.59,9.14-22.07,9.14-13.71,0-26.86-6.24-26.86-29.76,0-18.95,10.25-29.65,25.3-29.65,16.16,0,25.3,11.59,25.3,28.09v6.13ZM85.09,95.13a10.09,10.09,0,0,0-9.7-6,10.09,10.09,0,0,0-9.7,6,14.24,14.24,0,0,0-1.34,6.24H86.43A14.24,14.24,0,0,0,85.09,95.13Z"/><path d="M145.62,93.57c-2.23-2.23-4.12-3.46-7.69-3.46-4.46,0-9.36,3.34-9.36,10.7v35H114.07V77.74h14.16v5.57c2.79-3.34,8.36-6.24,14.6-6.24,5.68,0,9.7,1.45,13.71,5.46Z"/><path d="M183,135.81c-11.82,0-16.83-8.36-16.83-16.61V90.45H160v-11h6.13V62.25h14.49V79.41h10.25v11H180.62v27.87c0,3.34,1.56,5.24,5,5.24h5.24v12.26Z"/><path d="M203.81,67.82V56h14.83V67.82Zm.22,68V79.41h14.49v56.4Z"/><path d="M253.74,136.48c-9.14,0-17.28-1-24.75-8.36l9.47-9.47c4.68,4.79,11,5.46,15.49,5.46,5,0,10.25-1.67,10.25-6,0-2.9-1.45-4.91-6.13-5.35l-9.36-.89c-10.25-1-16.72-5.57-16.72-16.27,0-12.15,10.59-18.5,22.4-18.5,9.14,0,16.61,1.67,22.18,6.8l-8.92,9c-3.34-3-8.36-3.9-13.49-3.9-5.8,0-8.25,2.67-8.25,5.57s1.67,4.57,6,5l9.14.89c11.48,1.12,17.28,7.13,17.28,17.05C278.38,130.35,267.45,136.48,253.74,136.48Z"/><path d="M301.9,111.29c0,7.58,4.46,12.93,12.71,12.93,6.35,0,9.47-1.89,13.15-5.46l8.81,8.58c-5.91,6-11.59,9.14-22.07,9.14-13.71,0-26.86-6.24-26.86-29.76,0-18.95,10.25-29.65,25.3-29.65,16.16,0,25.3,11.59,25.3,28.09v6.13Zm20.73-16.16a10.82,10.82,0,0,0-19.4,0,14.24,14.24,0,0,0-1.34,6.24H324A14.24,14.24,0,0,0,322.63,95.13Z"/></g><path d="M303.92,78,303,74.65a26.87,26.87,0,0,0-32.88-19l-24.31,6.51a18.45,18.45,0,0,1-9.55-35.65L338.88-1.11l-1.74-6.48L234.55,20.05a25.17,25.17,0,1,0,13,48.62l24.31-6.51a20.15,20.15,0,0,1,24.66,14.24l.89,3.34a36.67,36.67,0,0,1-3.69,28L291.87,111,249.54,86.53a3.36,3.36,0,0,0-2.55-.33L16.59,147.93a10.07,10.07,0,0,0-7.12,12.33l25.18,94A10.07,10.07,0,0,0,47,261.36l230.4-61.74a3.35,3.35,0,0,0,2.09-1.65l32.45-60.39a13.36,13.36,0,0,0-5.11-18l-9.13-5.27,1.88-3.25A43.33,43.33,0,0,0,303.92,78Zm-19.74,59.75,2.89-5a6.59,6.59,0,0,1,.69,1.59,6.71,6.71,0,1,1-8.22-4.75,6.59,6.59,0,0,1,1.72-.2l-2.89,5Z"/><rect class="cls-3" x="24.44" y="133.14" width="225.18" height="6.71" transform="translate(-30.66 40.12) rotate(-15)"/><rect class="cls-3" x="44.42" y="207.69" width="225.18" height="6.71" transform="translate(-49.27 47.83) rotate(-15)"/><path class="cls-3" d="M111.77,186.14c-.1-1.57,5.12-3,5.21-1.4,1,11.87-.23,18.48-7.88,20.53-4.65,1.25-8.43-2.08-9.75-7-1.46-5.46-1.79-21.56-2-24.27-.67-8.58-3.13-11.78-8.14-10.43-1.74.47-6.55,3-6.54,12.07q.08.66.13,1.35l2.7,33.32a.84.84,0,0,1-.57.87l-3.39,1.14a1,1,0,0,1-1.36-.84l-2.75-34c-.87-10.78-4.32-9.93-8-9-2.18.58-7.21,3.33-6.86,13.46.58,4.46.94,9.61,1.4,15.14l1.48,18.16a.85.85,0,0,1-.72,1l-3.59,1a.77.77,0,0,1-1.1-.73L58.64,198c-.74-9.56-1.2-16.84-2.38-21.24-1-3.78-2.58-5.45-6-4.53-5.74,1.54-9.05,7.31-8.31,15.83a20,20,0,0,0,.58,3.38c1.12,4.17,3.59,7.35,8,6.16a.8.8,0,0,1,1.09.75l.3,3.47a1,1,0,0,1-.6,1.08c-9.71,2.66-12.53-4-13.89-9.07a24.49,24.49,0,0,1-.72-4.38C35.8,178,41,169.31,49.85,166.93c5.75-1.54,8.78.68,10.6,5.36,1.08-4.32,3.42-7.67,8.59-9.06,4.85-1.3,8.6.1,11,3.87,1.38-4.15,4-7.56,8.55-8.77,6.18-1.66,12.91-.42,14.1,14.48.23,2.94.57,18.85,1.86,23.66.79,2.93,2.69,4,4.37,3.57,2.78-.74,3.66-3.78,2.87-13.92Z"/><path class="cls-3" d="M140,178.56c-.1-1.57,5.12-3,5.21-1.4,1,11.87-.23,18.48-7.88,20.53a7.13,7.13,0,0,1-7.41-2.34c-1.2,3.95-3.61,5.31-6.51,6.09-8.44,2.26-10.52-4.4-11.57-15.3-1.35-14,2.54-18,8.13-19.46a6.79,6.79,0,0,1,5.71,1l-.1-1.21a.93.93,0,0,1,.78-1l3.5-.94a.78.78,0,0,1,1.05.74L132.62,188a5.85,5.85,0,0,0,.19,1.2c.69,2.59,2.57,3.57,4.08,3.17,2.95-.79,3.86-3.72,3.07-13.85Zm-13.19,4c-.44-6.86-1.18-12.44-5.73-11.22-2.42.65-5.09,1.51-4.12,13.31.78,7.82,1.14,12.84,6.11,11.51C126.61,195.25,127.58,191.53,126.76,182.61Z"/><path class="cls-3" d="M164.9,171.9c-.17-1.61,5-3,5.21-1.4.87,10.37-.34,18.51-7.76,20.5-4.34,1.16-7.92-.65-9.4-6.17-1-3.61-1.11-16.44-1.54-18-.58-2.15-3.92-2.09-7-2.7.24,4.07.54,8.69.78,13.09.06.8-1.3,1.61-2.65,2s-2.5.28-2.56-.57c-.34-6.47-.64-13-1.13-19.42-.21-1.72,5.12-3.28,5.21-1.4.36,4,10.74.45,12.43,6.75.71,2.65.64,14.5,1.5,17.69s2.64,3.87,4,3.51c2.71-.73,3.84-4.8,2.95-13.82Z"/><path class="cls-3" d="M182.78,150.31a.83.83,0,0,1,1.09.75l4.42,53.39a.89.89,0,0,1-.75,1l-3.43.92a.83.83,0,0,1-1.09-.75l-1.75-21.16a8.88,8.88,0,0,1-4.8,2.76c-8.44,2.26-10.48-4.41-11.57-15.3-1.35-14,2.54-18,8.13-19.46a6.8,6.8,0,0,1,5.67,1l-.1-1.2a.89.89,0,0,1,.75-1l3.43-.92ZM176.13,182c3.6-1,4.32-4.66,3.75-13.6-.44-6.86-2.24-12.16-5.73-11.22-2.42.65-5.23,1.53-4.12,13.31.78,7.82,1.14,12.84,6.11,11.51Z"/><path class="cls-3" d="M220.07,155.77c1.3-.35,2.79-.26,2.82.59.85,10.07-.26,18.37-7.91,20.42-3,.79-5.46.22-7.25-1.92a12.06,12.06,0,0,1-7.41,5.91c-4.69,1.26-8.12-.93-9.31-5.36a9.71,9.71,0,0,1-.39-2.64l-2-23.24a.89.89,0,0,1,.75-1l3.38-.9a.83.83,0,0,1,1.09.75l1.93,23a9.86,9.86,0,0,0,.27,1.75c.51,1.89,1.58,3,3.86,2.35,2.59-.69,5-3.65,5-8.23q-.07-.47-.12-1l-1.68-20.62a.89.89,0,0,1,.75-1l3.43-.92a.83.83,0,0,1,1.09.75l1.62,20.4a18.43,18.43,0,0,0,.42,2.79c.92,3.44,2.68,4.22,4.13,3.83,2.95-.79,3.76-5.39,3.1-13.74-.07-1,1.09-1.64,2.39-2Z"/><path class="cls-3" d="M233.16,172c-8.32,2.23-13.17-3.18-14.66-8.74a26.7,26.7,0,0,1-.73-4.51c-.73-8.45.38-18.26,8.49-20.43,5.24-1.4,8.25,1.53,9.27,5.36a11.88,11.88,0,0,1,.39,2.56c.34,8.27-5.26,10.75-12.67,13.3.11.4.19.81.33,1.32,1.07,4,4.73,7.05,9.25,5.84,7.17-1.92,8.5-8.12,7.93-15.16-.09-.86,1.28-1.78,2.64-2.14s2.52-.19,2.61.74c.7,9.14-1.15,18.72-12.84,21.86Zm-10.29-17.88c6.15-2,7.84-2.78,7.8-6.6a5.51,5.51,0,0,0-.19-1.53,3,3,0,0,0-3.83-2.38c-3.06.82-4,5.07-3.78,10.52Z"/><path class="cls-3" d="M251.73,167.19a15.58,15.58,0,0,1-3.61.74.8.8,0,0,1-.78-1l.58-3.82c.08-.57.47-.79,1.08-.7a9.7,9.7,0,0,0,2.39-.51,5.87,5.87,0,0,0,4.33-7.16c-1.17-4.38-4.31-7.5-10.11-11,.27,3.43.31,5,.38,6.44s-5.11,3.21-5.21,1.4c-.63-10.36-.87-16.39-1.11-18.59a.79.79,0,0,1,.69-1l3.51-.94a.82.82,0,0,1,1.13.64,10,10,0,0,0,.46,1.12c2.56,9.57,12.83,10.91,15.32,19.19,2.18,7.35-1.48,13.19-9.05,15.22Z"/></g></svg>