<svg xmlns="http://www.w3.org/2000/svg" xmlns:xlink="http://www.w3.org/1999/xlink" viewBox="0 0 320 320"><defs><style>.cls-1{fill:none;}.cls-2{clip-path:url(#clip-path);}</style><clipPath id="clip-path"><rect class="cls-1" width="320" height="320"/></clipPath></defs><title>mots clés_02</title><g id="icons"><g class="cls-2"><path d="M-1.78,51.51c-4,4.13-10.32,7.77-19.67,7.77S-37,55.64-41,51.51c-5.71-6.07-7.16-13.23-7.16-24.64S-46.69,8.42-41,2.35c4-4.13,10.2-7.77,19.54-7.77S-5.79-1.9-1.78,2.35c5.7,6.07,7.16,13.11,7.16,24.52S4,45.56-1.78,51.51ZM-14,11.57a10,10,0,0,0-7.41-2.79,9.88,9.88,0,0,0-7.28,2.79c-3.28,3.16-3.64,8.86-3.64,15.29s.36,12.26,3.64,15.42a9.88,9.88,0,0,0,7.28,2.79A10,10,0,0,0-14,42.28c3.28-3.16,3.64-8.86,3.64-15.42S-10.76,14.73-14,11.57Z"/><path d="M40.21,58.55c-12.87,0-18.33-9.1-18.33-18.09V9.15H15.21v-12h6.68V-21.56H37.66V-2.87H48.83v12H37.66V39.49c0,3.64,1.7,5.71,5.46,5.71h5.71V58.55Z"/><path d="M99.93,58.55V20.31c0-8.62-5.46-11.53-10.44-11.53S78.93,11.69,78.93,20.31V58.55H63.15V-27.88H78.93v29A20.27,20.27,0,0,1,94.35-5.42c6.31,0,11.41,2.06,14.93,5.58,5.1,5.1,6.43,11,6.43,18V58.55Z"/><path d="M145.08,31.84c0,8.25,4.86,14.08,13.84,14.08,6.92,0,10.32-2.06,14.32-5.95l9.59,9.35c-6.43,6.55-12.62,10-24,10-14.93,0-29.25-6.8-29.25-32.41,0-20.64,11.17-32.29,27.55-32.29,17.6,0,27.55,12.62,27.55,30.59v6.68Zm8.5-46.61L139.74-35.4h16.63l7.77,20.64Zm14.08,29a11.78,11.78,0,0,0-21.12,0,15.49,15.49,0,0,0-1.46,6.8h24A15.51,15.51,0,0,0,167.66,14.24Z"/><path d="M233.81,81.73V53c-4.13,4.61-9,6.31-15.42,6.31s-11.77-2.06-15.29-5.71c-6.07-6.19-6.55-16.14-6.55-26.7S197,6.48,203.1.28c3.52-3.64,9.1-5.7,15.42-5.7,6.68,0,11.29,1.82,15.66,6.68V-4.69h15.42V81.73ZM223,8.78c-9.47,0-10.68,7.89-10.68,18.09S213.54,45.08,223,45.08s10.8-7.89,10.8-18.21S232.47,8.78,223,8.78Z"/><path d="M303.72,58.55V52.72a21.64,21.64,0,0,1-15.78,6.55c-6.31,0-11.41-2.06-14.93-5.58-5.1-5.1-6.43-11-6.43-18V-4.69h15.78V33.54c0,8.62,5.46,11.53,10.44,11.53s10.56-2.91,10.56-11.53V-4.69h15.78V58.55Z"/><path d="M-21.83,218.45H-35.45l-25.64-69.57h18.29l14.15,43,14-43H3.68Z"/><path d="M51.75,167.84c-2.67-2.67-4.94-4.14-9.21-4.14-5.34,0-11.22,4-11.22,12.82v41.93H14V148.88h17v6.68c3.34-4,10-7.48,17.49-7.48,6.81,0,11.62,1.74,16.42,6.54Z"/><path d="M84.33,189.08c0,9.08,5.34,15.49,15.22,15.49,7.61,0,11.35-2.27,15.76-6.54l10.55,10.28c-7.08,7.21-13.89,10.95-26.44,10.95-16.42,0-32.18-7.48-32.18-35.65,0-22.7,12.28-35.52,30.31-35.52,19.36,0,30.31,13.89,30.31,33.65v7.34Zm24.84-19.36c-1.87-4.14-5.74-7.21-11.62-7.21s-9.75,3.07-11.62,7.21a17.06,17.06,0,0,0-1.6,7.48h26.44A17.06,17.06,0,0,0,109.16,169.71Z"/><path d="M166.71,219.25c-10.95,0-20.7-1.2-29.64-10l11.35-11.35c5.61,5.74,13.22,6.54,18.56,6.54,6,0,12.28-2,12.28-7.21,0-3.47-1.74-5.87-7.34-6.41l-11.22-1.07c-12.28-1.2-20-6.68-20-19.5,0-14.55,12.69-22.17,26.84-22.17,10.95,0,19.9,2,26.57,8.15L183.4,167c-4-3.61-10-4.67-16.16-4.67-6.94,0-9.88,3.2-9.88,6.68s2,5.47,7.21,6l11,1.07c13.75,1.34,20.7,8.55,20.7,20.43C196.22,211.91,183.13,219.25,166.71,219.25Z"/><path d="M270.88,324H266.4c3.49,3.49,5,6.77,5,12.75S269.79,347,266.8,350a16.63,16.63,0,0,1-11.65,4.28c-8.27,0-15-5.68-15-17.93V324.31h-2.59c-5.68,0-8.17,2.79-8.17,9.66,0,4.68,1.29,7.17,4.48,10l-8.07,8.17c-5.58-5.08-7.37-10-7.37-18.62,0-14.64,6.17-22.11,18.33-22.11h34.16Zm-21.91.3v9.86c0,5.18,2.09,7.67,6,7.67,3.59,0,5.88-2.49,5.88-7.87,0-3.19-.4-5.48-2.49-7.67-1.29-1.49-3.29-2-6.57-2Z"/><path d="M270.88,275v10.16L219,304.3V290.65l32.07-10.56L219,269.64V256Z"/><path d="M265.11,213.47c3.39,3.29,6.37,8.46,6.37,16.13s-3,12.75-6.37,16c-5,4.68-10.86,5.88-20.22,5.88s-15.14-1.2-20.12-5.88c-3.39-3.29-6.37-8.37-6.37-16s2.89-12.85,6.37-16.13c5-4.68,10.76-5.88,20.12-5.88S260.23,208.69,265.11,213.47Zm-32.77,10.06a9.07,9.07,0,0,0,0,12.05c2.59,2.69,7.27,3,12.55,3s10.06-.3,12.65-3a9.07,9.07,0,0,0,0-12.05c-2.59-2.69-7.27-3-12.65-3S234.93,220.84,232.34,223.53Z"/><path d="M210.13,195.45H199.57V182.2h10.56Zm60.75-.2H220.49V182.3h50.39Z"/><path d="M233.14,139.68c-2,2-3.09,3.68-3.09,6.87,0,4,3,8.37,9.56,8.37h31.27v12.95H219V155.21h5c-3-2.49-5.58-7.47-5.58-13,0-5.08,1.29-8.66,4.88-12.25Z"/><path d="M271.48,106.51c0,8.17-.9,15.44-7.47,22.11l-8.47-8.46c4.28-4.18,4.88-9.86,4.88-13.84,0-4.48-1.49-9.16-5.38-9.16-2.59,0-4.38,1.29-4.78,5.48l-.8,8.37c-.9,9.16-5,14.94-14.54,14.94-10.86,0-16.53-9.46-16.53-20,0-8.17,1.49-14.84,6.08-19.82l8.07,8c-2.69,3-3.49,7.47-3.49,12.05,0,5.18,2.39,7.37,5,7.37s4.08-1.49,4.48-5.38l.8-8.17c1-10.26,6.37-15.44,15.24-15.44C266,84.5,271.48,94.26,271.48,106.51Z"/><path d="M11.89,272.58v-4C8.81,271.7,5.9,273,.62,273s-9.06-1.41-11.7-4a14.69,14.69,0,0,1-3.78-10.3c0-7.3,5-13.29,15.84-13.29H11.62V243.1c0-5-2.46-7.22-8.54-7.22-4.14,0-6.34,1.14-8.8,4l-7.22-7.13c4.49-4.93,8.8-6.51,16.46-6.51,12.94,0,19.54,5.46,19.54,16.19v30.18Zm-.26-19.36H2.91c-4.58,0-6.78,1.85-6.78,5.28,0,3.17,2.2,5.19,7,5.19,2.82,0,4.84-.35,6.78-2.2,1.32-1.14,1.76-2.9,1.76-5.81Z"/><path d="M62,272.58V244.86c0-6.25-4-8.36-7.57-8.36s-7.66,2.11-7.66,8.36v27.72H35.38V226.74H46.56V231A15.69,15.69,0,0,1,58,226.21a14.89,14.89,0,0,1,10.82,4c3.7,3.7,4.66,8,4.66,13v29.3Z"/><path d="M104,273.11c-9.15,0-20.5-4.93-20.5-23.5s11.35-23.41,20.5-23.41c6.34,0,11.09,1.94,15.13,6.16l-7.74,7.74c-2.38-2.55-4.4-3.61-7.39-3.61a7.93,7.93,0,0,0-6.51,3c-1.76,2.2-2.55,5.28-2.55,10.12s.79,8,2.55,10.21a7.93,7.93,0,0,0,6.51,3c3,0,5-1.06,7.39-3.61l7.74,7.66C115.11,271.09,110.36,273.11,104,273.11Z"/><path d="M135.7,253.22c0,6,3.52,10.21,10,10.21,5,0,7.48-1.5,10.38-4.31l7,6.78c-4.66,4.75-9.15,7.22-17.42,7.22-10.82,0-21.21-4.93-21.21-23.5,0-15,8.1-23.41,20-23.41,12.76,0,20,9.15,20,22.18v4.84Zm16.37-12.76a8.54,8.54,0,0,0-15.31,0,11.24,11.24,0,0,0-1.06,4.93h17.42A11.24,11.24,0,0,0,152.07,240.46Z"/><path d="M190,273.11c-7.22,0-13.64-.79-19.54-6.6l7.48-7.48c3.7,3.78,8.71,4.31,12.23,4.31,4,0,8.1-1.32,8.1-4.75,0-2.29-1.14-3.87-4.84-4.22l-7.39-.7c-8.1-.79-13.2-4.4-13.2-12.85,0-9.59,8.36-14.61,17.69-14.61,7.22,0,13.11,1.32,17.51,5.37l-7,7.13c-2.64-2.38-6.6-3.08-10.65-3.08-4.58,0-6.51,2.11-6.51,4.4s1.32,3.61,4.75,4l7.22.7c9.06.88,13.64,5.63,13.64,13.46C209.45,268.27,200.82,273.11,190,273.11Z"/><path d="M19.36,327.74H11.61L-3,285.85H7.42l8.06,25.89,8-25.89H33.89Z"/><path d="M46.75,310.05c0,5.47,3,9.33,8.67,9.33,4.34,0,6.47-1.37,9-3.94l6,6.19c-4,4.34-7.91,6.59-15.06,6.59C46,328.22,37,323.72,37,306.76c0-13.67,7-21.39,17.27-21.39,11,0,17.27,8.36,17.27,20.26v4.42ZM60.9,298.39a7.21,7.21,0,0,0-13.24,0,10.77,10.77,0,0,0-.91,4.5H61.81A10.77,10.77,0,0,0,60.9,298.39Z"/><path d="M102.2,297.27A6.45,6.45,0,0,0,97,294.78c-3,0-6.39,2.41-6.39,7.72v25.25H80.68V285.85h9.66v4a13.1,13.1,0,0,1,10-4.5,11.63,11.63,0,0,1,9.36,3.94Z"/><path d="M127.69,327.74c-8.06,0-11.49-6-11.49-12V295H112v-8h4.18V274.68h9.89v12.38h7v8h-7v20.1c0,2.41,1.07,3.78,3.42,3.78h3.57v8.84Z"/><path d="M149.44,310.05c0,5.47,3,9.33,8.67,9.33,4.34,0,6.47-1.37,9-3.94l6,6.19c-4,4.34-7.91,6.59-15.06,6.59-9.36,0-18.33-4.5-18.33-21.47,0-13.67,7-21.39,17.27-21.39,11,0,17.27,8.36,17.27,20.26v4.42Zm14.15-11.66a7.21,7.21,0,0,0-13.24,0,10.77,10.77,0,0,0-.91,4.5H164.5A10.77,10.77,0,0,0,163.59,298.39Z"/><path d="M196.38,328.22c-6.24,0-11.79-.72-16.89-6l6.46-6.83c3.2,3.46,7.53,3.94,10.57,3.94,3.42,0,7-1.21,7-4.34,0-2.09-1-3.54-4.18-3.86l-6.39-.64c-7-.72-11.41-4-11.41-11.74,0-8.76,7.23-13.35,15.29-13.35,6.24,0,11.33,1.21,15.14,4.9l-6.08,6.51c-2.28-2.17-5.71-2.81-9.2-2.81-4,0-5.63,1.93-5.63,4s1.14,3.3,4.11,3.62l6.24.64c7.83.8,11.79,5.15,11.79,12.3C213.19,323.8,205.74,328.22,196.38,328.22Z"/><path d="M279.27,161.32H338V200H327.8V172.79H314V196H303.78V172.79H289.5V200H279.27Z"/><path d="M279.27,234l12.88-7.92-12.87-7.84V205.4l22,14.86,21-14.28v12.88L310,226.11l12.3,7.34v12.88l-21-14.28-22,14.86Z"/><path d="M282.65,285.46a14.41,14.41,0,0,1-3.88-10.4c0-4.37,1.16-7.68,4.29-10.4H263.51V253.93h58.76v10.4h-4c3.3,3,4.54,6.11,4.54,10.73a14.41,14.41,0,0,1-3.88,10.4c-4.21,4.13-10.89,4.46-18.07,4.46S286.86,289.58,282.65,285.46Zm30.46-13.54c0-6.44-5.36-7.26-12.3-7.26s-12.38.83-12.38,7.26,5.45,7.26,12.38,7.26S313.11,278.36,313.11,271.92Z"/><path d="M279.27,312.28c0-8.83,6.19-12.54,12.3-12.54H338v10.73H292.23c-2.56,0-3.88,1.07-3.88,3.8v4.13h-9.08Z"/><path d="M26.9,136.6c-3.52,3.62-9.06,6.82-17.27,6.82S-4,140.22-7.53,136.6c-5-5.33-6.29-11.62-6.29-21.64s1.28-16.2,6.29-21.53C-4,89.8,1.43,86.6,9.63,86.6s13.75,3.09,17.27,6.82c5,5.33,6.29,11.51,6.29,21.53S32,131.37,26.9,136.6ZM16.14,101.53a8.76,8.76,0,0,0-6.5-2.45,8.67,8.67,0,0,0-6.4,2.45C.36,104.3,0,109.31,0,115s.32,10.77,3.2,13.54a8.68,8.68,0,0,0,6.4,2.45,8.76,8.76,0,0,0,6.5-2.45c2.88-2.77,3.2-7.78,3.2-13.54S19,104.3,16.14,101.53Z"/><path d="M64.64,143.42c-8.74,0-16.52-1-23.67-8L50,126.36c4.48,4.58,10.55,5.22,14.82,5.22,4.8,0,9.81-1.6,9.81-5.76,0-2.77-1.39-4.69-5.86-5.12l-9-.85c-9.81-1-16-5.33-16-15.56,0-11.62,10.13-17.7,21.43-17.7,8.74,0,15.88,1.6,21.21,6.5L78,101.74C74.76,98.86,70,98,65.06,98c-5.54,0-7.89,2.56-7.89,5.33s1.6,4.37,5.76,4.8l8.74.85c11,1.07,16.52,6.82,16.52,16.31C88.2,137.55,77.75,143.42,64.64,143.42Z"/><path d="M99.6,77.75V66.45h14.18v11.3Zm.21,65V88.84h13.86v53.94Z"/><path d="M146.5,142.78c-11.3,0-16.1-8-16.1-15.88V99.39h-5.86V88.84h5.86V72.42h13.86V88.84h9.81V99.39h-9.81V126c0,3.2,1.49,5,4.8,5h5v11.73Z"/><path d="M177,119.33c0,7.25,4.26,12.37,12.15,12.37,6.08,0,9.06-1.81,12.58-5.22l8.42,8.21c-5.65,5.76-11.09,8.74-21.11,8.74-13.11,0-25.69-6-25.69-28.46,0-18.12,9.81-28.35,24.2-28.35,15.46,0,24.2,11.09,24.2,26.86v5.86Zm19.83-15.46a10.35,10.35,0,0,0-18.55,0,13.62,13.62,0,0,0-1.28,6h21.11A13.61,13.61,0,0,0,196.81,103.87Zm-5.54-25.48H182l6.82-18.12h14.6Z"/><path d="M279.49,149.81V70.45h52.28V84.27H295v18.62h31.32v13.82H295V136h36.78v13.82Z"/></g></g></svg>