<svg xmlns="http://www.w3.org/2000/svg" xmlns:xlink="http://www.w3.org/1999/xlink" viewBox="0 0 320 320"><defs><style>.cls-1{fill:none;}.cls-2{fill:#fff;}.cls-3{clip-path:url(#clip-path);}</style><clipPath id="clip-path"><rect class="cls-1" x="-420.67" y="462.11" width="320" height="320"/></clipPath></defs><title>Indice de classement</title><g id="icons"><rect class="cls-1" width="320" height="320.4"/><path d="M280.05,164h-6.88V70.61a23.91,23.91,0,0,0-23.88-23.88H167a13,13,0,0,1-12.19-8.31l-3.64-9.27A23.75,23.75,0,0,0,128.94,14H82.89A23.91,23.91,0,0,0,59,37.88V164H52.12a5.4,5.4,0,0,0-5.4,5.4V289h0v11.29a5.4,5.4,0,0,0,5.4,5.4H280.05a5.4,5.4,0,0,0,5.4-5.4V169.4A5.4,5.4,0,0,0,280.05,164ZM69.79,37.88A13.11,13.11,0,0,1,82.89,24.79h46.06a13,13,0,0,1,12.19,8.31l3.64,9.27A23.74,23.74,0,0,0,167,57.52h82.29a13.11,13.11,0,0,1,13.09,13.09V91h0a23.75,23.75,0,0,0-13.1-3.92H167a13,13,0,0,1-12.18-8.3l-3.64-9.28a23.75,23.75,0,0,0-22.23-15.15H82.88a23.73,23.73,0,0,0-13.09,3.92Zm0,40.32A13.1,13.1,0,0,1,82.88,65.12h46.06a13,13,0,0,1,12.18,8.3l3.64,9.28A23.75,23.75,0,0,0,167,97.85h82.29a13.11,13.11,0,0,1,13.1,13v20.4a23.75,23.75,0,0,0-13.09-3.92H167a13,13,0,0,1-12.18-8.3l-3.64-9.28a23.75,23.75,0,0,0-22.23-15.15H82.88a23.73,23.73,0,0,0-13.09,3.92Zm0,40.33a13.1,13.1,0,0,1,13.09-13.09h46.06a13,13,0,0,1,12.18,8.3l3.64,9.28A23.75,23.75,0,0,0,167,138.17h82.29a13.11,13.11,0,0,1,13.09,13.06V164H69.79Z"/><path class="cls-2" d="M118.48,268.72c-10.94,0-20.46-7.17-20.46-20V220.44c0-12.82,9.52-20,20.46-20s20.37,7.17,20.37,20v28.29C138.85,261.56,129.42,268.72,118.48,268.72Zm8.11-48.09c0-5.66-3.21-9.15-8.11-9.15s-8.2,3.49-8.2,9.15v28c0,5.66,3.3,9.05,8.2,9.05s8.11-3.4,8.11-9.05Z"/><path class="cls-2" d="M149.6,246.94V235.53h29v11.41Z"/><path class="cls-2" d="M225.32,239.11l-14.24,29h-13.3l14-27.72a13.28,13.28,0,0,1-5,.85c-9.05,0-17.73-7.45-17.73-19.9,0-13.2,9.05-20.93,20.93-20.93s20.93,7.45,20.93,20.75C230.88,227.33,228.34,233,225.32,239.11Zm-15.37-27.63c-5,0-8.68,3.58-8.68,9.81,0,5.94,3.49,9.81,8.68,9.81,5,0,8.67-3.58,8.67-9.81S214.94,211.48,209.95,211.48Z"/></g></svg>