<?xml version="1.0" encoding="utf-8"?>
<!-- Generator: Adobe Illustrator 26.0.1, SVG Export Plug-In . SVG Version: 6.00 Build 0)  -->
<svg version="1.1" id="Calque_1" xmlns="http://www.w3.org/2000/svg" xmlns:xlink="http://www.w3.org/1999/xlink" x="0px" y="0px"
	 viewBox="0 0 150 150" style="enable-background:new 0 0 150 150;" xml:space="preserve">
<style type="text/css">
	.st0{fill:#FFFFFF;}
</style>
<path class="st0" d="M0,37.5c0-10.4,8.4-18.8,18.8-18.8l0,0h112.5c10.4,0,18.8,8.4,18.8,18.8v75c0,10.4-8.4,18.8-18.8,18.8H18.8
	C8.4,131.2,0,122.9,0,112.5V37.5z M18.8,28.1c-5.2,0-9.4,4.2-9.4,9.4c0,0,0,0,0,0v1.9L75,78.8l65.7-39.3v-1.9c0-5.2-4.2-9.4-9.4-9.4
	L18.8,28.1z M140.7,50.5L96.5,77l44.2,27.1V50.5z M140.4,114.9L87.4,82.4L75,89.9l-12.4-7.5L9.7,114.9c1.1,4.1,4.8,7,9.1,7h112.5
	C135.5,121.9,139.2,119,140.4,114.9L140.4,114.9z M9.4,104.1L53.5,77L9.4,50.5V104.1z"/>
</svg>
