<?xml version="1.0" encoding="utf-8"?>
<!-- Generator: Adobe Illustrator 26.0.1, SVG Export Plug-In . SVG Version: 6.00 Build 0)  -->
<svg version="1.1" xmlns="http://www.w3.org/2000/svg" xmlns:xlink="http://www.w3.org/1999/xlink" x="0px" y="0px"
	 viewBox="0 0 150 150" style="enable-background:new 0 0 150 150;" xml:space="preserve">
<style type="text/css">
	.st0{fill:#FFFFFF;}
</style>
<g id="Calque_2">
</g>
<g id="Calque_1">
	<g>
		<path class="st0" d="M10,53h38.1V15h52v41.9h10V15c0-5.5-4.5-10-10-10l0,0H34.4L0,39.3V135c0,5.5,4.5,10,10,10h90
			c5.5,0,10-4.5,10-10H10V53z M10,43.4L38.5,15H40v29.9H10.1L10,43.4z"/>
		<path class="st0" d="M121.7,66.7c-2.1-1.8-5.3-1.6-7.1,0.5c-1.6,1.9-1.6,4.6,0,6.5L130.9,90H70c-2.8,0.2-4.9,2.6-4.7,5.3
			c0.2,2.5,2.2,4.5,4.7,4.7h61l-16.4,16.4c-1.9,2-1.9,5.2,0.1,7.1c1.7,1.6,4.3,1.9,6.3,0.5c0.2-0.2,0.4-0.4,0.6-0.6L150,95
			L121.7,66.7z"/>
	</g>
</g>
</svg>
