<svg xmlns="http://www.w3.org/2000/svg" viewBox="0 0 13.9 13.9"><defs><style>.cls-1{fill:#5f5f5f;}</style></defs><title>Fichier 38</title><g id="Calque_2" data-name="Calque 2"><g id="Tooltip"><path class="cls-1" d="M7,0a7,7,0,1,0,7,7A6.95,6.95,0,0,0,7,0ZM8.4,10.77l-.86.33a2.35,2.35,0,0,1-.74.11,1.49,1.49,0,0,1-1-.32,1,1,0,0,1-.36-.81,2.53,2.53,0,0,1,0-.38,2.86,2.86,0,0,1,.08-.45L6,7.67c0-.15.07-.3.1-.43a1.73,1.73,0,0,0,0-.37A.61.61,0,0,0,6,6.44a.74.74,0,0,0-.48-.11,1.12,1.12,0,0,0-.36,0l-.31.1L5,6a8.73,8.73,0,0,1,.84-.31,2.38,2.38,0,0,1,.76-.13,1.47,1.47,0,0,1,1,.31,1,1,0,0,1,.35.81A2.88,2.88,0,0,1,7.9,7a2.16,2.16,0,0,1-.09.48L7.37,9.1a3.92,3.92,0,0,0-.1.43,2.38,2.38,0,0,0,0,.37.55.55,0,0,0,.14.43.79.79,0,0,0,.49.11,1.8,1.8,0,0,0,.37,0l.3-.1Zm-.08-6.4a1.08,1.08,0,0,1-.75.29,1.13,1.13,0,0,1-.76-.29.93.93,0,0,1-.31-.7A1,1,0,0,1,6.81,3a1.13,1.13,0,0,1,.76-.29A1.08,1.08,0,0,1,8.32,3a1,1,0,0,1,.31.71.9.9,0,0,1-.31.7Z"/></g></g></svg>