<svg xmlns="http://www.w3.org/2000/svg" viewBox="0 0 21.85 25"><defs><style>.cls-1{fill:#fff;}</style></defs><g id="Calque_2" data-name="Calque 2"><g id="Erreur"><g id="icons"><path class="cls-1" d="M17.48,14.57,11.73,3.82A.82.82,0,0,0,11,3.38h0a.84.84,0,0,0-.73.44L4.5,14.58a.84.84,0,0,0,.34,1.12.9.9,0,0,0,.39.1H16.74a.83.83,0,0,0,.83-.83.76.76,0,0,0-.1-.39ZM11,14.14a.83.83,0,1,1,.83-.83h0A.83.83,0,0,1,11,14.14Zm.83-3.3a.83.83,0,0,1-1.66,0V7.53a.83.83,0,0,1,1.66,0Z"/><path class="cls-1" d="M10.93,0A10.93,10.93,0,0,0,3.8,19.21v5.26a.53.53,0,0,0,.35.49.41.41,0,0,0,.19,0,.55.55,0,0,0,.4-.18l3-3.45A10.93,10.93,0,1,0,10.93,0Zm0,20.79a10.23,10.23,0,0,1-3.2-.54.54.54,0,0,0-.58.15L4.87,23V19a.55.55,0,0,0-.19-.42,9.86,9.86,0,1,1,6.25,2.24Z"/></g></g></g></svg>