<svg xmlns="http://www.w3.org/2000/svg" viewBox="0 0 25 25"><defs><style>.cls-1{fill:#fff;}</style></defs><title>Fichier 6</title><g id="Calque_2" data-name="Calque 2"><g id="Imrpimer"><polygon class="cls-1" points="6.25 4.69 6.25 1.56 18.75 1.56 18.75 4.69 20.31 4.69 20.31 0 4.69 0 4.69 4.69 6.25 4.69"/><path class="cls-1" d="M0,17.19H4.69V25H20.31V17.19H25V6.25H0ZM21.87,7.81a1.57,1.57,0,1,1-1.56,1.57A1.57,1.57,0,0,1,21.87,7.81ZM6.25,12.5h12.5V23.44H6.25Z"/><rect class="cls-1" x="7.81" y="14.06" width="6.25" height="1.56"/><rect class="cls-1" x="7.81" y="17.19" width="9.38" height="1.56"/><rect class="cls-1" x="7.81" y="20.31" width="9.38" height="1.56"/></g></g></svg>