<svg xmlns="http://www.w3.org/2000/svg" viewBox="0 0 25 25.03"><defs><style>.cls-1{fill:none;}.cls-2{fill:#fff;}</style></defs><g id="Calque_2" data-name="Calque 2"><g id="Calque_48" data-name="Calque 48"><g id="icons"><rect class="cls-1" width="25" height="25.03"/><path class="cls-2" d="M12.5,12.26c2.57,0,4.66-2.53,4.66-5.66S16.47,1,12.5,1,7.84,3.48,7.84,6.61,9.93,12.26,12.5,12.26Z"/><path class="cls-2" d="M21.29,20.67c-.09-5.44-.8-7-6.24-8a3.28,3.28,0,0,1-2.55,1,3.25,3.25,0,0,1-2.55-1c-5.38,1-6.14,2.5-6.24,7.8,0,.43,0,.45,0,.4v.57s1.3,2.61,8.8,2.61,8.8-2.61,8.8-2.61v-.42A2.41,2.41,0,0,1,21.29,20.67Z"/></g></g></g></svg>