<svg xmlns="http://www.w3.org/2000/svg" viewBox="0 0 24.67 18.13"><defs><style>.cls-1{fill:#fff;}</style></defs><g id="Calque_2" data-name="Calque 2"><g id="Calque_1-2" data-name="Calque 1"><path class="cls-1" d="M23.3,0H1.37A1.37,1.37,0,0,0,0,1.37v15.4a1.36,1.36,0,0,0,1.37,1.36H23.3a1.36,1.36,0,0,0,1.37-1.36V1.37A1.37,1.37,0,0,0,23.3,0ZM2.55.91H22.09a1.69,1.69,0,0,1,1.13.44L12.33,10.69,1.41,1.35A1.62,1.62,0,0,1,2.55.91ZM.91,15.9V2.33L8.79,9.2Zm21.18,1.32H2.55a1.67,1.67,0,0,1-1.14-.45L9.5,9.85l2.83,2.48,2.82-2.48,8.07,6.92A1.55,1.55,0,0,1,22.09,17.22Zm1.65-1.32L15.86,9.2l7.88-6.85Z"/></g></g></svg>