<svg xmlns="http://www.w3.org/2000/svg" viewBox="0 0 23.53 25"><defs><style>.cls-1{fill:#fff;}</style></defs><g id="Calque_2" data-name="Calque 2"><g id="Partage"><path class="cls-1" d="M19,8.93A4.47,4.47,0,0,0,19,0a4.47,4.47,0,0,0-4.3,3.31A4.42,4.42,0,0,0,15.1,6.7,4.49,4.49,0,0,0,19,8.93ZM16.41,3.78a2.63,2.63,0,0,1,1.23-1.61,2.65,2.65,0,1,1-1,3.62,2.62,2.62,0,0,1-.26-2ZM8.74,10.7l5.19-3a.65.65,0,0,0-.66-1.13l-5.18,3a.65.65,0,0,0,.65,1.13Zm14.64,8.68a4.47,4.47,0,1,0-.45,3.39,4.42,4.42,0,0,0,.45-3.39Zm-2,2.48a2.64,2.64,0,1,1,.27-2,2.62,2.62,0,0,1-.27,2ZM14,17.29l-5.18-3a.65.65,0,0,0-.66,1.13l5.18,3A.65.65,0,0,0,14,17.29ZM3.65,8.94a3.65,3.65,0,1,0,3.64,3.65A3.66,3.66,0,0,0,3.65,8.94Zm0,5.48a1.84,1.84,0,1,1,1.83-1.83,1.84,1.84,0,0,1-1.83,1.83Z"/></g></g></svg>