<svg xmlns="http://www.w3.org/2000/svg" viewBox="0 0 26.67 25"><defs><style>.cls-1{fill:#fff;}</style></defs><title>Fichier 9</title><g id="Calque_2" data-name="Calque 2"><g id="Suggestion"><path class="cls-1" d="M25.82,19.56A4.3,4.3,0,0,0,23.4,17.8h0l-3.54-.74-1.49-2.28-5,4.31L9.09,15.43l-.66-.55L6.84,17.05l-3.54.74h0A4.26,4.26,0,0,0,.85,19.56,4.87,4.87,0,0,0,0,22.29V25H26.67V22.29A4.87,4.87,0,0,0,25.82,19.56ZM11.64,24.11H.89V22.29a3.77,3.77,0,0,1,2.6-3.63l3.43-.72L10.63,23l1-1.07a1.16,1.16,0,0,0,.32.44Zm0-3.42h0l-1,1L7.65,17.43l.87-1.32,4.16,3.58Zm.85,3.42.27-1.34h1l.27,1.34Zm1.68-2.67a.45.45,0,0,1-.44.45h-.89a.44.44,0,0,1-.44-.45v-.26l.88-.88.89.88ZM14,19.69l4.15-3.58L19,17.43,16,21.65l-1-1h0Zm11.79,4.42H15l-.34-1.7A1.25,1.25,0,0,0,15,22L16.05,23l3.7-5.08,3.42.72a3.78,3.78,0,0,1,2.61,3.63Z"/><path class="cls-1" d="M23,.91l-.84,0V0h-.31C16,0,14,1.41,13.34,2.18,12.69,1.41,10.71,0,4.82,0H4.51V.93l-.84,0H3v13.4h.68c7.29,0,8.78,1.67,9,2H14c.23-.33,1.75-2,9-2h.68V.91ZM12.88,13.7c-1-.75-3.15-1.62-7.61-1.67V.77c6.24.08,7.45,1.79,7.61,2.07ZM21.4,12c-4.46.05-6.59.92-7.61,1.67V2.84C14,2.53,15.2.85,21.4.77Z"/></g></g></svg>